<?xml version="1.0" encoding="UTF-8"?>
<svg xmlns="http://www.w3.org/2000/svg" xmlns:xlink="http://www.w3.org/1999/xlink" viewBox="0 0 1080 1080">
  <defs>
    <style>
      .cls-1 {
        fill: none;
      }

      .cls-2 {
        fill: #6f7631;
      }

      .cls-3 {
        fill: url(#New_Pattern_Swatch_14);
      }

      .cls-4 {
        clip-path: url(#clippath-1);
      }

      .cls-5 {
        clip-path: url(#clippath-3);
      }

      .cls-6 {
        clip-path: url(#clippath-4);
      }

      .cls-7 {
        clip-path: url(#clippath-2);
      }

      .cls-8 {
        fill: #7b8536;
      }

      .cls-9 {
        fill: #363917;
      }

      .cls-10 {
        fill: #2c190e;
      }

      .cls-11 {
        clip-path: url(#clippath);
      }

      .cls-12 {
        fill: #db8836;
      }
    </style>
    <clipPath id="clippath">
      <rect class="cls-1" y="0" width="1080" height="1080"/>
    </clipPath>
    <pattern id="New_Pattern_Swatch_14" data-name="New Pattern Swatch 14" x="0" y="0" width="1080" height="1080" patternTransform="translate(-4521.3 -5169.14) rotate(.11) scale(.5)" patternUnits="userSpaceOnUse" viewBox="0 0 1080 1080">
      <g class="cls-11">
        <rect class="cls-1" y="0" width="1080" height="1080"/>
        <rect class="cls-2" y="0" width="1080" height="1080"/>
        <g>
          <path class="cls-9" d="M157.93,62.23c4.74,15.78-15.9,65.56,11.17,61.77,58.16-12.22,53.4-12.76,54.96-68.56-9.51-82.7,14.94-86.25-50.51-89.99-18.95-.76-22.8,5.14-20.69,23.82,2.73,24.21,4.39,48.6,5.07,72.96Z"/>
          <path class="cls-9" d="M171.6,596.39c3.66,22.87,5.98,46.03,7.89,69.14,3.43,41.44-.94,39.85,31.37,28.79,31.02-20.68,6.41-67.98,7.05-93.93-2.79-22.99-4.87-25.29-25.26-24.54-13.91,1.01-26.24-.22-21.06,20.54Z"/>
          <path class="cls-9" d="M18.74,591.43c-13.05,1.79-39.59-6.78-40.77,9.11,2.87,26.35-20.08,90.03.56,107.23,77.38,22.02,56.15-58.09,64.8-93.55,2.26-18.85-.28-21.66-24.6-22.79Z"/>
          <path class="cls-9" d="M-11.75,123.8c28.49,5.37,44.47-4.82,48.21-33.58-.89-25.74,20.96-102.56-1.35-115.24C-7.25-34.2-30.94-35.05-20.98,11.07c-2.35,30.18-2.94,60.65-7.73,90.44-2.69,16.72,5.19,20.06,16.95,22.28Z"/>
          <path class="cls-9" d="M71.41,109.87c68.18.41,65.21,11.17,64.13-59.38-3.01-43.54,13.59-81.51-48.17-76.61-10.99-.14-16.67,4.74-18.25,14.79.13,24-18.91,111.33,2.3,121.19Z"/>
          <path class="cls-9" d="M161.33,655.36c-3.48-10.13.47-54.77-13.43-56.9-22.74-.03-61.53-12.19-74.38,3.06,1.84,21.64-25.3,84.59-3.06,97.38,89.51.26,90.56,8.68,90.87-43.55Z"/>
          <path class="cls-9" d="M-32.84,572.84c9.25,31.21,43.45,5.7,62.32,3.87,20.06-14.2,9.42-80.01,13.08-107.42-3.56-22.71-33.17-18.65-47.53-22.97-35.2-13.39-28.87,102.07-27.88,126.53Z"/>
          <path class="cls-9" d="M35.04,920.54c-13.81-3.03-24.58-5.16-33.01-6.24-8.43-1.08-14.48-1.14-18.28-.43-1.75.13-4.75,1.13-4.75,3.13-5,26-8,51-14.63,76.21,2.15,9.46,2.47,17.43,2.54,23.98.22,19.65-1.81,26.46,36.41,22.02,22.78-.42,35.33-11.9,38-37.14.32-15.38,7.49-75.17-6.28-81.53Z"/>
          <path class="cls-9" d="M234.59,318.95c1.81-24.42-13.24-17.14-20.34-20.59-46.05-.21-32.51,46.57-33.48,108.31,4.28,29.12,31.34,5.65,43.18,5.18,10.68-4.7,8.48-73.42,10.63-92.91Z"/>
          <path class="cls-9" d="M116.35,919.9c-56.41-2.82-53.77.5-52.81,54.54.81.12-11.77,55.71,2.98,63.66,24.85,4.03,64.11,15.35,62.29-24.34-1.94-24.12,18.89-88.74-12.46-93.85Z"/>
          <path class="cls-9" d="M96.73,453.49c-20.13,2.9-35.99,4.34-34.81,27.41-.19,29.86-2.63,59.72-2.63,89.58,2.42,23.67,39.76,17.04,58.19,18.95,44.77,1.52,31.01-54.33,37.29-81.83-.86-55.34-3.36-57.76-58.04-54.11Z"/>
          <path class="cls-9" d="M217.24,819.93c-23.07,1.98-65.29-2.2-62.57,24.55,3.38,25.72-14.87,64.56,37.83,51.86,16.97-1.93,35.97-4.75,38.19-22.65-2.44-15.36,16.89-52.99-13.46-53.75Z"/>
          <path class="cls-9" d="M181.8,562.92c13.85-1.38,36.28,9.66,35.48-28.29-1.64-21.17,7.71-89.39-4.48-95.66-48.77-4.58-37.16-21.45-42.58,66.57.26.04-5.1,58.28,11.57,57.37Z"/>
          <path class="cls-9" d="M168.46,917.65c-26.92-10.07-14.19,58.97-18.21,74.85-3.49,42.53,12.22,42.1,45.67,39.76,7.55-5.2,20.18-11.08,20.64-17.62,2.18-31.01.97-62.32.97-91.19-17.69-1.94-33.62-2.48-49.08-5.82Z"/>
          <path class="cls-9" d="M132.3,827.1c-61.92-7.01-63.72,27.28-67.33,64.5,6.05,15.78,35.73,8.74,51.98,11.2,28.82,4.83,28.96-66.74,15.35-75.7Z"/>
          <path class="cls-9" d="M166.3,334.83c2.29-37.44-49.07-18.83-69.58-10.63-28.45,16.27-21.98,52.08-27.48,78.75-9.28,37.12,19.06,35.59,49.92,35.23,15.45-.13,36.29,4.01,39.81-14.57,5.51-29.1,5.65-59.12,7.33-88.78Z"/>
          <path class="cls-9" d="M49.18,858.01c-2.15-36.59.56-34.07-48.24-29.17-13.59,1.01-21.83,7.35-22.27,17.82,3.16,36.8-20.49,66.35,47.2,48.82,22.75-1.6,29.2-18.9,23.31-37.47Z"/>
          <path class="cls-9" d="M27.68,313.28c-53.46,4.4-51.93,36.53-49.46,93.21.17,24.51.28,24.51,25.47,24.38,10.94-2.87,41.56-5.46,44.47-29,2.96-22.45,9.6-93.51-20.48-88.59Z"/>
          <path class="cls-9" d="M-15.99,259.02c-1.63,45.16,4.77,41.23,37.36,39,36.94-1.72,44.16-40.06,42.24-79.67,2.93-35.71-38.04-12.89-52.5-8.58-27.27,12.44-27.11,13-27.1,49.25Z"/>
          <path class="cls-9" d="M37.08,756.03c-33.48,7.06-55.26,6.35-53.99,36.18,2.39,7.6.29,20.64,10.75,24.28,41.4,4.68,74.62-8.29,69.43-44.4.28-16.8-6.08-20.2-26.2-16.06Z"/>
          <path class="cls-9" d="M192.46,187.19c-33.79,7.4-33.76,7.58-33.65,51.46.1,39.88,1.33,41.41,31.38,39.15,34.85-2.63,47.68-19.42,47.71-62.45,3.14-38.9-24.02-29.91-45.45-28.15Z"/>
          <path class="cls-9" d="M125.79,757.28c-22.97,1.64-55.26-1.52-51.03,25.56,5.04,10.49-6.37,36.72,16.07,33.62,17.14-3.13,48.09,3.77,56.84-11.06,1.9-17.86,15.68-52.91-21.87-48.12Z"/>
          <path class="cls-9" d="M129.28,202.65c-17.33,2.9-53.12-2.72-52.53,29.52,4.56,17.09-9.15,69.07,12.33,66.06,10.65-1.63,21.28-3.33,31.92-5,9.92-.7,24.27,7.7,26.6-12.23-.98-24.24,13.02-81.71-18.31-78.36Z"/>
          <path class="cls-9" d="M207.19,754.36c-40.79,4.59-46.58-2.32-44.59,41.89.45,12.45,5.55,16.22,21.51,16.17,59.57,8.65,85.06-69.82,23.08-58.07Z"/>
          <path class="cls-9" d="M71.41,187.31c28-3.49,60.94,17.97,59.51-39.4,2.84-40.05-46.31-13.76-64.32-12.21-19.82,4.95-15.86,54.77,4.81,51.61Z"/>
          <path class="cls-9" d="M55.31,730.86c.38,17.67,22.35,17.07,38.55,16.84,23.84,2.32,41.74-3.12,38-28.23-1.21-11.36-11.42-11.16-21.31-10.48-19,3.17-58-.7-55.24,21.87Z"/>
          <path class="cls-9" d="M144.51,738.37c8.72,21.59,50.86,6.48,68.25,4.92,12.74-2.99,13.74-12.68,13.06-20.83-3.25-16.12-50.93-.39-66.58-2.77-18.37.48-14.84,10.19-14.73,18.68Z"/>
          <path class="cls-9" d="M156.17,180.73c25.46.89,71.4,10.9,70.8-36.59.7-22.87-60.68-6.63-73.35-4.78-17.21,3.5-8.5,38.03,2.55,41.37Z"/>
          <path class="cls-9" d="M29.25,720.23c-14.02,1.43-51.62-6.22-59,2.41-6.39,9.33,1.44,21.36,15.17,23.57,15.2-.1,54.87,12.12,57.67-13.25-.37-7.09-1.85-12.69-13.84-12.73Z"/>
          <path class="cls-9" d="M-19.96,182.15c14.58,8.72,38.38,11.93,53.58,4.06,4.25-3.38,9.27-13.4,7.99-17.78-2.56-8.81,4.06-26-12.24-25.22-27.44,2.63-79.8-14.32-49.33,38.94Z"/>
          <path class="cls-9" d="M358.59,58.47c3.04,15.78-10.21,65.56,7.17,61.77,37.35-12.22,34.29-12.76,35.29-68.56-6.11-82.7,9.59-86.25-32.43-89.99-12.17-.76-14.64,5.14-13.29,23.82,1.75,24.21,2.82,48.6,3.26,72.96Z"/>
          <path class="cls-9" d="M354.54,645.47c1.47,23.1,1.67,46.38,1.49,69.57-.32,41.58-4.27,39.6,26.88,31.51,21.21-5.93,15.61-28.11,16.29-48.27.23-.02-1.28-29.76-1.69-44.63-.64-23.15-2.39-25.62-21.52-26.73-13.09-.26-24.52-2.6-21.44,18.55Z"/>
          <path class="cls-9" d="M268.67,647.33c-8.38,1.56-25.42-5.89-26.18,7.91,1.85,22.9-12.89,78.24.36,93.19,49.69,19.13,36.06-50.49,41.62-81.3,1.45-16.38-.18-18.82-15.8-19.81Z"/>
          <path class="cls-9" d="M249.62,120.04c18.3,5.37,28.56-4.82,30.96-33.58-.57-25.74,13.46-102.56-.87-115.24-27.21-9.17-42.41-10.03-36.02,36.1-1.51,30.18-1.89,60.65-4.96,90.44-1.73,16.72,3.33,20.06,10.89,22.28Z"/>
          <path class="cls-9" d="M303.03,106.11c43.78.41,41.88,11.17,41.18-59.38-1.93-43.54,8.73-81.51-30.93-76.61-7.06-.14-10.7,4.74-11.72,14.79.08,24-12.14,111.33,1.47,121.19Z"/>
          <path class="cls-9" d="M337.06,638.64c-10.87-.03-29.41-12.19-35.55,3.06-2.39,29.63-4.27,59.32-5.83,89.03.96,15.84,29.22,6.78,38.68,7.94,14.58-3.52,6.2-29.97,8.37-43.08.24-.02.96-54.83-5.68-56.95Z"/>
          <path class="cls-9" d="M236.07,576.67c5.94,31.21,27.9,5.7,40.02,3.87,12.88-14.19,6.05-80.01,8.4-107.42-2.28-22.71-21.3-18.65-30.52-22.97-7.99-2-13.64,3.52-14.86,20.52-2.31,39.47-6.53,61.96-3.04,106.01Z"/>
          <path class="cls-9" d="M279.67,916.28c-53.21-18.19-36.19-3.71-45.38,72.67.45.11-5.16,49.93,25.01,46,14.63-.42,22.69-11.9,24.4-37.14.21-15.38,4.81-75.17-4.03-81.53Z"/>
          <path class="cls-9" d="M355.38,406.45c-1.7,24.42,12.43,17.14,19.09,20.59,43.23.21,30.52-46.57,31.43-108.31-4.02-29.12-29.42-5.65-40.54-5.18-10.03,4.7-7.97,73.42-9.98,92.91Z"/>
          <path class="cls-9" d="M331.89,915.64c-36.23-2.82-34.53.5-33.91,54.54.52.12-7.56,55.71,1.91,63.66,15.96,4.03,41.17,15.35,40-24.34-1.24-24.12,12.13-88.74-8-93.85Z"/>
          <path class="cls-9" d="M313.14,440.78c-9.62,2.9-17.2,4.34-16.64,27.41-.09,29.86-1.26,59.72-1.25,89.58,1.16,23.67,19,17.04,27.81,18.95,21.4,1.52,14.82-54.33,17.82-81.83-.41-55.34-1.61-57.76-27.74-54.11Z"/>
          <path class="cls-9" d="M396.68,816.99c-14.81,1.98-41.93-2.2-40.18,24.55,2.17,25.72-9.55,64.56,24.3,51.86,10.9-1.93,23.1-4.75,24.53-22.65-1.56-15.36,10.85-52.99-8.64-53.75Z"/>
          <path class="cls-9" d="M370.18,573.77c13.01-1.38,34.06,9.66,33.31-28.29-1.54-21.17,7.24-89.39-4.21-95.66-45.78-4.58-34.89-21.45-39.97,66.57.25.04-4.79,58.28,10.87,57.37Z"/>
          <path class="cls-9" d="M365.35,913.4c-17.29-10.07-9.11,58.97-11.7,74.85-2.24,42.53,7.85,42.1,29.33,39.76,4.85-5.2,12.96-11.08,13.26-17.62,1.4-31.01.63-62.32.63-91.19-11.36-1.94-21.59-2.48-31.52-5.82Z"/>
          <path class="cls-9" d="M342.13,824.16c-39.76-7.01-40.92,27.28-43.24,64.5,3.88,15.78,22.95,8.74,33.38,11.2,18.51,4.83,18.6-66.74,9.86-75.7Z"/>
          <path class="cls-9" d="M346.39,332.12c1.09-37.44-23.45-18.83-33.26-10.63-13.6,16.27-10.5,52.08-13.14,78.75-4.44,37.12,9.11,35.59,23.86,35.23,7.38-.13,17.34,4.01,19.03-14.57,2.63-29.1,2.7-59.12,3.51-88.78Z"/>
          <path class="cls-9" d="M288.75,855.07c-1.38-36.59.36-34.07-30.98-29.17-8.72,1.01-14.02,7.35-14.3,17.82,2.03,36.8-13.16,66.35,30.31,48.82,14.61-1.6,18.75-18.9,14.97-37.47Z"/>
          <path class="cls-9" d="M280.93,322c-34.33,4.4-33.35,36.53-31.76,93.21.11,24.51.18,24.51,16.36,24.38,7.03-2.87,26.69-5.46,28.56-29,1.9-22.45,6.17-93.51-13.15-88.59Z"/>
          <path class="cls-9" d="M298.06,164.98c1.05-40.7-3.06-37.17-23.99-35.15-23.72,1.55-28.54,19.52-27.31,55.23-1.88,32.19,24.61,28.21,33.9,24.32,17.51-11.21,17.41-11.72,17.41-44.39Z"/>
          <path class="cls-9" d="M280.98,753.09c-21.5,7.06-35.49,6.35-34.67,36.18,1.53,7.6.19,20.64,6.9,24.28,26.59,4.68,47.92-8.29,44.59-44.4.18-16.8-3.9-20.2-16.82-16.06Z"/>
          <path class="cls-9" d="M390.6,130.67c-21.7,6.67-21.68,6.84-21.61,46.38.07,35.95.86,37.33,20.15,35.29,22.38-2.37,30.62-17.51,30.64-56.3,2.02-35.06-15.42-26.96-29.18-25.38Z"/>
          <path class="cls-9" d="M337.95,754.34c-14.75,1.64-35.49-1.52-32.77,25.56,3.24,10.49-4.09,36.72,10.32,33.62,11.01-3.13,30.88,3.77,36.5-11.06,1.22-17.86,10.07-52.91-14.05-48.12Z"/>
          <path class="cls-9" d="M342.01,126.66c-11.13,2.61-34.11-2.45-33.73,26.61,2.93,15.4-5.88,62.26,7.92,59.55,6.84-1.47,13.67-3,20.5-4.5,6.37-.63,15.59,6.94,17.08-11.02-.63-21.86,8.36-73.65-11.76-70.63Z"/>
          <path class="cls-9" d="M390.22,751.41c-26.19,4.59-29.91-2.32-28.64,41.89.29,12.45,3.56,16.22,13.82,16.17,38.26,8.65,54.62-69.82,14.82-58.07Z"/>
          <path class="cls-9" d="M431.35,301.78c17.98-2.81,39.14,14.47,38.22-31.73,1.83-32.26-29.74-11.09-41.31-9.84-12.73,3.99-10.19,44.12,3.09,41.57Z"/>
          <path class="cls-9" d="M292.86,608.64c.24,17.67,14.35,17.07,24.76,16.84,15.31,2.32,26.81-3.12,24.4-28.23-.78-11.36-7.33-11.16-13.69-10.48-12.2,3.17-37.25-.7-35.47,21.87Z"/>
          <path class="cls-9" d="M349.09,607.06c5.6,21.59,32.66,6.48,43.83,4.92,8.18-2.99,8.82-12.68,8.38-20.83-2.09-16.12-32.71-.39-42.76-2.77-11.8.48-9.53,10.19-9.46,18.68Z"/>
          <path class="cls-9" d="M363.76,302.99c16.35.71,45.85,8.78,45.47-29.47.85-18.45-39.6-5.34-47.1-3.85-11.05,2.82-5.46,30.63,1.63,33.32Z"/>
          <path class="cls-9" d="M274.83,602.95c-9,1.43-33.15-6.22-37.89,2.41-8.34,21.74,17.06,26.94,26.58,25.08,10.79-.18,22.25,3.41,20.2-14.77-.24-7.08-1.19-12.69-8.88-12.72Z"/>
          <path class="cls-9" d="M251.35,306.93c9.36,7.03,24.64,9.61,34.41,3.27,2.73-2.72,5.95-10.8,5.13-14.32-1.64-7.1,2.6-20.94-7.86-20.31-17.62,2.12-51.24-11.54-31.68,31.36Z"/>
          <path class="cls-9" d="M593.26,50.72c6.14,15.78-20.59,65.56,14.46,61.77,75.3-12.22,69.14-12.76,71.16-68.56-12.31-82.7,19.34-86.25-65.4-89.99-24.54-.76-29.52,5.14-26.79,23.82,3.53,24.21,5.69,48.6,6.57,72.96Z"/>
          <path class="cls-9" d="M590.42,575.01c3.12,27.53,3.54,55.27,3.16,82.91-.69,49.55-9.05,47.18,56.96,37.55,44.94-7.07,31.79-92.98,30.92-110.71-1.36-27.58-5.07-30.53-45.6-31.85-27.74-.31-51.95-3.1-45.43,22.1Z"/>
          <path class="cls-9" d="M442.05,625.55c-8.38,1.79-25.42-6.78-26.18,9.11,1.85,26.35-12.89,90.03.36,107.23,49.69,22.02,36.06-58.09,41.62-93.55,1.45-18.85-.18-21.66-15.8-22.79Z"/>
          <path class="cls-9" d="M423.01,112.29c6.1,1.79,11.3,1.85,15.24.54,5.74-.82,7.74-5.82,7.74-10.82,3-21,3-43,10-63.38,1.39-6.34,2.15-14.43,2.7-22.43,1.65-24.01,1.57-46.38-5.59-52.72-27.21-9.17-42.41-10.03-36.02,36.1-1.51,30.18-1.89,60.65-4.96,90.44-1.73,16.72,3.33,20.06,10.89,22.28Z"/>
          <path class="cls-9" d="M483.42,100.36c11.58-2.36,23.58-6.36,35.58-3.36,5.5,1,11.5.94,17.31-.13,17.42-3.2,33.12-15.42,28.42-35.07-.02-2.15-.06-4.43-.11-6.83-.1-4.8-.23-10.12-.35-15.99-3.9-43.54,17.6-81.51-62.37-76.61-14.23-.14-21.58,4.74-23.63,14.79.08,10.8-4.87,34.43-7.84,58.04-.99,7.87-1.85,10.92-2.33,18.04-.1,15.75-1.1,32.75,9.09,45.77,1.69,1.26,3.68,1.63,6.23,1.35Z"/>
          <path class="cls-9" d="M558.73,569.24c-23.96-.04-64.86-15.11-78.39,3.8,1.94,26.83-26.66,104.9-3.23,120.75,29.43-2.93,93.08,12.7,94.33-18.26-.79-11.87,1.93-103.66-12.72-106.3Z"/>
          <path class="cls-9" d="M417.4,553.8c3.96,31.52,27.49,7.44,39.7,6.38,13.74-13.36,11.07-79.47,15.15-106.68-.85-22.81-20.09-19.96-29.01-24.85-7.85-2.5-13.83,2.66-16.12,19.55-4.79,39.25-10.41,61.43-9.71,105.61Z"/>
          <path class="cls-9" d="M453.06,907.52c-53.21-18.19-36.19-3.71-45.38,72.67.45.11-5.16,49.93,25.01,46,14.63-.42,22.69-11.9,24.4-37.14.21-15.38,4.81-75.17-4.03-81.53Z"/>
          <path class="cls-9" d="M690.53,240.04c5.24-24.1-23.71-18.97-36.84-23.43-62.07-4.83-68.57,18.58-69.56,54.73-.1,3.62-.36,7.33-.44,11.2s-.06,7.86-.02,11.91-.08,8.21-.3,12.45c-.22,4.24-.54,8.56-1,12.95,3.54,17.79,23.97,17.86,44.59,15.34,3.44-.42,6.88-.82,10.26-1.3s6.67-1.01,9.81-1.48,6.13-.83,8.91-1.06c2.77-.22,5.32-.31,7.56-.19,20.51-3.17,21.53-72.01,27.04-91.13Z"/>
          <path class="cls-9" d="M548.84,903.57c-73.04-2.82-69.63.5-68.38,54.54,1.05.12-15.24,55.71,3.86,63.66,32.18,4.03,83.01,15.35,80.65-24.34-2.51-24.12,24.45-88.74-16.13-93.85Z"/>
          <path class="cls-9" d="M525.21,417.73c-19.4,2.9-34.69,4.34-33.54,27.41-.18,29.86-2.54,59.72-2.53,89.58,2.34,23.67,38.31,17.04,56.07,18.95,43.14,1.52,29.88-54.33,35.93-81.83-.83-55.34-3.24-57.76-55.93-54.11Z"/>
          <path class="cls-9" d="M670.06,822.22c-29.87,1.98-84.54-2.2-81.01,24.55,4.37,25.72-19.26,64.56,48.99,51.86,21.97-1.93,46.57-4.75,49.45-22.65-3.15-15.36,21.87-52.99-17.43-53.75Z"/>
          <path class="cls-9" d="M615.46,537.65c27.56-1.46,72.17,10.15,70.59-29.73-3.26-22.25,15.34-93.94-8.92-100.53-97.02-4.81-73.93-22.54-84.7,69.97.53.04-10.15,61.25,23.03,60.3Z"/>
          <path class="cls-9" d="M608.52,913.4c-34.85-10.07-18.37,58.97-23.58,74.85-4.52,42.53,15.83,42.1,59.14,39.76,9.77-5.2,26.13-11.08,26.73-17.62,2.82-31.01,1.26-62.32,1.26-91.19-22.9-1.94-43.53-2.48-63.54-5.82Z"/>
          <path class="cls-9" d="M564.08,816.86c-80.17-7.01-82.51,27.28-87.18,64.5,7.83,15.78,46.27,8.74,67.3,11.2,37.31,4.83,37.5-66.74,19.88-75.7Z"/>
          <path class="cls-9" d="M579.21,238.27c5.01-37.17-45.74-22.33-66.06-15.63-7.14,3.54-14.11,1.79-17.91,7.58-3.8,5.79-2.98,19.1-4.67,26.46-1.69,7.36-3.42,14.8-5.08,21.8s-2.84,14.14-4.66,20.69c-11.71,36.34,15.65,36.87,45.32,38.74,14.86.99,34.57,6.62,39.35-11.65,7.48-28.61,9.87-58.54,13.72-88Z"/>
          <path class="cls-9" d="M462.14,849.01c-1.38-36.59.36-34.07-30.98-29.17-8.72,1.01-14.02,7.35-14.3,17.82,2.03,36.8-13.16,66.35,30.31,48.82,14.61-1.6,18.75-18.9,14.97-37.47Z"/>
          <path class="cls-9" d="M455.62,307.66c-34.58,1.51-36.29,33.61-39.45,90.22-1.94,24.43-1.87,24.44,14.26,25.67,7.24-2.27,27.05-3.2,30.89-26.51,3.78-22.21,13.97-92.67-5.69-89.38Z"/>
          <path class="cls-9" d="M428.23,173.43c.24,3.77-.27,7.98-.69,12.23s-.74,8.51-.49,12.08c3.89,18.54,28.89,5.92,41.06.5,3.12-2.41,4.72-4,6.53-8.24,3.63-8.48,4.3-17.9,2.3-26.91-1.83-9.36-5.16-18.39-8.16-27.5-3.06-9.3-15.53-12.82-24.05-6.9-11.59,8.06-20,18.66-16.5,33.64-.01,3.17-.01,6.9-.01,11.08Z"/>
          <path class="cls-9" d="M454.37,747.03c-21.5,7.06-35.49,6.35-34.67,36.18,1.53,7.6.19,20.64,6.9,24.28,26.59,4.68,47.92-8.29,44.59-44.4.18-16.8-3.9-20.2-16.82-16.06Z"/>
          <path class="cls-9" d="M651.49,112.37c-44.18,4.09-44.16,4.28-47.31,48.04-2.86,39.78-1.39,41.43,37.58,42.09,45.2.77,63.02-14.73,66.29-57.64,6.98-38.48-28.76-32.16-56.56-32.49Z"/>
          <path class="cls-9" d="M551.65,748.28c-29.74,1.64-71.55-1.52-66.07,25.56,6.53,10.49-8.25,36.72,20.8,33.62,22.19-3.13,62.26,3.77,73.59-11.06,2.46-17.86,20.3-52.91-28.32-48.12Z"/>
          <path class="cls-9" d="M566.46,109.33c-16.46-3.33-32.46,1.67-47.46-3.33-5-1.5-10.16-.69-14.14,1.97s-7.36,6.53-7.86,12.03c-2,23,0,45-5.47,67.79.2,2.99.71,5.89,1.7,8.33,1.98,4.88,5.87,7.86,12.86,7.64,11.56-.49,23.11-1.03,34.66-1.56,2.31-.11,4.62-.21,6.89-.37,12.37-.82,30.37,4.18,35.32-9.83.04-2.19.31-4.9.71-7.87s1.16-5.98,2-9.18c4.33-20.94,18.33-55.94-10.99-64.05-2.43-.65-5.17-1.18-8.22-1.57Z"/>
          <path class="cls-9" d="M657.04,745.36c-52.81,4.59-60.31-2.32-57.74,41.89.58,12.45,7.18,16.22,27.86,16.17,77.14,8.65,110.13-69.82,29.88-58.07Z"/>
          <path class="cls-9" d="M508.06,410.86c36.26-3.49,78.91,17.97,77.05-39.4,3.68-40.05-59.96-13.76-83.28-12.21-25.67,4.95-20.54,54.77,6.23,51.61Z"/>
          <path class="cls-9" d="M460.39,721.86c.49,17.67,28.94,17.07,49.92,16.84,30.86,2.32,54.05-3.12,49.2-28.23-1.56-11.36-14.78-11.16-27.6-10.48-24.6,3.17-75.1-.7-71.52,21.87Z"/>
          <path class="cls-9" d="M575.89,729.37c11.29,21.59,65.86,6.48,88.37,4.92,16.5-2.99,17.79-12.68,16.9-20.83-4.21-16.12-65.95-.39-86.2-2.77-23.79.48-19.22,10.19-19.07,18.68Z"/>
          <path class="cls-9" d="M613.24,389.22c32.97.89,92.45,10.91,91.67-36.59,1.7-22.91-79.85-6.63-94.97-4.78-22.29,3.5-11.01,38.03,3.3,41.36Z"/>
          <path class="cls-9" d="M448.45,587.15c-9,1.43-33.15-6.22-37.89,2.41-4.11,9.33.92,21.36,9.74,23.57,9.76-.1,35.23,12.12,37.03-13.25-.24-7.09-1.19-12.69-8.89-12.73Z"/>
          <path class="cls-9" d="M306.59,300.88c4.68,3.51,10.84,5.92,17.05,6.65s12.47-.07,17.41-2.73c7.71-9.6,14.71-30.54-.29-33.77-13-2.42-38-9.67-41.61,7.45-.05,4.85,2.13,11.91,7.44,22.4Z"/>
          <path class="cls-9" d="M279.04,220.35c-17.98,2.81-39.14-14.47-38.22,31.73-1.83,32.26,29.74,11.09,41.31,9.84,12.73-3.99,10.19-44.12-3.09-41.57Z"/>
          <path class="cls-9" d="M305.57,261.68c16.35.71,45.85,8.78,45.47-29.47.85-18.45-39.6-5.34-47.1-3.85-11.05,2.82-5.46,30.63,1.63,33.32Z"/>
          <path class="cls-9" d="M461.66,217.75c-9.36-7.03-24.64-9.61-34.41-3.27-2.73,2.72-5.95,10.8-5.13,14.32,1.64,7.1-2.6,20.94,7.86,20.31,17.62-2.12,51.24,11.54,31.68-31.36Z"/>
          <path class="cls-9" d="M364.77,249.88c4.68,3.51,10.84,5.92,17.05,6.65s12.47-.07,17.41-2.73c7.71-9.6,14.71-30.54-.29-33.77-13-2.42-38-9.67-41.61,7.45-.05,4.85,2.13,11.91,7.44,22.4Z"/>
          <path class="cls-9" d="M942.85,47.79c6.14,15.78-20.59,65.56,14.46,61.77,75.3-12.22,69.14-12.76,71.16-68.56-12.31-82.7,19.34-86.25-65.4-89.99-24.54-.76-29.52,5.14-26.79,23.82,3.53,24.21,5.69,48.6,6.57,72.96Z"/>
          <path class="cls-9" d="M935.76,587.37c2.97,23.1,3.37,46.38,3,69.57-.65,41.58-8.61,39.6,54.19,31.51,59.44-9.28,24.76-65.35,29.43-92.91-1.3-23.15-4.83-25.63-43.4-26.73-26.4-.26-49.44-2.6-43.23,18.55Z"/>
          <path class="cls-9" d="M750.42,564.92c-15.91,5.97-51.32,6.29-48.81,22.05,10.21,24.58-2.59,93.67,27.59,103.63,102.51-3.81,55.81-74.47,57.77-111.6-1.9-18.98-5.78-20.87-36.55-14.07Z"/>
          <path class="cls-9" d="M723.15,109.36c36.89,5.37,57.58-4.82,62.43-33.58-1.16-25.74,27.13-102.56-1.75-115.24-54.85-9.17-85.52-10.03-72.62,36.1-3.04,30.18-3.81,60.65-10,90.44-3.48,16.72,6.72,20.06,21.95,22.28Z"/>
          <path class="cls-9" d="M830.83,95.43c88.27.41,84.43,11.17,83.03-59.38-3.9-43.54,17.6-81.51-62.37-76.61-14.23-.14-21.58,4.74-23.63,14.79.17,24-24.48,111.33,2.97,121.19Z"/>
          <path class="cls-9" d="M157.93,1142.23c4.74,15.78-15.9,65.56,11.17,61.77,58.16-12.22,53.4-12.76,54.96-68.56-9.51-82.7,14.94-86.25-50.51-89.99-18.95-.76-22.8,5.14-20.69,23.82,2.73,24.21,4.39,48.6,5.07,72.96Z"/>
          <path class="cls-9" d="M-11.75,1203.8c28.49,5.37,44.47-4.82,48.21-33.58-.89-25.74,20.96-102.56-1.35-115.24-42.37-9.17-66.05-10.03-56.09,36.1-2.35,30.18-2.94,60.65-7.73,90.44-2.69,16.72,5.19,20.06,16.95,22.28Z"/>
          <path class="cls-9" d="M1098.74,591.43c-13.05,1.79-39.59-6.78-40.77,9.11,2.87,26.35-20.08,90.03.56,107.23,77.38,22.02,56.15-58.09,64.8-93.55,2.26-18.85-.28-21.66-24.6-22.79Z"/>
          <path class="cls-9" d="M1068.25,123.8c28.49,5.37,44.47-4.82,48.21-33.58-.89-25.74,20.96-102.56-1.35-115.24-42.37-9.17-66.05-10.03-56.09,36.1-2.35,30.18-2.94,60.65-7.73,90.44-2.69,16.72,5.19,20.06,16.95,22.28Z"/>
          <path class="cls-9" d="M1047.16,572.84c9.24,31.21,43.45,5.7,62.32,3.87,20.05-14.19,9.42-80.01,13.08-107.42-3.56-22.71-33.17-18.65-47.53-22.97-12.45-2-21.24,3.52-23.14,20.52-3.59,39.47-10.16,61.96-4.74,106.01Z"/>
          <path class="cls-9" d="M1115.04,920.54c-82.85-18.19-56.35-3.71-70.67,72.67,8.58,37.83-12.01,51.92,38.95,46,22.78-.42,35.33-11.9,38-37.14.32-15.38,7.49-75.17-6.28-81.53Z"/>
          <path class="cls-9" d="M1129.18,858.01c-2.15-36.59.56-34.07-48.24-29.17-13.59,1.01-21.83,7.35-22.27,17.82,3.16,36.8-20.49,66.35,47.2,48.82,22.75-1.6,29.2-18.9,23.31-37.47Z"/>
          <path class="cls-9" d="M1107.68,313.28c-53.46,4.4-51.93,36.53-49.46,93.21.17,24.51.28,24.51,25.47,24.38,10.94-2.87,41.56-5.46,44.47-29,2.96-22.45,9.6-93.51-20.48-88.59Z"/>
          <path class="cls-9" d="M1064.01,259.02c-1.63,45.16,4.77,41.23,37.36,39,36.94-1.72,44.16-40.06,42.24-79.67,2.93-35.71-38.04-12.89-52.5-8.58-27.27,12.44-27.11,13-27.1,49.25Z"/>
          <path class="cls-9" d="M1117.08,756.03c-33.48,7.06-55.26,6.35-53.99,36.18,2.39,7.6.29,20.64,10.75,24.28,41.4,4.68,74.62-8.29,69.43-44.4.28-16.8-6.08-20.2-26.2-16.06Z"/>
          <path class="cls-9" d="M1109.25,720.23c-14.02,1.43-51.62-6.22-59,2.41-11.68,20.69,21.43,26.3,41.3,25.97,14.04-3.02,35.52,4.07,31.53-15.65-.37-7.08-1.85-12.69-13.83-12.72Z"/>
          <path class="cls-9" d="M1060.04,182.15c14.58,8.72,38.38,11.93,53.58,4.06,4.25-3.38,9.27-13.4,7.99-17.78-2.56-8.81,4.06-26-12.24-25.22-27.44,2.63-79.8-14.32-49.33,38.94Z"/>
          <path class="cls-9" d="M1068.25,1203.8c28.49,5.37,44.47-4.82,48.21-33.58-.89-25.74,20.96-102.56-1.35-115.24-42.37-9.17-66.05-10.03-56.09,36.1-2.35,30.18-2.94,60.65-7.73,90.44-2.69,16.72,5.19,20.06,16.95,22.28Z"/>
          <path class="cls-9" d="M71.41,1189.87c68.18.41,65.21,11.17,64.13-59.38-3.01-43.54,13.59-81.51-48.17-76.61-10.99-.14-16.67,4.74-18.25,14.79.13,24-18.91,111.33,2.3,121.19Z"/>
          <path class="cls-9" d="M358.59,1138.47c3.04,15.78-10.21,65.56,7.17,61.77,37.35-12.22,34.29-12.76,35.29-68.56-6.11-82.7,9.59-86.25-32.43-89.99-12.17-.76-14.64,5.14-13.29,23.82,1.75,24.21,2.82,48.6,3.26,72.96Z"/>
          <path class="cls-9" d="M249.62,1200.04c18.3,5.37,28.56-4.82,30.96-33.58-.57-25.74,13.46-102.56-.87-115.24-27.21-9.17-42.41-10.03-36.02,36.1-1.51,30.18-1.89,60.65-4.96,90.44-1.73,16.72,3.33,20.06,10.89,22.28Z"/>
          <path class="cls-9" d="M303.03,1186.11c43.78.41,41.88,11.17,41.18-59.38-1.93-43.54,8.73-81.51-30.93-76.61-7.06-.14-10.7,4.74-11.72,14.79.08,24-12.14,111.33,1.47,121.19Z"/>
          <path class="cls-9" d="M593.26,1130.72c6.14,15.78-20.59,65.56,14.46,61.77,75.3-12.22,69.14-12.76,71.16-68.56-12.31-82.7,19.34-86.25-65.4-89.99-24.54-.76-29.52,5.14-26.79,23.82,3.53,24.21,5.69,48.6,6.57,72.96Z"/>
          <path class="cls-9" d="M423.01,1192.29c18.3,5.37,28.56-4.82,30.96-33.58-.57-25.74,13.46-102.56-.87-115.24-27.21-9.17-42.41-10.03-36.02,36.1-1.51,30.18-1.89,60.65-4.96,90.44-1.73,16.72,3.33,20.06,10.89,22.28Z"/>
          <path class="cls-9" d="M481.24,1178.36c88.27.41,84.43,11.17,83.03-59.38-3.9-43.54,17.6-81.51-62.37-76.61-14.23-.14-21.58,4.74-23.63,14.79.17,24-24.48,111.33,2.97,121.19Z"/>
          <path class="cls-9" d="M942.85,1127.79c6.14,15.78-20.59,65.56,14.46,61.77,75.3-12.22,69.14-12.76,71.16-68.56-12.31-82.7,19.34-86.25-65.4-89.99-24.54-.76-29.52,5.14-26.79,23.82,3.53,24.21,5.69,48.6,6.57,72.96Z"/>
          <path class="cls-9" d="M723.15,1189.36c36.89,5.37,57.58-4.82,62.43-33.58-1.16-25.74,27.13-102.56-1.75-115.24-54.85-9.17-85.52-10.03-72.62,36.1-3.04,30.18-3.81,60.65-10,90.44-3.48,16.72,6.72,20.06,21.95,22.28Z"/>
          <path class="cls-9" d="M830.83,1175.43c88.27.41,84.43,11.17,83.03-59.38-3.9-43.54,17.6-81.51-62.37-76.61-14.23-.14-21.58,4.74-23.63,14.79.17,24-24.48,111.33,2.97,121.19Z"/>
          <path class="cls-9" d="M913.47,644.07c-3.35-10.13.45-54.77-12.94-56.9-21.92-.03-59.3-12.19-71.68,3.06,1.78,21.64-24.38,84.59-2.95,97.38,85.86-.16,86.21,9.88,87.57-43.55Z"/>
          <path class="cls-9" d="M705.3,540.91c11.97,31.21,56.25,5.7,80.69,3.87,25.96-14.19,12.2-80.01,16.94-107.42-4.61-22.71-42.95-18.65-61.54-22.97-16.11-2-27.5,3.52-29.97,20.52-4.65,39.47-13.16,61.96-6.13,106.01Z"/>
          <path class="cls-9" d="M783.74,904.21c-107.28-18.19-72.96-3.71-91.5,72.67.91.11-10.41,49.93,50.43,46,29.5-.42,45.75-11.9,49.2-37.14.41-15.38,9.7-75.17-8.13-81.53Z"/>
          <path class="cls-9" d="M1039.41,262.64c5.24-24.1-23.71-18.97-36.84-23.43-86.9-6.76-64.87,41.82-71.33,103.25,5.9,29.65,58.73,10.09,81.12,11.31,20.51-3.17,21.53-72.01,27.04-91.13Z"/>
          <path class="cls-9" d="M875.69,911.14c-73.04-2.82-69.63.5-68.38,54.54,1.05.12-15.24,55.71,3.86,63.66,32.18,4.03,83.01,15.35,80.65-24.34-2.51-24.12,24.45-88.74-16.13-93.85Z"/>
          <path class="cls-9" d="M851.21,435.42c-19.4,2.9-34.69,4.34-33.54,27.41-.18,29.86-2.54,59.72-2.53,89.58,2.34,23.67,38.31,17.04,56.07,18.95,43.14,1.52,29.88-54.33,35.93-81.83-.83-55.34-3.24-57.76-55.93-54.11Z"/>
          <path class="cls-9" d="M1019.65,808.64c-29.87,1.98-84.54-2.2-81.01,24.55,4.37,25.72-19.26,64.56,48.99,51.86,21.97-1.93,46.57-4.75,49.45-22.65-3.15-15.36,21.87-52.99-17.43-53.75Z"/>
          <path class="cls-9" d="M950.71,560.4c26.22-1.38,68.67,9.66,67.17-28.29-3.1-21.17,14.6-89.39-8.49-95.66-92.31-4.58-70.34-21.45-80.59,66.57.5.04-9.65,58.28,21.91,57.37Z"/>
          <path class="cls-9" d="M956.48,888.53c-34.85-10.07-18.37,58.97-23.58,74.85-4.52,42.53,15.83,42.1,59.14,39.76,9.77-5.2,26.13-11.08,26.73-17.62,2.82-31.01,1.26-62.32,1.26-91.19-22.9-1.94-43.53-2.48-63.54-5.82Z"/>
          <path class="cls-9" d="M893.21,806.54c-80.45,2.06-78.91,36.41-79.36,73.91,9.56,14.8,46.96,3.47,68.14,3.54,37.62.6,29.74-70.54,11.23-77.46Z"/>
          <path class="cls-9" d="M917.13,263.72c5.01-37.17-45.74-22.33-66.06-15.63-28.56,14.17-25.03,50.34-32.33,76.54-11.71,36.34,15.65,36.87,45.32,38.74,14.86.99,34.57,6.62,39.35-11.65,7.48-28.61,9.87-58.54,13.72-88Z"/>
          <path class="cls-9" d="M808.08,842.72c-2.78-36.59.73-34.07-62.46-29.17-17.59,1.01-28.27,7.35-28.84,17.82,4.09,36.8-26.53,66.35,61.12,48.82,29.46-1.6,37.8-18.9,30.18-37.47Z"/>
          <path class="cls-9" d="M775.1,231.42c-69.36-.81-69.79,31.38-70.86,88.13-1.62,24.46-1.48,24.47,31.05,26.79,14.35-1.8,54.07-1.4,59.6-24.59,5.51-22.09,19.42-92.31-19.79-90.33Z"/>
          <path class="cls-9" d="M710.34,172.13c-5.5,44.87,3.06,41.58,45.31,42.52,47.82,1.88,60.03-35.65,60.52-75.34,6.46-35.33-48.14-16.55-67.14-13.66-36.14,9.75-35.98,10.32-38.69,46.47Z"/>
          <path class="cls-9" d="M786.38,744.74c-43.35,7.06-71.55,6.35-69.9,36.18,3.09,7.6.38,20.64,13.92,24.28,53.61,4.68,96.62-8.29,89.9-44.4.36-16.8-7.87-20.2-33.92-16.06Z"/>
          <path class="cls-9" d="M988.99,137.79c-44.18,4.09-44.16,4.28-47.31,48.04-2.86,39.78-1.39,41.43,37.58,42.09,45.2.77,63.02-14.73,66.29-57.64,6.98-38.48-28.76-32.16-56.56-32.49Z"/>
          <path class="cls-9" d="M893.29,742.34c-29.74,1.64-71.55-1.52-66.07,25.56,6.53,10.49-8.25,36.72,20.8,33.62,22.19-3.13,62.26,3.77,73.59-11.06,2.46-17.86,20.3-52.91-28.32-48.12Z"/>
          <path class="cls-9" d="M901.42,129.99c-22.6,1.2-68.38-7.88-70.04,24.33,4.6,17.48-17,67.98,10.96,67.07,13.87-.59,27.73-1.25,41.59-1.88,12.86.27,30.76,10.04,35.26-9.61.55-24.27,22.94-80.21-17.76-79.92Z"/>
          <path class="cls-9" d="M995.96,743.06c-52.81,4.59-60.31-2.32-57.74,41.89.58,12.45,7.18,16.22,27.86,16.17,77.14,8.65,110.13-69.82,29.88-58.07Z"/>
          <path class="cls-9" d="M854.28,426.92c36.26-3.49,78.91,17.97,77.05-39.4,3.68-40.05-59.96-13.76-83.28-12.21-25.67,4.95-20.54,54.77,6.23,51.61Z"/>
          <path class="cls-9" d="M809.98,719.57c.49,17.67,28.94,17.07,49.92,16.84,30.86,2.32,54.05-3.12,49.2-28.23-1.56-11.36-14.78-11.16-27.6-10.48-24.6,3.17-75.1-.7-71.52,21.87Z"/>
          <path class="cls-9" d="M925.48,727.07c-.28,15.6,28.88,5.83,38.45,11.02,27.43-3.42,74.64-2.87,66.82-26.93-4.19-16.12-65.95-.39-86.2-2.77-23.79.48-19.22,10.19-19.07,18.68Z"/>
          <path class="cls-9" d="M964.04,426.44c32.97.89,92.45,10.9,91.67-36.59.91-22.87-78.57-6.63-94.97-4.78-22.29,3.5-11.01,38.03,3.3,41.37Z"/>
          <path class="cls-9" d="M776.24,708.94c-18.15,1.43-66.84-6.22-76.4,2.41-15.12,20.69,27.75,26.3,53.48,25.97,18.17-3.02,45.99,4.07,40.83-15.65-.48-7.08-2.39-12.69-17.91-12.72Z"/>
          <path class="cls-9" d="M728.76,396.21c18.88,8.72,49.69,11.93,69.38,4.06,5.5-3.38,12-13.4,10.35-17.78-3.32-8.81,5.25-26-15.85-25.22-35.53,2.63-103.32-14.32-63.88,38.94Z"/>
        </g>
      </g>
    </pattern>
    <clipPath id="clippath-1">
      <rect class="cls-1" x="1180" width="1080" height="1080"/>
    </clipPath>
    <clipPath id="clippath-2">
      <rect class="cls-1" width="1080" height="1080"/>
    </clipPath>
    <clipPath id="clippath-3">
      <rect class="cls-1" y="-1180" width="1080" height="1080"/>
    </clipPath>
    <clipPath id="clippath-4">
      <rect class="cls-1" x="-1180" y="-1180" width="1080" height="1080"/>
    </clipPath>
  </defs>
  <g id="Pattern">
    <rect class="cls-3" width="1080" height="1080"/>
  </g>
  <g id="Original">
    <g id="_08" data-name="08">
      <g class="cls-4">
        <g>
          <path class="cls-12" d="M1085.9,701.39c3.84-3.59,1.65-12.84,14.08-7.06-3.72-10.37-3.05-15.93,15.25-3.39.53-5.23,7.18-3.88,15.95.13,24.84,20.07-3.41-12.42,16.17,3.5,5.54,1.88,14.57,7.83,15.91,6.72,2-.45,20.36,16.09,15.18,9.79-3.1-4.23,20.86,19.29,13.97,12.7,4.25,4.56-3.51-2.16,12.27,15.46-18.34-16.5,11.2,15.59,9.66,17.22-6.23-3.06,12.24,19.2,6.46,17.74,3.13,7.45.8,9.97,3.31,17.75,12.23,17.51-18.68-7.67.19,17.27,6.3,12.37.04,12.54-2.88,16.29-17.17-10.48,12.41,26.03-5.92,14.81,27.3,34.41,13.17,27.56-8.91,12.83-17.27-9.91-18.45-3.65-11.87,10.36,5.22,12.64-17.86-3.37-14.08,7.06,18.08,24.73-23.65-10.77-15.25,3.39-5.52.24-31.92-20.86-15.95-.13-18.07-13.3-35.2-26.2-16.17-3.5-4.13-.46,1.72,8.46-15.91-6.72,17.14,19.59-13.7-9.44-15.18-9.79-12.59-11.46-.55,1.02-13.97-12.7,7.91,7.6-5.06-6.41-12.27-15.46-12.04-13.88.54-3.85-9.66-17.22-4-7.17-4.45-11.41-6.46-17.74,6.55,2.23-10.82-19.98-3.31-17.75-.16-5.45.47-10.54-.19-17.27-.19-6.26,6.78-5.72,2.88-16.29,7.2.52.42-13.2,5.92-14.81,2.9-4.21-2.33-16.72,8.91-12.83,11.03,3.67,7.29-7.51,11.87-10.36Z"/>
          <path class="cls-12" d="M1101.67,255.4c2.34-5.08,11.32-3.17,14.08-7.06-6.22-12.86,6.56-6.32,15.25-3.39-5.91-11.67,19.96,8.91,15.95.13,24.83,20.06,23.38,14.37,16.17,3.5-4.95-8.61-.18-6.92,15.91,6.72-6.28-8.73,12.12,7.85,15.18,9.79.54-.58-7.13-8.7,13.97,12.7-1.52-1.22,4.25,5.59,12.27,15.46,27.57,29.41,4.82,9.21,9.66,17.22-20.01-16.84,8.77,15.73,6.46,17.74,26.44,30.75,8.8,17.97,3.31,17.75,17.23,22.52-20.49-9.48.19,17.27-13.18-7.11-21.35-8.86-2.88,16.29,17.57,24.25-3.29,10.33-5.92,14.81-6.89.22-3.4,10.99-8.91,12.83-20.28-12.92-8.78,6.02-11.87,10.36-7.91-.48-3.86,10.64-14.08,7.06,7.95,14.6-8.04,4.84-15.25,3.39-10.05-4.29-14.3-3.25-15.95-.13.87,5.63.22,9.22-16.17-3.5-2.92.74-14.16-7.41-15.91-6.72-19.21-16.76-5.8-1.53-15.18-9.79-7.96-6.83-2.43-.87-13.97-12.7-2.51-2.81-17.12-18.47-12.27-15.46-2.09-3.93-14.3-18.69-9.66-17.22,1.6-1.57-15.62-22.57-6.46-17.74,12.68,8.37-8.67-17.83-3.31-17.75,2.69-2.6,4.49-6.52-.19-17.27,3.65-2.43,1.95-10.55,2.88-16.29,10.09,3.41-3.07-16.69,5.92-14.81,12.42,5.31,19.76,5.37,8.91-12.83,6.71-.65,8.09-6.71,11.87-10.36Z"/>
        </g>
        <g>
          <path class="cls-10" d="M1145.7,897.11c26.95,26.57,5.89,5.13,1.97.83,8.52,7.94,2.09.9,3.35,1.5-4.67-5.34-1.08-2.46,3.44,1.27-9.95-12.62-3.7-9.81,11.96,1.75,4.19,1.26-5.63-11.82,8.47-1.3-6.49-7.2-3.02-4.46,1.64-.53,4.23,2.02,3.43-1.1,4.76-2.18,16.45,9.62,1.71-12.01,9.8-10.23-14.3-16.45,12.53,7.95,6.05-1.27,19.82,13.8-3.52-15.52,13.05-4.99,9.35,3.31,19.59,7.44,12.34-6.1,14.51,12.23-7.68-12.28,4.26-2.68,1.5-2.01-12.72-19.8,6.11-4.63-9.65-15.57,5.73-6.57,9.76-8.94-4-5.07-17.37-19.5,1.55-1.65,11.62,7.36,10.07,1.59,5.46-7.08-20.41-25.48-6.69-16.59,4.2-10,5.24,4.34,21.81,20.02.34-2.29-4.71-5.57,33.21,31.53.1-2.37-1.07-1.86-31.24-32.8-.15-2.42,14.22,13.86-31.44-32.16-.16-1.22-12.93-16.01-13.72-19.07-3.95-10.36-1.77-2.7-13.75-14.65-6.96-6.55-7.2-6.88-24.55-23.82-2.19-.98-20.64-19.17-3.81-.12-7.57-.78-1.84-.32-19.3-16.23-4.04.6-14.59-9.08,9.36,20.73-13.92,3.52,18.7,24.77.09,12.45-13.31,5.42,5,7.97-8.33-2.35-5.98,3.01,2.63,5.64,2.98,9.02-5.92,3.12,8.26,8.53-17.26-16.8-.43.24,15.97,16.01,2.28,2.35-.09.03-20.88-17.51-14.19-7.35-7.47,2.76,27.02,33.3-6.08,7.18-12.36,7.81,17.96,21.42-.89,6.01-4.53,5.69-4-3.17-13.38-11.72-.9,1.56,9.06,10.69,6.75,9.96-1.49,3.28,19.87,20.65-12.38-10.85-.57,1.7-19.9-18.45,8.56,11.52-3.03,1.51,1.46,4.67-9.56-3.16-5.42,4.17,6.82,7.64.79,2.41-3.27-.89,17.67,17.69-2.32-2.27-.14-.05-9.33-8.72,8.63,11.74-5.1-1.79-9.76-7.38-21.97-17.91-12.1-6.7,13.19,13.38-5.75-5.38-1.65-1.09-7.51-7.22-2.86-2.13-2.79-1.49,6.06,6.34-9.37-8.77-1.46-.53,15.43,16.45,3.3,5.6-4.56-.78-.57.91.66,3.84-4.64.36-10.2-9.59-3.04-1.8-1.52.35-1.88,1.97-9.76-1.56-8.29,4.3-7.88-9.6-8.85-9.29-14.54-13.55-.78-.57-1.55-1.14-2.33-1.72-1-.74-2.24-1.27-3.6-1.63-1.35-.36-2.81-.54-4.24-.56-1.71-.03-3.37.17-4.74.54-1.42.39-2.89,1.05-4.26,1.9-1.37.85-2.66,1.91-3.72,3.09-.71.79-1.31,1.63-1.78,2.52-4.24,8.03-1.87,17.48,5.86,22.34,2.34,1.47,4.69,2.92,7.02,4.4.15.09.3.19.47.28.49.28,1.03.57,1.55.88-.15-.12-.3-.23-.44-.35l.47.37c.44.27.84.56,1.15.89.23.18.47.36.7.54.1.09.22.21.41.37,4.79,4.22,16.29,10.59,16.77,2.89,2.83,3.1,2.57,3.08.67,1.4,6.46,7.98,7.78,9.57,7.49,8.02-6.39-7.92,18.41,14.95,12.22,6.49,15.24,12.96,10,5.07,12.91,4.99,18.48,17.07-5.42-8.1,5.44,1.68-.3-1.38-9.16-11.12,3.87,1.3Z"/>
          <path class="cls-10" d="M1120.88,730.68c.33.16-10.28-12.3,2.41-1.11,1.65,1.6-2.09-2.21.16,0-20.25-21.42-3.63-5.86,3.45.14-3.99-4.69,21.03,19.63,2.69.6,7.7,8.71-5.25-5.84,14.78,10.32,10.47,6.61,23.76,13.76,17.77-.29,15.35,11.48,2.16-6.1,15.83,2.52,18.45,15.17,12.56,5.3,10.39-.96-2.59-4.41,3.62-5.85,1.1-.91-9.86-16.1,29.03,15.53,15.49-5.55-3.71-11.24,2.98-12.36,9.26-13.42,10.82,4.15,4.31-7.77-1.13-16.4,33.05,29.86.01-4.14-10.58-12.5-24.23-21.26-13.49-5.67-21.54-6.48-14.23-13.43,9.94,11.49-2.31-.01-9.31-7.88-5.27-1.52-5.47-1.54-30.15-26.29-13.46-6.25-16.05-5.31-11.38-9.35-2.94,2.69-17.91-6.75,12.07,16.14-19.03-10.46-14.19-.72-11.61-6.71-13.69-3.49-13.63,2.21,2.29,10.01-20.83-4.53-18.47,7.3-14.43-4.23-11.07,10.1-13.01,17.21-8.82.23,2.12,18.29,2.55,21.2,4.2,6.66,12.26,13.05,17.12,12.96-1.4-6.35,10.94-2.23,21.3-2.49Z"/>
        </g>
      </g>
    </g>
    <g id="_07" data-name="07">
      <g class="cls-7">
        <rect class="cls-1" width="1080" height="1080"/>
        <rect class="cls-2" width="1080" height="1080"/>
        <g>
          <path class="cls-9" d="M157.93,62.23c4.74,15.78-15.9,65.56,11.17,61.77,58.16-12.22,53.4-12.76,54.96-68.56-9.51-82.7,14.94-86.25-50.51-89.99-18.95-.76-22.8,5.14-20.69,23.82,2.73,24.21,4.39,48.6,5.07,72.96Z"/>
          <path class="cls-9" d="M171.6,596.39c3.66,22.87,5.98,46.03,7.89,69.14,3.43,41.44-.94,39.85,31.37,28.79,31.02-20.68,6.41-67.98,7.05-93.93-2.79-22.99-4.87-25.29-25.26-24.54-13.91,1.01-26.24-.22-21.06,20.54Z"/>
          <path class="cls-9" d="M18.74,591.43c-13.05,1.79-39.59-6.78-40.77,9.11,2.87,26.35-20.08,90.03.56,107.23,77.38,22.02,56.15-58.09,64.8-93.55,2.26-18.85-.28-21.66-24.6-22.79Z"/>
          <path class="cls-9" d="M-11.75,123.8c28.49,5.37,44.47-4.82,48.21-33.58-.89-25.74,20.96-102.56-1.35-115.24C-7.25-34.2-30.94-35.05-20.98,11.07c-2.35,30.18-2.94,60.65-7.73,90.44-2.69,16.72,5.19,20.06,16.95,22.28Z"/>
          <path class="cls-9" d="M71.41,109.87c68.18.41,65.21,11.17,64.13-59.38-3.01-43.54,13.59-81.51-48.17-76.61-10.99-.14-16.67,4.74-18.25,14.79.13,24-18.91,111.33,2.3,121.19Z"/>
          <path class="cls-9" d="M161.33,655.36c-3.48-10.13.47-54.77-13.43-56.9-22.74-.03-61.53-12.19-74.38,3.06,1.84,21.64-25.3,84.59-3.06,97.38,89.51.26,90.56,8.68,90.87-43.55Z"/>
          <path class="cls-9" d="M-32.84,572.84c9.25,31.21,43.45,5.7,62.32,3.87,20.06-14.2,9.42-80.01,13.08-107.42-3.56-22.71-33.17-18.65-47.53-22.97-35.2-13.39-28.87,102.07-27.88,126.53Z"/>
          <path class="cls-9" d="M35.04,920.54c-13.81-3.03-24.58-5.16-33.01-6.24-8.43-1.08-14.48-1.14-18.28-.43-1.75.13-4.75,1.13-4.75,3.13-5,26-8,51-14.63,76.21,2.15,9.46,2.47,17.43,2.54,23.98.22,19.65-1.81,26.46,36.41,22.02,22.78-.42,35.33-11.9,38-37.14.32-15.38,7.49-75.17-6.28-81.53Z"/>
          <path class="cls-9" d="M234.59,318.95c1.81-24.42-13.24-17.14-20.34-20.59-46.05-.21-32.51,46.57-33.48,108.31,4.28,29.12,31.34,5.65,43.18,5.18,10.68-4.7,8.48-73.42,10.63-92.91Z"/>
          <path class="cls-9" d="M116.35,919.9c-56.41-2.82-53.77.5-52.81,54.54.81.12-11.77,55.71,2.98,63.66,24.85,4.03,64.11,15.35,62.29-24.34-1.94-24.12,18.89-88.74-12.46-93.85Z"/>
          <path class="cls-9" d="M96.73,453.49c-20.13,2.9-35.99,4.34-34.81,27.41-.19,29.86-2.63,59.72-2.63,89.58,2.42,23.67,39.76,17.04,58.19,18.95,44.77,1.52,31.01-54.33,37.29-81.83-.86-55.34-3.36-57.76-58.04-54.11Z"/>
          <path class="cls-9" d="M217.24,819.93c-23.07,1.98-65.29-2.2-62.57,24.55,3.38,25.72-14.87,64.56,37.83,51.86,16.97-1.93,35.97-4.75,38.19-22.65-2.44-15.36,16.89-52.99-13.46-53.75Z"/>
          <path class="cls-9" d="M181.8,562.92c13.85-1.38,36.28,9.66,35.48-28.29-1.64-21.17,7.71-89.39-4.48-95.66-48.77-4.58-37.16-21.45-42.58,66.57.26.04-5.1,58.28,11.57,57.37Z"/>
          <path class="cls-9" d="M168.46,917.65c-26.92-10.07-14.19,58.97-18.21,74.85-3.49,42.53,12.22,42.1,45.67,39.76,7.55-5.2,20.18-11.08,20.64-17.62,2.18-31.01.97-62.32.97-91.19-17.69-1.94-33.62-2.48-49.08-5.82Z"/>
          <path class="cls-9" d="M132.3,827.1c-61.92-7.01-63.72,27.28-67.33,64.5,6.05,15.78,35.73,8.74,51.98,11.2,28.82,4.83,28.96-66.74,15.35-75.7Z"/>
          <path class="cls-9" d="M166.3,334.83c2.29-37.44-49.07-18.83-69.58-10.63-28.45,16.27-21.98,52.08-27.48,78.75-9.28,37.12,19.06,35.59,49.92,35.23,15.45-.13,36.29,4.01,39.81-14.57,5.51-29.1,5.65-59.12,7.33-88.78Z"/>
          <path class="cls-9" d="M49.18,858.01c-2.15-36.59.56-34.07-48.24-29.17-13.59,1.01-21.83,7.35-22.27,17.82,3.16,36.8-20.49,66.35,47.2,48.82,22.75-1.6,29.2-18.9,23.31-37.47Z"/>
          <path class="cls-9" d="M27.68,313.28c-53.46,4.4-51.93,36.53-49.46,93.21.17,24.51.28,24.51,25.47,24.38,10.94-2.87,41.56-5.46,44.47-29,2.96-22.45,9.6-93.51-20.48-88.59Z"/>
          <path class="cls-9" d="M-15.99,259.02c-1.63,45.16,4.77,41.23,37.36,39,36.94-1.72,44.16-40.06,42.24-79.67,2.93-35.71-38.04-12.89-52.5-8.58-27.27,12.44-27.11,13-27.1,49.25Z"/>
          <path class="cls-9" d="M37.08,756.03c-33.48,7.06-55.26,6.35-53.99,36.18,2.39,7.6.29,20.64,10.75,24.28,41.4,4.68,74.62-8.29,69.43-44.4.28-16.8-6.08-20.2-26.2-16.06Z"/>
          <path class="cls-9" d="M192.46,187.19c-33.79,7.4-33.76,7.58-33.65,51.46.1,39.88,1.33,41.41,31.38,39.15,34.85-2.63,47.68-19.42,47.71-62.45,3.14-38.9-24.02-29.91-45.45-28.15Z"/>
          <path class="cls-9" d="M125.79,757.28c-22.97,1.64-55.26-1.52-51.03,25.56,5.04,10.49-6.37,36.72,16.07,33.62,17.14-3.13,48.09,3.77,56.84-11.06,1.9-17.86,15.68-52.91-21.87-48.12Z"/>
          <path class="cls-9" d="M129.28,202.65c-17.33,2.9-53.12-2.72-52.53,29.52,4.56,17.09-9.15,69.07,12.33,66.06,10.65-1.63,21.28-3.33,31.92-5,9.92-.7,24.27,7.7,26.6-12.23-.98-24.24,13.02-81.71-18.31-78.36Z"/>
          <path class="cls-9" d="M207.19,754.36c-40.79,4.59-46.58-2.32-44.59,41.89.45,12.45,5.55,16.22,21.51,16.17,59.57,8.65,85.06-69.82,23.08-58.07Z"/>
          <path class="cls-9" d="M71.41,187.31c28-3.49,60.94,17.97,59.51-39.4,2.84-40.05-46.31-13.76-64.32-12.21-19.82,4.95-15.86,54.77,4.81,51.61Z"/>
          <path class="cls-9" d="M55.31,730.86c.38,17.67,22.35,17.07,38.55,16.84,23.84,2.32,41.74-3.12,38-28.23-1.21-11.36-11.42-11.16-21.31-10.48-19,3.17-58-.7-55.24,21.87Z"/>
          <path class="cls-9" d="M144.51,738.37c8.72,21.59,50.86,6.48,68.25,4.92,12.74-2.99,13.74-12.68,13.06-20.83-3.25-16.12-50.93-.39-66.58-2.77-18.37.48-14.84,10.19-14.73,18.68Z"/>
          <path class="cls-9" d="M156.17,180.73c25.46.89,71.4,10.9,70.8-36.59.7-22.87-60.68-6.63-73.35-4.78-17.21,3.5-8.5,38.03,2.55,41.37Z"/>
          <path class="cls-9" d="M29.25,720.23c-14.02,1.43-51.62-6.22-59,2.41-6.39,9.33,1.44,21.36,15.17,23.57,15.2-.1,54.87,12.12,57.67-13.25-.37-7.09-1.85-12.69-13.84-12.73Z"/>
          <path class="cls-9" d="M-19.96,182.15c14.58,8.72,38.38,11.93,53.58,4.06,4.25-3.38,9.27-13.4,7.99-17.78-2.56-8.81,4.06-26-12.24-25.22-27.44,2.63-79.8-14.32-49.33,38.94Z"/>
          <path class="cls-9" d="M358.59,58.47c3.04,15.78-10.21,65.56,7.17,61.77,37.35-12.22,34.29-12.76,35.29-68.56-6.11-82.7,9.59-86.25-32.43-89.99-12.17-.76-14.64,5.14-13.29,23.82,1.75,24.21,2.82,48.6,3.26,72.96Z"/>
          <path class="cls-9" d="M354.54,645.47c1.47,23.1,1.67,46.38,1.49,69.57-.32,41.58-4.27,39.6,26.88,31.51,21.21-5.93,15.61-28.11,16.29-48.27.23-.02-1.28-29.76-1.69-44.63-.64-23.15-2.39-25.62-21.52-26.73-13.09-.26-24.52-2.6-21.44,18.55Z"/>
          <path class="cls-9" d="M268.67,647.33c-8.38,1.56-25.42-5.89-26.18,7.91,1.85,22.9-12.89,78.24.36,93.19,49.69,19.13,36.06-50.49,41.62-81.3,1.45-16.38-.18-18.82-15.8-19.81Z"/>
          <path class="cls-9" d="M249.62,120.04c18.3,5.37,28.56-4.82,30.96-33.58-.57-25.74,13.46-102.56-.87-115.24-27.21-9.17-42.41-10.03-36.02,36.1-1.51,30.18-1.89,60.65-4.96,90.44-1.73,16.72,3.33,20.06,10.89,22.28Z"/>
          <path class="cls-9" d="M303.03,106.11c43.78.41,41.88,11.17,41.18-59.38-1.93-43.54,8.73-81.51-30.93-76.61-7.06-.14-10.7,4.74-11.72,14.79.08,24-12.14,111.33,1.47,121.19Z"/>
          <path class="cls-9" d="M337.06,638.64c-10.87-.03-29.41-12.19-35.55,3.06-2.39,29.63-4.27,59.32-5.83,89.03.96,15.84,29.22,6.78,38.68,7.94,14.58-3.52,6.2-29.97,8.37-43.08.24-.02.96-54.83-5.68-56.95Z"/>
          <path class="cls-9" d="M236.07,576.67c5.94,31.21,27.9,5.7,40.02,3.87,12.88-14.19,6.05-80.01,8.4-107.42-2.28-22.71-21.3-18.65-30.52-22.97-7.99-2-13.64,3.52-14.86,20.52-2.31,39.47-6.53,61.96-3.04,106.01Z"/>
          <path class="cls-9" d="M279.67,916.28c-53.21-18.19-36.19-3.71-45.38,72.67.45.11-5.16,49.93,25.01,46,14.63-.42,22.69-11.9,24.4-37.14.21-15.38,4.81-75.17-4.03-81.53Z"/>
          <path class="cls-9" d="M355.38,406.45c-1.7,24.42,12.43,17.14,19.09,20.59,43.23.21,30.52-46.57,31.43-108.31-4.02-29.12-29.42-5.65-40.54-5.18-10.03,4.7-7.97,73.42-9.98,92.91Z"/>
          <path class="cls-9" d="M331.89,915.64c-36.23-2.82-34.53.5-33.91,54.54.52.12-7.56,55.71,1.91,63.66,15.96,4.03,41.17,15.35,40-24.34-1.24-24.12,12.13-88.74-8-93.85Z"/>
          <path class="cls-9" d="M313.14,440.78c-9.62,2.9-17.2,4.34-16.64,27.41-.09,29.86-1.26,59.72-1.25,89.58,1.16,23.67,19,17.04,27.81,18.95,21.4,1.52,14.82-54.33,17.82-81.83-.41-55.34-1.61-57.76-27.74-54.11Z"/>
          <path class="cls-9" d="M396.68,816.99c-14.81,1.98-41.93-2.2-40.18,24.55,2.17,25.72-9.55,64.56,24.3,51.86,10.9-1.93,23.1-4.75,24.53-22.65-1.56-15.36,10.85-52.99-8.64-53.75Z"/>
          <path class="cls-9" d="M370.18,573.77c13.01-1.38,34.06,9.66,33.31-28.29-1.54-21.17,7.24-89.39-4.21-95.66-45.78-4.58-34.89-21.45-39.97,66.57.25.04-4.79,58.28,10.87,57.37Z"/>
          <path class="cls-9" d="M365.35,913.4c-17.29-10.07-9.11,58.97-11.7,74.85-2.24,42.53,7.85,42.1,29.33,39.76,4.85-5.2,12.96-11.08,13.26-17.62,1.4-31.01.63-62.32.63-91.19-11.36-1.94-21.59-2.48-31.52-5.82Z"/>
          <path class="cls-9" d="M342.13,824.16c-39.76-7.01-40.92,27.28-43.24,64.5,3.88,15.78,22.95,8.74,33.38,11.2,18.51,4.83,18.6-66.74,9.86-75.7Z"/>
          <path class="cls-9" d="M346.39,332.12c1.09-37.44-23.45-18.83-33.26-10.63-13.6,16.27-10.5,52.08-13.14,78.75-4.44,37.12,9.11,35.59,23.86,35.23,7.38-.13,17.34,4.01,19.03-14.57,2.63-29.1,2.7-59.12,3.51-88.78Z"/>
          <path class="cls-9" d="M288.75,855.07c-1.38-36.59.36-34.07-30.98-29.17-8.72,1.01-14.02,7.35-14.3,17.82,2.03,36.8-13.16,66.35,30.31,48.82,14.61-1.6,18.75-18.9,14.97-37.47Z"/>
          <path class="cls-9" d="M280.93,322c-34.33,4.4-33.35,36.53-31.76,93.21.11,24.51.18,24.51,16.36,24.38,7.03-2.87,26.69-5.46,28.56-29,1.9-22.45,6.17-93.51-13.15-88.59Z"/>
          <path class="cls-9" d="M298.06,164.98c1.05-40.7-3.06-37.17-23.99-35.15-23.72,1.55-28.54,19.52-27.31,55.23-1.88,32.19,24.61,28.21,33.9,24.32,17.51-11.21,17.41-11.72,17.41-44.39Z"/>
          <path class="cls-9" d="M280.98,753.09c-21.5,7.06-35.49,6.35-34.67,36.18,1.53,7.6.19,20.64,6.9,24.28,26.59,4.68,47.92-8.29,44.59-44.4.18-16.8-3.9-20.2-16.82-16.06Z"/>
          <path class="cls-9" d="M390.6,130.67c-21.7,6.67-21.68,6.84-21.61,46.38.07,35.95.86,37.33,20.15,35.29,22.38-2.37,30.62-17.51,30.64-56.3,2.02-35.06-15.42-26.96-29.18-25.38Z"/>
          <path class="cls-9" d="M337.95,754.34c-14.75,1.64-35.49-1.52-32.77,25.56,3.24,10.49-4.09,36.72,10.32,33.62,11.01-3.13,30.88,3.77,36.5-11.06,1.22-17.86,10.07-52.91-14.05-48.12Z"/>
          <path class="cls-9" d="M342.01,126.66c-11.13,2.61-34.11-2.45-33.73,26.61,2.93,15.4-5.88,62.26,7.92,59.55,6.84-1.47,13.67-3,20.5-4.5,6.37-.63,15.59,6.94,17.08-11.02-.63-21.86,8.36-73.65-11.76-70.63Z"/>
          <path class="cls-9" d="M390.22,751.41c-26.19,4.59-29.91-2.32-28.64,41.89.29,12.45,3.56,16.22,13.82,16.17,38.26,8.65,54.62-69.82,14.82-58.07Z"/>
          <path class="cls-9" d="M431.35,301.78c17.98-2.81,39.14,14.47,38.22-31.73,1.83-32.26-29.74-11.09-41.31-9.84-12.73,3.99-10.19,44.12,3.09,41.57Z"/>
          <path class="cls-9" d="M292.86,608.64c.24,17.67,14.35,17.07,24.76,16.84,15.31,2.32,26.81-3.12,24.4-28.23-.78-11.36-7.33-11.16-13.69-10.48-12.2,3.17-37.25-.7-35.47,21.87Z"/>
          <path class="cls-9" d="M349.09,607.06c5.6,21.59,32.66,6.48,43.83,4.92,8.18-2.99,8.82-12.68,8.38-20.83-2.09-16.12-32.71-.39-42.76-2.77-11.8.48-9.53,10.19-9.46,18.68Z"/>
          <path class="cls-9" d="M363.76,302.99c16.35.71,45.85,8.78,45.47-29.47.85-18.45-39.6-5.34-47.1-3.85-11.05,2.82-5.46,30.63,1.63,33.32Z"/>
          <path class="cls-9" d="M274.83,602.95c-9,1.43-33.15-6.22-37.89,2.41-8.34,21.74,17.06,26.94,26.58,25.08,10.79-.18,22.25,3.41,20.2-14.77-.24-7.08-1.19-12.69-8.88-12.72Z"/>
          <path class="cls-9" d="M251.35,306.93c9.36,7.03,24.64,9.61,34.41,3.27,2.73-2.72,5.95-10.8,5.13-14.32-1.64-7.1,2.6-20.94-7.86-20.31-17.62,2.12-51.24-11.54-31.68,31.36Z"/>
          <path class="cls-9" d="M593.26,50.72c6.14,15.78-20.59,65.56,14.46,61.77,75.3-12.22,69.14-12.76,71.16-68.56-12.31-82.7,19.34-86.25-65.4-89.99-24.54-.76-29.52,5.14-26.79,23.82,3.53,24.21,5.69,48.6,6.57,72.96Z"/>
          <path class="cls-9" d="M590.42,575.01c3.12,27.53,3.54,55.27,3.16,82.91-.69,49.55-9.05,47.18,56.96,37.55,44.94-7.07,31.79-92.98,30.92-110.71-1.36-27.58-5.07-30.53-45.6-31.85-27.74-.31-51.95-3.1-45.43,22.1Z"/>
          <path class="cls-9" d="M442.05,625.55c-8.38,1.79-25.42-6.78-26.18,9.11,1.85,26.35-12.89,90.03.36,107.23,49.69,22.02,36.06-58.09,41.62-93.55,1.45-18.85-.18-21.66-15.8-22.79Z"/>
          <path class="cls-9" d="M423.01,112.29c6.1,1.79,11.3,1.85,15.24.54,5.74-.82,7.74-5.82,7.74-10.82,3-21,3-43,10-63.38,1.39-6.34,2.15-14.43,2.7-22.43,1.65-24.01,1.57-46.38-5.59-52.72-27.21-9.17-42.41-10.03-36.02,36.1-1.51,30.18-1.89,60.65-4.96,90.44-1.73,16.72,3.33,20.06,10.89,22.28Z"/>
          <path class="cls-9" d="M483.42,100.36c11.58-2.36,23.58-6.36,35.58-3.36,5.5,1,11.5.94,17.31-.13,17.42-3.2,33.12-15.42,28.42-35.07-.02-2.15-.06-4.43-.11-6.83-.1-4.8-.23-10.12-.35-15.99-3.9-43.54,17.6-81.51-62.37-76.61-14.23-.14-21.58,4.74-23.63,14.79.08,10.8-4.87,34.43-7.84,58.04-.99,7.87-1.85,10.92-2.33,18.04-.1,15.75-1.1,32.75,9.09,45.77,1.69,1.26,3.68,1.63,6.23,1.35Z"/>
          <path class="cls-9" d="M558.73,569.24c-23.96-.04-64.86-15.11-78.39,3.8,1.94,26.83-26.66,104.9-3.23,120.75,29.43-2.93,93.08,12.7,94.33-18.26-.79-11.87,1.93-103.66-12.72-106.3Z"/>
          <path class="cls-9" d="M417.4,553.8c3.96,31.52,27.49,7.44,39.7,6.38,13.74-13.36,11.07-79.47,15.15-106.68-.85-22.81-20.09-19.96-29.01-24.85-7.85-2.5-13.83,2.66-16.12,19.55-4.79,39.25-10.41,61.43-9.71,105.61Z"/>
          <path class="cls-9" d="M453.06,907.52c-53.21-18.19-36.19-3.71-45.38,72.67.45.11-5.16,49.93,25.01,46,14.63-.42,22.69-11.9,24.4-37.14.21-15.38,4.81-75.17-4.03-81.53Z"/>
          <path class="cls-9" d="M690.53,240.04c5.24-24.1-23.71-18.97-36.84-23.43-62.07-4.83-68.57,18.58-69.56,54.73-.1,3.62-.36,7.33-.44,11.2s-.06,7.86-.02,11.91c.04,4.05-.08,8.21-.3,12.45-.22,4.24-.54,8.56-1,12.95,3.54,17.79,23.97,17.86,44.59,15.34,3.44-.42,6.88-.82,10.26-1.3,3.38-.48,6.67-1.01,9.81-1.48,3.14-.47,6.13-.83,8.91-1.06,2.77-.22,5.32-.31,7.56-.19,20.51-3.17,21.53-72.01,27.04-91.13Z"/>
          <path class="cls-9" d="M548.84,903.57c-73.04-2.82-69.63.5-68.38,54.54,1.05.12-15.24,55.71,3.86,63.66,32.18,4.03,83.01,15.35,80.65-24.34-2.51-24.12,24.45-88.74-16.13-93.85Z"/>
          <path class="cls-9" d="M525.21,417.73c-19.4,2.9-34.69,4.34-33.54,27.41-.18,29.86-2.54,59.72-2.53,89.58,2.34,23.67,38.31,17.04,56.07,18.95,43.14,1.52,29.88-54.33,35.93-81.83-.83-55.34-3.24-57.76-55.93-54.11Z"/>
          <path class="cls-9" d="M670.06,822.22c-29.87,1.98-84.54-2.2-81.01,24.55,4.37,25.72-19.26,64.56,48.99,51.86,21.97-1.93,46.57-4.75,49.45-22.65-3.15-15.36,21.87-52.99-17.43-53.75Z"/>
          <path class="cls-9" d="M615.46,537.65c27.56-1.46,72.17,10.15,70.59-29.73-3.26-22.25,15.34-93.94-8.92-100.53-97.02-4.81-73.93-22.54-84.7,69.97.53.04-10.15,61.25,23.03,60.3Z"/>
          <path class="cls-9" d="M608.52,913.4c-34.85-10.07-18.37,58.97-23.58,74.85-4.52,42.53,15.83,42.1,59.14,39.76,9.77-5.2,26.13-11.08,26.73-17.62,2.82-31.01,1.26-62.32,1.26-91.19-22.9-1.94-43.53-2.48-63.54-5.82Z"/>
          <path class="cls-9" d="M564.08,816.86c-80.17-7.01-82.51,27.28-87.18,64.5,7.83,15.78,46.27,8.74,67.3,11.2,37.31,4.83,37.5-66.74,19.88-75.7Z"/>
          <path class="cls-9" d="M579.21,238.27c5.01-37.17-45.74-22.33-66.06-15.63-7.14,3.54-14.11,1.79-17.91,7.58s-2.98,19.1-4.67,26.46c-1.69,7.36-3.42,14.8-5.08,21.8-1.66,7-2.84,14.14-4.66,20.69-11.71,36.34,15.65,36.87,45.32,38.74,14.86.99,34.57,6.62,39.35-11.65,7.48-28.61,9.87-58.54,13.72-88Z"/>
          <path class="cls-9" d="M462.14,849.01c-1.38-36.59.36-34.07-30.98-29.17-8.72,1.01-14.02,7.35-14.3,17.82,2.03,36.8-13.16,66.35,30.31,48.82,14.61-1.6,18.75-18.9,14.97-37.47Z"/>
          <path class="cls-9" d="M455.62,307.66c-34.58,1.51-36.29,33.61-39.45,90.22-1.94,24.43-1.87,24.44,14.26,25.67,7.24-2.27,27.05-3.2,30.89-26.51,3.78-22.21,13.97-92.67-5.69-89.38Z"/>
          <path class="cls-9" d="M428.23,173.43c.24,3.77-.27,7.98-.69,12.23-.41,4.25-.74,8.51-.49,12.08,3.89,18.54,28.89,5.92,41.06.5,3.12-2.41,4.72-4,6.53-8.24,3.63-8.48,4.3-17.9,2.3-26.91-1.83-9.36-5.16-18.39-8.16-27.5-3.06-9.3-15.53-12.82-24.05-6.9-11.59,8.06-20,18.66-16.5,33.64-.01,3.17-.01,6.9-.01,11.08Z"/>
          <path class="cls-9" d="M454.37,747.03c-21.5,7.06-35.49,6.35-34.67,36.18,1.53,7.6.19,20.64,6.9,24.28,26.59,4.68,47.92-8.29,44.59-44.4.18-16.8-3.9-20.2-16.82-16.06Z"/>
          <path class="cls-9" d="M651.49,112.37c-44.18,4.09-44.16,4.28-47.31,48.04-2.86,39.78-1.39,41.43,37.58,42.09,45.2.77,63.02-14.73,66.29-57.64,6.98-38.48-28.76-32.16-56.56-32.49Z"/>
          <path class="cls-9" d="M551.65,748.28c-29.74,1.64-71.55-1.52-66.07,25.56,6.53,10.49-8.25,36.72,20.8,33.62,22.19-3.13,62.26,3.77,73.59-11.06,2.46-17.86,20.3-52.91-28.32-48.12Z"/>
          <path class="cls-9" d="M566.46,109.33c-16.46-3.33-32.46,1.67-47.46-3.33-5-1.5-10.16-.69-14.14,1.97-3.98,2.66-7.36,6.53-7.86,12.03-2,23,0,45-5.47,67.79.2,2.99.71,5.89,1.7,8.33,1.98,4.88,5.87,7.86,12.86,7.64,11.56-.49,23.11-1.03,34.66-1.56,2.31-.11,4.62-.21,6.89-.37,12.37-.82,30.37,4.18,35.32-9.83.04-2.19.31-4.9.71-7.87s1.16-5.98,2-9.18c4.33-20.94,18.33-55.94-10.99-64.05-2.43-.65-5.17-1.18-8.22-1.57Z"/>
          <path class="cls-9" d="M657.04,745.36c-52.81,4.59-60.31-2.32-57.74,41.89.58,12.45,7.18,16.22,27.86,16.17,77.14,8.65,110.13-69.82,29.88-58.07Z"/>
          <path class="cls-9" d="M508.06,410.86c36.26-3.49,78.91,17.97,77.05-39.4,3.68-40.05-59.96-13.76-83.28-12.21-25.67,4.95-20.54,54.77,6.23,51.61Z"/>
          <path class="cls-9" d="M460.39,721.86c.49,17.67,28.94,17.07,49.92,16.84,30.86,2.32,54.05-3.12,49.2-28.23-1.56-11.36-14.78-11.16-27.6-10.48-24.6,3.17-75.1-.7-71.52,21.87Z"/>
          <path class="cls-9" d="M575.89,729.37c11.29,21.59,65.86,6.48,88.37,4.92,16.5-2.99,17.79-12.68,16.9-20.83-4.21-16.12-65.95-.39-86.2-2.77-23.79.48-19.22,10.19-19.07,18.68Z"/>
          <path class="cls-9" d="M613.24,389.22c32.97.89,92.45,10.91,91.67-36.59,1.7-22.91-79.85-6.63-94.97-4.78-22.29,3.5-11.01,38.03,3.3,41.36Z"/>
          <path class="cls-9" d="M448.45,587.15c-9,1.43-33.15-6.22-37.89,2.41-4.11,9.33.92,21.36,9.74,23.57,9.76-.1,35.23,12.12,37.03-13.25-.24-7.09-1.19-12.69-8.89-12.73Z"/>
          <path class="cls-9" d="M306.59,300.88c4.68,3.51,10.84,5.92,17.05,6.65,6.21.73,12.47-.07,17.41-2.73,7.71-9.6,14.71-30.54-.29-33.77-13-2.42-38-9.67-41.61,7.45-.05,4.85,2.13,11.91,7.44,22.4Z"/>
          <path class="cls-9" d="M279.04,220.35c-17.98,2.81-39.14-14.47-38.22,31.73-1.83,32.26,29.74,11.09,41.31,9.84,12.73-3.99,10.19-44.12-3.09-41.57Z"/>
          <path class="cls-9" d="M305.57,261.68c16.35.71,45.85,8.78,45.47-29.47.85-18.45-39.6-5.34-47.1-3.85-11.05,2.82-5.46,30.63,1.63,33.32Z"/>
          <path class="cls-9" d="M461.66,217.75c-9.36-7.03-24.64-9.61-34.41-3.27-2.73,2.72-5.95,10.8-5.13,14.32,1.64,7.1-2.6,20.94,7.86,20.31,17.62-2.12,51.24,11.54,31.68-31.36Z"/>
          <path class="cls-9" d="M364.77,249.88c4.68,3.51,10.84,5.92,17.05,6.65,6.21.73,12.47-.07,17.41-2.73,7.71-9.6,14.71-30.54-.29-33.77-13-2.42-38-9.67-41.61,7.45-.05,4.85,2.13,11.91,7.44,22.4Z"/>
          <path class="cls-9" d="M942.85,47.79c6.14,15.78-20.59,65.56,14.46,61.77,75.3-12.22,69.14-12.76,71.16-68.56-12.31-82.7,19.34-86.25-65.4-89.99-24.54-.76-29.52,5.14-26.79,23.82,3.53,24.21,5.69,48.6,6.57,72.96Z"/>
          <path class="cls-9" d="M935.76,587.37c2.97,23.1,3.37,46.38,3,69.57-.65,41.58-8.61,39.6,54.19,31.51,59.44-9.28,24.76-65.35,29.43-92.91-1.3-23.15-4.83-25.63-43.4-26.73-26.4-.26-49.44-2.6-43.23,18.55Z"/>
          <path class="cls-9" d="M750.42,564.92c-15.91,5.97-51.32,6.29-48.81,22.05,10.21,24.58-2.59,93.67,27.59,103.63,102.51-3.81,55.81-74.47,57.77-111.6-1.9-18.98-5.78-20.87-36.55-14.07Z"/>
          <path class="cls-9" d="M723.15,109.36c36.89,5.37,57.58-4.82,62.43-33.58-1.16-25.74,27.13-102.56-1.75-115.24-54.85-9.17-85.52-10.03-72.62,36.1-3.04,30.18-3.81,60.65-10,90.44-3.48,16.72,6.72,20.06,21.95,22.28Z"/>
          <path class="cls-9" d="M830.83,95.43c88.27.41,84.43,11.17,83.03-59.38-3.9-43.54,17.6-81.51-62.37-76.61-14.23-.14-21.58,4.74-23.63,14.79.17,24-24.48,111.33,2.97,121.19Z"/>
          <path class="cls-9" d="M157.93,1142.23c4.74,15.78-15.9,65.56,11.17,61.77,58.16-12.22,53.4-12.76,54.96-68.56-9.51-82.7,14.94-86.25-50.51-89.99-18.95-.76-22.8,5.14-20.69,23.82,2.73,24.21,4.39,48.6,5.07,72.96Z"/>
          <path class="cls-9" d="M-11.75,1203.8c28.49,5.37,44.47-4.82,48.21-33.58-.89-25.74,20.96-102.56-1.35-115.24-42.37-9.17-66.05-10.03-56.09,36.1-2.35,30.18-2.94,60.65-7.73,90.44-2.69,16.72,5.19,20.06,16.95,22.28Z"/>
          <path class="cls-9" d="M1098.74,591.43c-13.05,1.79-39.59-6.78-40.77,9.11,2.87,26.35-20.08,90.03.56,107.23,77.38,22.02,56.15-58.09,64.8-93.55,2.26-18.85-.28-21.66-24.6-22.79Z"/>
          <path class="cls-9" d="M1068.25,123.8c28.49,5.37,44.47-4.82,48.21-33.58-.89-25.74,20.96-102.56-1.35-115.24-42.37-9.17-66.05-10.03-56.09,36.1-2.35,30.18-2.94,60.65-7.73,90.44-2.69,16.72,5.19,20.06,16.95,22.28Z"/>
          <path class="cls-9" d="M1047.16,572.84c9.24,31.21,43.45,5.7,62.32,3.87,20.05-14.19,9.42-80.01,13.08-107.42-3.56-22.71-33.17-18.65-47.53-22.97-12.45-2-21.24,3.52-23.14,20.52-3.59,39.47-10.16,61.96-4.74,106.01Z"/>
          <path class="cls-9" d="M1115.04,920.54c-82.85-18.19-56.35-3.71-70.67,72.67,8.58,37.83-12.01,51.92,38.95,46,22.78-.42,35.33-11.9,38-37.14.32-15.38,7.49-75.17-6.28-81.53Z"/>
          <path class="cls-9" d="M1129.18,858.01c-2.15-36.59.56-34.07-48.24-29.17-13.59,1.01-21.83,7.35-22.27,17.82,3.16,36.8-20.49,66.35,47.2,48.82,22.75-1.6,29.2-18.9,23.31-37.47Z"/>
          <path class="cls-9" d="M1107.68,313.28c-53.46,4.4-51.93,36.53-49.46,93.21.17,24.51.28,24.51,25.47,24.38,10.94-2.87,41.56-5.46,44.47-29,2.96-22.45,9.6-93.51-20.48-88.59Z"/>
          <path class="cls-9" d="M1064.01,259.02c-1.63,45.16,4.77,41.23,37.36,39,36.94-1.72,44.16-40.06,42.24-79.67,2.93-35.71-38.04-12.89-52.5-8.58-27.27,12.44-27.11,13-27.1,49.25Z"/>
          <path class="cls-9" d="M1117.08,756.03c-33.48,7.06-55.26,6.35-53.99,36.18,2.39,7.6.29,20.64,10.75,24.28,41.4,4.68,74.62-8.29,69.43-44.4.28-16.8-6.08-20.2-26.2-16.06Z"/>
          <path class="cls-9" d="M1109.25,720.23c-14.02,1.43-51.62-6.22-59,2.41-11.68,20.69,21.43,26.3,41.3,25.97,14.04-3.02,35.52,4.07,31.53-15.65-.37-7.08-1.85-12.69-13.83-12.72Z"/>
          <path class="cls-9" d="M1060.04,182.15c14.58,8.72,38.38,11.93,53.58,4.06,4.25-3.38,9.27-13.4,7.99-17.78-2.56-8.81,4.06-26-12.24-25.22-27.44,2.63-79.8-14.32-49.33,38.94Z"/>
          <path class="cls-9" d="M1068.25,1203.8c28.49,5.37,44.47-4.82,48.21-33.58-.89-25.74,20.96-102.56-1.35-115.24-42.37-9.17-66.05-10.03-56.09,36.1-2.35,30.18-2.94,60.65-7.73,90.44-2.69,16.72,5.19,20.06,16.95,22.28Z"/>
          <path class="cls-9" d="M71.41,1189.87c68.18.41,65.21,11.17,64.13-59.38-3.01-43.54,13.59-81.51-48.17-76.61-10.99-.14-16.67,4.74-18.25,14.79.13,24-18.91,111.33,2.3,121.19Z"/>
          <path class="cls-9" d="M358.59,1138.47c3.04,15.78-10.21,65.56,7.17,61.77,37.35-12.22,34.29-12.76,35.29-68.56-6.11-82.7,9.59-86.25-32.43-89.99-12.17-.76-14.64,5.14-13.29,23.82,1.75,24.21,2.82,48.6,3.26,72.96Z"/>
          <path class="cls-9" d="M249.62,1200.04c18.3,5.37,28.56-4.82,30.96-33.58-.57-25.74,13.46-102.56-.87-115.24-27.21-9.17-42.41-10.03-36.02,36.1-1.51,30.18-1.89,60.65-4.96,90.44-1.73,16.72,3.33,20.06,10.89,22.28Z"/>
          <path class="cls-9" d="M303.03,1186.11c43.78.41,41.88,11.17,41.18-59.38-1.93-43.54,8.73-81.51-30.93-76.61-7.06-.14-10.7,4.74-11.72,14.79.08,24-12.14,111.33,1.47,121.19Z"/>
          <path class="cls-9" d="M593.26,1130.72c6.14,15.78-20.59,65.56,14.46,61.77,75.3-12.22,69.14-12.76,71.16-68.56-12.31-82.7,19.34-86.25-65.4-89.99-24.54-.76-29.52,5.14-26.79,23.82,3.53,24.21,5.69,48.6,6.57,72.96Z"/>
          <path class="cls-9" d="M423.01,1192.29c18.3,5.37,28.56-4.82,30.96-33.58-.57-25.74,13.46-102.56-.87-115.24-27.21-9.17-42.41-10.03-36.02,36.1-1.51,30.18-1.89,60.65-4.96,90.44-1.73,16.72,3.33,20.06,10.89,22.28Z"/>
          <path class="cls-9" d="M481.24,1178.36c88.27.41,84.43,11.17,83.03-59.38-3.9-43.54,17.6-81.51-62.37-76.61-14.23-.14-21.58,4.74-23.63,14.79.17,24-24.48,111.33,2.97,121.19Z"/>
          <path class="cls-9" d="M942.85,1127.79c6.14,15.78-20.59,65.56,14.46,61.77,75.3-12.22,69.14-12.76,71.16-68.56-12.31-82.7,19.34-86.25-65.4-89.99-24.54-.76-29.52,5.14-26.79,23.82,3.53,24.21,5.69,48.6,6.57,72.96Z"/>
          <path class="cls-9" d="M723.15,1189.36c36.89,5.37,57.58-4.82,62.43-33.58-1.16-25.74,27.13-102.56-1.75-115.24-54.85-9.17-85.52-10.03-72.62,36.1-3.04,30.18-3.81,60.65-10,90.44-3.48,16.72,6.72,20.06,21.95,22.28Z"/>
          <path class="cls-9" d="M830.83,1175.43c88.27.41,84.43,11.17,83.03-59.38-3.9-43.54,17.6-81.51-62.37-76.61-14.23-.14-21.58,4.74-23.63,14.79.17,24-24.48,111.33,2.97,121.19Z"/>
          <path class="cls-9" d="M913.47,644.07c-3.35-10.13.45-54.77-12.94-56.9-21.92-.03-59.3-12.19-71.68,3.06,1.78,21.64-24.38,84.59-2.95,97.38,85.86-.16,86.21,9.88,87.57-43.55Z"/>
          <path class="cls-9" d="M705.3,540.91c11.97,31.21,56.25,5.7,80.69,3.87,25.96-14.19,12.2-80.01,16.94-107.42-4.61-22.71-42.95-18.65-61.54-22.97-16.11-2-27.5,3.52-29.97,20.52-4.65,39.47-13.16,61.96-6.13,106.01Z"/>
          <path class="cls-9" d="M783.74,904.21c-107.28-18.19-72.96-3.71-91.5,72.67.91.11-10.41,49.93,50.43,46,29.5-.42,45.75-11.9,49.2-37.14.41-15.38,9.7-75.17-8.13-81.53Z"/>
          <path class="cls-9" d="M1039.41,262.64c5.24-24.1-23.71-18.97-36.84-23.43-86.9-6.76-64.87,41.82-71.33,103.25,5.9,29.65,58.73,10.09,81.12,11.31,20.51-3.17,21.53-72.01,27.04-91.13Z"/>
          <path class="cls-9" d="M875.69,911.14c-73.04-2.82-69.63.5-68.38,54.54,1.05.12-15.24,55.71,3.86,63.66,32.18,4.03,83.01,15.35,80.65-24.34-2.51-24.12,24.45-88.74-16.13-93.85Z"/>
          <path class="cls-9" d="M851.21,435.42c-19.4,2.9-34.69,4.34-33.54,27.41-.18,29.86-2.54,59.72-2.53,89.58,2.34,23.67,38.31,17.04,56.07,18.95,43.14,1.52,29.88-54.33,35.93-81.83-.83-55.34-3.24-57.76-55.93-54.11Z"/>
          <path class="cls-9" d="M1019.65,808.64c-29.87,1.98-84.54-2.2-81.01,24.55,4.37,25.72-19.26,64.56,48.99,51.86,21.97-1.93,46.57-4.75,49.45-22.65-3.15-15.36,21.87-52.99-17.43-53.75Z"/>
          <path class="cls-9" d="M950.71,560.4c26.22-1.38,68.67,9.66,67.17-28.29-3.1-21.17,14.6-89.39-8.49-95.66-92.31-4.58-70.34-21.45-80.59,66.57.5.04-9.65,58.28,21.91,57.37Z"/>
          <path class="cls-9" d="M956.48,888.53c-34.85-10.07-18.37,58.97-23.58,74.85-4.52,42.53,15.83,42.1,59.14,39.76,9.77-5.2,26.13-11.08,26.73-17.62,2.82-31.01,1.26-62.32,1.26-91.19-22.9-1.94-43.53-2.48-63.54-5.82Z"/>
          <path class="cls-9" d="M893.21,806.54c-80.45,2.06-78.91,36.41-79.36,73.91,9.56,14.8,46.96,3.47,68.14,3.54,37.62.6,29.74-70.54,11.23-77.46Z"/>
          <path class="cls-9" d="M917.13,263.72c5.01-37.17-45.74-22.33-66.06-15.63-28.56,14.17-25.03,50.34-32.33,76.54-11.71,36.34,15.65,36.87,45.32,38.74,14.86.99,34.57,6.62,39.35-11.65,7.48-28.61,9.87-58.54,13.72-88Z"/>
          <path class="cls-9" d="M808.08,842.72c-2.78-36.59.73-34.07-62.46-29.17-17.59,1.01-28.27,7.35-28.84,17.82,4.09,36.8-26.53,66.35,61.12,48.82,29.46-1.6,37.8-18.9,30.18-37.47Z"/>
          <path class="cls-9" d="M775.1,231.42c-69.36-.81-69.79,31.38-70.86,88.13-1.62,24.46-1.48,24.47,31.05,26.79,14.35-1.8,54.07-1.4,59.6-24.59,5.51-22.09,19.42-92.31-19.79-90.33Z"/>
          <path class="cls-9" d="M710.34,172.13c-5.5,44.87,3.06,41.58,45.31,42.52,47.82,1.88,60.03-35.65,60.52-75.34,6.46-35.33-48.14-16.55-67.14-13.66-36.14,9.75-35.98,10.32-38.69,46.47Z"/>
          <path class="cls-9" d="M786.38,744.74c-43.35,7.06-71.55,6.35-69.9,36.18,3.09,7.6.38,20.64,13.92,24.28,53.61,4.68,96.62-8.29,89.9-44.4.36-16.8-7.87-20.2-33.92-16.06Z"/>
          <path class="cls-9" d="M988.99,137.79c-44.18,4.09-44.16,4.28-47.31,48.04-2.86,39.78-1.39,41.43,37.58,42.09,45.2.77,63.02-14.73,66.29-57.64,6.98-38.48-28.76-32.16-56.56-32.49Z"/>
          <path class="cls-9" d="M893.29,742.34c-29.74,1.64-71.55-1.52-66.07,25.56,6.53,10.49-8.25,36.72,20.8,33.62,22.19-3.13,62.26,3.77,73.59-11.06,2.46-17.86,20.3-52.91-28.32-48.12Z"/>
          <path class="cls-9" d="M901.42,129.99c-22.6,1.2-68.38-7.88-70.04,24.33,4.6,17.48-17,67.98,10.96,67.07,13.87-.59,27.73-1.25,41.59-1.88,12.86.27,30.76,10.04,35.26-9.61.55-24.27,22.94-80.21-17.76-79.92Z"/>
          <path class="cls-9" d="M995.96,743.06c-52.81,4.59-60.31-2.32-57.74,41.89.58,12.45,7.18,16.22,27.86,16.17,77.14,8.65,110.13-69.82,29.88-58.07Z"/>
          <path class="cls-9" d="M854.28,426.92c36.26-3.49,78.91,17.97,77.05-39.4,3.68-40.05-59.96-13.76-83.28-12.21-25.67,4.95-20.54,54.77,6.23,51.61Z"/>
          <path class="cls-9" d="M809.98,719.57c.49,17.67,28.94,17.07,49.92,16.84,30.86,2.32,54.05-3.12,49.2-28.23-1.56-11.36-14.78-11.16-27.6-10.48-24.6,3.17-75.1-.7-71.52,21.87Z"/>
          <path class="cls-9" d="M925.48,727.07c-.28,15.6,28.88,5.83,38.45,11.02,27.43-3.42,74.64-2.87,66.82-26.93-4.19-16.12-65.95-.39-86.2-2.77-23.79.48-19.22,10.19-19.07,18.68Z"/>
          <path class="cls-9" d="M964.04,426.44c32.97.89,92.45,10.9,91.67-36.59.91-22.87-78.57-6.63-94.97-4.78-22.29,3.5-11.01,38.03,3.3,41.37Z"/>
          <path class="cls-9" d="M776.24,708.94c-18.15,1.43-66.84-6.22-76.4,2.41-15.12,20.69,27.75,26.3,53.48,25.97,18.17-3.02,45.99,4.07,40.83-15.65-.48-7.08-2.39-12.69-17.91-12.72Z"/>
          <path class="cls-9" d="M728.76,396.21c18.88,8.72,49.69,11.93,69.38,4.06,5.5-3.38,12-13.4,10.35-17.78-3.32-8.81,5.25-26-15.85-25.22-35.53,2.63-103.32-14.32-63.88,38.94Z"/>
        </g>
      </g>
    </g>
    <g id="_03" data-name="03">
      <g class="cls-5">
        <path class="cls-12" d="M802.53,3.14c-1.11-1.11-8.59-6.35-7.34-1.38-9.54-5.81-11.34-2.4-18.36-3.46-11.84-5.88-20.7-8.04-23.87-4.5-9.11-2.4-12.14,1.27-23.87-4.5,1.11,7.07-12.21-1.04-18.36-3.46-3.52.21,5.25,11.21-7.34-1.38-7.84-7.84-3.34-4.65-4.82-8.09-14.07-16.03-4.81-9.39-10.61-17.79-8.43-11.04,2.55-2.67-10.61-17.79,2.27.31-14.01-17.28-4.82-8.09-2.18-2.18-1.09-7.79,5.05-13.56-6.11-12.07,13.37.15,5.86-15.73,3.23-5.15,10.27-7.6,7.68-20.62.03-5.19-9.18-19.84,4.43-11.88,3.83-1.83-10.36-21.88,4.77-12.8,2.42-3.63,5.76-6.53,5.07-13.61-10.74-17.14,5.91-7.05,5.34-14.33,9.54,2.84-4.95-18.49,5.56-14.94,3.06-3.9-4.65-18.68,5.75-15.44.13-7.03,5.63-8.8,5.91-15.85,1.06-6.27,5.19-9.54,6.02-16.16-7.02-14.46,11.2-3.74,6.1-16.36-3.13-10.64,7.09-7.97,6.13-16.46,13.49,5.95-.7-15.78,6.13-16.46-2.85-10.36,14.33-.68,6.1-16.36,7.1-.35,2.83-12.02,6.02-16.16-9.72-17.05-.89-15.48,5.91-15.85,3.78-3.39-6.82-21.06,5.75-15.44-4.69-11.65,3.95-9.85,5.56-14.94,3.28-3.42,6.07-7.19,5.34-14.33,4.08-2.31,9.99-2.64,5.07-13.61-3.5-9.55,8.85-3.07,4.77-12.8,3.05-2.6,4.67-6.43,4.43-11.88,10.53.11,7.46-12.46,7.68-20.62.88-7.5,9.21-6.43,5.86-15.73,6.22-5.7.87-17.75,5.05-13.56,5.42,5.42,2.24,2.34,12.45,12.72,10.13,10.22,4.55,4.73,13.82,14.11,9.46,9.57,7.03,7.26,17.32,17.68-2.69-2.63.78.91,9.61,9.81,6.73,6.8,1.7,1.84,10.05,10.26.8.87,6.31,6.45,10.34,10.56,3.56,3.63,12.88,13.03,10.48,10.7,6.73,6.8,6.44,6.58,10.48,10.7,7.43,7.51,7.16,7.3,10.34,10.56,6.39,6.47,8.8,8.94,10.05,10.26-.82-.75,13.72,13.86,9.61,9.81-6.79-6.66,1.87,2.12,17.32,17.68-.28-.17,7.84,8.05,13.82,14.11,9.22,9.38,12.13,12.39,12.45,12.72,1.83,1.83-5.03,3.9-4.49,18.72,3.29,10.43,4.99,20.61-4.83,20.17.89,5.58,1.4,11-2.84,11.84-12.75-7.67-8.05,2.27-3.03,12.65-6.64-1.28,9.97,20.8-3.16,13.19-.72,4.8-3.25,7.86-3.23,13.46-6.6-1.02-.18,10.98-3.23,13.46,6.95,12.47-6.98,4.02-3.16,13.19,2.02,7.38,10.42,21.02-3.03,12.65-7.84-2.76.25,10.24-2.84,11.84,2.48,11.85,4.69,22.55-4.83,20.17-5.89,8.39-4.85,18.36-4.49,18.72-4.31-4.31-8.65,1.62-14.8,11.88-8.35-.14-7.64,10.32-15.94,12.79.46,11.24-19.7,2.87-19.36,15.53-11.69-5.53-8.12,4.32-10.43,8.37-1.36,4.99,2.28,15.04-10.64,8.54-1.74,4.68-19.09-6.26-10.64,8.54-.92,5.43-.21,12.42-10.43,8.37.62,6.78-9.91,2.27-8.22,9.8-3.01,2.83-6.94,4.54-11.13,5.73-1.47,9.31-26.35-5.82-15.94,12.79-3.04,13.38-4.06,22.62-14.8,11.88Z"/>
        <path class="cls-12" d="M31.28,209.42l217.57-91.47,69.88-171.91s-1.97-9.4-4.93-23.49c-1.48-7.05-3.2-15.27-5.05-24.08-.35-3.83,11.05,3.97-2.85-13.58.5-3.16-5.4-12.77-2.94-14.02-3.07-6.78-7.75-15.18-2.94-14.02,6.83,3.17-16.47-23.72-2.85-13.58,7.45.49,1.45-12.01-5.05-24.08-23.78-34.92-10.59-29.16-4.93-23.49,4.05,4.05-12.48-2.01-19.16,8.08-2.99,5.39-8.77,9.57-20.64,8.7-21.18-15.68-28.57-17.3-12.12,5.11-11.82-5.86,9.97,22.09-12.95,5.46-11.35-5.06-10.07,2.63-13.5,5.69-11.18-4.7-11.83,1.2-13.77,5.81-5.89.66.26,13.36-13.77,5.81,5.25,11.73,8.71,21.62-13.5,5.69-8.31-2.03-9.4,3.04-12.95,5.46,8.26,14.22-7.74,3.99-12.12,5.11-16.98-5.97-25.3-4.34-20.64,8.7,4.25,21.02-23.45,3.79-19.16,8.08,14.16,14.16-2.83,5.9-8.44,14.86-2.39,4.89-10.48,5.54-9.36,16.48,4.08,13.9-11.89,8.85-11.73,20.66,2.69,8.51-5.61,6.21-6.51,11.46-3.12,3.03-1.07,11.35-6.81,11.98-.87,5.5-7.25,5.58-7,12.33,1.78,8.28,12.28,25.34-7.1,12.51-7.53-.98-6.69,6.42-7.1,12.51-2.27,4.23-2.26,10.71-7,12.33-5.3,1.07-16.75-4.1-6.81,11.98,6.86,13.01-1.25,10.9-6.51,11.46-14.27-2.62-12.81,9.76-11.73,20.66-13.85-4.02-14.51,4.05-9.36,16.48-9.1,5.45-13.36,9.94-8.44,14.86,3.44,3.44-7.87-2.05,6.61,21.17-13.69-9.32,9.51,18.98,6.77,21.7,8.27,11-11.64-6.08,3.82,12.24,9.59,12.46-1.52,4.26,3.94,12.63-7.8-4.89-3.56,2.27,3.94,12.63,5.49,8.36-11.16-5.48,3.82,12.24,7.08,12.54,7.37,17.92,6.77,21.7,3.96,12.7,6.61,21.17,6.61,21.17Z"/>
      </g>
    </g>
    <g id="_02" data-name="02">
      <g class="cls-6">
        <g>
          <path class="cls-8" d="M-247.12,6.07c1.61-3.92,3.54-7.71,5.68-11.43,2.18-3.69,4.65-7.26,7.39-10.62,2.74-3.37,5.75-6.54,8.9-9.54,3.19-2.96,6.5-5.78,9.93-8.42,6.85-5.29,14.04-10.01,21.33-14.45,3.66-2.2,7.33-4.35,11.03-6.45,3.7-2.09,7.43-4.1,11.16-6.1,14.95-7.95,30.11-15.3,45.37-22.35l11.45-5.27,11.49-5.12c7.44-3.41,14.87-6.83,22.14-10.57l5.45-2.8,5.37-2.94c3.62-1.88,7.11-3.99,10.66-6,1.76-1.02,3.48-2.11,5.22-3.17,1.74-1.06,3.48-2.11,5.19-3.22l5.15-3.28c1.7-1.11,3.37-2.28,5.06-3.41l2.52-1.71,2.47-1.78,4.96-3.55c3.24-2.45,6.51-4.87,9.65-7.45,6.33-5.09,12.53-10.37,18.38-16.01,11.76-11.23,22.59-23.51,31.86-37.03,9.25-13.52,17.11-28.19,22.06-44.34-.19,4.22-.8,8.43-1.52,12.63-.39,2.09-.83,4.18-1.35,6.25-.47,2.09-1.08,4.13-1.67,6.2-.62,2.05-1.28,4.09-1.97,6.12-.75,2-1.44,4.05-2.27,6.03-.8,1.99-1.59,4-2.5,5.94l-1.33,2.94-1.42,2.9c-7.63,15.46-17.58,29.78-28.98,42.8-1.43,1.62-2.88,3.23-4.34,4.82l-4.49,4.68c-1.49,1.57-3.07,3.04-4.61,4.57l-2.33,2.26-2.4,2.18c-3.17,2.95-6.47,5.73-9.76,8.54-1.66,1.38-3.35,2.73-5.04,4.07l-2.55,2.01-2.59,1.94c-13.78,10.42-28.5,19.54-43.76,27.46-3.79,2.05-7.67,3.88-11.52,5.79-1.92.97-3.89,1.82-5.85,2.7l-5.87,2.63-11.54,5-11.56,4.9-46.14,19.44c-3.83,1.62-7.64,3.27-11.44,4.93-3.81,1.63-7.59,3.31-11.34,5.04-7.53,3.4-14.93,6.98-22.09,10.91-7.15,3.94-14.03,8.27-20.33,13.46-6.31,5.17-12.03,11.24-17.32,17.86Z"/>
          <path class="cls-8" d="M-259.36,49.24c2.48-2.62,5.02-5.17,7.58-7.73,2.61-2.49,5.23-4.96,7.89-7.41,2.67-2.42,5.41-4.77,8.14-7.15,2.75-2.33,5.57-4.59,8.37-6.89,11.3-9.02,23.16-17.36,35.42-25.09l9.28-5.67c3.12-1.84,6.29-3.61,9.43-5.41,3.19-1.73,6.35-3.51,9.56-5.19l9.7-4.94c6.49-3.24,13.1-6.22,19.73-9.18,3.33-1.44,6.67-2.86,10.03-4.22l10.03-4.02c26.19-10.25,51.77-21.35,75.66-35.55,11.95-7.07,23.45-14.93,34.39-23.69,5.48-4.36,10.79-8.99,15.98-13.81,5.18-4.84,10.2-9.91,15.19-15.14-3.14,6.51-6.84,12.76-10.93,18.78-4.08,6.03-8.59,11.78-13.41,17.3-9.66,11.01-20.67,20.9-32.46,29.68-2.95,2.19-5.95,4.32-8.98,6.39-3.05,2.05-6.14,4.03-9.26,5.96-6.22,3.9-12.64,7.43-19.11,10.85-6.49,3.38-13.09,6.49-19.71,9.5-6.67,2.92-13.37,5.72-20.11,8.35l-9.89,3.83c-3.28,1.26-6.5,2.66-9.77,3.93-3.26,1.3-6.49,2.68-9.74,4.01-3.23,1.37-6.44,2.8-9.69,4.14l-9.64,4.26c-3.18,1.48-6.4,2.9-9.6,4.36-3.18,1.49-6.35,3.03-9.55,4.5l-9.51,4.6c-12.66,6.2-25.18,12.75-37.65,19.56l-9.34,5.15-9.32,5.25c-3.08,1.8-6.2,3.56-9.32,5.33-3.1,1.8-6.2,3.61-9.38,5.34Z"/>
        </g>
      </g>
    </g>
  </g>
</svg>