<?xml version="1.0" encoding="UTF-8"?>
<svg xmlns="http://www.w3.org/2000/svg" xmlns:xlink="http://www.w3.org/1999/xlink" viewBox="0 0 1080 1080">
  <defs>
    <style>
      .cls-1 {
        fill: none;
      }

      .cls-2 {
        fill: #6f7631;
      }

      .cls-3 {
        clip-path: url(#clippath-3);
      }

      .cls-4 {
        clip-path: url(#clippath-4);
      }

      .cls-5 {
        clip-path: url(#clippath-2);
      }

      .cls-6 {
        fill: #7b8536;
      }

      .cls-7 {
        fill: #fad59b;
      }

      .cls-8 {
        clip-path: url(#clippath);
      }

      .cls-9 {
        fill: url(#New_Pattern_Swatch_6);
      }

      .cls-10 {
        fill: #db8836;
      }
    </style>
    <clipPath id="clippath">
      <rect class="cls-1" x="0" y="0" width="1080" height="1080"/>
    </clipPath>
    <pattern id="New_Pattern_Swatch_6" data-name="New Pattern Swatch 6" x="0" y="0" width="1080" height="1080" patternTransform="translate(-4523.33 -4089.14) rotate(.11) scale(.5)" patternUnits="userSpaceOnUse" viewBox="0 0 1080 1080">
      <g class="cls-8">
        <rect class="cls-1" x="0" y="0" width="1080" height="1080"/>
        <rect class="cls-7" x="0" y="0" width="1080" height="1080"/>
        <path class="cls-10" d="M734.67,546.4c2.37,2.37-2.58-14.63,13.2-18.13,4.79-.03.94-9.15,4.3-11.43,2.79-2.85,9.15-2.52,9.91-8.09-4.12-10.45-2.54-15.49,9.21-10.59,2.85-4,2.3-11.64,8.05-13.11-8.86-16.09-3.38-17.98,8.46-13.6,2.35-5.11,3.08-11.9,10.32-12.2-.57-8.1,16.79,1.73,10.58-11.94,12.86,5.4,11.3-3.53,8.2-13.86,8.52,1.29,7.79-6.51,9.84-11.32,1.82-5.03-2.97-16.44,7.41-12.39,7.37-5.28,7.24-16.86,14.21-19.52,21.73,2.45,13.34-17.98,13.2-18.13-11.53-11.53-8.98-11.18-1.14-7.19,1.98-1.87-5.53-14.89-3.01-18.97-7.13-10.43-7.76-14.63-2.01-12.67.81-2.97-3.89-11.66-2.25-14.14-6.14-10.27-5.06-13.45-2.4-15.12-.18-4.51-9.13-17.86-2.48-15.61,5.27.87,4.66-4.14-2.48-15.61,1.6-2.74-8.24-16.84-2.4-15.12-2.6-6.72-4.13-12.24-2.25-14.14,6.35,2.56-4.63-11.99-2.01-12.67,6.9.3-5.07-17.17-3.01-18.97-1.69-5.54-7.82-13.87-1.14-7.19-4.71-4.71-13.94-12.13-15.38-10.55-13.86-12.35-23.28-19.95-17.07-11.7,6.28,7.3-28.18-26.08-10.25-7.02-12.18-11.06,3.6,5.9-11.15-7.64,2.34,3.55-.53,1.93-11.87-8.14-6.63-5.35-2.71-.13-12.41-8.51-4.59-3.27-3.65-.98-12.77-8.75-8.41-7.06-11.18-8.47-12.95-8.88-6.42-5.06-10.07-7.34-12.95-8.88-5.79-4.44-15.08-12.39-12.77-8.75-4.81-3.49-22.17-19.54-12.63-8.73-9.48-8.2-16.45-13.93-11.65-7.92-1.09.12-6.61-4.23-11.71-8.2-5.58-4.46-.85,1.35-9.69-6.46-6.72-4.68-8.86-5.01-17.07-11.7-6.1-3.07-20.77-15.94-15.38-10.55,1.84,1.84-1.23,3.84-6.3,6.38-8.99-1.38-2.21,15.54-13.85,14.04-7.54,2.6-1.57,18.71-13.85,14.04-3.96,3.65-3.36,9.32-6.3,6.38-.43-.43-4.06.73,2.17,15.35,7.36,11.55,2.66,11.95,2.5,17.62-4.27,1.57,2.7,15.13,3.24,22.86-2.84.75-1.65,5.69,1.85,13.06.94,4.82,10.75,18.63,1.98,13.98,4.79,8.91,3.14,11.49,2.09,14.76,5.74,10.06-5.52,3.22,2.18,15.42.41,4.91,8.63,17.69,2.26,15.94,1.75,6.37,5.16,14.46,2.31,16.33-.1,4.61-5.59,3.88,2.35,16.6,1.88,6.66.76,10.33,2.37,16.73,7.47,12.26-.2,9.39,2.37,16.73.88,5.65-2.78,6.75,2.35,16.6,2.55,7.27,3.97,13.37,2.31,16.33,3.05,7.67,3.55,12.74,2.26,15.94,5.42,9.91-4.15,4.76,2.18,15.42,3.71,8.04-.89,7.67,2.09,14.76,10.63,14.75,4.52,12.65,1.98,13.98,11.25,15.12,2.48,10.1,1.85,13.06.77,7.96-3.42,10.36,3.24,22.86-21.73-15.89-6.85,4.08,2.5,17.62,10.22,18.61,8.15,21.33,2.17,15.35-2.65-2.65.59-.1,15.17,13.43,14.23,13.71,8.13,7,15.55,13.76-3.96-4.61,10.23,8.88,17.82,15.78,11.19,10.5,11.57,10.18,17.82,15.78,7.29,6.64-2.4-3.66,15.55,13.76,10.12,9.07,22.18,20.44,15.17,13.43Z"/>
        <path class="cls-10" d="M297.48,392.23c-5.23-5.23-6.35-8.77-2.38-8.83-7.74-11.77-2.97-12.65-5.95-22.08-9.35-12.57,4.57-2.09-3.76-13.94-4.32-7.85-1.4-8.56-3.98-14.77-3.38-7.01-12.24-19.5-3.98-14.77-3.3-6.82-4.2-11.16-3.76-13.94-3.61-10.06.64-11.45-5.95-22.08-4.01-8.04,6.27-.18-2.38-8.83,2.24,2.24-8.1.99-17.15,6.49-7.04.23-4.37,11.53-18.47,6.99,6.48,16.03-26.29-6.29-22.42,8.48-7.73-2.28-10.97.05-12.08,4.57-7.04-1.41-3.03,8.28-12.32,4.66-2.35,3.33-11.32.04-12.32,4.66-6.64-1.02-10.1,1.09-12.08,4.57-13.29-2.39-12.16,9.2-22.42,8.48-6,3.54-11.66,6.52-18.47,6.99-18.68-4.13-18.08,5.55-17.15,6.49-9.69-9.69-10.68,1.08-15,14.4-12.3-3.48-9.38,9.73-15.38,14.76-8.2,2.83-15.44,7.35-17.63,16.92-4.4,7.37-18.86,4.66-17.63,16.92-2.7,8.32-6.06,15.26-15.38,14.76-13.18,4.46-7.88,21.52-15,14.4s3.07,12.89-3.61,20.96c-4.2,3.17,2.7,18.67-3.7,21.48-1.82,7.39-10.68,8.36-4.24,24.62-2.81,7.01-1.85,17.81-4.24,24.62-5.21,4-9.85,7.96-3.7,21.48,5.85,20.59,7.64,32.2-3.61,20.96,3.31,3.31,1.72,1.74,5.64,5.7-2.64-2.6,20.06,20.16,14.1,14.25-1.76-1.73,9.12,9.18,8.9,9,6.92,6.95,9.82,9.89,9.43,9.53,7.98,8.02,1.72,1.79,9.43,9.53,9.03,9.06-5.81-5.74,8.9,9,.04.1,11.31,11.42,14.1,14.25,7.42,7.46,16.82,16.88,5.64,5.7-4.46-4.46,12.32,2.11,21.27-4.27,13.66,5.99,14.95-1.65,21.8-4.38,4.42-.37,12.76,3.03,12.3-2.47,12.36,7.33,1.75-8.38,12.69-2.55,3.2-1.91-1.66-11.88,12.69-2.55,5.02,0,5.99-3.99,12.3-2.47,13.42,3.84,12.16-6.36,21.8-4.38,19.39,4.07,22.43-3.11,21.27-4.27,2.51,2.51-10.13-13.38,5.76-3.19,16.01,10.31,3.44-10.39,7.59-16,12.97,3.2-1.06-22.21,13.68-19.67,2.57-3.53,5.41-6.99,7.72-11.1,3.05-3.36-2.01-14.93,7.97-11.46-4.84-11.35,9.98-3.03,7.97-11.46.84-5.56,10.87-1.84,7.72-11.1,3.34-8.87-6.65-30.24,13.68-19.67,10.11-9.42,16.42-16.12,13.35-19.19,4,4,1.18-2,1.37-7.13,1.61-3.71,3.37-9.38,3.43-17.82-4.19-12.69,1.45-16.61,4.46-23.17-2.86-12.42-1.13-20.25,4.46-23.17,4.47-4.03,5.98-9.96,3.43-17.82,4.48-.83-.55-9.05,1.37-7.13Z"/>
        <path class="cls-10" d="M377.15,78.45c-1.3-1.3,5.72,2.17,7.08-2.38,10.5,4.58,3.33-10.87,17.71-5.96,12.22,2.75,19.91-.2,23.02-7.75,14.59,3.94,14.55-6.75,23.02-7.75,13.65,4.19,23.44,5.69,17.71-5.96,10.13,4.21,11.72,2.25,7.08-2.38-6.05-6.05-3.41-4.8,8.16,4.69,1.32-.76,15.84,10.99,17.95,10.33,10,7.22,15.06,9.51,17.95,10.33,9.99,7.91,10.3,6.83,8.16,4.69,3.77,3.77,2.74,7.08,2.71,14.64,3.5,7.3,6.59,15,3.11,16.81.53,5.82,12.93,24.19,4.03,21.8-.37,2.88-.27,6.37,2.3,12.46-2.95.56-5.01,2.13,2.46,13.33-8.25-4.52-1.49,6.07,2.6,14.08-9.49-5.57,9.75,17.67,2.72,14.71-5.37-1.3.38,8.59,2.81,15.21,8.87,13.06,5.03,13.46,2.88,15.58,5.62,9.89,2.1,10.68,2.93,15.83,4.76,9.08,2.25,10.91,2.95,15.96-4.39-.05-.37,8.32,2.95,15.96.1,4.42.93,9.56,2.93,15.83,3.91,8.18-2.08,6.43,2.88,15.58,1.37,5.56,8.92,17.25,2.81,15.21-.87,3.2,8.44,16.51,2.72,14.71-4.8-.88,4.85,12.6,2.6,14.08,2.54,6.27-5.73,1.63,2.46,13.33,2.87,6.38,10.9,17.8,2.3,12.46,7.41,13.92.31,12.79,4.03,21.8,10.07,15.36,10.92,20.82,3.11,16.81,10.55,18.15-3.47,8.47,2.71,14.64,11.62,11.62,8.68,19.27-7.57,18.91,1.18,9.12,10.92,28.13-7.76,19.38-2.22,7.71,12.4,32.92-8.9,22.22.47,11.06-11.47,9.71-8.9,22.22,8.66,18.59-5.91,13.29-7.76,19.38,6.59,22.47-4.41,22.07-7.57,18.91-7.39-7.39-1.16,1.56-18.74-11.68-5.7-3.52-14.01-9.25-20.19-12.58-5.33-3.91-5.21-2.29-11.85-7.38-12.72-11.18-1.54,1.6-12.66-7.89-6.52-4.89-7.7-4.41-13.2-8.23-2.87-1.19-11.86-8.48-13.47-8.39-3.39-1.69-11.2-7.8-13.47-8.39-2.9-1.22-5.7-2.35-13.2-8.23-4.09-2.46-6.85-3.62-12.66-7.89-9.23-7.69-6.54-3.5-11.85-7.38-11.92-9.07-13.42-7.98-20.19-12.58-11.14-6.8-17.59-10.52-18.74-11.68-4.23-4.23-6.61-11.72-5.24-18.53-4.75-8.83-3.82-12.76-5.65-19.95,2.35-.33.38-5.11-3.32-11.71-.51-3.42-3.09-8.99-3.54-12.51,2.48-.59-5.91-12.1-3.69-13.05,1.25-1.91-1.14-7.49-3.77-13.32-4.88-8.07,1.42-4.96-3.77-13.32-3.67-6.83-.91-7.2-3.69-13.05-3.92-6.99-7.18-13.25-3.54-12.51-2.59-5.5-4.6-10.31-3.32-11.71-5.37-10.74.49-9.73-5.65-19.95,2.81-5.36-14.52-27.8-5.24-18.53,2.92,2.92,9.88.38,7.1-17.6.82-6.78-.87-17.5,7.65-18.95,5.34-4.64,3.43-17.47,9.29-23.02.43-5.27,4.19-7.33,5-12.4,3.33-2.55.96-10.86,5.11-12.65-1.43-7.37-.04-11.91,5.11-12.65,1.91-3.97.65-11.05,5-12.4,3.16-8.25,3.51-18.82,9.29-23.02,5.38-4.59,7.05-11.95,7.65-18.95,3.21-11.99,8.7-16,7.1-17.6Z"/>
        <path class="cls-10" d="M802.53,1183.14c-1.11-1.11-8.59-6.35-7.34-1.38-9.54-5.81-11.34-2.4-18.36-3.46-11.84-5.88-20.7-8.04-23.87-4.5-9.11-2.4-12.14,1.27-23.87-4.5,1.11,7.07-12.21-1.04-18.36-3.46-3.52.21,5.25,11.21-7.34-1.38-7.84-7.84-3.34-4.65-4.82-8.09-14.07-16.03-4.81-9.39-10.61-17.79-8.43-11.04,2.55-2.67-10.61-17.79,2.27.31-14.01-17.28-4.82-8.09-2.18-2.18-1.09-7.79,5.05-13.56-6.11-12.07,13.37.15,5.86-15.73,3.23-5.15,10.27-7.6,7.68-20.62.03-5.19-9.18-19.84,4.43-11.88,3.83-1.83-10.36-21.88,4.77-12.8,2.42-3.63,5.76-6.53,5.07-13.61-10.74-17.14,5.91-7.05,5.34-14.33,9.54,2.84-4.95-18.49,5.56-14.94,3.06-3.9-4.65-18.68,5.75-15.44.13-7.03,5.63-8.8,5.91-15.85,1.06-6.27,5.19-9.54,6.02-16.16-7.02-14.46,11.2-3.74,6.1-16.36-3.13-10.64,7.09-7.97,6.13-16.46,13.49,5.95-.7-15.78,6.13-16.46-2.85-10.36,14.33-.68,6.1-16.36,7.1-.35,2.83-12.02,6.02-16.16-9.72-17.05-.89-15.48,5.91-15.85,3.78-3.39-6.82-21.06,5.75-15.44-4.69-11.65,3.95-9.85,5.56-14.94,3.28-3.42,6.07-7.19,5.34-14.33,4.08-2.31,9.99-2.64,5.07-13.61-3.5-9.55,8.85-3.07,4.77-12.8,3.05-2.6,4.67-6.43,4.43-11.88,10.53.11,7.46-12.46,7.68-20.62.88-7.5,9.21-6.43,5.86-15.73,6.22-5.7.87-17.75,5.05-13.56,5.42,5.42,2.24,2.34,12.45,12.72,10.13,10.22,4.55,4.73,13.82,14.11,9.46,9.57,7.03,7.26,17.32,17.68-2.69-2.63.78.91,9.61,9.81,6.73,6.8,1.7,1.84,10.05,10.26.8.87,6.31,6.45,10.34,10.56,3.56,3.63,12.88,13.03,10.48,10.7,6.73,6.8,6.44,6.58,10.48,10.7,7.43,7.51,7.16,7.3,10.34,10.56,6.39,6.47,8.8,8.94,10.05,10.26-.82-.75,13.72,13.86,9.61,9.81-6.79-6.66,1.87,2.12,17.32,17.68-.28-.17,7.84,8.05,13.82,14.11,9.22,9.38,12.13,12.39,12.45,12.72,1.83,1.83-5.03,3.9-4.49,18.72,3.29,10.43,4.99,20.61-4.83,20.17.89,5.58,1.4,11-2.84,11.84-12.75-7.67-8.05,2.27-3.03,12.65-6.64-1.28,9.97,20.8-3.16,13.19-.72,4.8-3.25,7.86-3.23,13.46-6.6-1.02-.18,10.98-3.23,13.46,6.95,12.47-6.98,4.02-3.16,13.19,2.02,7.38,10.42,21.02-3.03,12.65-7.84-2.76.25,10.24-2.84,11.84,2.48,11.85,4.69,22.55-4.83,20.17-5.89,8.39-4.85,18.36-4.49,18.72-4.31-4.31-8.65,1.62-14.8,11.88-8.35-.14-7.64,10.32-15.94,12.79.46,11.24-19.7,2.87-19.36,15.53-11.69-5.53-8.12,4.32-10.43,8.37-1.36,4.99,2.28,15.04-10.64,8.54-1.74,4.68-19.09-6.26-10.64,8.54-.92,5.43-.21,12.42-10.43,8.37.62,6.78-9.91,2.27-8.22,9.8-3.01,2.83-6.94,4.54-11.13,5.73-1.47,9.31-26.35-5.82-15.94,12.79-3.04,13.38-4.06,22.62-14.8,11.88Z"/>
        <path class="cls-10" d="M337.35,466.4c-2.33-2.33-3.65.03-3.92,6.18-3.14,3.29-10.03,5.58-10.34,16.28,5.54,11.04-13.59-2.11-6.91,10.88-7.23-.92,2.08,15.05-7.71,12.14-1.17,5.72-8.91,5.1-8.25,12.98-1.01,6.22-10.49,4.08-8.51,13.41-7.68-.33-4.9,9.79-8.51,13.41-3.54,3.69-9.55,4.8-8.25,12.98-5.11,1.77-3.09,10.45-7.71,12.14-5.65.66-.22,12.06-6.91,10.88,2.09,13.1-6.19,14-10.34,16.28-.54,5.88-12.85-2.75-3.92,6.18-4.15-4.15,5.41,12.69,2.41,20.6,1.35,6.81-9.12,2.7,2.47,21.12-4.53,2.29-2.93,11.17,2.83,24.21,3.58,10.86,2.12,16.67,2.83,24.21,15.88,22.7,1.95,15.13,2.47,21.12-3.33,7.59,5.09,23.28,2.41,20.6-7.96-7.96,7.57,9.61,14.33,19.09,3.45,4.82,6.45,9.34,13.3,17.73-2.97-1.44,18.9,21.96,13.3,17.73,4.68,7.41,3.65,8.41,14.33,19.09-4.39-4.39,10.65,1.04,13.23-12.39,1.51-6.5,15.38-2.24,14.68-13.74,2.74-2.67,6.24-4.86,8.81-8.25-8.56-14.51-1.11-13.27,9.59-8.98,6.47.07,9.3-3.71,10.21-9.56,4.53-2.22,6.95-6.71,10.67-9.99,3.98-3.03,13.48-.63,10.98-10.28.97-6.18,3.55-10.81,11.14-10.43,1.63-5.57,8.34-6.07,11.14-10.43,2.73-4.42,11.89-2.38,10.98-10.28-1.73-8.74,3.22-10.69,10.67-9.99,3.53-3.22,12.76-.6,10.21-9.56,10.82,4.42-.46-13.07,9.59-8.98-1.74-7.7,7.75-3.91,8.81-8.25,5.75-5.06,13.94-6.48,14.68-13.74,10.32-5.69,17.74-7.89,13.23-12.39,7.18,7.18-.92-2.8-3.24-8.25-9.55-12.68-1.74-9.26-8.09-20.62-7.52-10.03-2.41-7.58-5.11-13.02-2.56-5.3.51-5.05-5.41-13.79-.64-3.46,4.93-.71-5.41-13.79-2.65-5.39-6.3-11.7-5.11-13.02-1.1-6.11-7.26-16.65-8.09-20.62-.48-3.61-.6-5.61-3.24-8.25,2.87,2.87-1.09,1.64-17.86-11.03-1.5.55-5.73-1.29-18.31-11.31-2.85-.29-12.45-7.15-20.99-12.96-7.57-4.84-14.35-8.88-20.99-12.96-7.99-5.43-10.65-5.69-18.31-11.31-10.13-6.03-22.67-15.84-17.86-11.03Z"/>
        <path class="cls-10" d="M978.69,641.01c-8.36-8.36-.96-9.1,4-17.71,9.44,2.65-7.14-22.07,4.44-19.64-1.14-5.72-1.72-11.13,2.67-11.79,7.53,2.48-2.49-12.8,2.9-12.83,6.95,1.53,2.37-8.65,3.09-13.66.48-5.25-4.58-16.15,3.23-14.28-4.48-10.41-4.41-16.36,3.32-14.7-4.93-10.99,5.88-6.29,3.37-14.91,4.6-1.51,10.24-1.98,3.37-14.91,7.73,1.67,1.35-10.73,3.32-14.7,8.38,2.44,4.93-6.86,3.23-14.28-3.81-9.54,4.73-6.6,3.09-13.66-4.25-9.67-3.02-13.71,1.71-14.02,4.38-.66-.3-10.18,3.86-10.6,8.21-.95,9.72-7.58,4.44-19.64.84-12.73,6.22-15.49,4-17.71,11.07,11.07-2.22,1.24-9.22,0-5.66.1-18.61-4.78-23.05,0-5.15-.54-5.81,3.7-14.55,0-11.67-6.62-6.85,3.38-15.41,0-7.64-2.46-12.15-1.78-15.41,0-2.07,2.97-6.44,3.5-14.55,0-10.02-.8-18.66-1.37-23.05,0-4,1.76-12.74-3.52-9.22,0-1.19-1.19-2.15,8.68-12.12,16.05-4.91,3.75-13.32,5.63-13.05,17.28.35,6.04-6.71,4.93-7.66,10.15-2.11,4.05-6.69,5.84-8.18,10.84-8.77-2.27-3.99,9.14-8.53,11.3-12.87-6.17-8.45,5.03-8.71,11.54-1.59,5.18-4.6,8.95-8.71,11.54-6.68.03-16.26-2.92-8.53,11.3-5.91.59-6.3,6.56-8.18,10.84,4.65,10.81-1.03,11.09-7.66,10.15-4.33,7.05-4.74,16.92-13.05,17.28-24.39-7.06-11.21,16.95-12.12,16.05-4.81-4.81-4.68-2.47,2.85,8.74,22.26,25.94,7.78,16.61,7.13,21.86,13.29,16.24,12.74,18.81,3.64,12.93-3.14.08,1.17,7.71,5.64,15.48,2.13,5.44,11.32,17.94,4.77,14.62-2.66.56-1.01,5.34,4.5,13.8,6.91,12.8,6.81,17.85,7.13,21.86,7.56,11.24-13.72-7.83,2.85,8.74,1.05,1.05,5.2-6.16,23.19-5.2,8.3-.22,14.24-4.22,23.77-5.33,5.33,0,9.36-1.46,13.41-3.01,1.26-4.33,7.16-4.11,13.84-3.11,7.24,1.56,4.92-6.43,13.84-3.11,6.21.63,13.66,2.57,13.41-3.01,15.19,4.54,20.97.38,23.77-5.33,18.22,1.19,25.54-2.86,23.19-5.2Z"/>
        <path class="cls-10" d="M31.28,1389.42l217.57-91.47,69.88-171.91s-1.97-9.4-4.93-23.49c-1.48-7.05-3.2-15.27-5.05-24.08-.35-3.83,11.05,3.97-2.85-13.58.5-3.16-5.4-12.77-2.94-14.02-3.07-6.78-7.75-15.18-2.94-14.02,6.83,3.17-16.47-23.72-2.85-13.58,7.45.49,1.45-12.01-5.05-24.08-23.78-34.92-10.59-29.16-4.93-23.49,4.05,4.05-12.48-2.01-19.16,8.08-2.99,5.39-8.77,9.57-20.64,8.7-21.18-15.68-28.57-17.3-12.12,5.11-11.82-5.86,9.97,22.09-12.95,5.46-11.35-5.06-10.07,2.63-13.5,5.69-11.18-4.7-11.83,1.2-13.77,5.81-5.89.66.26,13.36-13.77,5.81,5.25,11.73,8.71,21.62-13.5,5.69-8.31-2.03-9.4,3.04-12.95,5.46,8.26,14.22-7.74,3.99-12.12,5.11-16.98-5.97-25.3-4.34-20.64,8.7,4.25,21.02-23.45,3.79-19.16,8.08,14.16,14.16-2.83,5.9-8.44,14.86-2.39,4.89-10.48,5.54-9.36,16.48,4.08,13.9-11.89,8.85-11.73,20.66,2.69,8.51-5.61,6.21-6.51,11.46-3.12,3.03-1.07,11.35-6.81,11.98-.87,5.5-7.25,5.58-7,12.33,1.78,8.28,12.28,25.34-7.1,12.51-7.53-.98-6.69,6.42-7.1,12.51-2.27,4.23-2.26,10.71-7,12.33-5.3,1.07-16.75-4.1-6.81,11.98,6.86,13.01-1.25,10.9-6.51,11.46-14.27-2.62-12.81,9.76-11.73,20.66-13.85-4.02-14.51,4.05-9.36,16.48-9.1,5.45-13.36,9.94-8.44,14.86,3.44,3.44-7.87-2.05,6.61,21.17-13.69-9.32,9.51,18.98,6.77,21.7,8.27,11-11.64-6.08,3.82,12.24,9.59,12.46-1.52,4.26,3.94,12.63-7.8-4.89-3.56,2.27,3.94,12.63,5.49,8.36-11.16-5.48,3.82,12.24,7.08,12.54,7.37,17.92,6.77,21.7,3.96,12.7,6.61,21.17,6.61,21.17Z"/>
        <path class="cls-10" d="M-12.48,683.93c10.88,10.88,12.55,3.58,21.07-2.25,7.86.68,22.24,6.54,22.69-2.42-4.01-8.72,8.61-1.03,13.32-1.42,8.68,3.58,8.12-2.25,14.23-1.52,9.81,4.43,4.88-6,14.84-1.58,3.83-1.72,5.89-5.27,15.14-1.62,5.52-.09,1.35-9.87,15.14-1.62,2.79-2.76,16.97,5.93,14.84-1.58-8.05-13.43-1.45-12.1,14.23-1.52,1.69-3.41-.99-11.03,13.32-1.42,17.4,7.98,4.6-13.33,22.69-2.42,3.39-10.96,18.55-4.77,21.07-2.25,3.88,3.88,6.3,10.41,7.6,18.27,4.31,7.6,6.48,13.66,8.18,19.68,4.31,6.47,10.42,14.83,4.8,11.55-10.46-8.12,6.22,10.96,5.13,12.34-2.23.24-6.54-1.56,5.35,12.87,18.79,21.33,8.17,13.28,5.46,13.14,4.58,7.15-5.06.08,5.46,13.14-1.7.84-4.84.22,5.35,12.87-3.72-1.26-4.26.62,5.13,12.34,1.23,3.57,2.02,6.61,4.8,11.55,17.75,22.06,6.83,15.04,8.18,19.68,2.31,8.88,10.2,20.88,7.6,18.27,5.22,5.22,7.66,18.53-8.72,18.47,4.82,12.98-15.89,1.78-8.94,18.93.25,10.44-5.45,15.62-10.24,21.7-4.72,6.15-12.07,9.68-10.24,21.7-6.18,4.01-4.82,14.89-8.94,18.93-2.53,13.78-10.08,17.11-8.72,18.47,19.35,19.35-1.16,7.87-16.9,7.19,3.79,11.32-4.15,12.41-18.75,7.97-.36,4.72-14.44-3.99-11.26,4.79-2.41,3.19-11.65-.21-12.25,5.21-3.49,2.53-10.68,1.56-13.04,5.54,14.91,21.26,3.71,16.56-13.63,5.8-7.73-1.15-10.6,2.67-14.03,5.96,3.51,10.24,2.65,16.15-14.23,6.05-4.29,2.48-8.87,4.68-14.23,6.05-3.19,3.54-8.03,5.37-14.03,5.96-3.36,3.23-7.97,5.11-13.63,5.8-1.98,4.37-7.6,4.97-13.04,5.54-3.29,2.73-15.04-3.19-12.25,5.21-3.71,1.88-12.72-1.76-11.26,4.79-5.05,5.11-19.38-.19-18.75,7.97-13.07,1.98-6.31,17.78-16.9,7.19,14.16,14.16-2.21-7.52-9.49-21.9-7.09-10.64-9.6-17.13-8.81-20.33-1.12-5.11,2.48-5.49-8.81-20.33,3.29-3.8-14.43-26.84-9.49-21.9-8.91-8.91-2.6-9.33,2.49-15.78,2.21-3.56-4.79-17.53,2.81-17.85-10.99-18.92,6.6-10.23,3.6-22.84-6.08-10.89-.98-10.77,2.03-12.9.65-4.48-5.26-15.69,2.16-13.68,6.72,1.31,9.43-1.5,2.25-14.3,13.17,7.55-1.3-12.62,2.33-14.77,6.99,1.22,3.27-8.32,2.38-15.08-14.24-20.1-2.88-14.63,2.4-15.23.23-5.66,4.1-7.68,2.4-15.23,2.23-3.63,8.43-3.25,2.38-15.08,4.27-1.5-3.56-15.03,2.33-14.77,1.1-4.52-4.16-15.31,2.25-14.3-4.49-9.9,4.31-6.38,2.16-13.68,8.92,3.78-2.82-12.94,2.03-12.9,1.31-8.3,4.01-14.49,3.6-22.84,1.66-6.27,6.42-8.48,2.81-17.85,9.38-2.16,3.15-15.11,2.49-15.78Z"/>
        <path class="cls-10" d="M309.84,891.52c3.35,3.35,2.35-8.41,14.71-13.98.98-7.98-3.47-23.2,16.32-15.51,2.55-3.5,7.1-5.34,9.8-9.31-4.04-10.71,3.29-10.33,10.66-10.13,4.93-2.24,9.39-5.18,11.35-10.79,8.19.63,5.47-9.82,11.87-11.28.94-6.9,10.87-4.93,12.21-11.61,2.57-5.44,6.47-9.61,12.38-11.77,7.08-.99,6.61-9.53,12.38-11.77,7.89-.12,7.11-8.86,12.21-11.61,2.35-5.5-.55-16.13,11.87-11.28,6.98-.59,10.87-4.09,11.35-10.79-.17-7.35,6.21-7.92,10.66-10.13,6.47-.2-4.68-17.73,9.8-9.31-3.9-16.01,16.69-6.18,16.32-15.51,4.31-13.62,16.93-11.76,14.71-13.98-2.38-2.38,6,10.65,4.35,16.97,18.5,22.49,3.98,12.78,4.92,19.2-1.14,1.6,8.15,13.8,3,11.7-5.14-2.09,19.05,25.3,3.3,12.87-5.37-2.05,5.79,12.55,3.56,13.87-12.33-8.78,4.89,12.09,3.77,14.71-5.75-2.02,5.06,12.61,3.94,15.38-7.59-3.71,10.42,18.24,4.07,15.88,7.43,11.41,10.62,18.64,4.16,16.22,9.53,13.58-6.19,1.92,4.2,16.38-17.97-13.9-6.34,1.8,4.2,16.38-15.26-11.22,14.37,22.45,4.16,16.22-5.08-1.1,7.88,15.81,4.07,15.88,3.95,7.83-3.28,4.42,3.94,15.38,1.71,5.44-4.36,3.03,3.77,14.71-.38,3.17-5.31,1.68,3.56,13.87,11.38,14.71,3.88,10.4,3.3,12.87.49,3.54,3.16,9.12,3,11.7,4.31,9.79,7.29,17.59,4.92,19.2-1.98,5.99,5.02,17.64,4.35,16.97-2.57-2.57-11.16-6.95-2.55,8.68,4.13,11.15-10.98,5.85-6.37,21.69-12.13-6.52-2.63,8.94-4.02,13.69-.68,5.46-5.63,6.82-4.26,14.5-6.9-.59-2.63,10-4.26,14.5-2.43,3.71,1.65,13.75-4.02,13.69,4.14,15.37-12.33,8.72-6.37,21.69-8.85-1.83.58,11.8-2.55,8.68-2.69-2.69-.57,2.09-15.17-8.07-.62,1.6-9.78-4.9-16.83-8.95-.21,2.79-21.64-15.32-21.1-11.22,6.43,8.21-13.56-9.95-11.7-6.23-4.95-3.08-5.99-2.2-12.24-6.51-10.04-8.1,3.99,7.9-12.59-6.7-3.87-1.89-1.43,2.55-12.77-6.79,3.79,5.78-9.14-5.15-12.77-6.79-10.12-8.13-.75,3.2-12.59-6.7-9.66-7.71-20.72-16.86-12.24-6.51-8.83-6.96-9.07-5.36-11.7-6.23-10.95-7.4-13.25-6.37-21.1-11.22-5.8-2.8-9.16-3.5-16.83-8.95-6.87-2.43-27.62-20.52-15.17-8.07-14.66-14.66,5.78.29-5.93-19.65-14-18.12,11.04,2.11-6.07-20.14-5.97-11.11-3.95-14.59-6.96-23.09-7.79-13.28-13.87-24.85-6.96-23.09-11.91-17.06-15.38-25.33-6.07-20.14-1.81-10.04-16.62-30.35-5.93-19.65Z"/>
        <path class="cls-10" d="M802.53,103.14c-1.5-1.5-1.01,1.22-7.34-1.38-5.69-1.96-17-8.06-18.36-3.46-17.67-11.71-21.87-9.21-23.87-4.5-16.87-10.17-14.58-1.17-23.87-4.5-8.66-2.7-12.43-1.26-18.36-3.46,3.62,7.34-5.59.37-7.34-1.38-4.51-4.51-7.19-8.5-4.82-8.09-1.67-3.63-8.01-12.58-10.61-17.79-11.45-14.06-1.92-7.14-10.61-17.79-.05-2.01-4.49-7.76-4.82-8.09-.45-.45,1.42-5.28,5.05-13.56,7.84,1.88,4.2-9.02,5.86-15.73,10.72,2.34,4.63-13.24,7.68-20.62-.9-6.11-5.29-15.95,4.43-11.88-8.88-14.53,5.66-5.86,4.77-12.8,4.9-1.15,2.8-9.48,5.07-13.61,11.81,5.41.93-12.03,5.34-14.33,1.73-4.97,3.24-10.3,5.56-14.94,1.81-5.15,12.73-1.3,5.75-15.44-5.56-12.72,11.57-2.86,5.91-15.85,1.01-6.32,7.63-7.1,6.02-16.16-11.65-19.09,2.68-12.25,6.1-16.36,2.11-5.41,5.18-9.87,6.13-16.46,13.77,6.23,10.23-4.85,6.13-16.46,2.24-5.27-3.23-18.24,6.1-16.36,18.4,10.95,18.2,3.35,6.02-16.16-12.48-19.81,6.09-8.5,5.91-15.85,8.24,1.07-1.41-15.65,5.75-15.44,4.04-2.92,4.92-8.88,5.56-14.94-3.68-10.38-4.28-17.54,5.34-14.33-.67-7.07,12.97.33,5.07-13.61-2.18-8.23,9.2-2.71,4.77-12.8,9.14,3.48.4-10.7,4.43-11.88-.39-10.82,15.88-4.04,7.68-20.62,2.27-6.1,4.24-11.39,5.86-15.73l5.05-13.56s10.51,10.73,26.27,26.82c5.25,5.36,11.64,11.87,17.32,17.68,8.26,8.33,6.12,6.26,9.61,9.81-1.09-1.02,7.01,7.15,10.05,10.26,7.21,7.28,4.58,4.72,10.34,10.56-2.3-2.23,1.51,1.66,10.48,10.7,6.58,6.66,11.56,11.7,10.48,10.7,7.4,7.47,5.92,6.06,10.34,10.56,3.41,3.48,6.76,6.9,10.05,10.26,29.56,30.18,53.2,54.32,53.2,54.32l-21.57,90.02c-1.08,4.5-.16,11-3.23,13.46-.06,5.47-1.76,9.23-3.16,13.19,5.56,10.92,2.72,13.32-3.03,12.65,5.32,10.39,5.92,15.91-2.84,11.84-7.51,1.86-7.2,10.65-4.83,20.17-2.33,11.95-6.86,16.35-4.49,18.72-9.79-9.79-9.2,1.07-14.8,11.88.5,8.71-3.68,14.28-15.94,12.79,1.6,12.38-10.2,12.37-19.36,15.53-16.05-9.89-11.19,1.26-10.43,8.37-2.52,3.83,5.64,18.41-10.64,8.54-1.22,5.19,4.55,17.38-10.64,8.54-13.91-7.56-13.06-.42-10.43,8.37-7.96,4.35-13.3,10.82-19.36,15.53-9.24,1.53-14.96,5.57-15.94,12.79-1.66,14.76-2.16,24.52-14.8,11.88Z"/>
        <path class="cls-10" d="M31.28,309.42c-2.41-2.41,9.29.71,16.12-6.78,6.29-.86,6.87-8.87,17.88-7.52.57-9.09,17.64-2.74,22.41-9.42,14.5,8.78,16.36,4.73,12.43-5.23-7.55-13.58,9.56-2.65,13-5.47,10.44,4.18,21.59,8.98,13.38-5.62-7.51-13.9,9.57-3.27,13.57-5.7,11.51,5.07,7.2-5.68,13.57-5.7,11.11,4.71,8.66-4.08,13.38-5.62-5.44-11.7,18.91,6.48,13-5.47,6.25.21,9.86-2.07,12.43-5.23.52-10.93,1.47-20.71,22.41-9.42-.44-10.09,12.88-5.36,17.88-7.52-.06-14.37,19.31-3.58,16.12-6.78,2.95,2.95-2.37-12.04,7.27-17.88,5.07-2.67,6.15-10.77,7.83-19.25-5.07-10.15,4.92-5.48,4.59-11.3,5.22-.28,7.81-3.38,4.91-12.08,1.68-4.12,6.58-5.15,5.12-12.59,2.67-3.31-4.39-16.42,5.22-12.85-.42-6.47-2.35-14.44,5.22-12.85.3-5.69,6.79-5.12,5.12-12.59-3.79-9.6,3.97-7.51,4.91-12.08-4.9-10.41-.44-11.26,4.59-11.3,7.48-2.68,3.04-16.3,7.83-19.25-1.54-17.02,7.63-17.52,7.27-17.88,5.97,5.97-3.97-11.39-4.93-23.49-4.78-10.35-17.41-29.47-5.05-24.08-4.1-7.58-7.99-15.07-2.85-13.58-8.73-12.39-.3-7.67-2.94-14.02,8.27,4.56,4.22-3.2-2.94-14.02-4.51-8.17-13.04-20.29-2.85-13.58,1.36-5.6-10.77-24.23-5.05-24.08-5.58-16.72-3.99-22.56-4.93-23.49.51.51-3.95,6.53-19.16,8.08,7.65,16.04-19.01-.67-20.64,8.7,9.24,14.74,12.35,23.61-12.12,5.11-23.06-17.1-11.35.76-12.95,5.46,13.26,19.55-8.05,4.65-13.5,5.69-3.61,2.88-13.63-.6-13.77,5.81-15.23-8.68,3.44,16.54-13.77,5.81-18.98-12.49-8.35,4.55-13.5,5.69-5.77.52.45,12.9-12.95,5.46-15.01-9.05-16.53-4.8-12.12,5.11-11.87-.87-19.54,1.42-20.64,8.7-13.78,2.99-2.81,24.44-19.16,8.08-6.91-6.91-10.62-1.89-8.44,14.86-4.26,3.02-5.14,10.88-7.63,18.21-.8,9.03-11.1,9.65-13.46,18.93-2.86,2.97-8.1,3.73-6.53,11.44,2.85,8.99-9.07,3.35-7.11,11.68,4.78,11.15-4.73,8.1-8,11.34-2.64,3.87-5.62,7.43-5.78,13.82-2.05,4.5.37,13.47-4.53,15.07,7.74,14.25,1.53,14.5-8.56,10.78,2.04,8.41-2.81,9.84-7.84,10.95-7.67-1.52-1.58,10.57-6.5,11.47-8.76,2.88-5.82,16.75-11.73,20.66-7.25,2.57-12.3,6.26-9.36,16.48-8.1,6.45,1.46,24.75-8.44,14.86-.56-.56,6.07,11.89,6.61,21.17-7.88-3.51,8.42,17.89,6.77,21.7-1.69,1.04-2.89,2.66,3.82,12.24,1.47,4.33.72,6.5,3.94,12.63,8.51,11.42-4.86.97,3.94,12.63-.75,2.12-4.69.99,3.82,12.24,14.86,20.32-3.04,7.51,6.77,21.7,1.17,9.91,7.84,22.4,6.61,21.17Z"/>
        <path class="cls-10" d="M1377.48,392.23l-32.14-119.23-17.15,6.49c-5.28,2-9.15,6.76-18.47,6.99-8.3,1.24-14.5,5.5-22.42,8.48-5.29.17.16,11.18-12.08,4.57-6.15-.53-5.86,5.44-12.32,4.66-12.21-6.53-7.39,3.97-12.32,4.66-.45,5.18-11.42-.23-12.08,4.57-4.7,6.21-20.33,1.03-22.42,8.48-13.42-3.88-11.61,6.58-18.47,6.99-9.56,4.98-14.33,9.31-17.15,6.49,5.61,5.61-10.92.84-15,14.4,3.55,12.37-5.48,13.63-15.38,14.76-8.39,2.64-9.97,12.82-17.63,16.92-5.5,6.27-9.72,13.81-17.63,16.92-17.06-6.03-20.2,1.12-15.38,14.76-11.84,5.8-10.78,18.62-15,14.4-1.2-1.2,4.22,14.04-3.61,20.96,4.71,12.08,3.74,19.71-3.7,21.48-.88,8.34-7.77,11.27-4.24,24.62-2.29,7.54,1.1,20.75-4.24,24.62,1.4,10.61,4.08,21.89-3.7,21.48-7.63,7.11-2.9,21.66-3.61,20.96,1.06,1.06,6.42,6.45,5.64,5.7,1.79,1.83,6.99,7.08,14.1,14.25.25.28,16.08,16.15,8.9,9,1.54,1.57,14.49,14.56,9.43,9.53-1.32-1.29,6.76,6.83,9.43,9.53-1.46-1.42.27.34,8.9,9,9.53,9.59,8.92,9.04,14.1,14.25,3.15,3.19,9.25,9.31,5.64,5.7-1.95-1.95,10.38.16,21.27-4.27,1.42-6.24,15.84-.76,21.8-4.38,2.88-1.91,9.27-.47,12.3-2.47-2.09-7.12,9.37-.77,12.69-2.55-.49-5.6,5.59-4.63,12.69-2.55,1.15-3.88,13.14,3.16,12.3-2.47,12.76,3.19,14.34-4.18,21.8-4.38,13.74-1.59,20.08-5.46,21.27-4.27,3.74,3.74,6.91-6.11,13.35-19.19,5.94-3.83,6.07-15.09,13.68-19.67,5.46-.64,6.3-6.1,7.72-11.1,1.88-4.53,7.57-5.34,7.97-11.46.89-5.62,6.9-6.11,7.97-11.46,2.63-3.78,5.21-7.5,7.72-11.1,15.01-21.59,27.03-38.87,27.03-38.87"/>
        <path class="cls-10" d="M1067.52,683.93c1.69,1.69,10,1.03,21.07-2.25,9.47,2.3,17.61,1.92,22.69-2.42,6.48,1.77,8.92-.72,13.32-1.42,6.21,1.11,2.6-7.77,14.23-1.52,7.13,1.75,5.85-5.02,14.84-1.58-.21-5.76,5.48-5.68,15.14-1.62.22-5.39,10.27-.94,15.14-1.62,6.34.79,13.64,2.6,14.84-1.58,1.58-3.8,12.83,2.18,14.23-1.52,13.1,7.99,10.29.25,13.32-1.42,10.18.76,20.1,2.16,22.69-2.42,12.67-1.68,21.61-1.71,21.07-2.25-1.22-1.22,1.02,5.13,7.6,18.27,2.13,5.42,8.87,16.05,8.18,19.68,4.6,6.76,6.79,11.2,4.8,11.55,1.36,3.7-.37,4.38,5.13,12.34,5.45,7.91,6.11,11.09,5.35,12.87,4.77,7.31,2.84,7.95,5.46,13.14,2.74,5.31,2.35,7.48,5.46,13.14,1.06,3.6,3.6,8.65,5.35,12.87,14.03,33.74,25.72,61.85,25.72,61.85l-8.72,18.47c-2.62,5.54-5.67,12-8.94,18.93-4.56,5.64-5.62,15.45-10.24,21.7,2.9,13.77-5.67,16.08-10.24,21.7-5.39,4.81-7.09,12.62-8.94,18.93-13.75,2.56-5.11,22.07-8.72,18.47,1.84,1.84-13.34-4.31-16.9,7.19-2.18,5.35-13.89,2.67-18.75,7.97,3.5,8.58,2.24,12.68-11.26,4.79-4.91.69.54,11.97-12.25,5.21-4.86,1.16-8.74,3.49-13.04,5.54-8.95-2.6-21.15-8.31-13.63,5.8-1.91,4.67-15.58-2.31-14.03,5.96,2.87,9.59-9.7,3.8-14.23,6.05-14.38-7.61-10.37,3.18-14.23,6.05-7.79-1.07-8.4,5.01-14.03,5.96-2.3,4.29-5.85,7.23-13.63,5.8-5.22,1.13-16.27-3.71-13.04,5.54-5.4.62-6.9,4.96-12.25,5.21-7.54-1.94-17.28-6.31-11.26,4.79-5.98,4.18-17.73,1.46-18.75,7.97-6.61,8.44-22.72,1.37-16.9,7.19,5.61,5.61-12.34-17.65-9.49-21.9-3.43-6.98-3.07-10.6-8.81-20.33-15.65-19.64,16.44,8.46-8.81-20.33-8.24-15.33-14.63-27.04-9.49-21.9-8.61-8.61-1.26-7.99,2.49-15.78-4.19-9.96,2.18-10.56,2.81-17.85-6.06-13.99-10.85-27.67,3.6-22.84,2.56-2.25,2.19-7.61,2.03-12.9,4.2-.94-11.59-22.01,2.16-13.68.29-5.12,9.8-1.13,2.25-14.3,6.16.54,8.85-2.47,2.33-14.77-6.93-12.7-3.57-15.17,2.38-15.08.28-5.58-1.31-13.06,2.4-15.23,7.4,1.51-5.04-16.82,2.4-15.23,2.86-3,5.29-6.4,2.38-15.08-2.95-8.72,3.22-8.25,2.33-14.77,5.98.36-5.03-16.18,2.25-14.3,1.65-3.75.89-9.8,2.16-13.68-1.4-6.53,10.78.65,2.03-12.9-.96-10.58-1.66-20.16,3.6-22.84,9.94,2.01,8.51-6.39,2.81-17.85-5.98-17.51.65-17.62,2.49-15.78Z"/>
        <path class="cls-10" d="M1111.28,309.42c4.81,4.81,7.51-1.08,16.12-6.78.03-7.12-.06-15.8,17.21-8.18,12.65,2.99,7.52-12.87,23.08-8.76,7.74,2.02,16.17,4.55,12.43-5.23,7.53,1.49,2.67-9.53,13-5.47,14.48,8.22,8.29-4.32,13.38-5.62,9.27,2.88,6.73-6.11,13.57-5.7,1.32-5.12,10.38-2.49,13.57-5.7,4.78-1.61.28-12.46,13.38-5.62,7.16.9,15.15,2.72,13-5.47,6.14.11,7.91-4.02,12.43-5.23,10.39-1.06,11.5-10.68,22.41-9.42,1.94-7.71,18.54.3,17.88-7.52l16.12-6.78,69.88-171.91-31.55-150.35-184.28,77.71s-3.16,5.57-8.44,14.86c-2.64,4.64-5.8,10.21-9.36,16.48-4.86,4.97-9.29,11.46-11.73,20.66-9.33-3.51-7.45,4.38-6.51,11.46-4.25,1.89-3.63,8.79-6.81,11.98-1.04,5.33-10.91,1.92-7,12.33-3.45,3.05-2.58,10.48-7.1,12.51,3.55,10.11-7.79,5.32-7.1,12.51,2.88,9.38-10.4,2.56-7,12.33.81,7.18-7.43,5.22-6.81,11.98,2.24,8.38-10.54,1.6-6.51,11.46-9.84,1.8-13.22,9.34-11.73,20.66,1.21,11.03-9.56,9-9.36,16.48-2.52,12.04-7.84,15.46-8.44,14.86-7.05-7.05,4.4,10.23,6.61,21.17,7.86,12.23,7.48,16.95,6.77,21.7-.38,2.35,9.07,14.62,3.82,12.24-6.38-3.52-1.49,4.29,3.94,12.63-1.39,1.53,3.62,9.45,3.94,12.63.93,3.8,5.87,11.55,3.82,12.24-3.09,2.37-.14,10.42,6.77,21.7-3.17,5.56,8.52,23.08,6.61,21.17Z"/>
        <path class="cls-10" d="M309.84-188.48c3.17,3.17,5.52-5.24,14.71-13.98,4.6-4.37,10.11-9.61,16.32-15.51,3.1-2.95,6.38-6.06,9.8-9.31,2.66-4.01,3.8-9.82,10.66-10.13,5.64-1.53,9.34-5.23,11.35-10.79,2.25-5.31,11.71-3.59,11.87-11.28,1.43-6.42,8.57-7.23,12.21-11.61,7.64-.37,9.37-6.71,12.38-11.77,4.32-3.75,1.18-14.96,12.38-11.77,2.49-5.52,6.92-9.05,12.21-11.61,7.26-.59,8.99-6.59,11.87-11.28,12.96,5.39,10.8-4.16,11.35-10.79-.36-7.53,8.87-5.25,10.66-10.13,11.33,4.66,12.17-.88,9.8-9.31,11.15-.95,3.48-19.38,16.32-15.51,10.33-7.6,11.82-16.87,14.71-13.98-3.12-3.12-5.87-1.22,4.35,16.97-7.22-3.23,1.99,10.79,4.92,19.2,12.64,15.38,12.52,18.17,3,11.7-7.79-4.74,6.15,12.4,3.3,12.87,8.54,11.86,2.44,9.21,3.56,13.87-2.52,1.03,11.11,18.31,3.77,14.71-1.89,1.84,4.69,12.24,3.94,15.38,2.02,5.9-.93,6.89,4.07,15.88-1.63,2.36-1.06,6.95,4.16,16.22,6.34,10.39,7.91,16.02,4.2,16.38,1.15,5.21,9.74,17.88,4.2,16.38,1.67,5.72,7.73,15.81,4.16,16.22-1.01,2.97-6.55,1.37,4.07,15.88,9.38,13.26-6.27,1.43,3.94,15.38.45,4.18-.32,7.06,3.77,14.71,1.94,5.49,7.51,14.51,3.56,13.87-8.19-4.87,12.44,18.96,3.3,12.87,5.84,8.89,18.03,23.98,3,11.7-.6,4.88,12.7,23,4.92,19.2.14,8.11,11,23.62,4.35,16.97,2.97,2.97,5.15,9.36-2.55,8.68-3.91,3.1,6.99,23.83-6.37,21.69-3.42,2.19,4.45,16.03-4.02,13.69-2.12,4.02-3.58,8.87-4.26,14.5-4.71,1.61-.42,12.21-4.26,14.5-.12,6.01-8.02,4.09-4.02,13.69.34,11.57-4.34,16.71-6.37,21.69,3.4,10.41.79,12.01-2.55,8.68.8.8-.72,1.95-15.17-8.07-6.08-3.86-8.12-3.24-16.83-8.95-4.88-1.89-16.3-9.98-21.1-11.22-6.98-5.2-4.53-.92-11.7-6.23-2.5-.62-4.69-.91-12.24-6.51-6.01-4.07-3.26.65-12.59-6.7-6.54-4.56-11.51-7.53-12.77-6.79-6.08-4.09-13.23-9.24-12.77-6.79-2.77-.79-4.44-.49-12.59-6.7-3.86-1.92-8.68-4.82-12.24-6.51,1.49,3.36.37,4.08-11.7-6.23-9.66-6.11-15.73-8.85-21.1-11.22-6.11-3.12-14.49-8.83-16.83-8.95-18.38-13.94-3.02,4.08-15.17-8.07,5.08,5.08-9.8-15.29-5.93-19.65,1.06-3.06-3.62-12.54-6.07-20.14.03-5.12-1.65-12.29-6.96-23.09-6.05-11.55-3.93-14.91-6.96-23.09-2.22-7.37-4.3-14.25-6.07-20.14-1.17-9.4-3.22-16.95-5.93-19.65Z"/>
        <path class="cls-10" d="M536.56,642.89c2.8,2.8,13.36,9.9,3.12-6.37,1.81-4.24,5.7-8.97,8.23-16.81,8.02,2.84.47-10.32,5.5-11.23,11.59,5.66,16.67,4.47,6.14-12.53.12-6.35-3.68-16.85,6.56-13.4-.26-7.06,4.28-9.42,6.78-13.84,12.83,5.92-2.2-16.02,6.78-13.84,2.92-3.88,3.78-9.71,6.56-13.4-7.79-14.27,3.74-9,6.14-12.53-7.23-13.16,5.12-6.42,5.5-11.23-6.05-16.41,2.03-16.97,8.23-16.81,3.06-2.98,6.32-3.17,3.12-6.37-1.16-1.16,4.26,3.42,17.18,14.99,11.66,10.99,10.46,8.99,18.5,16.14-2.03-2.48,3.92,3.01,10.86,9.47,9.35,8.87,9.7,8.73,11.6,10.12,6.1,5.6,6.89,5.87,12.1,10.56,2.5,1.98,6.6,5.55,12.35,10.77-1.1-1.63,11.17,10.12,12.35,10.77,2.92,2.4,2.05,1.01,12.1,10.56,7.55,7.05,14.65,13.65,11.6,10.12-4.19-4.67,7.86,6.92,10.86,9.47,9.36,8.47,5.61,3.92,18.5,16.14,27.83,26.49,22.51,20.31,17.18,14.99-8.78-8.78,12.87,18.97-4.41,12.52-2.12,3.29-7.44,4.58-5.11,14.52-5.68,1.94-10.16,6.09-6.7,19.03-7.87,1.61-8.26,11.55-8.02,22.79-.67,4.83-6.19,4.98-4.42,12.57-.83,4.99,3.02,14.81-4.65,13.22-.84,5.25,8.96,21.27-4.85,13.79.59,6.92-4.03,8.72-5.02,14.26,3.09,9.6-4.84,8.28-5.15,14.63.86,7.53-10.47,2.93-5.25,14.91-4.41,2.36-4.54,9.04-5.32,15.1,3.58,10.42-2.44,11.25-5.35,15.2-1.61,5.24-9.42,4.29-5.35,15.2-8.69-1.86-.2,13.45-5.32,15.1,2.95,9.72,4.5,18-5.25,14.91,2.77,9.43,1.2,14.47-5.15,14.63-9.43-2.92-3.71,9.23-5.02,14.26-2.74,3.58-8.51,4.04-4.85,13.79.85,6.95-4.09,7.97-4.65,13.22,1.2,7.02,4.15,15.64-4.42,12.57-1.31,9.7-4.43,16.9-8.02,22.79-5.93,3.55-5.49,12.63-6.7,19.03,2.15,9.76-2.82,11.4-5.11,14.52-8.12,2.71-2.86,14.07-4.41,12.52,1.72,1.72-3.98-7.09-3.75-12.37-.62-3.38-2.47-8.59-4.35-14.35-.26-4.14-3.35-11.63-5.7-18.81.61-4.22-2.76-12.85-6.82-22.52,4,1.2-.41-6.1-3.76-12.42,2.95-.02,2.91-3.09-3.96-13.07,2.07-1.04-9.34-15.61-4.13-13.63,3.49.27-1.46-7.96-4.27-14.09,7.65,4.33-.09-6.78-4.38-14.46-6.85-10.25,8.43,1.61-4.47-14.74,1.13-2.32-13.77-20.69-4.52-14.93-1.5-4.99-21.69-28.66-4.55-15.02-2.84-6.33-11.67-18.65-4.55-15.02-1.14-4.63-.26-7.21-4.52-14.93-12.2-15.65,9.42,2.54-4.47-14.74-.74-4.14-11.5-18.26-4.38-14.46,4.97,1.65-11.55-18.15-4.27-14.09-6.84-10.06-5.3-11.69-4.13-13.63-13.77-16.88.16-5.99-3.58-12.69-5.2-8.17-4.79-10.65-4.14-12.8-9.03-14.63,1.81-9.06-6.82-22.52.91-3.92-5.97-15.2-4.87-17.98,5.53,1.65.87-6.37-5.18-15.18,8.27,2.75-6.36-14.99-3.75-12.37Z"/>
        <path class="cls-10" d="M857.63,123.19c-1.77-1.77-3.32-14.56,17.04-12.18,4.83-4.16,29.46,9.8,18.35-13.11,3.14-2.76,9.97-2.11,10.77-7.7-6.56-12.95-.03-13.02,11.51-8.23.92-5.82,2.21-11.42,12-8.58,6.93-.03,8.19-5.79,12.25-8.75,7.67.65,5.93-8.12,12.25-8.75-1.67-8.62,8.46-5.38,12-8.58,7.81,1.06-3.1-16.45,11.51-8.23,16.55,10.16,5.52-7.05,10.77-7.7,9.07-2.73,3.86-18.62,18.35-13.11,18.73.76,22.34-6.87,17.04-12.18-1.32-1.32,10.93,16.53,2.5,17.67.17,4.96,4.92,15.51,2.82,20-.31,2.98,8.85,15.64,1.72,12.18.08,3.75,5.76,13.27,1.89,13.4-2.66,1.33-5.73,2.41,2.04,14.45-3.45.82,7.52,16.18,2.16,15.32,9.91,14.4,5.08,14.16,2.26,16.02-2.64,2.03.78,10.19,2.34,16.54-3.51,1.28-1.23,8.4,2.39,16.89,4.75,9.62,7.95,17.71,2.41,17.06,4.28,9.17,5.38,15.17,2.41,17.06,4.6,9.47.32,10.03,2.39,16.89,5.27,10.06,10.97,20.51,2.34,16.54-4.98-.31,9.18,18.45,2.26,16.02-3.59.9,2.58,11.47,2.16,15.32,9.9,14.17,4.85,13.26,2.04,14.45-10.56-6.57.68,8.52,1.89,13.4,7.64,11.31-3.67,3.5,1.72,12.18,7.81,14.4-6.89,5.49,2.82,20,6.87,16.45.1,15.28,2.5,17.67-10.56-10.56-8.33,2.73-22.08,5.57-8.05.24-17.73.24-22.63,5.7-.77,4.41-8.46,2.08-12.77,3.22-4.96.48-10.08.89-13.18,3.32-8.83-3.3-14.67-3.61-13.18,3.32-7.19-1.75-3.48,7.32-12.77,3.22-5.58,4.79-8.59,11.45-22.63,5.7-18.44-1.85-27.9-.26-22.08,5.57,2.42,2.42-9.2-13.93-5.01-17.6,3.99.05.18-8.48-5.55-19.52-6.07-8.73-4.29-9.75-3.33-11.72,3.24.32-4.22-10.2-3.63-12.75-5.67-8.82-3.16-9.55-3.86-13.58-3.07-6.39-5.05-11.76-4.04-14.2-8.07-11.51-1.49-8.43-4.16-14.61,4.65,1.13,2.89-4.17-4.21-14.81-11.59-15.13,6.69-.39-4.21-14.81,3.25-.27-1.29-8.3-4.16-14.61,2.94-.51-3.77-10.61-4.04-14.2-1.45-4.77,3.64-2.93-3.86-13.58-6.72-9.87-1.62-7.82-3.63-12.75.72-2.21.13-5.6-3.33-11.72-5.87-11.18,1.39-8.65-5.55-19.52,9.2,1.33-4.99-17.58-5.01-17.6Z"/>
        <path class="cls-10" d="M877.33,702.78c2.08,2.08,11.94.23,24.28-4.99,7.73,3.34,6.42-2.73,11.76-2.42,9.22,4.19,11.12.78,13.13-2.7,1.61-3.88,8.94-2.22,14.04-2.89,4.43-1.34,8.38-3.24,14.49-2.98,8.7,2.84.49-11.22,14.49-2.98,2.74-3.02,18.13,6.69,14.04-2.89,8.27,2.78,9.58-1.22,13.13-2.7,8.84,3.8,11.86,2.07,11.76-2.42,16.45-1.11,26.05-3.23,24.28-4.99,1.9,1.9,6.86,18.2-4.22,24.14-7.81-3.56-3.25,5.61-2.05,11.69-13.62-8.74-9.78.23-2.28,13.05-5.83-.51-8.4,2.41-3.15,13.24-3.58,2-6.87,4.39-1.81,15.12,3.92,9.59-5.32,6.02-1.47,15.46,3.07,8.66,2.02,13.1-3.49,12.9-2.1,3.22,3.39,13.85-1.43,13.91,5.34,10.21-3.56,5.93-2.9,10.84-1.52,6.99-3.03,12.56-1.58,18.98,12.95,17.91-3.81,3.99-2.64,5.16,5.5,5.5,10.37,10.6-13.35-12.75-2.5-2.31-12.54-12.13-14.38-13.73-6.31-6.06-19.46-18.95-17.46-16.67.46.6-7.41-7.13-9.4-8.98-2.12-1.98-10.11-9.82-9.6-9.16-.91-.76-10.64-10.35-9.6-9.16-6.93-6.79-.73-.44-9.4-8.98-9.67-9.39-7.77-7.22-17.46-16.67-5.81-5.56-8.24-7.77-14.38-13.73-6.25-5.88-13.29-12.69-13.35-12.75Z"/>
      </g>
    </pattern>
    <clipPath id="clippath-1">
      <rect class="cls-1" x="1180" y="1180" width="1080" height="1080"/>
    </clipPath>
    <clipPath id="clippath-2">
      <rect class="cls-1" width="1080" height="1080"/>
    </clipPath>
    <clipPath id="clippath-3">
      <rect class="cls-1" x="-1180" width="1080" height="1080"/>
    </clipPath>
    <clipPath id="clippath-4">
      <path class="cls-1" d="M-249.14,813.25c29.16-81.5,113.63-125.8,188.68-98.94,75.05,26.85,112.25,114.68,83.1,196.18-46.59,130.23-205.11,144.85-205.11,144.85,0,0-113.27-111.85-66.67-242.08Z"/>
    </clipPath>
  </defs>
  <g id="Pattern">
    <rect class="cls-9" width="1080" height="1080"/>
  </g>
  <g id="Original">
    <g id="_03" data-name="03">
      <g class="cls-5">
        <rect class="cls-1" width="1080" height="1080"/>
        <rect class="cls-7" width="1080" height="1080"/>
        <path class="cls-10" d="M734.67,546.4c2.37,2.37-2.58-14.63,13.2-18.13,4.79-.03.94-9.15,4.3-11.43,2.79-2.85,9.15-2.52,9.91-8.09-4.12-10.45-2.54-15.49,9.21-10.59,2.85-4,2.3-11.64,8.05-13.11-8.86-16.09-3.38-17.98,8.46-13.6,2.35-5.11,3.08-11.9,10.32-12.2-.57-8.1,16.79,1.73,10.58-11.94,12.86,5.4,11.3-3.53,8.2-13.86,8.52,1.29,7.79-6.51,9.84-11.32,1.82-5.03-2.97-16.44,7.41-12.39,7.37-5.28,7.24-16.86,14.21-19.52,21.73,2.45,13.34-17.98,13.2-18.13-11.53-11.53-8.98-11.18-1.14-7.19,1.98-1.87-5.53-14.89-3.01-18.97-7.13-10.43-7.76-14.63-2.01-12.67.81-2.97-3.89-11.66-2.25-14.14-6.14-10.27-5.06-13.45-2.4-15.12-.18-4.51-9.13-17.86-2.48-15.61,5.27.87,4.66-4.14-2.48-15.61,1.6-2.74-8.24-16.84-2.4-15.12-2.6-6.72-4.13-12.24-2.25-14.14,6.35,2.56-4.63-11.99-2.01-12.67,6.9.3-5.07-17.17-3.01-18.97-1.69-5.54-7.82-13.87-1.14-7.19-4.71-4.71-13.94-12.13-15.38-10.55-13.86-12.35-23.28-19.95-17.07-11.7,6.28,7.3-28.18-26.08-10.25-7.02-12.18-11.06,3.6,5.9-11.15-7.64,2.34,3.55-.53,1.93-11.87-8.14-6.63-5.35-2.71-.13-12.41-8.51-4.59-3.27-3.65-.98-12.77-8.75-8.41-7.06-11.18-8.47-12.95-8.88-6.42-5.06-10.07-7.34-12.95-8.88-5.79-4.44-15.08-12.39-12.77-8.75-4.81-3.49-22.17-19.54-12.63-8.73-9.48-8.2-16.45-13.93-11.65-7.92-1.09.12-6.61-4.23-11.71-8.2-5.58-4.46-.85,1.35-9.69-6.46-6.72-4.68-8.86-5.01-17.07-11.7-6.1-3.07-20.77-15.94-15.38-10.55,1.84,1.84-1.23,3.84-6.3,6.38-8.99-1.38-2.21,15.54-13.85,14.04-7.54,2.6-1.57,18.71-13.85,14.04-3.96,3.65-3.36,9.32-6.3,6.38-.43-.43-4.06.73,2.17,15.35,7.36,11.55,2.66,11.95,2.5,17.62-4.27,1.57,2.7,15.13,3.24,22.86-2.84.75-1.65,5.69,1.85,13.06.94,4.82,10.75,18.63,1.98,13.98,4.79,8.91,3.14,11.49,2.09,14.76,5.74,10.06-5.52,3.22,2.18,15.42.41,4.91,8.63,17.69,2.26,15.94,1.75,6.37,5.16,14.46,2.31,16.33-.1,4.61-5.59,3.88,2.35,16.6,1.88,6.66.76,10.33,2.37,16.73,7.47,12.26-.2,9.39,2.37,16.73.88,5.65-2.78,6.75,2.35,16.6,2.55,7.27,3.97,13.37,2.31,16.33,3.05,7.67,3.55,12.74,2.26,15.94,5.42,9.91-4.15,4.76,2.18,15.42,3.71,8.04-.89,7.67,2.09,14.76,10.63,14.75,4.52,12.65,1.98,13.98,11.25,15.12,2.48,10.1,1.85,13.06.77,7.96-3.42,10.36,3.24,22.86-21.73-15.89-6.85,4.08,2.5,17.62,10.22,18.61,8.15,21.33,2.17,15.35-2.65-2.65.59-.1,15.17,13.43,14.23,13.71,8.13,7,15.55,13.76-3.96-4.61,10.23,8.88,17.82,15.78,11.19,10.5,11.57,10.18,17.82,15.78,7.29,6.64-2.4-3.66,15.55,13.76,10.12,9.07,22.18,20.44,15.17,13.43Z"/>
        <path class="cls-10" d="M297.48,392.23c-5.23-5.23-6.35-8.77-2.38-8.83-7.74-11.77-2.97-12.65-5.95-22.08-9.35-12.57,4.57-2.09-3.76-13.94-4.32-7.85-1.4-8.56-3.98-14.77-3.38-7.01-12.24-19.5-3.98-14.77-3.3-6.82-4.2-11.16-3.76-13.94-3.61-10.06.64-11.45-5.95-22.08-4.01-8.04,6.27-.18-2.38-8.83,2.24,2.24-8.1.99-17.15,6.49-7.04.23-4.37,11.53-18.47,6.99,6.48,16.03-26.29-6.29-22.42,8.48-7.73-2.28-10.97.05-12.08,4.57-7.04-1.41-3.03,8.28-12.32,4.66-2.35,3.33-11.32.04-12.32,4.66-6.64-1.02-10.1,1.09-12.08,4.57-13.29-2.39-12.16,9.2-22.42,8.48-6,3.54-11.66,6.52-18.47,6.99-18.68-4.13-18.08,5.55-17.15,6.49-9.69-9.69-10.68,1.08-15,14.4-12.3-3.48-9.38,9.73-15.38,14.76-8.2,2.83-15.44,7.35-17.63,16.92-4.4,7.37-18.86,4.66-17.63,16.92-2.7,8.32-6.06,15.26-15.38,14.76-13.18,4.46-7.88,21.52-15,14.4-7.02-7.02,3.07,12.89-3.61,20.96-4.2,3.17,2.7,18.67-3.7,21.48-1.82,7.39-10.68,8.36-4.24,24.62-2.81,7.01-1.85,17.81-4.24,24.62-5.21,4-9.85,7.96-3.7,21.48,5.85,20.59,7.64,32.2-3.61,20.96,3.31,3.31,1.72,1.74,5.64,5.7-2.64-2.6,20.06,20.16,14.1,14.25-1.76-1.73,9.12,9.18,8.9,9,6.92,6.95,9.82,9.89,9.43,9.53,7.98,8.02,1.72,1.79,9.43,9.53,9.03,9.06-5.81-5.74,8.9,9,.04.1,11.31,11.42,14.1,14.25,7.42,7.46,16.82,16.88,5.64,5.7-4.46-4.46,12.32,2.11,21.27-4.27,13.66,5.99,14.95-1.65,21.8-4.38,4.42-.37,12.76,3.03,12.3-2.47,12.36,7.33,1.75-8.38,12.69-2.55,3.2-1.91-1.66-11.88,12.69-2.55,5.02,0,5.99-3.99,12.3-2.47,13.42,3.84,12.16-6.36,21.8-4.38,19.39,4.07,22.43-3.11,21.27-4.27,2.51,2.51-10.13-13.38,5.76-3.19,16.01,10.31,3.44-10.39,7.59-16,12.97,3.2-1.06-22.21,13.68-19.67,2.57-3.53,5.41-6.99,7.72-11.1,3.05-3.36-2.01-14.93,7.97-11.46-4.84-11.35,9.98-3.03,7.97-11.46.84-5.56,10.87-1.84,7.72-11.1,3.34-8.87-6.65-30.24,13.68-19.67,10.11-9.42,16.42-16.12,13.35-19.19,4,4,1.18-2,1.37-7.13,1.61-3.71,3.37-9.38,3.43-17.82-4.19-12.69,1.45-16.61,4.46-23.17-2.86-12.42-1.13-20.25,4.46-23.17,4.47-4.03,5.98-9.96,3.43-17.82,4.48-.83-.55-9.05,1.37-7.13Z"/>
        <path class="cls-10" d="M377.15,78.45c-1.3-1.3,5.72,2.17,7.08-2.38,10.5,4.58,3.33-10.87,17.71-5.96,12.22,2.75,19.91-.2,23.02-7.75,14.59,3.94,14.55-6.75,23.02-7.75,13.65,4.19,23.44,5.69,17.71-5.96,10.13,4.21,11.72,2.25,7.08-2.38-6.05-6.05-3.41-4.8,8.16,4.69,1.32-.76,15.84,10.99,17.95,10.33,10,7.22,15.06,9.51,17.95,10.33,9.99,7.91,10.3,6.83,8.16,4.69,3.77,3.77,2.74,7.08,2.71,14.64,3.5,7.3,6.59,15,3.11,16.81.53,5.82,12.93,24.19,4.03,21.8-.37,2.88-.27,6.37,2.3,12.46-2.95.56-5.01,2.13,2.46,13.33-8.25-4.52-1.49,6.07,2.6,14.08-9.49-5.57,9.75,17.67,2.72,14.71-5.37-1.3.38,8.59,2.81,15.21,8.87,13.06,5.03,13.46,2.88,15.58,5.62,9.89,2.1,10.68,2.93,15.83,4.76,9.08,2.25,10.91,2.95,15.96-4.39-.05-.37,8.32,2.95,15.96.1,4.42.93,9.56,2.93,15.83,3.91,8.18-2.08,6.43,2.88,15.58,1.37,5.56,8.92,17.25,2.81,15.21-.87,3.2,8.44,16.51,2.72,14.71-4.8-.88,4.85,12.6,2.6,14.08,2.54,6.27-5.73,1.63,2.46,13.33,2.87,6.38,10.9,17.8,2.3,12.46,7.41,13.92.31,12.79,4.03,21.8,10.07,15.36,10.92,20.82,3.11,16.81,10.55,18.15-3.47,8.47,2.71,14.64,11.62,11.62,8.68,19.27-7.57,18.91,1.18,9.12,10.92,28.13-7.76,19.38-2.22,7.71,12.4,32.92-8.9,22.22.47,11.06-11.47,9.71-8.9,22.22,8.66,18.59-5.91,13.29-7.76,19.38,6.59,22.47-4.41,22.07-7.57,18.91-7.39-7.39-1.16,1.56-18.74-11.68-5.7-3.52-14.01-9.25-20.19-12.58-5.33-3.91-5.21-2.29-11.85-7.38-12.72-11.18-1.54,1.6-12.66-7.89-6.52-4.89-7.7-4.41-13.2-8.23-2.87-1.19-11.86-8.48-13.47-8.39-3.39-1.69-11.2-7.8-13.47-8.39-2.9-1.22-5.7-2.35-13.2-8.23-4.09-2.46-6.85-3.62-12.66-7.89-9.23-7.69-6.54-3.5-11.85-7.38-11.92-9.07-13.42-7.98-20.19-12.58-11.14-6.8-17.59-10.52-18.74-11.68-4.23-4.23-6.61-11.72-5.24-18.53-4.75-8.83-3.82-12.76-5.65-19.95,2.35-.33.38-5.11-3.32-11.71-.51-3.42-3.09-8.99-3.54-12.51,2.48-.59-5.91-12.1-3.69-13.05,1.25-1.91-1.14-7.49-3.77-13.32-4.88-8.07,1.42-4.96-3.77-13.32-3.67-6.83-.91-7.2-3.69-13.05-3.92-6.99-7.18-13.25-3.54-12.51-2.59-5.5-4.6-10.31-3.32-11.71-5.37-10.74.49-9.73-5.65-19.95,2.81-5.36-14.52-27.8-5.24-18.53,2.92,2.92,9.88.38,7.1-17.6.82-6.78-.87-17.5,7.65-18.95,5.34-4.64,3.43-17.47,9.29-23.02.43-5.27,4.19-7.33,5-12.4,3.33-2.55.96-10.86,5.11-12.65-1.43-7.37-.04-11.91,5.11-12.65,1.91-3.97.65-11.05,5-12.4,3.16-8.25,3.51-18.82,9.29-23.02,5.38-4.59,7.05-11.95,7.65-18.95,3.21-11.99,8.7-16,7.1-17.6Z"/>
        <path class="cls-10" d="M802.53,1183.14c-1.11-1.11-8.59-6.35-7.34-1.38-9.54-5.81-11.34-2.4-18.36-3.46-11.84-5.88-20.7-8.04-23.87-4.5-9.11-2.4-12.14,1.27-23.87-4.5,1.11,7.07-12.21-1.04-18.36-3.46-3.52.21,5.25,11.21-7.34-1.38-7.84-7.84-3.34-4.65-4.82-8.09-14.07-16.03-4.81-9.39-10.61-17.79-8.43-11.04,2.55-2.67-10.61-17.79,2.27.31-14.01-17.28-4.82-8.09-2.18-2.18-1.09-7.79,5.05-13.56-6.11-12.07,13.37.15,5.86-15.73,3.23-5.15,10.27-7.6,7.68-20.62.03-5.19-9.18-19.84,4.43-11.88,3.83-1.83-10.36-21.88,4.77-12.8,2.42-3.63,5.76-6.53,5.07-13.61-10.74-17.14,5.91-7.05,5.34-14.33,9.54,2.84-4.95-18.49,5.56-14.94,3.06-3.9-4.65-18.68,5.75-15.44.13-7.03,5.63-8.8,5.91-15.85,1.06-6.27,5.19-9.54,6.02-16.16-7.02-14.46,11.2-3.74,6.1-16.36-3.13-10.64,7.09-7.97,6.13-16.46,13.49,5.95-.7-15.78,6.13-16.46-2.85-10.36,14.33-.68,6.1-16.36,7.1-.35,2.83-12.02,6.02-16.16-9.72-17.05-.89-15.48,5.91-15.85,3.78-3.39-6.82-21.06,5.75-15.44-4.69-11.65,3.95-9.85,5.56-14.94,3.28-3.42,6.07-7.19,5.34-14.33,4.08-2.31,9.99-2.64,5.07-13.61-3.5-9.55,8.85-3.07,4.77-12.8,3.05-2.6,4.67-6.43,4.43-11.88,10.53.11,7.46-12.46,7.68-20.62.88-7.5,9.21-6.43,5.86-15.73,6.22-5.7.87-17.75,5.05-13.56,5.42,5.42,2.24,2.34,12.45,12.72,10.13,10.22,4.55,4.73,13.82,14.11,9.46,9.57,7.03,7.26,17.32,17.68-2.69-2.63.78.91,9.61,9.81,6.73,6.8,1.7,1.84,10.05,10.26.8.87,6.31,6.45,10.34,10.56,3.56,3.63,12.88,13.03,10.48,10.7,6.73,6.8,6.44,6.58,10.48,10.7,7.43,7.51,7.16,7.3,10.34,10.56,6.39,6.47,8.8,8.94,10.05,10.26-.82-.75,13.72,13.86,9.61,9.81-6.79-6.66,1.87,2.12,17.32,17.68-.28-.17,7.84,8.05,13.82,14.11,9.22,9.38,12.13,12.39,12.45,12.72,1.83,1.83-5.03,3.9-4.49,18.72,3.29,10.43,4.99,20.61-4.83,20.17.89,5.58,1.4,11-2.84,11.84-12.75-7.67-8.05,2.27-3.03,12.65-6.64-1.28,9.97,20.8-3.16,13.19-.72,4.8-3.25,7.86-3.23,13.46-6.6-1.02-.18,10.98-3.23,13.46,6.95,12.47-6.98,4.02-3.16,13.19,2.02,7.38,10.42,21.02-3.03,12.65-7.84-2.76.25,10.24-2.84,11.84,2.48,11.85,4.69,22.55-4.83,20.17-5.89,8.39-4.85,18.36-4.49,18.72-4.31-4.31-8.65,1.62-14.8,11.88-8.35-.14-7.64,10.32-15.94,12.79.46,11.24-19.7,2.87-19.36,15.53-11.69-5.53-8.12,4.32-10.43,8.37-1.36,4.99,2.28,15.04-10.64,8.54-1.74,4.68-19.09-6.26-10.64,8.54-.92,5.43-.21,12.42-10.43,8.37.62,6.78-9.91,2.27-8.22,9.8-3.01,2.83-6.94,4.54-11.13,5.73-1.47,9.31-26.35-5.82-15.94,12.79-3.04,13.38-4.06,22.62-14.8,11.88Z"/>
        <path class="cls-10" d="M337.35,466.4c-2.33-2.33-3.65.03-3.92,6.18-3.14,3.29-10.03,5.58-10.34,16.28,5.54,11.04-13.59-2.11-6.91,10.88-7.23-.92,2.08,15.05-7.71,12.14-1.17,5.72-8.91,5.1-8.25,12.98-1.01,6.22-10.49,4.08-8.51,13.41-7.68-.33-4.9,9.79-8.51,13.41-3.54,3.69-9.55,4.8-8.25,12.98-5.11,1.77-3.09,10.45-7.71,12.14-5.65.66-.22,12.06-6.91,10.88,2.09,13.1-6.19,14-10.34,16.28-.54,5.88-12.85-2.75-3.92,6.18-4.15-4.15,5.41,12.69,2.41,20.6,1.35,6.81-9.12,2.7,2.47,21.12-4.53,2.29-2.93,11.17,2.83,24.21,3.58,10.86,2.12,16.67,2.83,24.21,15.88,22.7,1.95,15.13,2.47,21.12-3.33,7.59,5.09,23.28,2.41,20.6-7.96-7.96,7.57,9.61,14.33,19.09,3.45,4.82,6.45,9.34,13.3,17.73-2.97-1.44,18.9,21.96,13.3,17.73,4.68,7.41,3.65,8.41,14.33,19.09-4.39-4.39,10.65,1.04,13.23-12.39,1.51-6.5,15.38-2.24,14.68-13.74,2.74-2.67,6.24-4.86,8.81-8.25-8.56-14.51-1.11-13.27,9.59-8.98,6.47.07,9.3-3.71,10.21-9.56,4.53-2.22,6.95-6.71,10.67-9.99,3.98-3.03,13.48-.63,10.98-10.28.97-6.18,3.55-10.81,11.14-10.43,1.63-5.57,8.34-6.07,11.14-10.43,2.73-4.42,11.89-2.38,10.98-10.28-1.73-8.74,3.22-10.69,10.67-9.99,3.53-3.22,12.76-.6,10.21-9.56,10.82,4.42-.46-13.07,9.59-8.98-1.74-7.7,7.75-3.91,8.81-8.25,5.75-5.06,13.94-6.48,14.68-13.74,10.32-5.69,17.74-7.89,13.23-12.39,7.18,7.18-.92-2.8-3.24-8.25-9.55-12.68-1.74-9.26-8.09-20.62-7.52-10.03-2.41-7.58-5.11-13.02-2.56-5.3.51-5.05-5.41-13.79-.64-3.46,4.93-.71-5.41-13.79-2.65-5.39-6.3-11.7-5.11-13.02-1.1-6.11-7.26-16.65-8.09-20.62-.48-3.61-.6-5.61-3.24-8.25,2.87,2.87-1.09,1.64-17.86-11.03-1.5.55-5.73-1.29-18.31-11.31-2.85-.29-12.45-7.15-20.99-12.96-7.57-4.84-14.35-8.88-20.99-12.96-7.99-5.43-10.65-5.69-18.31-11.31-10.13-6.03-22.67-15.84-17.86-11.03Z"/>
        <path class="cls-10" d="M978.69,641.01c-8.36-8.36-.96-9.1,4-17.71,9.44,2.65-7.14-22.07,4.44-19.64-1.14-5.72-1.72-11.13,2.67-11.79,7.53,2.48-2.49-12.8,2.9-12.83,6.95,1.53,2.37-8.65,3.09-13.66.48-5.25-4.58-16.15,3.23-14.28-4.48-10.41-4.41-16.36,3.32-14.7-4.93-10.99,5.88-6.29,3.37-14.91,4.6-1.51,10.24-1.98,3.37-14.91,7.73,1.67,1.35-10.73,3.32-14.7,8.38,2.44,4.93-6.86,3.23-14.28-3.81-9.54,4.73-6.6,3.09-13.66-4.25-9.67-3.02-13.71,1.71-14.02,4.38-.66-.3-10.18,3.86-10.6,8.21-.95,9.72-7.58,4.44-19.64.84-12.73,6.22-15.49,4-17.71,11.07,11.07-2.22,1.24-9.22,0-5.66.1-18.61-4.78-23.05,0-5.15-.54-5.81,3.7-14.55,0-11.67-6.62-6.85,3.38-15.41,0-7.64-2.46-12.15-1.78-15.41,0-2.07,2.97-6.44,3.5-14.55,0-10.02-.8-18.66-1.37-23.05,0-4,1.76-12.74-3.52-9.22,0-1.19-1.19-2.15,8.68-12.12,16.05-4.91,3.75-13.32,5.63-13.05,17.28.35,6.04-6.71,4.93-7.66,10.15-2.11,4.05-6.69,5.84-8.18,10.84-8.77-2.27-3.99,9.14-8.53,11.3-12.87-6.17-8.45,5.03-8.71,11.54-1.59,5.18-4.6,8.95-8.71,11.54-6.68.03-16.26-2.92-8.53,11.3-5.91.59-6.3,6.56-8.18,10.84,4.65,10.81-1.03,11.09-7.66,10.15-4.33,7.05-4.74,16.92-13.05,17.28-24.39-7.06-11.21,16.95-12.12,16.05-4.81-4.81-4.68-2.47,2.85,8.74,22.26,25.94,7.78,16.61,7.13,21.86,13.29,16.24,12.74,18.81,3.64,12.93-3.14.08,1.17,7.71,5.64,15.48,2.13,5.44,11.32,17.94,4.77,14.62-2.66.56-1.01,5.34,4.5,13.8,6.91,12.8,6.81,17.85,7.13,21.86,7.56,11.24-13.72-7.83,2.85,8.74,1.05,1.05,5.2-6.16,23.19-5.2,8.3-.22,14.24-4.22,23.77-5.33,5.33,0,9.36-1.46,13.41-3.01,1.26-4.33,7.16-4.11,13.84-3.11,7.24,1.56,4.92-6.43,13.84-3.11,6.21.63,13.66,2.57,13.41-3.01,15.19,4.54,20.97.38,23.77-5.33,18.22,1.19,25.54-2.86,23.19-5.2Z"/>
        <path class="cls-10" d="M31.28,1389.42l217.57-91.47,69.88-171.91s-1.97-9.4-4.93-23.49c-1.48-7.05-3.2-15.27-5.05-24.08-.35-3.83,11.05,3.97-2.85-13.58.5-3.16-5.4-12.77-2.94-14.02-3.07-6.78-7.75-15.18-2.94-14.02,6.83,3.17-16.47-23.72-2.85-13.58,7.45.49,1.45-12.01-5.05-24.08-23.78-34.92-10.59-29.16-4.93-23.49,4.05,4.05-12.48-2.01-19.16,8.08-2.99,5.39-8.77,9.57-20.64,8.7-21.18-15.68-28.57-17.3-12.12,5.11-11.82-5.86,9.97,22.09-12.95,5.46-11.35-5.06-10.07,2.63-13.5,5.69-11.18-4.7-11.83,1.2-13.77,5.81-5.89.66.26,13.36-13.77,5.81,5.25,11.73,8.71,21.62-13.5,5.69-8.31-2.03-9.4,3.04-12.95,5.46,8.26,14.22-7.74,3.99-12.12,5.11-16.98-5.97-25.3-4.34-20.64,8.7,4.25,21.02-23.45,3.79-19.16,8.08,14.16,14.16-2.83,5.9-8.44,14.86-2.39,4.89-10.48,5.54-9.36,16.48,4.08,13.9-11.89,8.85-11.73,20.66,2.69,8.51-5.61,6.21-6.51,11.46-3.12,3.03-1.07,11.35-6.81,11.98-.87,5.5-7.25,5.58-7,12.33,1.78,8.28,12.28,25.34-7.1,12.51-7.53-.98-6.69,6.42-7.1,12.51-2.27,4.23-2.26,10.71-7,12.33-5.3,1.07-16.75-4.1-6.81,11.98,6.86,13.01-1.25,10.9-6.51,11.46-14.27-2.62-12.81,9.76-11.73,20.66-13.85-4.02-14.51,4.05-9.36,16.48-9.1,5.45-13.36,9.94-8.44,14.86,3.44,3.44-7.87-2.05,6.61,21.17-13.69-9.32,9.51,18.98,6.77,21.7,8.27,11-11.64-6.08,3.82,12.24,9.59,12.46-1.52,4.26,3.94,12.63-7.8-4.89-3.56,2.27,3.94,12.63,5.49,8.36-11.16-5.48,3.82,12.24,7.08,12.54,7.37,17.92,6.77,21.7,3.96,12.7,6.61,21.17,6.61,21.17Z"/>
        <path class="cls-10" d="M-12.48,683.93c10.88,10.88,12.55,3.58,21.07-2.25,7.86.68,22.24,6.54,22.69-2.42-4.01-8.72,8.61-1.03,13.32-1.42,8.68,3.58,8.12-2.25,14.23-1.52,9.81,4.43,4.88-6,14.84-1.58,3.83-1.72,5.89-5.27,15.14-1.62,5.52-.09,1.35-9.87,15.14-1.62,2.79-2.76,16.97,5.93,14.84-1.58-8.05-13.43-1.45-12.1,14.23-1.52,1.69-3.41-.99-11.03,13.32-1.42,17.4,7.98,4.6-13.33,22.69-2.42,3.39-10.96,18.55-4.77,21.07-2.25,3.88,3.88,6.3,10.41,7.6,18.27,4.31,7.6,6.48,13.66,8.18,19.68,4.31,6.47,10.42,14.83,4.8,11.55-10.46-8.12,6.22,10.96,5.13,12.34-2.23.24-6.54-1.56,5.35,12.87,18.79,21.33,8.17,13.28,5.46,13.14,4.58,7.15-5.06.08,5.46,13.14-1.7.84-4.84.22,5.35,12.87-3.72-1.26-4.26.62,5.13,12.34,1.23,3.57,2.02,6.61,4.8,11.55,17.75,22.06,6.83,15.04,8.18,19.68,2.31,8.88,10.2,20.88,7.6,18.27,5.22,5.22,7.66,18.53-8.72,18.47,4.82,12.98-15.89,1.78-8.94,18.93.25,10.44-5.45,15.62-10.24,21.7-4.72,6.15-12.07,9.68-10.24,21.7-6.18,4.01-4.82,14.89-8.94,18.93-2.53,13.78-10.08,17.11-8.72,18.47,19.35,19.35-1.16,7.87-16.9,7.19,3.79,11.32-4.15,12.41-18.75,7.97-.36,4.72-14.44-3.99-11.26,4.79-2.41,3.19-11.65-.21-12.25,5.21-3.49,2.53-10.68,1.56-13.04,5.54,14.91,21.26,3.71,16.56-13.63,5.8-7.73-1.15-10.6,2.67-14.03,5.96,3.51,10.24,2.65,16.15-14.23,6.05-4.29,2.48-8.87,4.68-14.23,6.05-3.19,3.54-8.03,5.37-14.03,5.96-3.36,3.23-7.97,5.11-13.63,5.8-1.98,4.37-7.6,4.97-13.04,5.54-3.29,2.73-15.04-3.19-12.25,5.21-3.71,1.88-12.72-1.76-11.26,4.79-5.05,5.11-19.38-.19-18.75,7.97-13.07,1.98-6.31,17.78-16.9,7.19,14.16,14.16-2.21-7.52-9.49-21.9-7.09-10.64-9.6-17.13-8.81-20.33-1.12-5.11,2.48-5.49-8.81-20.33,3.29-3.8-14.43-26.84-9.49-21.9-8.91-8.91-2.6-9.33,2.49-15.78,2.21-3.56-4.79-17.53,2.81-17.85-10.99-18.92,6.6-10.23,3.6-22.84-6.08-10.89-.98-10.77,2.03-12.9.65-4.48-5.26-15.69,2.16-13.68,6.72,1.31,9.43-1.5,2.25-14.3,13.17,7.55-1.3-12.62,2.33-14.77,6.99,1.22,3.27-8.32,2.38-15.08-14.24-20.1-2.88-14.63,2.4-15.23.23-5.66,4.1-7.68,2.4-15.23,2.23-3.63,8.43-3.25,2.38-15.08,4.27-1.5-3.56-15.03,2.33-14.77,1.1-4.52-4.16-15.31,2.25-14.3-4.49-9.9,4.31-6.38,2.16-13.68,8.92,3.78-2.82-12.94,2.03-12.9,1.31-8.3,4.01-14.49,3.6-22.84,1.66-6.27,6.42-8.48,2.81-17.85,9.38-2.16,3.15-15.11,2.49-15.78Z"/>
        <path class="cls-10" d="M309.84,891.52c3.35,3.35,2.35-8.41,14.71-13.98.98-7.98-3.47-23.2,16.32-15.51,2.55-3.5,7.1-5.34,9.8-9.31-4.04-10.71,3.29-10.33,10.66-10.13,4.93-2.24,9.39-5.18,11.35-10.79,8.19.63,5.47-9.82,11.87-11.28.94-6.9,10.87-4.93,12.21-11.61,2.57-5.44,6.47-9.61,12.38-11.77,7.08-.99,6.61-9.53,12.38-11.77,7.89-.12,7.11-8.86,12.21-11.61,2.35-5.5-.55-16.13,11.87-11.28,6.98-.59,10.87-4.09,11.35-10.79-.17-7.35,6.21-7.92,10.66-10.13,6.47-.2-4.68-17.73,9.8-9.31-3.9-16.01,16.69-6.18,16.32-15.51,4.31-13.62,16.93-11.76,14.71-13.98-2.38-2.38,6,10.65,4.35,16.97,18.5,22.49,3.98,12.78,4.92,19.2-1.14,1.6,8.15,13.8,3,11.7-5.14-2.09,19.05,25.3,3.3,12.87-5.37-2.05,5.79,12.55,3.56,13.87-12.33-8.78,4.89,12.09,3.77,14.71-5.75-2.02,5.06,12.61,3.94,15.38-7.59-3.71,10.42,18.24,4.07,15.88,7.43,11.41,10.62,18.64,4.16,16.22,9.53,13.58-6.19,1.92,4.2,16.38-17.97-13.9-6.34,1.8,4.2,16.38-15.26-11.22,14.37,22.45,4.16,16.22-5.08-1.1,7.88,15.81,4.07,15.88,3.95,7.83-3.28,4.42,3.94,15.38,1.71,5.44-4.36,3.03,3.77,14.71-.38,3.17-5.31,1.68,3.56,13.87,11.38,14.71,3.88,10.4,3.3,12.87.49,3.54,3.16,9.12,3,11.7,4.31,9.79,7.29,17.59,4.92,19.2-1.98,5.99,5.02,17.64,4.35,16.97-2.57-2.57-11.16-6.95-2.55,8.68,4.13,11.15-10.98,5.85-6.37,21.69-12.13-6.52-2.63,8.94-4.02,13.69-.68,5.46-5.63,6.82-4.26,14.5-6.9-.59-2.63,10-4.26,14.5-2.43,3.71,1.65,13.75-4.02,13.69,4.14,15.37-12.33,8.72-6.37,21.69-8.85-1.83.58,11.8-2.55,8.68-2.69-2.69-.57,2.09-15.17-8.07-.62,1.6-9.78-4.9-16.83-8.95-.21,2.79-21.64-15.32-21.1-11.22,6.43,8.21-13.56-9.95-11.7-6.23-4.95-3.08-5.99-2.2-12.24-6.51-10.04-8.1,3.99,7.9-12.59-6.7-3.87-1.89-1.43,2.55-12.77-6.79,3.79,5.78-9.14-5.15-12.77-6.79-10.12-8.13-.75,3.2-12.59-6.7-9.66-7.71-20.72-16.86-12.24-6.51-8.83-6.96-9.07-5.36-11.7-6.23-10.95-7.4-13.25-6.37-21.1-11.22-5.8-2.8-9.16-3.5-16.83-8.95-6.87-2.43-27.62-20.52-15.17-8.07-14.66-14.66,5.78.29-5.93-19.65-14-18.12,11.04,2.11-6.07-20.14-5.97-11.11-3.95-14.59-6.96-23.09-7.79-13.28-13.87-24.85-6.96-23.09-11.91-17.06-15.38-25.33-6.07-20.14-1.81-10.04-16.62-30.35-5.93-19.65Z"/>
        <path class="cls-10" d="M802.53,103.14c-1.5-1.5-1.01,1.22-7.34-1.38-5.69-1.96-17-8.06-18.36-3.46-17.67-11.71-21.87-9.21-23.87-4.5-16.87-10.17-14.58-1.17-23.87-4.5-8.66-2.7-12.43-1.26-18.36-3.46,3.62,7.34-5.59.37-7.34-1.38-4.51-4.51-7.19-8.5-4.82-8.09-1.67-3.63-8.01-12.58-10.61-17.79-11.45-14.06-1.92-7.14-10.61-17.79-.05-2.01-4.49-7.76-4.82-8.09-.45-.45,1.42-5.28,5.05-13.56,7.84,1.88,4.2-9.02,5.86-15.73,10.72,2.34,4.63-13.24,7.68-20.62-.9-6.11-5.29-15.95,4.43-11.88-8.88-14.53,5.66-5.86,4.77-12.8,4.9-1.15,2.8-9.48,5.07-13.61,11.81,5.41.93-12.03,5.34-14.33,1.73-4.97,3.24-10.3,5.56-14.94,1.81-5.15,12.73-1.3,5.75-15.44-5.56-12.72,11.57-2.86,5.91-15.85,1.01-6.32,7.63-7.1,6.02-16.16-11.65-19.09,2.68-12.25,6.1-16.36,2.11-5.41,5.18-9.87,6.13-16.46,13.77,6.23,10.23-4.85,6.13-16.46,2.24-5.27-3.23-18.24,6.1-16.36,18.4,10.95,18.2,3.35,6.02-16.16-12.48-19.81,6.09-8.5,5.91-15.85,8.24,1.07-1.41-15.65,5.75-15.44,4.04-2.92,4.92-8.88,5.56-14.94-3.68-10.38-4.28-17.54,5.34-14.33-.67-7.07,12.97.33,5.07-13.61-2.18-8.23,9.2-2.71,4.77-12.8,9.14,3.48.4-10.7,4.43-11.88-.39-10.82,15.88-4.04,7.68-20.62,2.27-6.1,4.24-11.39,5.86-15.73,3.23-8.68,5.05-13.56,5.05-13.56,0,0,10.51,10.73,26.27,26.82,5.25,5.36,11.64,11.87,17.32,17.68,8.26,8.33,6.12,6.26,9.61,9.81-1.09-1.02,7.01,7.15,10.05,10.26,7.21,7.28,4.58,4.72,10.34,10.56-2.3-2.23,1.51,1.66,10.48,10.7,6.58,6.66,11.56,11.7,10.48,10.7,7.4,7.47,5.92,6.06,10.34,10.56,3.41,3.48,6.76,6.9,10.05,10.26,29.56,30.18,53.2,54.32,53.2,54.32l-21.57,90.02c-1.08,4.5-.16,11-3.23,13.46-.06,5.47-1.76,9.23-3.16,13.19,5.56,10.92,2.72,13.32-3.03,12.65,5.32,10.39,5.92,15.91-2.84,11.84-7.51,1.86-7.2,10.65-4.83,20.17-2.33,11.95-6.86,16.35-4.49,18.72-9.79-9.79-9.2,1.07-14.8,11.88.5,8.71-3.68,14.28-15.94,12.79,1.6,12.38-10.2,12.37-19.36,15.53-16.05-9.89-11.19,1.26-10.43,8.37-2.52,3.83,5.64,18.41-10.64,8.54-1.22,5.19,4.55,17.38-10.64,8.54-13.91-7.56-13.06-.42-10.43,8.37-7.96,4.35-13.3,10.82-19.36,15.53-9.24,1.53-14.96,5.57-15.94,12.79-1.66,14.76-2.16,24.52-14.8,11.88Z"/>
        <path class="cls-10" d="M31.28,309.42c-2.41-2.41,9.29.71,16.12-6.78,6.29-.86,6.87-8.87,17.88-7.52.57-9.09,17.64-2.74,22.41-9.42,14.5,8.78,16.36,4.73,12.43-5.23-7.55-13.58,9.56-2.65,13-5.47,10.44,4.18,21.59,8.98,13.38-5.62-7.51-13.9,9.57-3.27,13.57-5.7,11.51,5.07,7.2-5.68,13.57-5.7,11.11,4.71,8.66-4.08,13.38-5.62-5.44-11.7,18.91,6.48,13-5.47,6.25.21,9.86-2.07,12.43-5.23.52-10.93,1.47-20.71,22.41-9.42-.44-10.09,12.88-5.36,17.88-7.52-.06-14.37,19.31-3.58,16.12-6.78,2.95,2.95-2.37-12.04,7.27-17.88,5.07-2.67,6.15-10.77,7.83-19.25-5.07-10.15,4.92-5.48,4.59-11.3,5.22-.28,7.81-3.38,4.91-12.08,1.68-4.12,6.58-5.15,5.12-12.59,2.67-3.31-4.39-16.42,5.22-12.85-.42-6.47-2.35-14.44,5.22-12.85.3-5.69,6.79-5.12,5.12-12.59-3.79-9.6,3.97-7.51,4.91-12.08-4.9-10.41-.44-11.26,4.59-11.3,7.48-2.68,3.04-16.3,7.83-19.25-1.54-17.02,7.63-17.52,7.27-17.88,5.97,5.97-3.97-11.39-4.93-23.49-4.78-10.35-17.41-29.47-5.05-24.08-4.1-7.58-7.99-15.07-2.85-13.58-8.73-12.39-.3-7.67-2.94-14.02,8.27,4.56,4.22-3.2-2.94-14.02-4.51-8.17-13.04-20.29-2.85-13.58,1.36-5.6-10.77-24.23-5.05-24.08-5.58-16.72-3.99-22.56-4.93-23.49.51.51-3.95,6.53-19.16,8.08,7.65,16.04-19.01-.67-20.64,8.7,9.24,14.74,12.35,23.61-12.12,5.11-23.06-17.1-11.35.76-12.95,5.46,13.26,19.55-8.05,4.65-13.5,5.69-3.61,2.88-13.63-.6-13.77,5.81-15.23-8.68,3.44,16.54-13.77,5.81-18.98-12.49-8.35,4.55-13.5,5.69-5.77.52.45,12.9-12.95,5.46-15.01-9.05-16.53-4.8-12.12,5.11-11.87-.87-19.54,1.42-20.64,8.7-13.78,2.99-2.81,24.44-19.16,8.08-6.91-6.91-10.62-1.89-8.44,14.86-4.26,3.02-5.14,10.88-7.63,18.21-.8,9.03-11.1,9.65-13.46,18.93-2.86,2.97-8.1,3.73-6.53,11.44,2.85,8.99-9.07,3.35-7.11,11.68,4.78,11.15-4.73,8.1-8,11.34-2.64,3.87-5.62,7.43-5.78,13.82-2.05,4.5.37,13.47-4.53,15.07,7.74,14.25,1.53,14.5-8.56,10.78,2.04,8.41-2.81,9.84-7.84,10.95-7.67-1.52-1.58,10.57-6.5,11.47-8.76,2.88-5.82,16.75-11.73,20.66-7.25,2.57-12.3,6.26-9.36,16.48-8.1,6.45,1.46,24.75-8.44,14.86-.56-.56,6.07,11.89,6.61,21.17-7.88-3.51,8.42,17.89,6.77,21.7-1.69,1.04-2.89,2.66,3.82,12.24,1.47,4.33.72,6.5,3.94,12.63,8.51,11.42-4.86.97,3.94,12.63-.75,2.12-4.69.99,3.82,12.24,14.86,20.32-3.04,7.51,6.77,21.7,1.17,9.91,7.84,22.4,6.61,21.17Z"/>
        <path class="cls-10" d="M1377.48,392.23l-32.14-119.23s-6.6,2.5-17.15,6.49c-5.28,2-9.15,6.76-18.47,6.99-8.3,1.24-14.5,5.5-22.42,8.48-5.29.17.16,11.18-12.08,4.57-6.15-.53-5.86,5.44-12.32,4.66-12.21-6.53-7.39,3.97-12.32,4.66-.45,5.18-11.42-.23-12.08,4.57-4.7,6.21-20.33,1.03-22.42,8.48-13.42-3.88-11.61,6.58-18.47,6.99-9.56,4.98-14.33,9.31-17.15,6.49,5.61,5.61-10.92.84-15,14.4,3.55,12.37-5.48,13.63-15.38,14.76-8.39,2.64-9.97,12.82-17.63,16.92-5.5,6.27-9.72,13.81-17.63,16.92-17.06-6.03-20.2,1.12-15.38,14.76-11.84,5.8-10.78,18.62-15,14.4-1.2-1.2,4.22,14.04-3.61,20.96,4.71,12.08,3.74,19.71-3.7,21.48-.88,8.34-7.77,11.27-4.24,24.62-2.29,7.54,1.1,20.75-4.24,24.62,1.4,10.61,4.08,21.89-3.7,21.48-7.63,7.11-2.9,21.66-3.61,20.96,1.06,1.06,6.42,6.45,5.64,5.7,1.79,1.83,6.99,7.08,14.1,14.25.25.28,16.08,16.15,8.9,9,1.54,1.57,14.49,14.56,9.43,9.53-1.32-1.29,6.76,6.83,9.43,9.53-1.46-1.42.27.34,8.9,9,9.53,9.59,8.92,9.04,14.1,14.25,3.15,3.19,9.25,9.31,5.64,5.7-1.95-1.95,10.38.16,21.27-4.27,1.42-6.24,15.84-.76,21.8-4.38,2.88-1.91,9.27-.47,12.3-2.47-2.09-7.12,9.37-.77,12.69-2.55-.49-5.6,5.59-4.63,12.69-2.55,1.15-3.88,13.14,3.16,12.3-2.47,12.76,3.19,14.34-4.18,21.8-4.38,13.74-1.59,20.08-5.46,21.27-4.27,3.74,3.74,6.91-6.11,13.35-19.19,5.94-3.83,6.07-15.09,13.68-19.67,5.46-.64,6.3-6.1,7.72-11.1,1.88-4.53,7.57-5.34,7.97-11.46.89-5.62,6.9-6.11,7.97-11.46,2.63-3.78,5.21-7.5,7.72-11.1,15.01-21.59,27.03-38.87,27.03-38.87"/>
        <path class="cls-10" d="M1067.52,683.93c1.69,1.69,10,1.03,21.07-2.25,9.47,2.3,17.61,1.92,22.69-2.42,6.48,1.77,8.92-.72,13.32-1.42,6.21,1.11,2.6-7.77,14.23-1.52,7.13,1.75,5.85-5.02,14.84-1.58-.21-5.76,5.48-5.68,15.14-1.62.22-5.39,10.27-.94,15.14-1.62,6.34.79,13.64,2.6,14.84-1.58,1.58-3.8,12.83,2.18,14.23-1.52,13.1,7.99,10.29.25,13.32-1.42,10.18.76,20.1,2.16,22.69-2.42,12.67-1.68,21.61-1.71,21.07-2.25-1.22-1.22,1.02,5.13,7.6,18.27,2.13,5.42,8.87,16.05,8.18,19.68,4.6,6.76,6.79,11.2,4.8,11.55,1.36,3.7-.37,4.38,5.13,12.34,5.45,7.91,6.11,11.09,5.35,12.87,4.77,7.31,2.84,7.95,5.46,13.14,2.74,5.31,2.35,7.48,5.46,13.14,1.06,3.6,3.6,8.65,5.35,12.87,14.03,33.74,25.72,61.85,25.72,61.85,0,0-3.49,7.39-8.72,18.47-2.62,5.54-5.67,12-8.94,18.93-4.56,5.64-5.62,15.45-10.24,21.7,2.9,13.77-5.67,16.08-10.24,21.7-5.39,4.81-7.09,12.62-8.94,18.93-13.75,2.56-5.11,22.07-8.72,18.47,1.84,1.84-13.34-4.31-16.9,7.19-2.18,5.35-13.89,2.67-18.75,7.97,3.5,8.58,2.24,12.68-11.26,4.79-4.91.69.54,11.97-12.25,5.21-4.86,1.16-8.74,3.49-13.04,5.54-8.95-2.6-21.15-8.31-13.63,5.8-1.91,4.67-15.58-2.31-14.03,5.96,2.87,9.59-9.7,3.8-14.23,6.05-14.38-7.61-10.37,3.18-14.23,6.05-7.79-1.07-8.4,5.01-14.03,5.96-2.3,4.29-5.85,7.23-13.63,5.8-5.22,1.13-16.27-3.71-13.04,5.54-5.4.62-6.9,4.96-12.25,5.21-7.54-1.94-17.28-6.31-11.26,4.79-5.98,4.18-17.73,1.46-18.75,7.97-6.61,8.44-22.72,1.37-16.9,7.19,5.61,5.61-12.34-17.65-9.49-21.9-3.43-6.98-3.07-10.6-8.81-20.33-15.65-19.64,16.44,8.46-8.81-20.33-8.24-15.33-14.63-27.04-9.49-21.9-8.61-8.61-1.26-7.99,2.49-15.78-4.19-9.96,2.18-10.56,2.81-17.85-6.06-13.99-10.85-27.67,3.6-22.84,2.56-2.25,2.19-7.61,2.03-12.9,4.2-.94-11.59-22.01,2.16-13.68.29-5.12,9.8-1.13,2.25-14.3,6.16.54,8.85-2.47,2.33-14.77-6.93-12.7-3.57-15.17,2.38-15.08.28-5.58-1.31-13.06,2.4-15.23,7.4,1.51-5.04-16.82,2.4-15.23,2.86-3,5.29-6.4,2.38-15.08-2.95-8.72,3.22-8.25,2.33-14.77,5.98.36-5.03-16.18,2.25-14.3,1.65-3.75.89-9.8,2.16-13.68-1.4-6.53,10.78.65,2.03-12.9-.96-10.58-1.66-20.16,3.6-22.84,9.94,2.01,8.51-6.39,2.81-17.85-5.98-17.51.65-17.62,2.49-15.78Z"/>
        <path class="cls-10" d="M1111.28,309.42c4.81,4.81,7.51-1.08,16.12-6.78.03-7.12-.06-15.8,17.21-8.18,12.65,2.99,7.52-12.87,23.08-8.76,7.74,2.02,16.17,4.55,12.43-5.23,7.53,1.49,2.67-9.53,13-5.47,14.48,8.22,8.29-4.32,13.38-5.62,9.27,2.88,6.73-6.11,13.57-5.7,1.32-5.12,10.38-2.49,13.57-5.7,4.78-1.61.28-12.46,13.38-5.62,7.16.9,15.15,2.72,13-5.47,6.14.11,7.91-4.02,12.43-5.23,10.39-1.06,11.5-10.68,22.41-9.42,1.94-7.71,18.54.3,17.88-7.52,10.07-4.23,16.12-6.78,16.12-6.78l69.88-171.91-31.55-150.35-184.28,77.71s-3.16,5.57-8.44,14.86c-2.64,4.64-5.8,10.21-9.36,16.48-4.86,4.97-9.29,11.46-11.73,20.66-9.33-3.51-7.45,4.38-6.51,11.46-4.25,1.89-3.63,8.79-6.81,11.98-1.04,5.33-10.91,1.92-7,12.33-3.45,3.05-2.58,10.48-7.1,12.51,3.55,10.11-7.79,5.32-7.1,12.51,2.88,9.38-10.4,2.56-7,12.33.81,7.18-7.43,5.22-6.81,11.98,2.24,8.38-10.54,1.6-6.51,11.46-9.84,1.8-13.22,9.34-11.73,20.66,1.21,11.03-9.56,9-9.36,16.48-2.52,12.04-7.84,15.46-8.44,14.86-7.05-7.05,4.4,10.23,6.61,21.17,7.86,12.23,7.48,16.95,6.77,21.7-.38,2.35,9.07,14.62,3.82,12.24-6.38-3.52-1.49,4.29,3.94,12.63-1.39,1.53,3.62,9.45,3.94,12.63.93,3.8,5.87,11.55,3.82,12.24-3.09,2.37-.14,10.42,6.77,21.7-3.17,5.56,8.52,23.08,6.61,21.17Z"/>
        <path class="cls-10" d="M309.84-188.48c3.17,3.17,5.52-5.24,14.71-13.98,4.6-4.37,10.11-9.61,16.32-15.51,3.1-2.95,6.38-6.06,9.8-9.31,2.66-4.01,3.8-9.82,10.66-10.13,5.64-1.53,9.34-5.23,11.35-10.79,2.25-5.31,11.71-3.59,11.87-11.28,1.43-6.42,8.57-7.23,12.21-11.61,7.64-.37,9.37-6.71,12.38-11.77,4.32-3.75,1.18-14.96,12.38-11.77,2.49-5.52,6.92-9.05,12.21-11.61,7.26-.59,8.99-6.59,11.87-11.28,12.96,5.39,10.8-4.16,11.35-10.79-.36-7.53,8.87-5.25,10.66-10.13,11.33,4.66,12.17-.88,9.8-9.31,11.15-.95,3.48-19.38,16.32-15.51,10.33-7.6,11.82-16.87,14.71-13.98-3.12-3.12-5.87-1.22,4.35,16.97-7.22-3.23,1.99,10.79,4.92,19.2,12.64,15.38,12.52,18.17,3,11.7-7.79-4.74,6.15,12.4,3.3,12.87,8.54,11.86,2.44,9.21,3.56,13.87-2.52,1.03,11.11,18.31,3.77,14.71-1.89,1.84,4.69,12.24,3.94,15.38,2.02,5.9-.93,6.89,4.07,15.88-1.63,2.36-1.06,6.95,4.16,16.22,6.34,10.39,7.91,16.02,4.2,16.38,1.15,5.21,9.74,17.88,4.2,16.38,1.67,5.72,7.73,15.81,4.16,16.22-1.01,2.97-6.55,1.37,4.07,15.88,9.38,13.26-6.27,1.43,3.94,15.38.45,4.18-.32,7.06,3.77,14.71,1.94,5.49,7.51,14.51,3.56,13.87-8.19-4.87,12.44,18.96,3.3,12.87,5.84,8.89,18.03,23.98,3,11.7-.6,4.88,12.7,23,4.92,19.2.14,8.11,11,23.62,4.35,16.97,2.97,2.97,5.15,9.36-2.55,8.68-3.91,3.1,6.99,23.83-6.37,21.69-3.42,2.19,4.45,16.03-4.02,13.69-2.12,4.02-3.58,8.87-4.26,14.5-4.71,1.61-.42,12.21-4.26,14.5-.12,6.01-8.02,4.09-4.02,13.69.34,11.57-4.34,16.71-6.37,21.69,3.4,10.41.79,12.01-2.55,8.68.8.8-.72,1.95-15.17-8.07-6.08-3.86-8.12-3.24-16.83-8.95-4.88-1.89-16.3-9.98-21.1-11.22-6.98-5.2-4.53-.92-11.7-6.23-2.5-.62-4.69-.91-12.24-6.51-6.01-4.07-3.26.65-12.59-6.7-6.54-4.56-11.51-7.53-12.77-6.79-6.08-4.09-13.23-9.24-12.77-6.79-2.77-.79-4.44-.49-12.59-6.7-3.86-1.92-8.68-4.82-12.24-6.51,1.49,3.36.37,4.08-11.7-6.23-9.66-6.11-15.73-8.85-21.1-11.22-6.11-3.12-14.49-8.83-16.83-8.95-18.38-13.94-3.02,4.08-15.17-8.07,5.08,5.08-9.8-15.29-5.93-19.65,1.06-3.06-3.62-12.54-6.07-20.14.03-5.12-1.65-12.29-6.96-23.09-6.05-11.55-3.93-14.91-6.96-23.09-2.22-7.37-4.3-14.25-6.07-20.14-1.17-9.4-3.22-16.95-5.93-19.65Z"/>
        <path class="cls-10" d="M536.56,642.89c2.8,2.8,13.36,9.9,3.12-6.37,1.81-4.24,5.7-8.97,8.23-16.81,8.02,2.84.47-10.32,5.5-11.23,11.59,5.66,16.67,4.47,6.14-12.53.12-6.35-3.68-16.85,6.56-13.4-.26-7.06,4.28-9.42,6.78-13.84,12.83,5.92-2.2-16.02,6.78-13.84,2.92-3.88,3.78-9.71,6.56-13.4-7.79-14.27,3.74-9,6.14-12.53-7.23-13.16,5.12-6.42,5.5-11.23-6.05-16.41,2.03-16.97,8.23-16.81,3.06-2.98,6.32-3.17,3.12-6.37-1.16-1.16,4.26,3.42,17.18,14.99,11.66,10.99,10.46,8.99,18.5,16.14-2.03-2.48,3.92,3.01,10.86,9.47,9.35,8.87,9.7,8.73,11.6,10.12,6.1,5.6,6.89,5.87,12.1,10.56,2.5,1.98,6.6,5.55,12.35,10.77-1.1-1.63,11.17,10.12,12.35,10.77,2.92,2.4,2.05,1.01,12.1,10.56,7.55,7.05,14.65,13.65,11.6,10.12-4.19-4.67,7.86,6.92,10.86,9.47,9.36,8.47,5.61,3.92,18.5,16.14,27.83,26.49,22.51,20.31,17.18,14.99-8.78-8.78,12.87,18.97-4.41,12.52-2.12,3.29-7.44,4.58-5.11,14.52-5.68,1.94-10.16,6.09-6.7,19.03-7.87,1.61-8.26,11.55-8.02,22.79-.67,4.83-6.19,4.98-4.42,12.57-.83,4.99,3.02,14.81-4.65,13.22-.84,5.25,8.96,21.27-4.85,13.79.59,6.92-4.03,8.72-5.02,14.26,3.09,9.6-4.84,8.28-5.15,14.63.86,7.53-10.47,2.93-5.25,14.91-4.41,2.36-4.54,9.04-5.32,15.1,3.58,10.42-2.44,11.25-5.35,15.2-1.61,5.24-9.42,4.29-5.35,15.2-8.69-1.86-.2,13.45-5.32,15.1,2.95,9.72,4.5,18-5.25,14.91,2.77,9.43,1.2,14.47-5.15,14.63-9.43-2.92-3.71,9.23-5.02,14.26-2.74,3.58-8.51,4.04-4.85,13.79.85,6.95-4.09,7.97-4.65,13.22,1.2,7.02,4.15,15.64-4.42,12.57-1.31,9.7-4.43,16.9-8.02,22.79-5.93,3.55-5.49,12.63-6.7,19.03,2.15,9.76-2.82,11.4-5.11,14.52-8.12,2.71-2.86,14.07-4.41,12.52,1.72,1.72-3.98-7.09-3.75-12.37-.62-3.38-2.47-8.59-4.35-14.35-.26-4.14-3.35-11.63-5.7-18.81.61-4.22-2.76-12.85-6.82-22.52,4,1.2-.41-6.1-3.76-12.42,2.95-.02,2.91-3.09-3.96-13.07,2.07-1.04-9.34-15.61-4.13-13.63,3.49.27-1.46-7.96-4.27-14.09,7.65,4.33-.09-6.78-4.38-14.46-6.85-10.25,8.43,1.61-4.47-14.74,1.13-2.32-13.77-20.69-4.52-14.93-1.5-4.99-21.69-28.66-4.55-15.02-2.84-6.33-11.67-18.65-4.55-15.02-1.14-4.63-.26-7.21-4.52-14.93-12.2-15.65,9.42,2.54-4.47-14.74-.74-4.14-11.5-18.26-4.38-14.46,4.97,1.65-11.55-18.15-4.27-14.09-6.84-10.06-5.3-11.69-4.13-13.63-13.77-16.88.16-5.99-3.58-12.69-5.2-8.17-4.79-10.65-4.14-12.8-9.03-14.63,1.81-9.06-6.82-22.52.91-3.92-5.97-15.2-4.87-17.98,5.53,1.65.87-6.37-5.18-15.18,8.27,2.75-6.36-14.99-3.75-12.37Z"/>
        <path class="cls-10" d="M857.63,123.19c-1.77-1.77-3.32-14.56,17.04-12.18,4.83-4.16,29.46,9.8,18.35-13.11,3.14-2.76,9.97-2.11,10.77-7.7-6.56-12.95-.03-13.02,11.51-8.23.92-5.82,2.21-11.42,12-8.58,6.93-.03,8.19-5.79,12.25-8.75,7.67.65,5.93-8.12,12.25-8.75-1.67-8.62,8.46-5.38,12-8.58,7.81,1.06-3.1-16.45,11.51-8.23,16.55,10.16,5.52-7.05,10.77-7.7,9.07-2.73,3.86-18.62,18.35-13.11,18.73.76,22.34-6.87,17.04-12.18-1.32-1.32,10.93,16.53,2.5,17.67.17,4.96,4.92,15.51,2.82,20-.31,2.98,8.85,15.64,1.72,12.18.08,3.75,5.76,13.27,1.89,13.4-2.66,1.33-5.73,2.41,2.04,14.45-3.45.82,7.52,16.18,2.16,15.32,9.91,14.4,5.08,14.16,2.26,16.02-2.64,2.03.78,10.19,2.34,16.54-3.51,1.28-1.23,8.4,2.39,16.89,4.75,9.62,7.95,17.71,2.41,17.06,4.28,9.17,5.38,15.17,2.41,17.06,4.6,9.47.32,10.03,2.39,16.89,5.27,10.06,10.97,20.51,2.34,16.54-4.98-.31,9.18,18.45,2.26,16.02-3.59.9,2.58,11.47,2.16,15.32,9.9,14.17,4.85,13.26,2.04,14.45-10.56-6.57.68,8.52,1.89,13.4,7.64,11.31-3.67,3.5,1.72,12.18,7.81,14.4-6.89,5.49,2.82,20,6.87,16.45.1,15.28,2.5,17.67-10.56-10.56-8.33,2.73-22.08,5.57-8.05.24-17.73.24-22.63,5.7-.77,4.41-8.46,2.08-12.77,3.22-4.96.48-10.08.89-13.18,3.32-8.83-3.3-14.67-3.61-13.18,3.32-7.19-1.75-3.48,7.32-12.77,3.22-5.58,4.79-8.59,11.45-22.63,5.7-18.44-1.85-27.9-.26-22.08,5.57,2.42,2.42-9.2-13.93-5.01-17.6,3.99.05.18-8.48-5.55-19.52-6.07-8.73-4.29-9.75-3.33-11.72,3.24.32-4.22-10.2-3.63-12.75-5.67-8.82-3.16-9.55-3.86-13.58-3.07-6.39-5.05-11.76-4.04-14.2-8.07-11.51-1.49-8.43-4.16-14.61,4.65,1.13,2.89-4.17-4.21-14.81-11.59-15.13,6.69-.39-4.21-14.81,3.25-.27-1.29-8.3-4.16-14.61,2.94-.51-3.77-10.61-4.04-14.2-1.45-4.77,3.64-2.93-3.86-13.58-6.72-9.87-1.62-7.82-3.63-12.75.72-2.21.13-5.6-3.33-11.72-5.87-11.18,1.39-8.65-5.55-19.52,9.2,1.33-4.99-17.58-5.01-17.6Z"/>
        <path class="cls-10" d="M877.33,702.78c2.08,2.08,11.94.23,24.28-4.99,7.73,3.34,6.42-2.73,11.76-2.42,9.22,4.19,11.12.78,13.13-2.7,1.61-3.88,8.94-2.22,14.04-2.89,4.43-1.34,8.38-3.24,14.49-2.98,8.7,2.84.49-11.22,14.49-2.98,2.74-3.02,18.13,6.69,14.04-2.89,8.27,2.78,9.58-1.22,13.13-2.7,8.84,3.8,11.86,2.07,11.76-2.42,16.45-1.11,26.05-3.23,24.28-4.99,1.9,1.9,6.86,18.2-4.22,24.14-7.81-3.56-3.25,5.61-2.05,11.69-13.62-8.74-9.78.23-2.28,13.05-5.83-.51-8.4,2.41-3.15,13.24-3.58,2-6.87,4.39-1.81,15.12,3.92,9.59-5.32,6.02-1.47,15.46,3.07,8.66,2.02,13.1-3.49,12.9-2.1,3.22,3.39,13.85-1.43,13.91,5.34,10.21-3.56,5.93-2.9,10.84-1.52,6.99-3.03,12.56-1.58,18.98,12.95,17.91-3.81,3.99-2.64,5.16,5.5,5.5,10.37,10.6-13.35-12.75-2.5-2.31-12.54-12.13-14.38-13.73-6.31-6.06-19.46-18.95-17.46-16.67.46.6-7.41-7.13-9.4-8.98-2.12-1.98-10.11-9.82-9.6-9.16-.91-.76-10.64-10.35-9.6-9.16-6.93-6.79-.73-.44-9.4-8.98-9.67-9.39-7.77-7.22-17.46-16.67-5.81-5.56-8.24-7.77-14.38-13.73-6.25-5.88-13.29-12.69-13.35-12.75Z"/>
      </g>
    </g>
    <g id="_02" data-name="02">
      <g class="cls-3">
        <g>
          <g>
            <path class="cls-6" d="M-217.57,32.55c4.57-7.2,10.32-13.78,16.88-19.5,3.28-2.85,6.74-5.52,10.35-7.98,3.59-2.48,7.31-4.77,11.12-6.88,3.8-2.13,7.67-4.11,11.59-5.96,3.92-1.85,7.85-3.63,11.83-5.28,3.97-1.66,7.95-3.26,11.92-4.82l11.92-4.55c7.91-3.04,15.79-5.92,23.5-9.08,7.74-3.08,15.33-6.35,22.72-9.9,14.8-7.03,28.84-15.31,41.56-25.1,6.33-4.87,12.31-10.25,18.1-15.9,2.88-2.83,5.7-5.75,8.42-8.76,2.74-3,5.45-6.03,8.08-9.16,10.47-12.53,20.07-25.95,28.87-39.97,8.77-14.04,16.89-28.6,24.11-43.67,3.6-7.54,7.03-15.18,10.05-23,1.52-3.91,2.93-7.86,4.17-11.87,1.24-4.02,2.32-8.08,2.71-12.34.45,2.1.61,4.27.66,6.43.04,2.16,0,4.33-.14,6.5-.16,2.16-.36,4.31-.63,6.46-.29,2.14-.6,4.29-.96,6.42-1.47,8.52-3.57,16.92-6.07,25.19-5.03,16.53-11.59,32.61-19.55,48.05-7.97,15.42-17.25,30.28-28.14,44.07-2.73,3.44-5.52,6.85-8.45,10.15-2.93,3.3-5.97,6.51-9.1,9.65-6.22,6.32-13.01,12.13-20.14,17.54-7.17,5.37-14.65,10.1-22.36,14.46-7.71,4.33-15.69,8.09-23.74,11.51-8.07,3.38-16.26,6.32-24.46,9.01-8.22,2.62-16.42,5.08-24.61,7.33-16.34,4.63-32.56,8.75-48,14.75-3.86,1.51-7.65,3.14-11.39,4.92-3.72,1.8-7.38,3.74-10.94,5.89-7.1,4.31-13.79,9.43-19.89,15.4Z"/>
            <path class="cls-6" d="M-247.12,106.07c1.61-3.92,3.54-7.71,5.68-11.43,2.18-3.69,4.65-7.26,7.39-10.62,2.74-3.37,5.75-6.54,8.9-9.54,3.19-2.96,6.5-5.78,9.93-8.42,6.85-5.29,14.04-10.01,21.33-14.45,3.66-2.2,7.33-4.35,11.03-6.45,3.7-2.09,7.43-4.1,11.16-6.1,14.95-7.95,30.11-15.3,45.37-22.35l11.45-5.27,11.49-5.13c7.44-3.41,14.87-6.83,22.14-10.57l5.45-2.8,5.37-2.94c3.62-1.88,7.11-3.99,10.66-6,1.76-1.02,3.48-2.11,5.22-3.17,1.74-1.06,3.48-2.11,5.19-3.22l5.15-3.28c1.7-1.11,3.37-2.28,5.06-3.41l2.52-1.71,2.47-1.78,4.96-3.55c3.24-2.45,6.51-4.87,9.65-7.45,6.33-5.09,12.53-10.37,18.38-16.01,11.76-11.23,22.59-23.51,31.86-37.03,9.25-13.52,17.11-28.19,22.06-44.34-.19,4.22-.8,8.43-1.52,12.63-.39,2.09-.83,4.18-1.35,6.25-.47,2.09-1.08,4.13-1.67,6.2-.62,2.05-1.28,4.09-1.97,6.12-.75,2-1.44,4.05-2.27,6.03-.8,1.99-1.59,4-2.5,5.94l-1.33,2.94-1.42,2.9c-7.63,15.46-17.58,29.78-28.98,42.8-1.43,1.62-2.88,3.23-4.34,4.82l-4.49,4.68c-1.49,1.57-3.07,3.04-4.61,4.57l-2.33,2.26-2.4,2.18c-3.17,2.95-6.47,5.73-9.76,8.54-1.66,1.38-3.35,2.73-5.04,4.07l-2.55,2.01-2.59,1.94C-42.15-3.64-56.86,5.48-72.12,13.4c-3.79,2.05-7.67,3.88-11.52,5.79-1.92.97-3.89,1.82-5.85,2.7l-5.87,2.63-11.54,5-11.56,4.89-46.14,19.44c-3.83,1.62-7.64,3.27-11.44,4.93-3.81,1.63-7.59,3.31-11.34,5.04-7.53,3.4-14.93,6.98-22.09,10.91-7.15,3.94-14.03,8.27-20.33,13.46-6.31,5.17-12.03,11.24-17.32,17.86Z"/>
            <path class="cls-6" d="M-259.36,149.24c2.48-2.62,5.02-5.17,7.58-7.73,2.61-2.49,5.23-4.96,7.89-7.41,2.67-2.42,5.41-4.77,8.14-7.15,2.75-2.33,5.57-4.59,8.37-6.89,11.3-9.02,23.16-17.36,35.42-25.09l9.28-5.67c3.12-1.84,6.29-3.61,9.43-5.41,3.19-1.73,6.35-3.51,9.56-5.19l9.7-4.94c6.49-3.24,13.1-6.22,19.73-9.18,3.33-1.44,6.67-2.86,10.03-4.22l10.03-4.02c26.19-10.25,51.77-21.35,75.66-35.55C-26.6,13.74-15.1,5.88-4.16-2.88,1.32-7.24,6.63-11.87,11.82-16.69c5.18-4.84,10.2-9.91,15.19-15.14-3.14,6.51-6.84,12.76-10.93,18.78C12-7.03,7.49-1.27,2.67,4.25-6.99,15.26-18,25.14-29.78,33.93c-2.95,2.19-5.95,4.32-8.98,6.39-3.05,2.05-6.14,4.03-9.26,5.96-6.22,3.9-12.64,7.43-19.11,10.85-6.49,3.38-13.09,6.49-19.71,9.5-6.67,2.92-13.37,5.72-20.11,8.35l-9.89,3.83c-3.28,1.26-6.5,2.66-9.77,3.93-3.26,1.3-6.49,2.68-9.74,4.01-3.23,1.37-6.44,2.8-9.69,4.14l-9.64,4.26c-3.18,1.48-6.4,2.9-9.6,4.36-3.18,1.49-6.35,3.03-9.55,4.5l-9.51,4.6c-12.66,6.2-25.18,12.75-37.65,19.56l-9.34,5.15-9.32,5.25c-3.08,1.8-6.2,3.56-9.32,5.33-3.1,1.8-6.2,3.61-9.38,5.34Z"/>
          </g>
          <g>
            <path class="cls-6" d="M168.31,599.7c-2.85-8.2-5.05-16.68-6.5-25.33-1.49-8.66-2.23-17.49-2.13-26.43.15-8.93,1.15-18,3.66-26.95.64-2.23,1.33-4.47,2.17-6.67.4-1.12.81-2.1,1.23-3.15.42-1.03.82-2.07,1.26-3.09,1.71-4.11,3.53-8.14,5.42-12.13,3.85-7.92,7.88-15.67,11.94-23.23,2.03-3.79,4-7.57,5.95-11.32,1.97-3.75,3.84-7.5,5.65-11.25,7.17-14.95,12.83-30.53,17.02-46.55,8.29-32.02,10.87-65.59,6.74-98.68-4.11-33.13-14.25-65.82-31.6-95.87,6.07,6.21,11.64,13,16.58,20.25,5,7.22,9.39,14.88,13.34,22.78,7.83,15.84,13.55,32.79,17.26,50.22,7.44,34.92,6.12,71.73-3,106.38-2.34,8.65-5.06,17.21-8.32,25.56-3.26,8.34-7.01,16.54-11.23,24.42-2.12,3.92-4.28,7.78-6.5,11.57-2.22,3.78-4.52,7.5-6.79,11.18-4.52,7.38-9.14,14.55-13.42,21.82-2.14,3.63-4.27,7.26-6.24,10.94-.99,1.82-1.96,3.73-2.89,5.52-.9,1.74-1.69,3.55-2.46,5.39-1.49,3.7-2.72,7.57-3.78,11.52-1.04,3.96-1.83,8.03-2.51,12.14-2.57,16.52-2.45,33.73-.84,50.98Z"/>
            <path class="cls-6" d="M197.85,673.22c-7.24-14.26-11.54-30.25-12.84-46.61-1.32-16.39.46-33.06,4.41-49.06.99-4,2.1-7.97,3.33-11.9,1.25-3.92,2.62-7.79,4.06-11.64,1.44-3.84,3.03-7.62,4.67-11.36,1.65-3.7,3.34-7.37,5.06-11.02,3.52-7.24,7.15-14.37,10.82-21.4,3.72-7.01,7.38-13.97,10.98-20.9,3.64-6.91,7.07-13.85,10.35-20.8,3.31-6.94,6.26-13.99,9.01-21.07,1.36-3.55,2.64-7.12,3.79-10.72,1.16-3.6,2.3-7.21,3.25-10.87,1.98-7.29,3.52-14.74,4.7-22.27.62-3.76,1.09-7.56,1.55-11.36.36-3.81.73-7.64.95-11.48.06-.96.14-1.92.19-2.88l.1-2.89c.04-1.93.18-3.86.17-5.79l.06-5.81-.12-5.82c-.22-7.77-.73-15.57-1.57-23.39-.9-7.8-2.03-15.63-3.42-23.51,3.42,7.21,6.35,14.7,8.79,22.37,2.45,7.67,4.33,15.54,5.84,23.5,1.51,7.97,2.43,16.06,2.95,24.2.56,8.14.5,16.35,0,24.55-.55,8.2-1.47,16.42-3.15,24.54-1.54,8.14-3.75,16.12-6.32,23.95-1.26,3.92-2.68,7.78-4.18,11.59-1.48,3.82-3.08,7.58-4.7,11.32-3.27,7.46-6.88,14.7-10.52,21.85-3.68,7.13-7.52,14.1-11.27,21.05-3.8,6.92-7.59,13.78-11.2,20.67-1.83,3.43-3.62,6.87-5.36,10.32-1.71,3.42-3.36,6.87-4.98,10.33-3.18,6.94-6.05,14-8.57,21.17-5.01,14.35-8.44,29.24-9.68,44.53-.31,3.82-.52,7.67-.52,11.53-.05,1.93.01,3.87.04,5.81.09,1.93.14,3.88.27,5.83.24,3.89.63,7.8,1.15,11.7.43,3.93,1.21,7.81,1.88,11.76Z"/>
            <path class="cls-6" d="M214.28,728.4c-2.56-8.2-4.67-16.57-6.15-25.11-.78-4.26-1.33-8.57-1.84-12.9-.44-4.33-.74-8.69-.92-13.06-.65-17.51,1.55-35.24,5.54-52.28,1.01-4.26,2.07-8.5,3.23-12.69,1.18-4.19,2.43-8.34,3.7-12.47.64-2.06,1.27-4.13,1.95-6.17l2.11-6.19c.7-2.08,1.44-4.12,2.2-6.16.76-2.04,1.48-4.11,2.29-6.12,3.16-8.11,6.58-16.05,10.05-23.92,3.54-7.84,7.12-15.59,10.69-23.29l5.36-11.51,5.18-11.49c1.74-3.82,3.36-7.66,5.01-11.49,1.57-3.85,3.17-7.7,4.67-11.56l1.14-2.9,1.06-2.91c.7-1.94,1.45-3.89,2.1-5.83,1.34-3.88,2.62-7.78,3.8-11.72,2.32-7.88,4.33-15.87,5.9-23.96,3.19-16.16,4.74-32.69,4.16-49.28-.04-2.08-.2-4.15-.31-6.23-.19-2.07-.32-4.15-.56-6.22-.4-4.16-1.05-8.28-1.78-12.42-1.51-8.26-3.68-16.46-6.52-24.57,9.59,14.3,15.65,31.11,18.82,48.36,3.16,17.3,3.46,35.12,1.62,52.65-.96,8.77-2.38,17.49-4.39,26.09-1.01,4.3-2.05,8.6-3.32,12.83-.61,2.13-1.3,4.19-1.95,6.29l-.99,3.14-1.06,3.1c-5.62,16.59-12.66,32.48-19.82,48.01l-10.81,23.09c-3.57,7.65-7.12,15.26-10.38,22.94-.87,1.91-1.63,3.83-2.45,5.75-.82,1.92-1.62,3.84-2.37,5.77l-2.29,5.81-2.27,5.9c-3,7.86-5.84,15.71-8.44,23.6-5.17,15.77-9.01,31.83-10.88,48.41-.96,8.28-1.44,16.66-1.58,25.12-.04,4.23-.06,8.48.06,12.73.02,4.27.29,8.53.42,12.83Z"/>
            <path class="cls-6" d="M241.74,776.18c-3.19-7.89-4.8-16.52-5.26-25.17-.48-8.66.1-17.38,1.18-25.91,2.07-17.11,6.28-33.94,11.53-50.3l2.04-6.11,2.13-6.07c1.46-4.02,3-8.02,4.56-12,3.09-7.97,6.45-15.79,9.81-23.57,3.36-7.78,6.89-15.44,10.27-23.11,3.44-7.65,6.86-15.26,10.1-22.9,3.3-7.62,6.48-15.25,9.39-22.95,2.99-7.67,5.68-15.41,8.16-23.2,2.51-7.78,4.65-15.66,6.51-23.58.51-1.98.88-3.97,1.3-5.95l.62-2.98.53-3c.79-3.99,1.36-8.02,1.94-12.05l.72-6.07c.25-2.03.38-4.06.58-6.09.21-2.03.31-4.07.42-6.11.1-2.04.27-4.08.29-6.13.3-8.18.11-16.39-.55-24.59-.64-8.2-1.7-16.43-3.42-24.56-1.72-8.14-3.91-16.24-6.68-24.29,9.44,14.15,15.98,30.45,19.81,47.34,1.03,4.22,1.73,8.5,2.47,12.78l.87,6.46c.27,2.16.42,4.32.64,6.49.23,2.17.35,4.34.44,6.51.11,2.17.22,4.35.22,6.53.01,2.18.09,4.36.04,6.54l-.19,6.54c-.26,4.35-.51,8.72-.99,13.06l-.34,3.26-.46,3.25c-.32,2.16-.58,4.34-.98,6.48-1.36,8.62-3.35,17.11-5.6,25.5-2.27,8.39-4.98,16.62-7.86,24.76-2.95,8.11-6.18,16.07-9.53,23.95-3.42,7.84-6.94,15.59-10.55,23.26-3.67,7.64-7.3,15.25-10.99,22.78-7.33,15.09-14.57,30.07-21.04,45.31-6.46,15.24-12.23,30.73-16.63,46.73-2.28,7.98-4.12,16.01-5.24,24.2-1.07,8.18-1.37,16.54-.28,24.97Z"/>
            <path class="cls-6" d="M168.31,599.7c-6.09-5.98-12.79-11.1-19.89-15.4-3.56-2.15-7.22-4.09-10.94-5.89-3.73-1.78-7.53-3.41-11.39-4.92-15.44-6-31.66-10.12-48-14.75-8.19-2.25-16.39-4.71-24.61-7.33-8.19-2.69-16.38-5.63-24.46-9.01-8.05-3.42-16.03-7.18-23.74-11.51-7.71-4.36-15.19-9.09-22.36-14.46-7.14-5.41-13.92-11.23-20.14-17.54-3.13-3.14-6.17-6.35-9.1-9.65-2.92-3.3-5.72-6.71-8.45-10.15-10.9-13.79-20.17-28.65-28.14-44.07-7.96-15.43-14.52-31.51-19.55-48.05-2.5-8.27-4.6-16.67-6.07-25.19-.37-2.13-.68-4.27-.96-6.42-.26-2.15-.47-4.31-.63-6.46-.14-2.16-.18-4.33-.14-6.5.04-2.16.21-4.33.66-6.43.39,4.26,1.46,8.32,2.7,12.34,1.24,4.01,2.65,7.96,4.17,11.87,3.02,7.82,6.45,15.46,10.05,23,7.22,15.07,15.35,29.63,24.11,43.67,8.8,14.02,18.4,27.45,28.87,39.97,2.62,3.13,5.34,6.16,8.08,9.16,2.73,3.01,5.54,5.93,8.42,8.76,5.78,5.65,11.76,11.03,18.1,15.9,12.72,9.79,26.76,18.07,41.56,25.1,7.39,3.55,14.99,6.82,22.72,9.9,7.71,3.16,15.6,6.04,23.5,9.08l11.92,4.55c3.97,1.57,7.95,3.16,11.92,4.82,3.98,1.64,7.91,3.43,11.83,5.28,3.92,1.84,7.79,3.83,11.59,5.96,3.81,2.11,7.53,4.4,11.12,6.88,3.6,2.46,7.06,5.13,10.35,7.98,6.56,5.72,12.31,12.3,16.88,19.5Z"/>
            <path class="cls-6" d="M197.85,673.22c-5.29-6.62-11.01-12.69-17.32-17.86-6.3-5.19-13.18-9.52-20.33-13.46-7.16-3.92-14.56-7.51-22.09-10.91-3.75-1.73-7.53-3.41-11.34-5.04-3.79-1.67-7.61-3.32-11.44-4.93l-46.14-19.44-11.56-4.89-11.54-5-5.87-2.63c-1.95-.89-3.93-1.73-5.85-2.7-3.85-1.91-7.73-3.74-11.52-5.79-15.26-7.93-29.97-17.04-43.76-27.46l-2.59-1.94-2.55-2.01c-1.69-1.34-3.38-2.69-5.04-4.07-3.29-2.81-6.59-5.59-9.76-8.54l-2.4-2.18-2.33-2.26c-1.53-1.53-3.11-3-4.61-4.57l-4.49-4.68c-1.46-1.59-2.91-3.21-4.34-4.82-11.39-13.01-21.34-27.34-28.98-42.8l-1.42-2.9-1.33-2.94c-.91-1.94-1.7-3.95-2.5-5.94-.83-1.98-1.52-4.02-2.27-6.03-.69-2.03-1.35-4.08-1.97-6.12-.59-2.06-1.2-4.11-1.67-6.2-.52-2.07-.96-4.16-1.35-6.25-.72-4.2-1.33-8.41-1.52-12.63,4.94,16.15,12.81,30.81,22.06,44.34,9.27,13.52,20.1,25.81,31.86,37.03,5.85,5.65,12.05,10.93,18.38,16.01,3.14,2.58,6.41,5,9.65,7.45l4.96,3.55,2.47,1.78,2.52,1.71c1.69,1.14,3.35,2.3,5.06,3.41l5.15,3.28c1.7,1.11,3.45,2.16,5.19,3.22,1.74,1.05,3.46,2.14,5.22,3.17,3.55,2.01,7.04,4.11,10.66,6l5.37,2.94,5.45,2.8c7.26,3.74,14.69,7.16,22.14,10.57l11.49,5.12,11.45,5.27c15.26,7.05,30.41,14.41,45.37,22.35,3.73,2,7.46,4.01,11.16,6.1,3.69,2.09,7.37,4.24,11.03,6.45,7.29,4.44,14.48,9.16,21.33,14.45,3.43,2.64,6.74,5.46,9.93,8.42,3.16,3,6.16,6.17,8.9,9.54,2.74,3.37,5.22,6.93,7.39,10.62,2.14,3.72,4.07,7.51,5.68,11.43Z"/>
            <path class="cls-6" d="M210.09,716.39c-3.18-1.73-6.28-3.54-9.38-5.34-3.12-1.77-6.24-3.53-9.32-5.33l-9.32-5.25-9.34-5.15c-12.46-6.81-24.99-13.35-37.65-19.56l-9.51-4.6c-3.2-1.47-6.36-3.01-9.55-4.5-3.2-1.46-6.42-2.88-9.6-4.36l-9.64-4.26c-3.25-1.35-6.46-2.77-9.69-4.14-3.25-1.34-6.48-2.71-9.74-4.01-3.28-1.26-6.5-2.67-9.77-3.93l-9.89-3.83c-6.74-2.63-13.44-5.43-20.11-8.35-6.63-3.01-13.23-6.12-19.71-9.5-6.46-3.42-12.89-6.95-19.11-10.85-3.12-1.93-6.21-3.91-9.26-5.96-3.03-2.07-6.03-4.2-8.98-6.39-11.78-8.78-22.79-18.67-32.46-29.68-4.82-5.52-9.33-11.27-13.41-17.3-4.09-6.02-7.79-12.27-10.93-18.78,4.99,5.23,10.01,10.3,15.19,15.14,5.19,4.83,10.5,9.45,15.98,13.81,10.94,8.76,22.44,16.62,34.39,23.69,23.88,14.2,49.47,25.3,75.66,35.55l10.03,4.02c3.36,1.36,6.7,2.77,10.03,4.22,6.63,2.95,13.24,5.94,19.73,9.18l9.7,4.94c3.22,1.68,6.37,3.46,9.56,5.19,3.15,1.8,6.31,3.57,9.43,5.41l9.28,5.67c12.26,7.73,24.12,16.07,35.42,25.09,2.79,2.3,5.61,4.56,8.37,6.89,2.72,2.38,5.46,4.72,8.14,7.15,2.66,2.44,5.28,4.92,7.89,7.41,2.55,2.56,5.1,5.11,7.58,7.73Z"/>
            <path class="cls-6" d="M254.63,838.58c-1.66-6.72-4.33-12.96-7.4-18.94-1.56-2.98-3.24-5.88-4.98-8.72-1.8-2.82-3.63-5.59-5.59-8.28-7.81-10.75-16.9-20.4-26.84-28.97-9.92-8.6-20.72-16.1-32.06-22.67l-2.12-1.24-2.16-1.18c-1.45-.78-2.85-1.59-4.35-2.33-1.48-.74-2.95-1.52-4.41-2.29-1.46-.78-2.97-1.48-4.45-2.22-5.95-2.92-11.97-5.67-18.06-8.25-12.19-5.18-24.73-9.64-37.57-13.97-12.82-4.39-26.06-8.67-39.04-14.45-12.97-5.71-25.58-13.05-36.38-22.33-1.38-1.12-2.65-2.37-3.98-3.54-1.33-1.17-2.58-2.43-3.83-3.67-1.25-1.25-2.49-2.5-3.66-3.81-1.18-1.3-2.39-2.57-3.52-3.92-4.57-5.32-8.67-10.98-12.36-16.85,5.44,4.34,10.76,8.64,16.27,12.6,2.8,1.92,5.5,3.93,8.37,5.69,2.78,1.87,5.68,3.55,8.55,5.22,11.54,6.63,23.67,11.57,36.28,15.6,6.32,1.99,12.74,3.86,19.27,5.63,6.52,1.81,13.13,3.59,19.78,5.51,6.63,1.98,13.34,3.96,19.95,6.33,6.63,2.33,13.25,4.8,19.71,7.69,3.26,1.38,6.45,2.91,9.66,4.4,3.17,1.58,6.34,3.16,9.44,4.86,3.13,1.65,6.21,3.4,9.25,5.19,1.53.87,3.04,1.85,4.56,2.78l2.28,1.41,2.24,1.48c6,3.89,11.72,8.21,17.24,12.77,5.48,4.6,10.7,9.53,15.58,14.76,9.75,10.47,18.08,22.29,24.32,35.06,3.1,6.39,5.67,13.04,7.48,19.87,1.77,6.82,2.92,13.87,2.51,20.81Z"/>
            <path class="cls-6" d="M267.94,868.39c-2.24-6.89-3.96-14.02-5.01-21.28-1.01-7.26-1.63-14.63-1.58-22.02,0-14.78,1.99-29.58,5.39-43.99,1.73-7.19,3.71-14.34,6.11-21.32,2.33-7.02,4.99-13.89,7.8-20.64,2.8-6.76,5.84-13.38,8.88-19.95,3.09-6.54,6.28-13,9.4-19.43,12.67-25.66,25.17-50.61,33.05-77.26,8.03-26.59,11.92-54.5,9.14-83.38,2.71,6.72,4.91,13.73,6.41,20.91,1.46,7.18,2.54,14.52,2.9,21.91.37,7.38.38,14.82-.23,22.21-.55,7.4-1.51,14.78-2.94,22.06-.34,1.83-.69,3.65-1.11,5.45-.41,1.81-.79,3.63-1.22,5.43-.92,3.59-1.86,7.18-2.94,10.73-2.07,7.13-4.57,14.11-7.21,20.96-2.66,6.85-5.57,13.58-8.56,20.22-3.05,6.61-6.19,13.13-9.35,19.6-12.77,25.81-25.99,50.53-35.07,76.87-4.62,13.14-8.28,26.62-10.7,40.44l-.87,5.2-.69,5.23c-.27,1.75-.43,3.5-.58,5.26-.13,1.76-.39,3.53-.48,5.29-.54,7.09-.58,14.22-.53,21.5Z"/>
            <path class="cls-6" d="M264.62,926.92c-.5-6.31-1.65-12.36-3.35-18.18-1.74-5.81-4.01-11.38-6.69-16.7-5.37-10.66-12.33-20.12-20.53-28.5-4.05-4.22-8.44-8.14-12.97-11.93-4.57-3.74-9.31-7.36-14.22-10.84-4.93-3.46-9.92-6.95-15.01-10.24-5.06-3.34-10.17-6.61-15.37-9.72-5.16-3.18-10.39-6.22-15.69-9.14-2.62-1.5-5.32-2.91-7.98-4.37-2.67-1.45-5.42-2.8-8.1-4.27l-16.45-8.47-8.3-4.28-8.29-4.41c-11.04-5.96-22.03-12.36-32.42-19.72l-3.87-2.78c-1.27-.97-2.54-1.92-3.79-2.91-2.52-1.92-4.96-3.98-7.37-6.05-1.21-1.02-2.4-2.07-3.55-3.18l-3.45-3.27c-2.25-2.23-4.4-4.56-6.52-6.9,2.83,1.44,5.53,3.02,8.31,4.46l4.16,2.15,2.06,1.08,2.09,1.02c2.8,1.34,5.53,2.77,8.36,4.01,1.41.64,2.79,1.31,4.18,1.96l4.24,1.85c11.26,4.97,22.67,9.49,34.21,14.01l8.66,3.42,8.67,3.52c5.8,2.32,11.57,4.87,17.35,7.41,5.77,2.61,11.49,5.42,17.19,8.33,5.65,3,11.22,6.15,16.7,9.44,5.44,3.36,10.81,6.83,16.05,10.48,5.21,3.7,10.35,7.44,15.37,11.47,5,4.06,9.96,8.27,14.6,12.9,2.33,2.3,4.62,4.66,6.8,7.13,2.17,2.48,4.29,5.02,6.28,7.66,8.02,10.49,14.32,22.55,17.75,35.2,1.7,6.34,2.81,12.81,3.03,19.3.2,6.48-.41,12.96-2.13,19.05Z"/>
          </g>
          <g>
            <path class="cls-6" d="M-217.57,1112.55c4.57-7.2,10.32-13.78,16.88-19.5,3.28-2.85,6.74-5.52,10.35-7.98,3.59-2.48,7.31-4.77,11.12-6.88,3.8-2.13,7.67-4.11,11.59-5.96,3.92-1.85,7.85-3.63,11.83-5.28,3.97-1.66,7.95-3.26,11.92-4.82l11.92-4.55c7.91-3.04,15.79-5.92,23.5-9.08,7.74-3.08,15.33-6.35,22.72-9.9,14.8-7.03,28.84-15.31,41.56-25.1,6.33-4.87,12.31-10.25,18.1-15.9,2.88-2.83,5.7-5.75,8.42-8.76,2.74-3,5.45-6.03,8.08-9.16,10.47-12.53,20.07-25.95,28.87-39.97,8.77-14.04,16.89-28.6,24.11-43.67,3.6-7.54,7.03-15.18,10.05-23,1.52-3.91,2.93-7.86,4.17-11.87,1.24-4.02,2.32-8.08,2.71-12.34.45,2.1.61,4.27.66,6.43.04,2.16,0,4.34-.14,6.5-.16,2.16-.36,4.31-.63,6.46-.29,2.14-.6,4.29-.96,6.42-1.47,8.52-3.57,16.92-6.07,25.19-5.03,16.53-11.59,32.61-19.55,48.05-7.97,15.42-17.25,30.28-28.14,44.07-2.73,3.44-5.52,6.85-8.45,10.15-2.93,3.3-5.97,6.51-9.1,9.65-6.22,6.32-13.01,12.13-20.14,17.54-7.17,5.37-14.65,10.1-22.36,14.46-7.71,4.33-15.69,8.09-23.74,11.51-8.07,3.38-16.26,6.32-24.46,9.01-8.22,2.62-16.42,5.08-24.61,7.33-16.34,4.63-32.56,8.75-48,14.75-3.86,1.51-7.65,3.14-11.39,4.92-3.72,1.8-7.38,3.74-10.94,5.89-7.1,4.31-13.79,9.43-19.89,15.4Z"/>
            <path class="cls-6" d="M-247.12,1186.07c1.61-3.92,3.54-7.71,5.68-11.43,2.18-3.69,4.65-7.26,7.39-10.62,2.74-3.37,5.75-6.54,8.9-9.54,3.19-2.96,6.5-5.78,9.93-8.42,6.85-5.29,14.04-10.01,21.33-14.45,3.66-2.2,7.33-4.35,11.03-6.45,3.7-2.09,7.43-4.1,11.16-6.1,14.95-7.95,30.11-15.3,45.37-22.35l11.45-5.27,11.49-5.12c7.44-3.41,14.87-6.83,22.14-10.57l5.45-2.8,5.37-2.94c3.62-1.88,7.11-3.99,10.66-6,1.76-1.02,3.48-2.11,5.22-3.17,1.74-1.06,3.48-2.11,5.19-3.22l5.15-3.28c1.7-1.11,3.37-2.28,5.06-3.41l2.52-1.71,2.47-1.78,4.96-3.55c3.24-2.45,6.51-4.87,9.65-7.45,6.33-5.09,12.53-10.37,18.38-16.01,11.76-11.23,22.59-23.51,31.86-37.03,9.25-13.52,17.11-28.19,22.06-44.34-.19,4.22-.8,8.43-1.52,12.63-.39,2.09-.83,4.18-1.35,6.25-.47,2.09-1.08,4.13-1.67,6.2-.62,2.05-1.28,4.09-1.97,6.12-.75,2-1.44,4.05-2.27,6.03-.8,1.99-1.59,4-2.5,5.94l-1.33,2.94-1.42,2.9c-7.63,15.46-17.58,29.78-28.98,42.8-1.43,1.62-2.88,3.23-4.34,4.82l-4.49,4.68c-1.49,1.57-3.07,3.04-4.61,4.57l-2.33,2.26-2.4,2.18c-3.17,2.95-6.47,5.73-9.76,8.54-1.66,1.38-3.35,2.73-5.04,4.07l-2.55,2.01-2.59,1.94c-13.78,10.42-28.5,19.54-43.76,27.46-3.79,2.05-7.67,3.88-11.52,5.79-1.92.97-3.89,1.82-5.85,2.7l-5.87,2.63-11.54,5-11.56,4.9-46.14,19.44c-3.83,1.62-7.64,3.27-11.44,4.93-3.81,1.63-7.59,3.31-11.34,5.04-7.53,3.4-14.93,6.98-22.09,10.91-7.15,3.94-14.03,8.27-20.33,13.46-6.31,5.17-12.03,11.24-17.32,17.86Z"/>
            <path class="cls-6" d="M-259.36,1229.24c2.48-2.62,5.02-5.17,7.58-7.73,2.61-2.49,5.23-4.96,7.89-7.41,2.67-2.42,5.41-4.77,8.14-7.15,2.75-2.33,5.57-4.59,8.37-6.89,11.3-9.02,23.16-17.36,35.42-25.09l9.28-5.67c3.12-1.84,6.29-3.61,9.43-5.41,3.19-1.73,6.35-3.51,9.56-5.19l9.7-4.94c6.49-3.24,13.1-6.22,19.73-9.18,3.33-1.44,6.67-2.86,10.03-4.22l10.03-4.02c26.19-10.25,51.77-21.35,75.66-35.55,11.95-7.07,23.45-14.93,34.39-23.69,5.48-4.36,10.79-8.99,15.98-13.81,5.18-4.84,10.2-9.91,15.19-15.14-3.14,6.51-6.84,12.76-10.93,18.78-4.08,6.03-8.59,11.78-13.41,17.3-9.66,11.01-20.67,20.9-32.46,29.68-2.95,2.19-5.95,4.32-8.98,6.39-3.05,2.05-6.14,4.03-9.26,5.96-6.22,3.9-12.64,7.43-19.11,10.85-6.49,3.38-13.09,6.49-19.71,9.5-6.67,2.92-13.37,5.72-20.11,8.35l-9.89,3.83c-3.28,1.26-6.5,2.66-9.77,3.93-3.26,1.3-6.49,2.68-9.74,4.01-3.23,1.37-6.44,2.8-9.69,4.14l-9.64,4.26c-3.18,1.48-6.4,2.9-9.6,4.36-3.18,1.49-6.35,3.03-9.55,4.5l-9.51,4.6c-12.66,6.2-25.18,12.75-37.65,19.56l-9.34,5.15-9.32,5.25c-3.08,1.8-6.2,3.56-9.32,5.33-3.1,1.8-6.2,3.61-9.38,5.34Z"/>
          </g>
          <g>
            <path class="cls-2" d="M-249.14,813.25c29.16-81.5,113.63-125.8,188.68-98.94,75.05,26.85,112.25,114.68,83.1,196.18-46.59,130.23-205.11,144.85-205.11,144.85,0,0-113.27-111.85-66.67-242.08Z"/>
            <g class="cls-4">
              <g>
                <path class="cls-6" d="M1.15,732.93c-12.51,23.89-25.7,47.37-39.13,70.7-13.43,23.33-27.1,46.52-41.03,69.55-13.93,23.03-28.07,45.93-42.54,68.64-14.43,22.73-29.11,45.31-44.46,67.48,12.51-23.89,25.69-47.37,39.12-70.71,13.39-23.36,27.11-46.51,41.04-69.55,13.93-23.03,28.12-45.9,42.55-68.63,14.43-22.73,29.11-45.31,44.45-67.48Z"/>
                <path class="cls-6" d="M54.97,767.59c-17.19,21.26-34.97,41.99-52.95,62.53-17.98,20.54-36.17,40.89-54.59,61.03-18.42,20.14-37.01,40.12-55.9,59.84-18.85,19.75-37.91,39.3-57.55,58.32,17.19-21.27,34.96-42,52.94-62.53,17.95-20.57,36.19-40.87,54.6-61.02,18.41-20.15,37.06-40.08,55.9-59.83,18.85-19.75,37.9-39.3,57.54-58.33Z"/>
                <path class="cls-6" d="M102.08,809.59c-21.35,17.97-43.18,35.31-65.17,52.42-21.99,17.11-44.15,34-66.49,50.64-22.34,16.64-44.83,33.09-67.55,49.22-22.69,16.17-45.55,32.12-68.89,47.42,21.35-17.98,43.17-35.32,65.16-52.43,21.96-17.15,44.16-33.99,66.5-50.63,22.34-16.65,44.86-33.04,67.56-49.21,22.69-16.17,45.55-32.12,68.88-47.43Z"/>
                <path class="cls-6" d="M141.04,857.66c-24.86,14.12-50.06,27.53-75.39,40.7-25.33,13.16-50.78,26.08-76.37,38.71-25.59,12.63-51.28,25.05-77.15,37.12-25.85,12.11-51.82,23.97-78.15,35.11,24.85-14.13,50.05-27.55,75.38-40.71,25.31-13.2,50.79-26.06,76.38-38.7,25.59-12.64,51.31-25,77.16-37.11,25.85-12.11,51.82-23.97,78.14-35.12Z"/>
              </g>
            </g>
          </g>
        </g>
      </g>
    </g>
  </g>
</svg>