<?xml version="1.0" encoding="UTF-8"?>
<svg xmlns="http://www.w3.org/2000/svg" xmlns:xlink="http://www.w3.org/1999/xlink" viewBox="0 0 1080 1080">
  <defs>
    <style>
      .cls-1 {
        fill: none;
      }

      .cls-2 {
        clip-path: url(#clippath-1);
      }

      .cls-3 {
        clip-path: url(#clippath-3);
      }

      .cls-4 {
        clip-path: url(#clippath-2);
      }

      .cls-5 {
        fill: #fff;
      }

      .cls-6 {
        fill: #1e1d1d;
      }

      .cls-7 {
        clip-path: url(#clippath);
      }

      .cls-8 {
        fill: url(#New_Pattern_Swatch_7);
      }

      .cls-9 {
        fill: #db8836;
      }
    </style>
    <clipPath id="clippath">
      <rect class="cls-1" width="1080" height="1080"/>
    </clipPath>
    <pattern id="New_Pattern_Swatch_7" data-name="New Pattern Swatch 7" x="0" y="0" width="1080" height="1080" patternTransform="translate(-5603.33 -4091.17) rotate(.11) scale(.5)" patternUnits="userSpaceOnUse" viewBox="0 0 1080 1080">
      <g class="cls-7">
        <rect class="cls-1" width="1080" height="1080"/>
        <rect class="cls-5" width="1080" height="1080"/>
        <path class="cls-6" d="M231.04,1595.8c-43.78-150.47-71.87-307.22-82.46-464.67-.26-7.26-.73-14.76-1.39-22.5-3.4-10.81-3.22-18.09-1.2-23.58,4.42.67,5.69-1.83-.21-11.49-8.29-12.06,5.67-1.89-.73-12.08.01-3.78,9.68,2.08,5.09-6.33-4.65-8.46-5.65-13.3-5.76-17.25-13.97-17.81-6.91-14.59-3.97-15.52,12.48,8.62,7.97.24,3.56-8.05,3.43-4.33,10.22-5.35-.14-23.56-10.26-14.18-6.87-14.73,1.66-10.15,8.84,4.9,5.73-2.18-1.53-13.4-1.56-4.86,3.41-3.21-5.56-15.49,2.89-.43-7.85-14.5,5.09-4.9,10.84,4.17-1.34-14.7,1.29-18.81-5.01-11.73-4.92-18.4.69-19.57-2.87-6.26,7.16.37,7.66-2.53,8.89,5.48,3.6-3.22-6.78-17.02-2.91-9.75.95-12.76,1.07-19.53,3.83.38-.35-7.25-6-16.37-.47-3.93,4.44-2.49,7.27-3.14-1.57-5.6,6.16-1.95-3.07-15.3,12.52,8.4,16.53,8.25,7.34-5.15,16.93,12.72,3.24-5.21,6.15-6.57,6.88,2.6-18.34-26.94-1.23-14.17,5.57,3.4,9.35,5,6.99.45-8.55-10.74.54-3.85-7.64-14.23,10.18,7.98-1.47-5.88-4.25-10.88,7.7,5.48-7.44-11.88,10.36,3.7-1.24-5.7-20.12-29.05-2.63-16.06-13.89-18.38-3.1-12.11,8.52-5.03,9.1,4.56-.88-9.96,8.53-5.1,2.42.14,16.2,11.64,7.36.51,4.74,2.46,2.85-1.72-9.69-16.54-.68-5.26.53-8.63-.76-14.51-4.39-8.98-2.61-11.79,7.17-6.6.23-4.35,2.36-6.81-1.58-15.34-1.86-6.44,9.16,0,8.07-5.65-4.13-13.26-.03-18.27,6.47-20.79-6.93-11.44-1.91-10.93-1.53-15.02,5.12.64.29-8.64,7.87-5.5,10.93,2.07,8.98-8.64,6.09-20.16,10.58,7.86,16.46,10.67,13.91,4.72,3.4,1.71-.1-3.57,2.83-2.48-.83-2.68-3.35-7.11-10.86-16.6,2.72-5.24,11.67-4.1,5.57-17.83-.08-7.7-1.02-16.11,4.27-18.09-8.06-15.33,3.79-10.57,2.97-18.28-7.04-10.49-8.75-15.59-7.28-17.47-.27-3.61,2.59-4.06,8.95-.94-13.36-19.85-4.18-16.95.39-18.46,1.06-5.01,5.18-6.73-.9-18.44,6.23,3.41,4.55-1.01-8.36-16.62,5.51,2.82,9.73,4.4,6.17-1.74-22-27.15,13.41,3.34-3.46-18.2,12.35,10.02-11.01-15.61,5.65-1.16-18.46-20.66,3.9-.45-10.39-16.81-13.42-17.57-13.21-21.26-6.01-17.68,5.37,1.96-21.66-28.87-6.05-17.43-4.06-8.22-4.42-13.1-5.66-19.19,5.65.8-14.95-24.96-5.27-20.75-23.62-29.08-2.92-14.13-4.91-22.11,19.78,13.78-19.7-31.94-4.56-23.26,11.12,7.89,1.58-4.94-8.11-17.96,23.78,20.45-2.06-8.78,3.89-6.25-4.27-7.7,5.87-1.03-1.99-12.4,16.32,12.8-13.73-20.79-1.91-12.56,12.68,9.09,6.83-.38-1.84-12.7-12.09-15.75-24.43-31.77-1.76-12.81,9.27,7.42-23.33-27.04-11.71-17.3-9.07-10.94-.41-4.15,10.02,4.4,29.91,26.15,37.06,29.52-1.62-12.96,41.7,37.9-5.53-13.14-1.55-13,16.49,14.58-4-7.83-6.92-12.67,4.86,2.94,2.3-1.54,5.43-.34-12.52-13.48-17.72-19.64-13.27-16.16,9.13,8.17-5.13-7.05-3.73-6.62-1.39-3.32-2.2-6.05,15.57,9.79-18.73-20.66-12.2-16.06-6.09-11.89,1.28-.65,14.16,10.3,4.73-1.07-5.23-9.1-12.95-20.67-1.3-12.89-15.36-19.22,37.97,30.26-1.25-12.8,9.88,7.96,12.07,8.23,5.75,0-4.84-6.76-.83-4.66-6.94-12.68,13.91,12,19.24,15.43,13.96,8.24-7.5-8.45-3.47-5.37-6.46-9.3,4.68,3.73,1.28-.61-8.64-11.48,11.82,8.04,8.45.9,6.97-4.31-5.4-9.14-13.47-20.93-9.09-20.24-35.86-43.24-1.55-16.19-1.93-23.68-.67-7.78-4.72-18.8-1.75-22.61-19.32-26.1-.36-13.73-1.59-21.34,5.95-.42.45-12.07-1.45-19.86,21.29,15.4-.92-12.45-1.32-18.18-8.08-13.42-1.49-11.87-1.21-16.3-8.41-13.13,6.27-2.83-1.11-14.22,1.11-2.9-.7-8.36-1.03-11.93-8.19-114.12.5-226.94,40.66-334.79,20.79-67.78,44.83-143.89,63.15-212.17,0,0-56.3-20.76-56.3-20.76-26.51,56.8-48.43,115.41-68.2,174.85-22.78,73.87-48.43,149.02-47.39,227.37,1.73,37.7,5.11,75.18,9.68,112.51.91,7.47,1.87,14.93,2.87,22.38,1.89,8.34,2.26,15.11,2.78,21.99-2.61,3.74,2.79,15.46,3.72,22.67-6.05.22,3.55,16.06,3.36,22.07,4.87,11.07-.74,11.62,3.99,22.48,13.34,19.48,7.64,19.87,4.4,22.71,13.73,19.8,11.35,23.48,3.6,21.75,10,13.01-10.17-4.15.44,9.47-7.45-4.45,12.68,18.68,4.99,13.98-4.37,1.62,13.77,25.72,3.05,20.96,31.37,37.32-1.1,10.8,4.36,22.19,14.12,20.05,6.11,17.97,4.41,22.18,22.06,27.98.6,12.43,4.43,22.18-11.36-5.44,4.25,16.07,4.43,22.18,11.87,16.6-6.52,2.96,3.53,17.75-8.42-3.68-4.82,4.67,3.51,17.75,13.79,18.55,5.24,14.75,3.47,17.76,3.7,6.09,5.22,10,10.16,17.33.06,2.45-4.86-.08-6.74.44,11.38,16.18-15.01-5.41,3.36,17.77.55,5.37,10.69,20.34,3.28,17.79,22.21,27.06-6.88,2.83,3.2,17.8-2.65,2.24-4.3,5.49,3.1,17.81-5.8-.87-2.95,6.92,2.99,17.83,1.46,6.43,12.36,22.32,2.87,17.84-6.9-1.05,12.68,24.57,2.72,20.86.23,3.35-4.38,1.91-6.54,2.96-2.16,1.05-1.87,4.6,8.17,17.95-2.54,4.07,7.75,21.16.53,20.93,5.44,12.42,2.33,16.47-.56,20.9-.82,6.5,1.23,16.05-1.65,20.82,2.18,6.01,3.12,10.82-1.35,10.26,1.58,5.49-10.06-2.21-1.39,10.45,1.68,5.67-14.28-6.27-7.73,4.34,9.21,13.27.78,8.95,3.91,16.21-17.87-13.74-7.57.74-7.38,5.14,4.34,8.55-7.58.88,2.47,15.2,3.08,7.36-1.11,7.49-7.98,4.96.41,4.76-9.94-1.21,1.98,15.13,20.79,25.2-1.5,7.37-6.52,6.83-6.04-1.56,3.33,12.32-.57,12.97-4.69,3.35-.78,15.29-6.68,17.41,3.1,7.11,8.85,16.86,1.27,13.29,10.77,14.77,5.04,13.05-7.81,4.19,4.82,8.82-4.59,3.4,2.55,14.53.91,4.9,1.15,9.12-8.91,3.03,2.23,6.21,9.61,17.56,2.12,14.03,1.22,5.19-1.02,6.9-8.27,3.6-7.55.35-5.72,10.05-5.9,17.7-1.58,6.25-7.45,8.18-5.62,17.77-9.63-1.87,8.04,23.51-5.31,17.84-5.71,1.96-13.87,1.43-4.96,17.91,8.34,17-7.2,10.04-5.2,20.55,2.12,6.37-8.86-.37-7.43,5.28,7.05,11.27-4.72,3.69,2.77,15.35-10.57-6.4-16.82-8.5-5.45,7.01,11.46,15.59-2.77,5.46,1.38,13.7,8.75,12.83-.11,8.03,3.29,15.47-5.29-1.25-4.31,3.74-6.71,5.32,20.41,22.41,12.7,16.68-2.08,3.88,7.68,9.66-15.91-11.96-6.7-.78-6.93-4.96-4.96-1.04-1.89,3.99.85,2.81,9.26,13.15,7.93,13.77-1.17,6.59-6.52,8.87-1.98,20.94,10.19,13.95,2.82,10.31,1.77,12.96,2,5.7-14.31-6.94-2.96,8.05,7.16,14.43-5.78,8.64-.34,21.08,16.21,19.71.1,7.07,2.69,13.1-8.31-4.88-3.35,3.48-2.14,8.05-2.18,1.18.23,6.92,2.89,12.87,1.7,4.98,15.17,21.7-1.4,8.35,12.47,15.68,11.64,18.02.84,10.35.04,3.17-1.03,5.2,1.65,10.92,6.21,9.72,8.98,15.99,1.66,12.14-3.12.36-13.94-6.98,1.33,11.74-10-6.54,5.31,12.21,8.92,19.25,4.26,7.69-13.94-7.09-5.67,4.59,11.05,14.46-.48,6.32-3.26,6.92.05,1.74-6.2-2.81-3.56,1.51.32,2.01,5.54,8.91,10.32,15.37,2.63,5.99,1.66,8.38,5.97,16.03,6.33,9.67,5.83,12.51-2.26,7.74-2.51.81-2.34,4.3,5.25,15.2-7.96-4.65-2.64,3.97-1.35,8.54,10.4,13.69-.35,6.22-1.87,7.98-7.2-3.93-1.54,4.99,5.94,15.74-3.78,2.74,4.21,17.22,4.22,23.69-10.1-3.63,22.14,35.05,4.34,23.67-11.76-5.34-16.52-3.7,4.44,23.65-3.54,2.85,3.97,16.72,4.52,23.64,6.85,13.22,3.49,16.2,4.58,23.63,1.53,7.88,3.07,15.75,4.61,23.62,24.62,125.99,49.63,251.88,59.38,380.12-4.98,56.56,23.22,29.88,60.78,25.28-7.15-17.24-13.12-35.02-18.92-52.77Z"/>
        <path class="cls-6" d="M-81.08-556.82C-35.22-399.18-6.58-234.66,2.77-69.65c1.89,9.3,3.89,18.76,1.2,23.58-1.77,5.73.5,15.55-.53,22.11,6.02,9.82-.34,7.26,2.2,13.61-1.26,2.56.79,8.44-.05,11.43,8.55,16.23.95,16.35.7,23.86,3.91,11.67-14.72.85-.15,23.27-4.92-.99-8.42-.56.85,12.65,3.82,7.77,4.83,12.74.54,12.41,11.02,18.95-10.2,5.71-1.92,22.01,11.5,19.52.91,16.98-1.05,23.12-19.31-11.21.64,16.88-.56,23.86-5.46,2.72.21,16.61-1.22,23.45-18.16-9.89-5.43,11.13-1.49,23.41-7.83.23,14.14,30.45-4.27,20.45,20.05,28.46-28.32-11.34-4.92,20.75-7.17,1.53,6.99,24.5-5.46,20.96,13.81,22.72,4.58,22.49-5.89,21.09-8.93.14-6.32,11.87-6.2,21.14,10.4,19.55,5.21,23.54-6.41,21.1-13.54-4.36,3.88,22.23-6.49,20.99-.26,8.88-16.21,2.02-6.47,20.79,4.1,13.13-8.16,9.83-6.33,20.52-.92,7.94-9.5,8.12-6.09,20.16-10.3-4.87-9.29,3.03-5.88,14.36-2.69,5.27.83,16.6-5.57,17.83,11.94,19.57-5.37,9.71-4.27,18.09,2.88,10.15.86,15.22-2.97,18.28,6.11,13,4.43,18.02-1.68,18.4-1.9,4.59,25.33,38.11-.39,18.46-7.4-1.34,2.58,14.5.9,18.44-10.15-4.53,9.48,20.5,2.18,18.36,4.75,9.91-21.45-11.37,3.46,18.2,2.98,7.64,18.04,27.12,4.74,17.98,2.31,6.46,5.5,13.55,6.01,17.68-9.27-5.87,5.02,12.23,6.05,17.43-17.85-13.68,32.99,41.68,5.66,19.19,16.32,21.17,18.14,28.16,5.27,20.75-15.63-10.17,3.61,14.82,4.91,22.11,4.9,10.89-7.31,4.93,4.56,23.26-.95,5.52,3.06,16.2,4.22,24.22-5.16-1.74-3.56,3.34,1.99,12.4,2.21,5.73-19.84-12.77,1.91,12.56-3.81-.22,9.18,16.38,1.84,12.7-10.86-7.2,2.91,10.25,1.76,12.81-15.89-12.18-6.03,1.42,1.69,12.9.67,4.43,1.61,9.15,1.62,12.96-12.17-8.37,13.01,20.62,1.55,13,16.48,20.31,16.07,23.74,1.49,13.01.09,3.94,18.56,26.27,1.43,12.99-16.43-12.57-.77,6.95,1.36,12.95-8.84-4.97,2,9.73,1.3,12.89,11.14,15,6.84,14.55,1.25,12.8-20.59-16.75,2.58,10.26,1.19,12.68,9.03,12.84.36,7.98,1.14,12.54,13.97,21.54,18.7,33.75,2.12,24.55-16.34-8.96-5.22,9.42,1.93,23.68-3.48,3.63,3.06,17.14,1.75,22.61.77,7.55-1.88,11.49,1.59,21.34,2.88,4.47,3.95,7.12,11.3,16.04,3.41,4.98,3.11,6.22-3.45,1.2.97,4.04-1.83,4.25-6.41,2.62-1.91,3.98,5.58,17.11,1.32,18.18-7.16-1.82,4.21,14.59,1.21,16.3,7.27,9.62,18.5,23.13,8.97,15.79-4.22-2.04-11.25-6.97-7.86-1.57-4.86-.84-16.02-8.36,1.03,11.93,9.14,15.76-6.69,6.61,1.34,21.38,5.59,12.33-21.8-8.24.92,21.35,1.83,8.7,16.16,29.97.48,21.3-16.66-9.65-7.32,6.77.02,21.26-5.9,1.25-1.22,13.15-.46,21.21-4.14,3.16-11.48,3.19-.96,21.15-2.69,4.76,1.34,16.31-1.49,21.09,1.82,9.43-15.91-.62-2.03,21.02-.77,6.99-1.64,13.98-2.6,20.94-6.75,48.78-18.29,96.92-35.86,144.1-20.79,67.78-44.83,143.89-63.15,212.17,0,0,56.3,20.76,56.3,20.76,26.51-56.8,48.43-115.41,68.2-174.85,20.89-67.71,44.18-136.51,47.11-207.85.27-6.49,4.95-8.41.28-19.52-.13-7.32-4.35-18.67-1.23-22.59,3.11-3.94,10.13-3.89-1.61-22.55-2.56-9.47-5.94-19.7-1.96-22.5-8.12-14.9-3.73-17.23-2.29-22.46-11.23-17.9-4.26-17.53-2.59-22.42-2.94-9.49,14.56,1.51-2.87-22.38-1.62-4.85,3-3.44-7.06-16.7-5.47-8.67-6.09-12.48,3.92-5.65-2.53-5.71-19.42-25.77-11.23-20.74-1.99-5.15,3.38-2.93,7.87-1.57.93-2.2,3.67-2.59,2.8-6.58,8.71,5.59-11.68-17.91-6.38-15.7-18.75-21.85-4.16-10.35-1.01-10.28-1.73-4.81.68-5.48-2.76-11.98,8.42,5.36,3.21-2.91,6.05-3.12,5.68,4.15,8.36,5.31.42-4.15-.38-1.91-4.15-7.19-10.4-14.97,4.39,1.35-17.86-23.93-7.53-16.63-3.35-6.38,14.4,8.36,3.46-5.6,6.87.84-19.74-31.77-4.19-22.21,6.82,3.83-2.74-8.72-2.26-11.22-5.65-8.64-6.59-12.55-2.03-10.97-1.51-7.46,2.5-9.4-4.36-22.19-23.53-29.47,12.38.52-4.41-22.18-4.25-10.17-11.6-23.43-4.43-22.18,14.39,8.48-14.04-25.87-4.43-22.18-11.47-17.39-9.26-21.11-4.41-22.19-.96-6.89,8.63-3.24-4.37-22.19,6.89.93,4.81-7.12-4.3-22.2-10.93-16.92,6.33-5.66-4.21-22.22-7.23-13.25,24.27,12.2-4.09-22.23-3.52-9.59-16.47-28.64-3.95-22.25-10.59-16.72-6.56-18.85-3.79-22.28,6.37.17-2.28-14.71-3.61-22.3,3.28-2.57-4.68-16.57-2.72-20.86-.49-6.73,5.74-6.93-1.63-20.91-2.51-9.13-9.64-23.05-.53-20.93-1.28-8.26,21.95,7.82.56-20.9,18.8,11.48-3.81-18.63,1.65-20.82,28.69,21.04,13.79-1.68,2.74-20.71,17,9.03,7.47-8.63,3.83-20.55-16-24.27,11.84-4.86,4.91-20.34-10.76-19.32,10.31-6.95,6-20.09,4.96-3.87,3.64-14.16,7.09-19.8,7.85-1.33,5.44-12.92,7.63-19.9.49-8.68,2.43-15.88,7.43-20,2.22-6.9,7.48-10.74,7.18-20.1,10.4,1.34,3.35-14.74,6.89-20.19,6.91-2.08-1.72-19.65,6.54-20.28-7.83-16.72-10.72-28.46,6.14-20.37,7.38-1.4-4.42-21.93,5.7-20.46-1.21-9.86,14.68-2.56,5.2-20.55,2.28-6.22-2.5-19.44,4.66-20.63,5.12-3.23,8.1-8.51,4.06-20.71-6.15-14.32-9.37-25.61,3.42-20.79,9.92,1.95,5.29-10.54,2.72-20.87,5.53-2.22,9.81-5.59,1.98-20.94,6.95,3.19,6.35-1.15,4.46-6.73-1.89-5.59-3.36-10.73-3.27-14.28-1.93-5.57,4.62-2.62,5.89-4.92-4.33-7.91,4.77-2.34-5.55-16.16,4.42-2.59.84-13.04-.55-21.15-6.91-10.27,7.25.57,7.27-2.71-18.72-22.01-11.68-18.22-6.65-16.4,9.69,8.08,13.29,10.09,9.27,4.48-6.06-7.65-5.53-8.7-14.71-19.44,24.19,21.06-15.46-21.69.85-8.43-9.02-12.53-.61-7.61-5.08-15.56-10.62-12.36-10.65-14.13-9.96-15.17s5.04,1.57,12.09,6.9c-8.95-12.41-1.52-8.42,1.52-8.81-3.31-6.74,1.05-5.8-4.82-15.08.73-6.08-3.37-16.96-2.41-22.72,4.28.91,1.14-5.58-2.26-12.32-1.49-4.84.72-5.96-2.54-12.54.81-2.52,5.8-.84-.59-10.54-1.6-4.91-4.16-10.77-4.01-13.9-.57-7.15-.36-13.48-3.37-23.01-1.38-7.9-2.79-15.8-4.22-23.69C12.66-251.73-26.42-416-39.22-584.31c4.98-56.56-23.22-29.88-60.78-25.28,7.15,17.24,13.12,35.02,18.92,52.77Z"/>
        <path class="cls-6" d="M998.92-556.82c63.34,217.69,93.83,448.52,86.02,675.61-.27,7.83-.58,15.66-.94,23.48-1.13,7.06-1.28,15.12-1.42,23.24,2.84,11.1-3.28,13.29-1.29,23.62,7.24,15.3-10.25,6.06-2.95,21.77-7.32,1.09-10.34,6.64-6.24,19.43-10.33-1.63-4.64,12.87-6.1,20.32-7.96.95-9.32,8.59-5.25,21.72-1.94,7.13-10.39,7.8-4.79,22.55,21.44,30.59,6.02,24.36-7.82,19.69,7.24,16.42,7.51,25.86-6.49,20.99-7.06,2.07-17.51.72-6.47,20.79,2.01,11.04-10.37,7.62-6.33,20.52,16.74,25.6,9.81,27.43-6.09,20.16,15.03,20.46-18.48-6.16-5.88,14.36-1.03,6.93-14.02,1.75-5.57,17.83,2.93,10.56-2.89,12.19-4.27,18.09-12.39-5.12-3.57,10.79-2.97,18.28-9.77-2.88-5.51,8.08-1.68,18.4-18.05-14.81-7.52-1.08-6.2,3.38,12.49,15.63,15.61,21.84,5.81,15.08-5.37.7-2.41,9.51.9,18.44-5.41.21-2.18,8.83,2.18,18.36-9.91-4.75-4.15,5.92,3.46,18.2,19.42,24.08,8.72,17.8,4.74,17.98,6.03,10.18-8.89-.84,6.01,17.68.77,4.18,2.36,9.57,6.05,17.43-.16,4-11.53-2.85,5.66,19.19-9.1-6.67-4.98-.05-4.2,3.31,5.25,7.83,13.66,18.9,9.47,17.44-5.25-2.52,12.31,17.85,8.01,16.41,2.24,5.11,6.99,12.8-3.1,5.7-11.65-5.65,6.73,18.97,4.56,23.26,12.37,15.6,5.01,11.53,5.23,15.08,4.65,6.32,11.91,15.25,8.43,13.46-1.07.62-3.19.21-9.43-4.32-5.99-2.56-.95,5.95,1.99,12.4,19.04,20.79,10.61,14.13,11.13,16.43-14.98-13.21-6.19-2.63-9.22-3.86-3.86-2.06-1.56,2.04,4.51,9.91,13.55,15.36-11.93-8.3-2.67,2.79,4.04,7.69,3.93,11.27,1.76,12.81.38,4.1-3.87,3.58,1.69,12.9,3.44,7.2,1.33,8.87,1.62,12.96,5.24,9.03,7.3,14.92,1.55,13,0,3.82-9.83-2.16,1.49,13.01,7.85,9.78,12.88,16.73,8.98,14.76,2.24,4.17,3.02,6.88-7.56-1.77,9.92,13.78,4.59,12.32,1.36,12.95,9.7,13.56-4.81,2.92,1.3,12.89-4.43-.57-16.65-8.94,1.25,12.8-2.27,1.57,10.84,18.51,1.19,12.68-9.25-7.34,1.18,4.99-6.26-.55,2.35,3.3-1.21.69-2.95-.1,4.4,5.35,11.81,13.7,10.35,13.19,1.01,4.79,14.88,22.43-2.45,8.83,8.77,12.51-3.06,4.4,4.57,15.72-5.95,1.43,6.28,20.92,1.93,23.68,5.38,12.5,1.8,15.88,1.75,22.61-1.32,5.46,6.53,19.91,1.59,21.34-4.05,2.32,4.79,17.31,1.45,19.86,4.11,10,.51,12.03,1.32,18.18,13.99,19.32,8.62,19,1.21,16.3-6.58-1.87-5.06,4.03,1.11,14.22,1.54,5.55-7.47.19,1.03,11.93,1.11,7.73,4.62,17.92,1.34,21.38,1.12,7.86,9.98,23.53.92,21.35,10.78,17.66-3.26,10.56.48,21.3,2.08,9.09-.51,13.57.02,21.26,8.09,15.24,4.18,18.56-.46,21.21-1.65,5.65,6.41,21.07-.96,21.15,12.24,19.69,2.51,17.48-1.49,21.09,7.75,15.35-4.22,11.07-2.03,21.02-4.32,3.44.17,15.78-2.6,20.94-.96,6.97-2.03,13.92-3.19,20.87-6.98,41.65-17.61,82.79-32.68,123.24-20.79,67.78-44.83,143.89-63.15,212.17,0,0,56.3,20.76,56.3,20.76,26.51-56.8,48.43-115.41,68.2-174.85,18.99-61.55,39.96-124.01,45.82-188.45.59-6.44,1.02-12.91,1.29-19.4,1.92-4.83.76-12.59.28-19.52-1.98-8.77-4.86-18.38-1.15-21.34,6.38-.28-5.91-19.18-1.49-21.3-11.69-18.23.96-12.07-1.8-21.25-7.48-13.9,1.27-11.53-2.1-21.22-5.84-12.16,5.13-7.46-2.38-21.18.36-5.86-1.69-14.08-2.63-21.15,2.1-4.03,7.49-4.72-2.87-21.11.11-5.93-.42-12.46-3.09-21.09-6.64-12.6,5.81-6.07-3.29-21.06-11.82-17.71.46-11.28-3.47-21.04-2.13-7.96-8.24-19.86-3.63-21.02-4.06-9.83-15.82-27.33-3.76-21-4.44-10.16-1.44-12.86-3.88-20.98-8.3-13.98-1.32-12.66-3.98-20.97,4.6-1.05-2.09-13.37-4.06-20.96,6.28.66-4.78-16.01-4.12-20.95,2.06-3.54,7.72-3.47-4.16-20.95-4.51-10.1-7.27-18.45-4.19-20.95,7.28,1.36-2.34-14.17-4.43-22.18,1.61-4.31-5.45-17.29-4.41-22.19-5.17-8.14-6.27-12.21-9.21-18.11-3.79-6.76,2.63-3.32,4.84-4.08,4.76-1.2-6.16-18.08-4.3-22.2-8.6-14.58,10.46-1.52-4.21-22.22,7.59,1.57-.41-12.48-4.09-22.23,1.97-1.06,2.8-3.28-6.97-16.1,2.46-.59-9.02-15.13,3.02-6.16-8.39-14.52,19.68,7.39-3.79-22.28-10.36-13.46-7.33-13.54-7.28-16.6,1.79-1.33-3.21-9.45,3.68-5.7.91-2.01-14.34-20.24-7.81-16.73-2.93-5.95-3.43-9.52,5.08-4.13-5.5-11.74.82-11.85-1.63-20.91.23-3.07,7.75,1.09,5.47-4.59,12.03,8.63-11.62-18.47-6.01-16.34,3.35-3.63-1.86-15.99.56-20.9.13-5.36-3.06-14.14,1.13-15.63-4.26-9.94-1.06-12.51,1.75-15.57-9.64-15.51-2.56-14.37,2.36-15.49.37-5.66-9.22-21.38,2.97-15.39.55-5.65,2.69-9.8,3.58-15.28,5.97-.4-4.79-17.61,4.2-15.14,3.38-3.14,8.16-4.97,4.81-14.99,7.88,1.21-10.61-24.03,5.42-14.82,21.04,11.85,6.51-11.85,7.63-19.9-16.63-25.79,2.96-15.34,7.43-20,.72-8.4-1.19-19.4,7.18-20.1-5.13-14.19,5.05-13.04,6.89-20.19,7.02-1.97,5.9-12.03,6.54-20.28,16.72,7.83,8.84-8.89,6.14-20.37,4.07-4.72,1.17-16.33,5.7-20.46,5.19-3.47,2.57-14.67,5.2-20.55,5.56-2.95-1.09-18.03,4.66-20.63,9.37,1.03.84-15.77,4.06-20.71.33-7.84,2.39-13.85,3.42-20.79,7.19-48.6,8.7-97.83,1.71-147.54-26.64-223.12-90.44-440.35-107.5-664.77,4.98-56.56-23.22-29.88-60.78-25.28,7.15,17.24,13.12,35.02,18.92,52.77Z"/>
        <path class="cls-6" d="M337.55,279.52c-2.49-4.24-16.71-20.23-11.27-16.58,6.02,4.23,9.92,6.32,2.84-2.59-7.25-10.92-13.04-20.48-8.05-19.36.15-1.79,5.39,1.5,7.41,1.52,1.63.63-3.41-5.41-6.24-9.25.76-.25-1.99-4.01-8.76-11.81,4.83,2.78,5.3,1.18,5.29-.94-.93-3.03,2.4-1.84-12.35-18.76-8.16-10.32,2.1-2.26,3.65-2.95,11.4,10.29,12.66,10.42,3.53.16-7.05-8.19,1.92-.35-13.65-17.07,4.83,2.53,5.98,1.34,4.62-2.38-7.82-10.19,3.09-1.68-10.4-17.62,14.67,9.79-4.11-14.02-5.03-20.13,9.27,6.68-6.82-12.05,3.75-4.15-7.23-9.91-4.84-10.23-7.96-16.1,2.09-3.42,2.98-8.22-3.3-20.36,4.35-1.51-6.13-18.03-2.33-20.46-.39-5.06-3.01-12.46-2.15-16.49,6.76,1.87-.55-10.44.66-14.35-4.68-9.79,1.76-8.59-.68-16.38,3.84-1.51-7.98-18.8,1.8-14.61,10.2,4.6,3.7-7.62.83-16.33,6.36.52-.75-12.58,3.16-14.78-2.61-8.72,1.97-10.39,3.15-15.59,1.18-5.2,2.5-10.4,3.96-15.6,10.04-109.82,37.06-216.29,58.14-324.26,19.48-71.68,22.58-152.75,66.66-214.64-85.61-29.75-43.12-3.9-65.08,59.79-37.6,159.31-127.65,310.41-125.64,476.78,1.64,7.69,3.14,15.4,4.54,23.14,1.39,7.74,2.67,15.5,3.85,23.28-.38,6.22.85,14.17,3.25,23.4,6.09,9.51-4.9,1.95-3.01,7.31,10.87,14.33,11.28,18.23,5.74,16.2-10.62-7.11.26,7.3,1.9,12.49,7.6,11.15,15.05,22.17.4,11.1-4.9-3.11-.52,3.08,6.28,11.68-3.2-1.4,5.09,8.7,6.03,11.44.06,3.68-4.65,2.61-10.36.54,14.49,18.14-7.78-.47-4.31,6.67,5.84,9.51,1.61,8.97,5.99,17.04-.98.87-13.82-10.13-18.35-12.8-8.5-6.65-.69,3.01-.88,4.68,13.84,15.69,8.41,12.12,4.62,10.19-5.44-4.51.5,2.36,6.52,9.31-1.51-.58,23.38,25.24,9.58,12.37-4.45-2.59-11.93-8.21-6.45-.87-1.19.67-1.23,2.5,10.47,16.06-7.98-6.11,11.14,14.87,6.19,11.78,3.76,5.62-5.03-1.3-8.81-3.21,14.61,16.48-2.28,1.45,8.45,14.04,3.69,5.55,16.59,20.32,4.23,9.82-7.39-3.67-8.42-.97-11.3-.12,7.24,14.69-8.88,5.99,1.45,23.72.77,4.47,2.3,9.69,6.25,17.32-11.44-10.52-15.96-14.12-16.67-13.91s2.37,4.21,6.14,8.89c2.95,3.87,4.45,6.28,10.35,13.1-.86.06-1.68.15-4.47-1.73-4.62-2.79-8.92-5.26-9.51-4.04s2.5,6.14,12.67,18.13c4.72,5.02-6.85-6.25-10.84-9.93-3.29-2.98-6.19-5.59-8.57-7.66-14.25-12.44-13.83-10.21-5.85-.43,2.66,3.26,5.78,6.99,9.67,11.48,7.55,8.15,14.71,15.91,14.26,16.06.12,1.02,4.97,6.77,13.72,16.41,9.42,10.32,12.48,14.28,9.67,12.36-4.35-2.56-1.19,2.39-14.39-9.03-4.67-2.89,2.12,5.68,1.32,6.65.9,2.68,7.87,11.4-8.17-2.87-3.53-1.77,9.17,12.69,7.37,12.64-7.56-5.81,1.93,5.42-8.09-2.86-3.59-1.85-7.64-4.17-9.37-4.17-7.24-5.51,6.02,9.47,12.65,17.82,7.38,10.81.11,6.95,7.79,18.01-.42,2.96-10.44-3.71-4.75,5.3,10.63,13.95-3.64,2.98.41,10.28-4.69-1.43-8.92-2.43,3.2,12.89,4.32,5.12,7.83,9.42,10.57,12.96s2.85,4.44,6.02,8.4c-4.25-2.67-2.97.18-.33,4.39-3.54-.42-11.8-5.58-12-2.74-12.69-9.63.68,6.74-5.92,3.12,5.81,6.55,10.42,11.91,13.36,15.59-.48.26-1.5-.03,3.33,5.54-4.05-2.59-4.43-1.5-5.78-1.41-12.99-7.21-.84,10.56,5.82,22.64-10.65-9.3-7.53-4.83-3.48.55,1.43,2.77,16.99,19.64,2.08,6.04,2.48,3.79,2.67,5.27,12.76,16.65,6.3,7.58,3.28,5.84-4.64-.82-1.44-.18,1.68,4.19,12.84,16.58-1.52-.28,9.52,11.98,4.46,8.12,1.17,3.58-2.15,2.63-9.59-2.51,17.01,19.32-14.35-9.79,8.24,14.99,16.09,18.29,10.69,15.02.54,6.95,21.88,26.04,24.27,32.34,9.93,21.67,2.63,6.29,22.1,29.18,11.17,21.38-12.58-9.45,25.44,31.45,12.49,21.08,2.73,5.33,13.08,18.98,4.76,14.59,24.19,28.12,2.28,10.75,1.44,14.99,13.41,18.48-11.87-1.2-1.33,15.37-2.6,3.44-2.86,9.64-3.56,15.75-10.04-3.24-8.46,5.49-5.24,16.12-2.04,5.35,10.18,25.23-6.37,16.48,3.86,11.66-8.96,6.8-6.96,16.83-7.66.36-16.5-.39-6.99,17.17-15.15-5.95-.57,17.81-7.34,20.03-5.44,3.46,4.45,22.32-6.49,20.41-9.77-.74-19.63-1.51-6.84,20.41,1.97,6.54.36,9.5-7.62,6.11,10.8,15.39,4.19,13.37.54,14.32-11.57-2.37-7.46,10.96-7.2,20.45-.33,8.9,5.17,23.63-7.2,20.49,2.45,7.07,3.55,12.77,3.14,16.97-8.23-3.63-9.33-.13-10.23,3.57-4.52,4.66-10.01,8.34-6.86,20.6,11.15,20.26-4.08,14.11-6.51,20.68,3.53,8.03-7.14,1.85-6.04,7.42,7.55,12.02-1.89,7.03,0,13.35-.82,8.05-4.25,13.4-5.48,20.86-7.39,1.3-.47,16.81-4.78,20.97-6.23,2.25-3.98,12.87-3.98,21.1,13.97,18.08,10.7,18.9,4.58,16.83,8.16,12.21.63,8.7-6.66,5.38-4.77-.79-10.88-2.96-6.3,5.52-11.13-7.23,9.61,17.37,3.3,14.88,5.87,13.51-2.53,12.58.31,22.71-2.58,4.71-1.35,13.05-.76,20.54,6.16,7.63,11.55,14.5,10.2,14.64.91,2.4,1.28,4.27-3,1.49,3.28,6.3-7.06-.98-1.91,7.27-.95,5.25,10.34,22.9,3.91,22.96-5.49,1,2.26,15.38,3.43,23.29-8.21-5.05,2.54,8.89-.43,9.13-6.45-3.23-3.87,2.57,5.13,14.83-8.86-2.34-4.73,8.39.06,19.86,2.36,9.03-4.01,9.42,1.35,21.59.65,7.46,1.38,15.05,1.81,22.39,5.15,88.06,4.66,176.6,22.52,263.22,18.11,71.39,44.19,141.67,85.17,203.29-1.29,20.49,64.89-16.66,60.7-19.47-13-160.97-109.44-304.43-130.57-461.26-1.01-7.47-.93-14.05-2.49-22.5-6.04-12.93.36-13.63-1.93-23.27,7.11-.24,8.49-6.45.44-22.35-3.58-11.96,3.59-13.17,3.69-21.46-2.8-11.18,5.26-11.5,3.22-21.93-15.65-24.03,3.14-13.63,4.61-20.56,7.86-.54-2.79-19.58,4.34-20.86,1.5-2.71,3.78-4.63,6.25-6.36,8.12,3.92-11.12-19.54-1.55-14.17,5.93,1.72-4.22-12.65-2.68-15.32,9.4,5.18,8.61.18,8.51-4.14,3.49-4.95,5.45-11.44,5.71-19.63,7.09-.67,9.1-6.42,7.04-16.26-15.83-23.61.57-14.99,3.98-19.38,10.68,2.88,6.96-8.65,5.54-17.9-9.42-17.24-13.36-29.03,5.88-17.64-13.37-21.22,1.51-14.21,5.75-17.86-2.62-10.51,3.13-12.65,5.71-17.99-9.02-16.94-4.37-20.22,5.64-18.17-11.63-19.59,1.09-14.84,5.52-18.41,16.48,8.48-5.45-21.46,5.35-18.69-13.31-21.35-18.59-34.68,5.14-19.03,13.87,5.79-12.25-28.43,4.89-19.42,2.62-5.51.92-15.36,4.59-19.86.55-5.38-2.49-14.34,3.11-14.69,23.15,17.22,12.75.87,3.17-14.67-27.1-33.06-6.91-18.83,3.24-14.66-2.32-8.29,16.6,4.65,3.3-14.64,4.94-1.05,5.23-6.76,3.38-14.62-16.12-22.12-13.66-25.69,3.45-14.6,6.8-.03,7.91-5.62,3.52-16.6,8.63,2.04,7.82-5.24,2.66-16.74.58-5.76-5.44-17.99,1.8-16.84,9.55,3.47-11.63-23.66.93-16.91.49-5.32-3.49-14.97.07-16.95-.22-5.75-4.09-15.01-.8-16.95-13.79-18.87-1.64-12.07-1.71-17.71-12.02-17.59-6.3-17.68-2.64-19.97,1.97-1.01-8.69-14.68-7.04-16.09,8.78,5.73,1.05-5.09,3.59-5.65.43-1.12,3.83.71-13.75-18.43,17.96,16.39-5.31-8.45-1.17-5.88-1.66-4.81,5.72-.59,10.77,1.28-.34-3.52,23.65,17.29,2.57-6.97,11.23,9.64-14.58-17.77,4.46-.32-14.29-15.88,2.96-.22-11.76-16.53-1.13-4.31,14.28,7.93.42-9.1-11.42-14.58-35.78-42.08-5.61-15.04-21.69-24.81,7.78,1.55,1.27-8.02-15.28-18.35-2.98-9.1-6.81-15.93,23.61,20.61,7.65,1.68,2.81-6.09-14.46-17.39,28.75,22.95-8.57-17.19-16.53-19.35,20.21,14.62,2.55-5.76-22.55-25.26-8.67-14.03-8.42-16.36,7.52,4.94-5.02-10.11-10.13-17.66-2.48-3.7-11.59-14.01-6.5-10.1,1.25.06-1.78-4.12,10.77,7.29-11.56-16.11-13.6-22.38-5.73-18.34-15.91-19.73-.46-7.72-5.49-15.71-8.26-11.23,4.86-.62-11.15-18.62-9.72-11.71,3.74.27,1.38-2.97Z"/>
        <path class="cls-6" d="M521.84,483.63c-6.97-8.61-31.86-35.29-10.38-15.76,12.27,10.33-20.68-24.72-9.64-15.93-16.62-18.86-1.49-6.12-8.93-16.09-2.69-5.22,3.15-2.06-8.22-16.24,7.88,4.13-20.98-28.73-9.91-21.88,7.99,5.88-23.31-27.6-.67-7.2-24.15-26.39-10.93-15.45-8.84-15.71-2.18-6.87-25.7-35.32-6.83-21.58,20.49,17.92,2.72-2.47-5.42-13.29-25.27-27.94-8.33-13.73-1.34-9.52,17.17,11.61-10.94-22.26-5.25-22.54-13.76-19.23-5.76-16.86-4.15-21.04-9.4-15.19-8.19-19.93-3.34-21.18-2.96-9.06-15.87-28.22-2.57-21.32,2.58-3.82-13.93-26.86-1.83-21.44-17.77-24.44-3.46-16.94-1.13-21.54,3.55-3.38-2.77-16.77-.45-21.64-7.11-14.29,12.26-2.23.19-21.72-10.57-17.99,10.67-4.28.79-21.8,6.7-.94-10.66-26.04,1.37-21.86,27.87,20.03,19.02,3.24,1.91-21.91-4.99-13.02-10.83-26.98,2.42-21.94-1.98-10.18,28.61,12.11,2.89-21.97,7.88-.48-.94-17.74,3.33-21.98,14.28,5.77-2.78-19.87,3.74-21.99-.78-9.42,3.49-13.85,4.11-21.98-2.24-11,2.92-14.64,4.46-21.95,12.31-58.5,27.91-116.65,43.98-173.44,17.57-93.3,25.4-188.53,47.47-280.98,7.68-30.97,16.91-61.71,31.05-90.5,0,0-58.77-12.08-58.77-12.08-3.35,177.81-96.57,339.54-125.45,513.56-4.74,17.34-8.61,34.71-11.67,52.11-1.02,5.8-1.95,11.6-2.79,17.41,1.31,7.95,5.67,18.87-2.26,17.42-7.12-.65-6.1,6.76-1.75,17.42-.79,6.78-13.86,1.16-1.44,20.91,10.72,18.06-4.73,9.82-2.56,19.09,12.38,19.48,10.92,25.01,1.75,22.72-6.08.8,3.23,16.88.53,20.84-13.36-6.7-6.52,6.69,1.24,20.9-36.01-29.57-21.8-9.01,1.8,20.83,6,12.24,26.23,38.61,2.38,20.79-4.15,2.44,15.78,28.84,3.23,22.64,2.6,5.78-3.88,2.45-3.63,5.82,4.57,7.69,24.08,30.29,7.24,16.52-3.7,2.43,5.25,17.4,4.69,22.75,20.27,23.23,18.75,24.63,7.42,16.2-9.94-7.03-16.14-10.36-1.6,7.03,5.97,11.67,8.16,19.45,4.76,21.55,10.45,15.95,12.11,23,5.35,21.54-20.05-14.75,13.46,23.96,7.24,22.85-26.04-20.93-.59,9.54,7.81,22.87-16.01-11.08,21.2,30.97,6.55,21.07-18.41-16.03,10.21,14.95,3.66,10.73,12.27,14.6-32.46-27.81,5.61,12.55-27.84-23.25,1.25,10.34,6.61,20.14,6.69,8.9,14.89,19.3,6.03,12.62,31.69,33.87,45.09,49.42,4.78,11.25-29.84-25.56,20.72,29.2,6.35,18.96,23.27,27.4,19.36,27.56,8.99,21.18,13.2,16.2-18.62-12.66,6.89,15.77,9.32,12.25,26.52,32.33,7,15.67-14.01-11.16,28.19,33.86,7.11,15.56,12.21,15,14.64,20.18,7.2,15.45,14.12,16.77,9.72,16.33,8.21,19.82,16.52,21.52-8.53,2.53,2.62,20.56,4.38,11.25-36.99-22.42-1.74,21.09-20.12-11.85-9.41,7.7-4.87,21.42,18.8,27.98-6.17,12.53-6.77,21.55,15.41,25.03,23.5,42.83-7.44,21.47-17.72-8.15-2.28,16.72-6.87,21.18,15.32,24.37-4.59,13.13-5.07,20.69-2.84,3.36,9.78,22.12-4.83,13.62-13.54-7.44,3.74,15.92-4.72,13.48-14.54-8.51-5.53,6.48-4.62,13.34-4.25,1.7,26.54,38.39-4.51,13.21-3.92,1.95,16.99,28.68-4.4,13.07,2.1,4.99-.21,5.57,4.48,13.12-12.57-9.69,3.23,8.96-8.76-.18-5.14.56-22.84-11.47-4.17,12.82,10.33,15.96-1.9,9.31-4.06,12.7,14.54,17.32-22.15-16.61-10.78-2.49-8.93-6.17,26.76,32.26,6.84,15.08-10.1-4.63-18.58-7.68-3.83,12.47,14.28,19.68-21.77-11.02-3.71,12.36.18,5.5,9.01,19.62-3.6,12.25,15.76,21.01,2.52,12.98-3.48,12.15-6.68-1.51-10.43-.11-3.36,12.05-24.58-19.48,1.57,11.73-8.25,6.95,9.15,14.18,4.39,14.41,1.89,16.87,3.97,8.93,5.18,15.07-8.01,6.76-11.28-6.39,8.61,18.35,2.13,16.7,2.37,7.19-7.53,2.08,1.53,15.89-24.97-20.22-16.08-6.61-6.91,7.24-3.73.96-10.6-1.27-8.67,5.29-13.43-8.81-4.21,5,1.89,15.65,13.09,17.64-15.76-6.69-4.85,8.71-22.08-17.6-.45,8.5,2.37,15.74,13.49,17.91-16.24-7.42-7.01,6.17,12.63,17-6.11,2.58,2.25,15.24-10.89-6.59,6.54,15.11-6.2,6.61-4.65-.41-1.19,7.26,3.77,16.39-2.28,6.08-7.06,9.53-2.8,21.91,7.62,15.43,2.01,17.52-2.12,20.98,3.8,11.4.67,15.75-1.74,20.73-.47,6.91-.86,13.81-1.17,20.7-6.97,158.37,31.74,310.29,129.66,506.34,24.94,55.89,12.65,33.76,66.27,1.16-135.37-156.39-156.23-314.83-136.09-480.63.92-7.54,2.39-14.61,3.71-21.94,4.6-4.05.76-16.62,2.74-23.47,6.04-2.78,14.6-3.14,3.67-23.07,6.47-2.52-9.34-27.41,4.49-22.73,14.3,5.15.1-18.27,4.76-22.9-4.64-9.28,9.13-.18.11-13.87-1.33-6.01,28.37,18.99,4.65-9.43-4.85-9.56,3.43-6.01,6.57-7.6-16.25-20.99-5.18-14.67-.54-14.8-2.2-6.97,17.37,7.82,3.87-10.48,16.73,11.93-12.43-22.03.66-13.76,14.77,9.95,15.85,6.2,4.22-10.27-.38-5.22,10.59.89.57-13.99-9.4-14.27-5.42-15.16,6.4-8.23,16.21,11.32-6.28-16.06.08-14.61-8.87-13.77,17.83,8.02,4.77-9.97,17.39,12.47,2.75-7.11,1.03-13.76.56-9.31,6.93-12.85,5.85-23.86-4.9-9.87,2.3-7.64,7.86-7.05,24.05,19.08,2.65-7.3-1.99-16.93-5.33-10.32-8.06-18.04-7.37-22.33.7-4.3,4.82-5.17,13.2-1.78,2.98-3.57,11.17-2.28,4.39-16.27,4.49-2.72,5.69-9.04,4.52-17.94-20.88-28.62,7.67-8.04,4.57-19.26-3.67-11.8,19.64,3.24,4.53-20.23,4.09-4.27,4.06-12.74,4.4-20.84-9.18-17.63,3.64-13.26,4.19-21.1,18.44,10.05,5.09-11.63,3.89-21.01,19.82,11.63-7.71-23.95,3.51-20.57,20.23,12.39,12.44-3.03,3.04-19.77-1.81-9.15,19.03,4.63,2.49-18.62.46-6.25-10.01-23.06,1.85-17.12-18.95-24.87-33.64-45.04,1.13-15.26-10.39-16.07-2.92-13.96.13-15.94,4.84-.19-28.54-38.3-1.14-15.32-6.4-10.82-7.56-16.1-2.17-14.55.67-3.17,28.23,20.84-2.96-13.63,3.25-.03,7.71,1.41-3.51-12.57-1.6-4.37-13.27-18.54-3.82-11.37-5.01-9.56-23.27-31.42-7.61-18.54-6.36-11.93-.03-7.87-8.39-16.23Z"/>
        <path class="cls-6" d="M631.41,430.59c-7.32-11.74-10.05-19.05-8.7-22.44-7.41-9.78,2.05-2.72-8.86-16.08-9.92-12.36-6.4-11.32.95-6.49,1.26-1.26,10.81,5.73-.26-7.93-11.19-13.79-12.66-17.89-6.87-14.76-4.96-10.3-2.23-13.04-6.38-22.81-4.63-7.44-6.5-12.16-7.29-15.83-5.03-7.92,5.18-.61,1.65-7.1,4.2-1.7,1.97-9.97-4.93-23.03,27.24,24.15-1.88-8.08,4.74-4.61,11.9,8.75-1.53-7.86-8.98-18.52,18.85,15.63,4.61-1.85,3.9-5.84-4.38-7.66-1.01-7.59-7.47-17.39-6.04-12.71,9.3-4.17-2.92-23.31,1.28-2.17,7.54.6,3.7-6.75-6.34-8.1,27.6,24.07,3.95-1.35-3.18-4.95-.09-3.64-9.95-15.28-9.55-13.12-6.89-14.06-3.68-14.48-1.67-5.3-7.53-14.82,1.99-8.98,20.12,18.28,1.14-2.55,12.27,6.73-4.09-5.95,3.25-.46-8.67-14.25,15.95,12.22-15.65-23.15-4.71-16-14.9-18.69-8.39-15.99-1.6-13.04,2.93,1.01,8.34,4.49,8.78,3.01.73-1.21-1.98-5.85-8.54-14.36,1.76-2.13,9.72,1.92-4.43-16.18-6.99-8.95,1.03-2.91,10.26,4.33,10.63,8.64,1.41-2.56-5.01-10.97.37-3.62-16.04-24.04-3.1-15.12,4.15.11-.03-8.12,3.82-8.34,1.32-.71,2.63-1.45,7.9,1.77-2.87-4.92-2.31-6.42-7.59-13.75-2.23-4.29-3.18-7.31-7.73-13.93,6.48,4.41-9.46-13.6,8.23,2-1.93-4.01-2.07-6.24-7.57-13.83-4.71-6.8-2.58-6.77,6.25-.04,2.45,1.93,13.62,12.56,16.39,14.82,1.27.75,8.73,7.67.3-1.28-8.76-9.82-12-14.11-8.56-11.73,2.32.21-7.67-11.9-6.06-12.42,1.49-2.76-5.69-14.21-2.3-15.1-10.3-14.59-.26-8.85,4.99-7.93-6.5-10.83,1.28-7.39,4.72-8.31,9.02,4.66-4.24-12.98-2.05-15.19.04-4.35,2.57-6.24,1.57-11.67-1-5.43-2.1-10.99.96-12.39-6.28-10.74-2.88-11.83-1.76-15.21,7.35,2.85-.88-9.89,4.45-9.09,1.3-7.76,2.83-15.35,4.08-23.28,25.03-158.57,73.5-316.42,117.19-464.45,20.93-55.28,3.51-31.79-46.78-51.77-22.05,94.31-46.38,200.14-67.08,294.75-16.7,71.62-30.39,144.5-39.17,217.87-.88,7.34-2.15,14.24-3.15,21.37-4.25,3.88-2.52,13.68-1.52,22.71,3.16,11.19-13.76,2.25-2.94,20.99,5.02,8.99,4.71,12.63,3.24,15.09-1.47,2.47-4.1,3.77-3.7,8.07,3.83,7.74,10.91,18.72,4.57,16.26.11,3.99-3.5,4.25-5.16,6.44.06,3.92-1.75,5.94-5.1,6.42,4.92,8.75,1.51,9.14,3.65,15.08-13.71-6.11-5.5,9.63-.32,22.27,7.76,15.23-4.42,10.45-.27,21.95,5.45,9.33-2.03,5.73,6.1,17.7,2.42,6.27-13.59-5.91-5.8,5.7-10.83-8.93-12.42-8.61-5.19.51,5.23,7.12-3.59.2,8.64,14.32-8.08-4.31,5.11,12.64-2.7,8.56,8.5,12.23-1.76,5.68-2.89,8.25-5.77-2.07-1.23,6.14,4.09,15.11,3.57,10.88-.33,14.2,1.68,23.34-.51,3.06,10.15,17.27,5.11,15.75,13.56,17.09-17.59-10.56-2.94,7.57,11.3,15.94,4.67,13.92,1.72,15.52-10.43-5.87,10.74,19.83,1.94,15.51-5.24-.76-15.59-6.68,2.17,15.49.93,5.33-1.08,7.67,2.41,15.47,13.11,17.42-17.66-9.08,2.64,15.45-8.91-4.69.68,9.08,2.89,15.42,8.23,13.17,10.02,19.79,3.64,18.15.82,5.56,6.13,15.52,4.07,18.03.11,4.67-7.36,1.67,4.48,17.91-1.62,2.77-9.01-.31,4.86,17.8.71,4.95-1.54,6.85,5.22,17.69-.12,3.96-.2,7.91,5.54,17.59,13.77,17.72,9.34,17.18,5.84,17.5-5.55-1.72,4.56,12.15,6.11,17.42-7.47-5.61-1.07,2.63-1.66,3.87-.27,1.56,2.43,6.08,8.02,13.48-16.97-15.16-18.59-14.99-2.36,3.02,6.06,7.85,20.42,23.97,8.94,14.25,8.46,11.22.04,5.75,4.85,13.66,12.07,13.63,11.62,14.77,10.37,15.15-3.92-2.28-10.62-7.31-6.32-1.29-.88,2.55.23,7.26,3.25,14.04.79,4.54,24.65,32.31,2.45,14.17-.85,4.56-3.52,7.57,2.03,19.05-5.39.55-5.14,6.98.6,19.15,11.85,18.28,2.27,15.37-.84,19.17,9.11,16.01,10.51,24.54-2.27,19.1-23.23-15.89,14.12,29.02-3.71,18.96,8.83,9.18,23.04,23.62-.13.54-6.92-1.93-.31,9.67,1.31,16.27-16.9-11.92,1.22,11.19-7.46,7.48,1.76,6.74,6.94,16.89,6.52,21.43-.14,4.83-6.09,3.84-12.52,2.37,2.45,7.41,10.71,20.63,7.32,22.19-3.86,1.09-4.33,5.57-13.16,1.67,5.12,10.06,8.54,18.41-.15,14.66-1.77,3.16-9.61.24-5.51,9.25,20.7,23.16-1.24,3.68,7.36,14.73,6.06,8.51,28.79,33.7,1.37,8.73,3.68,8.59,2.65,12.45-14.2.49,13.07,17.97-3.43,6.35-5.27,9.38-9.14-4.26-9.24.51,0,14.61-13.14-8.28-3.24,6.48-9.78,4.78,3.05,7.9,16.45,26.14,4.73,19.25,10.04,14.87-22.07-12.42-.17,14.31-.22,4.6-31.01-21.38-4.66,9.76-12.3-7.5-10.65-1.06-2.7,11.67,17.04,21.82,18.3,27.85-1.89,12.43,20.35,29.88,22.88,41.89-4.33,24.12,18.56,27.48-6.53,11.27-3.85,22.8,1.82,10.67-4.11,13.54-3.6,22.81-7.41,1.36.47,17.96-3.34,22.82,3.92,12.6-3.85,13.47-3.07,22.83-8.01.58-3.99,13.15-2.8,22.84,3.76,12.25-18.5-1.55-2.51,22.84-12.41-4.01-20.86-4.11-2.2,22.84,24.58,32.88-11.98,4.55-1.89,22.83-14.88-6.69,6.16,22.48-1.57,22.82-12.54-4.46,3.81,19.9-1.24,22.81.07,8.02-.65,15.2-.89,22.79-6,189.87,24.89,377.74,120.42,554.69-.52-.18,47.35-39.46,44.99-39.25-37.96-29.62-62.14-73.58-80.91-117.28-48.3-125.64-62.72-259.62-55.13-393.16.45-7.86,4.22-12.45,1.56-23.56-6.78-15.23-6.06-23.02,2.01-23.54,1-7.59-5.46-22.69,2.43-23.51,3.23-5.48-5.65-23.13,2.85-23.47-3.23-12.06-.42-18.14,3.25-23.42,18.26,9.32-15.21-33.15,3.63-23.35,2.62-6.43,3.22-14.92,4-23.28,20.25,11.11-3.61-21.93,4.35-23.2-16.82-26.04,4.89-13.61,4.7-23.1,26.13,16.82-18.37-37.02,5.02-23,6.87-2.5,7.04-11.74,5.33-22.88-2.05-11.48-18.56-37.46,5.63-22.75,11.92,2.43,14.37-4.63,5.91-22.62.9-5.24-1.46-13.74,3.78-14.64,28.05,21.91-.22-12.51,3.81-14.63,8.74,2.59,3.7-8.61,3.84-14.63,13.85,7.69,1.36-10.97,3.87-14.62,2.41-3.76,18.29,5.95,3.9-14.61-10.75-16.92,4.38-7.98,3.93-14.6,7.13-1.05,17.74,1.49,4.81-19.39,1.69-6.26-.03-15.81,3.98-19.52-6.82-14.54,2.16-13.15,3.16-19.62,8.88,1.41-10.89-25.7,2.33-19.69-1.04-8.25,5.73-8.56,1.5-19.74-6.5-13.45,2.79-10.97.67-19.76,16.12,9.44,18.23,5.02-.15-19.76.08-6.31,2.26-10.38-.98-19.72-4.65-10.75,10.92-1.13-1.81-19.67,4.08,1.18,3.53-2.23,6.45-2.14-3.84-6.66-7.84-13.45-9.08-17.44-6.03-9.08-5.81-11.86-7.78-16.79,5.72,2.77-1.57-7.43,3.88-4.84,3.67.81,2.93-2.73,2.64-5.78,18.39,15.63,4.71-.75-7.55-15.67-12.26-17.56-5.12-15.53-5.93-21.24-14.26-15.48-13.84-16.27-11.25-14.88,7.63,6.44,10.93,8.55,2.98-.57-10.91-13.25,16.67,12.04,1.32-5.54,11.03,6.57-9.01-17.73-7.97-20.71,12.1,11.87-.8-1.25-.47-1.15Z"/>
        <path class="cls-6" d="M793.56,345.87c1.07-1.21,10.91,6.38-8.64-15.42-16.89-19.13-4.46-8.92,3.53-3.14,10.9,8.69-3.42-7.82.03-6.54-5.66-7.83-14.57-18.9-4.93-11.39-5.37-9.65,2.27-6.21-4.69-17.32-29.7-33.85,4.05-4.17-4.49-16.72-18.65-22.66,7.23-.72-4.29-16.12-7.16-9.1,4.25.39,5.53-.25-28.79-30.7.38-3.42-9.61-15.29,8.9,5.14,23.09,15.65-3.89-14.97,20.75,17.11-15.27-22.47-3.7-14.41-14.01-14.89-10.74-12.49-13.63-16.25-8.44-9.31-8.41-10.14-3.77-6.37-2.83-4.56,16.42,12.98,13.89,8.76.95-.75-8.43-11.81-4.19-9.24,22.99,21.32,9.75,6.43.87-4.09-8.23-11.51-9.04-15.54-3.14-12.81-4.47-7.64-6.72-13-2.96-12.3,9.44,8.29,13.3,11.02,11.74,8.32,7.23,6.1-6.2-8.45-8.65-12.03-8.82-11.06-3.67-8.11-7.19-13.8-4.13-6.31-4.78-9.1-10.13-16.57,8.21,6.09,4.4.19,6.42.15,20.31,18.25,14.98,10.88,5.47-.63-13.95-15.95-3.22-7.2-8.8-14.74-4.03-7.94-21.83-29.54-2.96-14.36,4.64,2.79-11.45-15.12,6.78,1.31,1.5-.3-14.72-18.29-9.38-14.71-26.69-28.44-8.1-11.57-12.12-17.29.67-1.03,10.99,7.61,9.86,4.83-12.15-13.81-19.48-22.76-12.06-16.95,10.79,9.18-6.09-9.28,1.28-3.48,7.66,4.53,1.62-4.55,7.27-1.86,2.03-.93-4.63-10.47-8.62-17.27,12.39,9.58,3.06-2.47,6.4-1.78,2.84-2.47-13.6-23.92-1.02-16.11.99-4.57,1.42-9.35,1.74-13.97,4.56-.37-2.4-11.99.08-13.94,1.51-7.36,3.86-13.01,6.88-17.6,30.23-45.88,127.76,13.88,122.09-483.68-6.28-78.7,30.82-85.78-58.59-73.13,20.19,100.43,27.05,203.99,21.05,306.21-7.66,72.13-10.62,176.5-87.49,196.91-17.14,4.55-32.06,14.82-42.61,28.74-3.52,4.64-6.55,9.68-9.01,15.06-9.11-.97,3.31,19.55-6.92,17.37-3.01,5.03-.3,15.74-5.43,18.55-9.7-5.73-7.92,0-8.13,3.73,8.7,12.64,3.5,11.37,3.18,14.96,2.27,10.1,5.29,20.88-1.77,21.53-15.82-11.97.94,8.63-5.98,5.53-7.41-5.5-9.52-5.7,6.97,12.69,12.35,14.25-8.64-4.84-2.81,2.88-5.46-1.67-.82,6.74,3.08,14.39,3.91,7.67,7.16,14.65-2.99,8.22-6.85-4.99-10.61-6.9-9.57-4-11.72-10.79-2.92-1.07,1.27,4.04,3.62,4.55,1.12,2.96,12.46,15.23,12.3,15.98-13.49-6.14-3.36,7.65,15.42,19.07-11.84-4.56,2.54,13.44-6.62-4.81-.63,2.97,9.41,14.82-8.15-6.35-9.78-6.19-10.15-4.77-20.62-17.04-1.74,5.4-2.4,8.27,1.64,5.18-1.78,5.27,5.13,15.68-6.07-2.57,2.76,9.73-2.56,7.87,24.07,27.52,9.75,16.64,6.14,16.44-9.32-5.9-4.18,2.63,2.73,12.92-4.72-1.35-1.65,5.07,1.61,11.67-17.54-15.87-6.65-3.32-1.72,3.26,3.03,4.69,10.63,13.93,4.15,9.1-4.21-2.57-3.82-.53-7.37-2.46-1.96-.33,7.49,10.75,9.97,14.85-.64,2.6,10.71,17.17,2.75,12.41,7.19,8.79,4.94,8.13,1.38,6.16-6.09-4.51-12.35-9.18,1.51,6.25,3.56,6.71-6.93-.65,3.02,12.4-1.79-.23,12.32,15.42,14.36,19,2.7,4.24,5.07,8.14-11.22-6.62-2.67.39,8.75,14.83,3.25,12.34-6.27-3.26-5.97.02,3.35,12.29,6.19,9.14,8.24,14.13,3.45,12.23-4.6-1.69,10.46,16.24,3.53,12.16,11.65,14.5,2.4,8.08,3.6,12.08-11.33-10.63-4.66-3.26-16.71-14.62-1.47-.77,7.36,8.75,1.66,3.74-7.09-6.39-5.02-3.64,2.82,4.9-5.34-4.65,21.12,22.5,15.89,17.96,17,19.75-1.43,4.04-.06,8.09,4.94,7.63,19.26,24.62,7.53,15.52,4.52,7.16,9.85,15.09,10.55,18.38,10.99,13.57,7.78,12.91-2.96,4.69,18.14,20.67-15.52-10.5,5.15,12.63,16.32,18.78,9.96,14.86,2.48,9.79,16.82,18.03-.38,2.02-.7,2.89-2.93-1.75-19.52-17.15-2.33,1.21.93,3.28-6.41-1.75,10.63,17.58-11.18-10.04-5.85-3.57-9.8-6.39-4.22-3.09-6.84-4.59,10.61,13.97,12.63,13.74,1.42,3.64,12.88,16.2.33,1.43-.49,1.69-6.21-2.95,5.4,6.43,13.99,16.04,11.52,14.6,13.02,14.05-10.81-8.74,3.95,7.06-15.64-13.56-13.16-8.98-8.64-2.34-8.39-7.33-10.58-8.45-5.9-2.71-.02,1.05,10.51,12.65,1.38,4.61,2.16,2.7,11.61,12.69,12.17,13.79,19.42,19.96,1.27,2.36,3.82,5.44-.59.5-6.4-4.22-4.98-1.7,1.33,3.53-11.67-7.26-.68,5.96,9.12,11.35,6.4,10.88,6.82,13.58-1.51.57-14.55-10.37-2.06,4.23-2.07.04.71,4.95,7.38,13.76,10.49,14.78,6.3,14.94,5.02,18.08,4.85,9.27-7.95.94,4.72,18.15-8.09-5.82-2.1,2.46,5.2,12.06-5.83-3.53,3.16,7.78-.78,6.17-5.1-.44-6.65,2.74,4.11,18.3-6.75-4.36,3.34,8.14,7.45,14.69,3.74,6.16,5.62,10.49-3.65,3.68-11.77-6.86,9.98,19.88,3.49,18.43-4.04.16,14.53,22.97,2.67,15.4-9.93-5.64-14.89-6.27,2.45,15.44,12.54,16.92,21.75,30.54,2.23,15.48.71,5.17,5.86,14.82,2.01,15.51,1.63,6.17-2.55,6.58,1.78,15.55-5.76-1.13.02,9.32,1.56,15.58-11.18-5.49-2.54,8.89,1.57,18.77-8.95-3.17,4.57,16.14,1.18,18.58-.6,5.23,13.26,24.93.75,18.28,10.41,16.26-9.88,1.84.28,17.85,11.54,17.39,6.3,18-.25,17.3,4.57,10.41-6.78,4.87-.82,16.62,2.73,8.51-.19,11.35-1.43,15.82-19.64-13.93-9.36,2.02-2.1,14.89,19.17,27.88-9.96,6.97-4.31,20.38,1.54,9.29,16.45,31.5-4.26,17.66,3.06,9.93-16.28-2.95-4.24,15.15,1.28,7.34-1.14,10.62-4.24,12.85.86,11.54-10.99,8.99-8.57,19.64,5.12,13.35-12.27,3.1-8.84,12.92-18.87-6.1-19.05,3.42-19.23,12.31,8.22,17.3-20.16-2.62-22.51,5.32-22.31-16.37-8.5,3.63-12.92,5.54-38.61-32.27-4.66,8.18-13.12,6.31-4.85,1.73,21.73,34.98-9.95,9.98-4.75,1.92-20.47-7.12-10.07,9.88.86,7.46,18.19,31.32-6.88,12.62-15.11-8.73.47,13.07-5.29,13.31-8.86-.29-4.75,12.28-4.65,20.72-3.56,4.78,4.3,20.86-4.05,20.62-7.41.69,7.16,23.26-2.51,21.48-.99,6.89-2.74,12.91-1.98,21.32-4.75,2.91-3.23,11.98-.29,22.36-.28,7.16-.57,14.2-.38,21.61,4.07,163.03,77.32,343.93,133.32,479.29-2.24,21.69,54.7-12.92,61.04-11.09-3.75-18.59-8.28-37.98-12.71-56.49-31.05-133.43-73.23-264.34-102.5-398.02-1.54-7.04-3.05-14.08-4.51-21.13-2.82-8.41-10.36-21.58-4.89-21.79-1.38-7.06-4.63-16.06-3.41-20.63,19.05,13.1,15.62,4.07-1.62-18.47,10.66,5.36,7.72-2.58-2.5-17.54,12.23,7.49,8.56-.65,1.36-12.09,3.79-.46-3.21-11.48-1.4-13.5-8.84-16.51,10.9-3.7,6.29-14.81-9.28-15.78,5.67-6.91,7.77-10.76,5.57-.39-13.21-25.02,12.36-5.5,18.46,12.41,27.71,15.42,12.91-6.15-3.46-10.23,13.06-.98,14.58-7.58-15.76-23.87,33.9,16.86,14.89-12.25,33.73,23.65,14.34-6.98,14.11-19.89,35.03,28.68,5.05-8.01,6.52-13.65,9.48,2.37-20.8-35.43,6.01-16.58,32.54,22.57.61-18.96,6.86-21.99,10.45,1.18,12.66-5.58,6.36-20.57-1.55-10.24,6.38-10.75,5.82-19.53-.63-8.86,5.92-10.32,5.24-18.88-6.8-14.67-3.3-18.89,4.62-18.6,5.57-2.05,8.77-6.39,3.95-18.7-14.06-21.55,1.26-13.68,3.24-19.18,3.47-4-7.75-22.71,2.49-20.04-2.11-9.67,1.26-13.94,1.69-21.28-9.47-17.23,13.63-2.03.86-22.89-10.17-18.26-3.9-20.26-.02-24.89-1.32-5.58,4.91-3.67-.35-13.31,10.39,6,.99-7.84-.59-13.96-7.49-12.01,11.66,2.53-.83-14.64-.5-5.19.8-8.65-1.08-15.38-27.84-32.69,11.86,2.07-1.33-16.17-7.73-12.77.56-9.61-1.59-17-8.57-11.78-5.8-12.21-9.45-19.05-4.21-7.39,7.36,1,7.22-2.31-3.23-6.39-3.33-9.64-8.07-17.52-4.72-7.86,5.65-.62,5.56-3.81,2.96-3.26,9.87-2.53-2.77-21.29-8.14-11.21-8.54-14.65-9.36-18.51-15.42-18.46-12.22-18.28,6.32-2.75,3.04-2.99-6.25-18.25-3.3-21.21-3.98-9.9-22.17-33.96-3.56-21.17-8.7-11.61,7.27,1.47-4.62-13.31-2.82-5.71-12.42-18.18.8-7.82-.36-3.22,13.53,7.82-.3-8.84-5.59-8.42-5.09-10.74-3.78-12.24-3.27-6.07,3.62-1.99-1.8-10.18,6.76,3.98.18-5.37-2.53-10.84,8.68,5.93-3.56-9.06-9.42-17.65,8.73,6-12.64-18.09,4.84-3.32-5.62-8.33,2.16-3.23-12.3-20.37-8.12-9.46-16.16-18.84-10.92-14.93,11.64,10.3,24.48,21.81,18.38,14.39-4.13-9.44,3.09-7.47-5.1-20.86-6.14-8.75-5.21-10.4,2.92-4.84,5.84,3.26,3.92-1.22-8.27-15.96-1.51-6.61,7.27-2.88-5.6-20.74Z"/>
        <path class="cls-6" d="M928.6,450.54c-9.89-12.68-10.93-16.71-10.67-19.63-4.12-7.31-22.48-29.06-10.29-20.45-8.23-11.81,6.4-.96-9.72-21.05,1.14-2.83-6.37-14.5-8.94-21.43,2.45-1.91-8.08-16.98-7.97-21.6,12.49,8.35,3.22-5.21-6.01-18.87-36.79-41.22,24.55,15.54-4.97-18.69,6.11,1.4-14.05-23.61-3.8-18.36-5.22-10.22-7.11-17.24-2.49-17.89,13.51,8.23-1.02-11.7-1.05-17.27-2.81-8.36,16.76,5.53.53-16.51-4.51-10.33,20.6,8.83,2.24-15.61,32.28,26.19-3.52-15.83,4.09-14.56-2.19-11.37-14.04-32.46,9.3-18.42-2.53-11.83,30.13,11.49,9.97-18.05-5.38-14.75-4.13-22.9,10.35-17.82,8.62-.78,10.15-8.65,10.45-17.74,9.37-.02,14.22-4.53,10.27-17.8-10.47-19.79-8.91-27.5,9.8-18.01,22.61,13.4-1.36-19.71,9.06-18.36,6.26-2.8,33.3,15.27,8.03-18.85,13.69,4.83-3.17-20.77,6.73-19.49,7.88-.73-4.55-21.65,5.14-20.28,1.89-7.17,5.74-12.29,5.53-21.39-.36-9.25,3.3-14.38,4.78-21.62,17.74-86.9,19.42-178.61,27.09-266.11,7.18-102.24,9.36-205.54,10.85-308.06-.13,3.32-68.49.15-58.75,10.37,17.53,96.84,17.59,196.53,8.04,294.24-7.4,85.78-33.38,167.85-63.79,247.99-2.53,6.68-5.1,13.34-7.69,19.99-1.75,7.49-7.15,11.34-7.82,19.92-7.15,2.1,4.1,22.61-7.91,19.85,3.37,12.62-7.11,11.39-7.95,19.79-20.02-11.34-16.61.65-8.18,17.58,5.46,13.94,1.21,18.08-7.26,17.87-19.21-10.95,6.27,22.66-6.25,18.14-23.82-15.83,17.7,33.54-5.15,18.38-8.76-1.08,3.29,18.5-3.96,18.59,5.64,12.98-9.25,5.25-2.68,18.78-16.92-9.96-19.08-5.36-1.31,18.94-9.86-3.33-6.97,5.88.15,19.07-7.71-1.63,24.44,36.35,1.69,19.17-7.38-1.8,32.12,43,3.33,19.25-.92,3.7-11.96-2.68,1.85,15.79,8.8,13.47,21.63,30.99,2.7,16.75-11.91-7.22-3.63,5.76,3.46,17.55,3.19,7.88,8.46,17.85,4.14,18.2,14.26,18.93-9.18.16,4.72,18.69-21.77-17.14-11.53-2.29,5.23,19.03,4.63,9.19-.96,8.14,5.64,19.22,2.3,6.78-16.91-8,5.97,19.25,8.28,12.65,4.33,13,6.22,19.13-1.69,2.55,2.9,11.3,6.37,18.85-13.47-9.39-5.43,2.65,6.44,18.42,13.61,17.51,15.13,22.84,6.43,17.84,6.52,10.79-2.67,5.96,7.15,20.23-7.03-2.57-2.01,7,6.71,20.36,12.98,17.62-7.75,1.64,6.27,20.49-3.4,1.44,7.65,17.41,5.83,20.61,11.03,16.05,8.51,18.64,5.38,20.72,9.13,14.34-3.95,6.55,4.93,20.82,10.52,15.91-2.56,8.31,4.48,20.92-13.45-8.44,24.17,34.27,3.65,18.9,1.99,7.15-9.87.51,3.28,18.97,2.52,7.83,7.55,18.23,2.91,19.03-2.85,2.59-2.43,8.53,2.54,19.09,5.32,10.91-2.77,8.47,2.16,19.14-1.2,1.66,7.64,13.39,7.7,16.34,4.25,7.15,5.41,11.23-5.91,2.84-7.7-4.77,2,7.88,2.16,11.01.65,3.62,9.3,15.25-.75,8.21,5.74,11.75,5.04,17.13,1.03,19.26-8.49-2.34,6.13,18.48.64,19.29-5.75.53-4.27,8.36.26,19.31,2.27,7.78-10.43.57-.08,16.35,14.12,16.84,9.3,14.73.58,8.7-7.1-4.4-5.82-.44-.97,7.08-2.74,2.59-6.04,4.56-.72,15.06-5.51-.33-2.4,7.88-1.09,14.19-15.66-10.66,7.55,17.44-1.49,13.17-1.93,2.84,8.82,18.23-1.92,12.01-6.92-2.62-5.31,3.33-4.85,8.14-1.12,3.23,6.59,15.32.42,13.54,2.04,10.83-.01,17.65-5.15,21.45,11.63,20.57-14.66,3.3-5.79,21.25-4.03,5.05-1.93,16.3-6.35,21.07-.93,3.67,9.69,18.9,1.91,15.75-.91,3.72-6.59,2.68-6.43,7.48-.91,3.74-3.94,5.37-6.35,7.63,7.75,12.43-2.29,7.06-3.21,10.83,2.89,7.58.97,10.36,1.1,15.21-11.53-6.82-.22,9.2-8.77,5.38,6.51,11.24-9.28.17.92,15.12-8.62-3.88-9.12.36-8.67,5.56,11.22,15.97-3.39,6.11-5.25,9.01-1.57,3.19-9.79-.27-3.26,11.02,4.87,9.63-1.02,8.51-1.41,12.89-1.54,3.23-7.78,1.76-6.22,8.1.97,10.52-3.44,15.65-6.47,22.15-6.85,2.69-8.75,10.32-9.78,18.81,1.01,10.53-5.9,13.12-7.98,20.52-1.97,5.14-3.93,10.28-5.85,15.43-5.79,15.45-11.36,30.96-16.56,46.58-18.9,162.29,46.34,322.67,117.39,465.59,1.39,1.69,3.38,7.6,4.85,9.51-1.22-1.17,52.61-37.34,45.53-38.39-87.05-85.54-165.6-221.83-129.5-346.43,20.13-29.46,36.85-58.93,50.78-88.59,2.79-5.93,5.46-11.87,8.03-17.82,4.67-.44,7.13-3.06,8.29-6.94,1.16-3.88,1.02-9.03.51-14.51,1.69-3.29,1.9-8.02.8-14.03-1.19-6.1.42-9.38,6.74-7.91.17-4.68-.3-9.97.37-14.1-.48-5.28,4.19-5.37,7.15-7.16-.57-10.05,9.24-9.61,4.7-23.43,1.54-3.1-1.69-10.94,1.64-12.21.74-3.85-6.3-15.46,5.67-8.05,4.75.2,5.46-3.62,7.27-6.32,6.72,2.21,12.04,3.04-1.11-14.58-17.11-21.58-7.86-16.79-2.71-16.07,9.36,4.93,14.78,5.92,5.93-7.33,13.43,11.22,6.18,1.78,11.63,5.04-12.07-14.27,10.58,6.19-6.02-12.59,2.33.14-11.69-16.07-8.62-15.17-13.51-15.69,1.48-2.88,6.53,0-5.46-9.81-7.96-16.65-2.28-15.29-8.64-12.97-2.77-11.41,5.94-7-11.82-16.13-.82-9.42,1.77-11.12,7.48,3.19,1.44-7.12-.18-13.02,9.95,5.68,3.56-4.98,5.09-7.71-3.1-7.36-10.44-18.96-1.27-14.03-3.12-7.37-9.24-17.74.39-12.35,7.19,2.95,11.97,3.48,1.78-10.95-.09-4.33,4.07-4.41,5.25-7.47,4.84.6,5.13-3.35-3.36-16.09,9.99,5.75,6.95-1.53-.14-12.87-12.34-16.58,6.95-1.55,1.8-10.96,7.58,3.32,4.72-3.8,3.22-9.56,1.71-2.55-.95-9.49-1.74-14.56-2.42-6.7-6.71-15.27.6-12.26,17.7,13.4,9.62,1.02.75-12.16,2.14-2.17-9.01-17.64-6.25-19.22-.34-4.68-.37-9.05,7.52-5.53,10.55,7.49,6.1-.03,5.71-3.52-2.6-5.7,1.18-5.03-4.77-14.11,9.77,6.63,7.09.8,3.85-5.6,10.31,7.15,1.77-4.56-3.4-12.92-8.47-10.06-12.89-16.07-8.29-13.07-9.24-10.83-2-5.2-4.25-9.05-7.59-10.79,5.34-1.06,12.56,2.95-3.02-6.23,11.97,5.56,6.67-2.96-.53-3.74,7.52,1.11-7.02-16.63,14.12,10.92,12.79,6.4,6.21-3.37-9.72-12.91-1.04-7.4-6.87-16.39-10.32-11.9-14.44-17.6-13.51-18.24,1.69.12-4.56-7.7,2.01-2.69,9.86,6.73,11.79,5.54,10.58,1.24,1.33-.26-12.57-15.74-12.54-17.3-7.36-8.94-2.99-6.14,1.15-3.54,8.25,5.14,5.41-.78,9.94.71,5.43,2.39,12.97,6.92,6.57-2.44-14.01-16.98-6.47-12.37-8.8-17.59-8.03-13.81-14.58-26-2.99-19.89-1.34-6.82,13.62,2.81-3.75-19.74,15.8,13.22-12.77-17.9-7.95-15.59,7.66,5.15,2.37-2.61,3.44-3.98-.87-3.3,2.33-2.49,7.15-.03,1.35-1.01-10.43-15.1-12.41-19.35-4.27-6.55-10.86-15.37-10.71-17.41,5.88,3.68-3.51-7.86,4.72-1.75,9.02,4.79,1.68-6.62-6.72-18.93-13.71-17.62-11.97-19.62-7.44-18.67,8.93,5.35-9.81-16.8-8.16-18.39-13.38-16.62-25.34-31.66-8.87-18.1-1.2-4.1.86-4.79-9.57-17.78Z"/>
      </g>
    </pattern>
    <clipPath id="clippath-1">
      <rect class="cls-1" y="1180" width="1080" height="1080"/>
    </clipPath>
    <clipPath id="clippath-2">
      <rect class="cls-1" width="1080" height="1080"/>
    </clipPath>
    <clipPath id="clippath-3">
      <rect class="cls-1" x="-1180" width="1080" height="1080"/>
    </clipPath>
  </defs>
  <g id="Pattern">
    <rect class="cls-8" width="1080" height="1080"/>
  </g>
  <g id="Original">
    <g id="_08" data-name="08">
      <g class="cls-2">
        <path class="cls-9" d="M658.23,1043.72c11.05,6.07,9.63.51,15.46,3.01-4.32-7.64,5.49-.32,14.15,6.64,14.45,12.76,10.12,7.54,12.55,9.85,4.05,3.94,26.98,27.55,10.66,12.66,2.51,3.94-6.23-2.61,8.49,15.05-3.95-1.01-5.12,1.48,6.03,17.02,6.1,10.49-3.89,5.6,3.29,18.59-14.68-8.88,9.23,21.53.27,19.74-.23,6.94,15.56,30.24-2.88,19.53,5.04,12.77-6.28,9.38-5.72,17.99-4.14,3.91-27.9-11.72-8.23,16.08-8.12,0,.05,16.27-10.4,13.79,5.26,13.23-13.3,2.5-12.24,11.14,2.61,10.18-2.43,12.46-13.74,8.11-.43,6.52-11.17,2.36-14.9,4.71-7.73-1.65,11.9,23.58-15.72.94-6.19-1.2-23.21-14.09-15.46-3.01.41,3.73-20.14-14.33-14.15-6.64-5.68-3.99,4.34,6.92-12.55-9.85,5.82,5.93-12.78-13.35-10.66-12.66-11.59-13.02-1.59-5.22-8.49-15.05,7.17,4.24-3.16-9.76-6.03-17.02,18.37,13.98-10.02-19.51-3.29-18.59-26.91-32.71-.43-12.73-.27-19.74,11.51,4.33,8.98-5.7,2.88-19.53,8.33.61-6.08-21.74,5.72-17.99,8.7.66,2.88-13.3,8.23-16.08,3.19-4.94-4.01-20.24,10.4-13.79-7.69-15.65-1.6-17.4,12.24-11.14,3.18-4.39,11.61-3.29,13.74-8.11,19.92,12.97,10.22-3.31,14.9-4.71,2.83-3.26,2.96-8.72,15.72-.94Z"/>
      </g>
    </g>
    <g id="_04" data-name="04">
      <g class="cls-4">
        <rect class="cls-1" width="1080" height="1080"/>
        <rect class="cls-5" width="1080" height="1080"/>
        <path class="cls-6" d="M231.04,1595.8c-43.78-150.47-71.87-307.22-82.46-464.67-.26-7.26-.73-14.76-1.39-22.5-3.4-10.81-3.22-18.09-1.2-23.58,4.42.67,5.69-1.83-.21-11.49-8.29-12.06,5.67-1.89-.73-12.08.01-3.78,9.68,2.08,5.09-6.33-4.65-8.46-5.65-13.3-5.76-17.25-13.97-17.81-6.91-14.59-3.97-15.52,12.48,8.62,7.97.24,3.56-8.05,3.43-4.33,10.22-5.35-.14-23.56-10.26-14.18-6.87-14.73,1.66-10.15,8.84,4.9,5.73-2.18-1.53-13.4-1.56-4.86,3.41-3.21-5.56-15.49,2.89-.43-7.85-14.5,5.09-4.9,10.84,4.17-1.34-14.7,1.29-18.81-5.01-11.73-4.92-18.4.69-19.57-2.87-6.26,7.16.37,7.66-2.53,8.89,5.48,3.6-3.22-6.78-17.02-2.91-9.75.95-12.76,1.07-19.53,3.83.38-.35-7.25-6-16.37-.47-3.93,4.44-2.49,7.27-3.14-1.57-5.6,6.16-1.95-3.07-15.3,12.52,8.4,16.53,8.25,7.34-5.15,16.93,12.72,3.24-5.21,6.15-6.57,6.88,2.6-18.34-26.94-1.23-14.17,5.57,3.4,9.35,5,6.99.45-8.55-10.74.54-3.85-7.64-14.23,10.18,7.98-1.47-5.88-4.25-10.88,7.7,5.48-7.44-11.88,10.36,3.7-1.24-5.7-20.12-29.05-2.63-16.06-13.89-18.38-3.1-12.11,8.52-5.03,9.1,4.56-.88-9.96,8.53-5.1,2.42.14,16.2,11.64,7.36.51,4.74,2.46,2.85-1.72-9.69-16.54-.68-5.26.53-8.63-.76-14.51-4.39-8.98-2.61-11.79,7.17-6.6.23-4.35,2.36-6.81-1.58-15.34-1.86-6.44,9.16,0,8.07-5.65-4.13-13.26-.03-18.27,6.47-20.79-6.93-11.44-1.91-10.93-1.53-15.02,5.12.64.29-8.64,7.87-5.5,10.93,2.07,8.98-8.64,6.09-20.16,10.58,7.86,16.46,10.67,13.91,4.72,3.4,1.71-.1-3.57,2.83-2.48-.83-2.68-3.35-7.11-10.86-16.6,2.72-5.24,11.67-4.1,5.57-17.83-.08-7.7-1.02-16.11,4.27-18.09-8.06-15.33,3.79-10.57,2.97-18.28-7.04-10.49-8.75-15.59-7.28-17.47-.27-3.61,2.59-4.06,8.95-.94-13.36-19.85-4.18-16.95.39-18.46,1.06-5.01,5.18-6.73-.9-18.44,6.23,3.41,4.55-1.01-8.36-16.62,5.51,2.82,9.73,4.4,6.17-1.74-22-27.15,13.41,3.34-3.46-18.2,12.35,10.02-11.01-15.61,5.65-1.16-18.46-20.66,3.9-.45-10.39-16.81-13.42-17.57-13.21-21.26-6.01-17.68,5.37,1.96-21.66-28.87-6.05-17.43-4.06-8.22-4.42-13.1-5.66-19.19,5.65.8-14.95-24.96-5.27-20.75-23.62-29.08-2.92-14.13-4.91-22.11,19.78,13.78-19.7-31.94-4.56-23.26,11.12,7.89,1.58-4.94-8.11-17.96,23.78,20.45-2.06-8.78,3.89-6.25-4.27-7.7,5.87-1.03-1.99-12.4,16.32,12.8-13.73-20.79-1.91-12.56,12.68,9.09,6.83-.38-1.84-12.7-12.09-15.75-24.43-31.77-1.76-12.81,9.27,7.42-23.33-27.04-11.71-17.3-9.07-10.94-.41-4.15,10.02,4.4,29.91,26.15,37.06,29.52-1.62-12.96,41.7,37.9-5.53-13.14-1.55-13,16.49,14.58-4-7.83-6.92-12.67,4.86,2.94,2.3-1.54,5.43-.34-12.52-13.48-17.72-19.64-13.27-16.16,9.13,8.17-5.13-7.05-3.73-6.62-1.39-3.32-2.2-6.05,15.57,9.79-18.73-20.66-12.2-16.06-6.09-11.89,1.28-.65,14.16,10.3,4.73-1.07-5.23-9.1-12.95-20.67-1.3-12.89-15.36-19.22,37.97,30.26-1.25-12.8,9.88,7.96,12.07,8.23,5.75,0-4.84-6.76-.83-4.66-6.94-12.68,13.91,12,19.24,15.43,13.96,8.24-7.5-8.45-3.47-5.37-6.46-9.3,4.68,3.73,1.28-.61-8.64-11.48,11.82,8.04,8.45.9,6.97-4.31-5.4-9.14-13.47-20.93-9.09-20.24-35.86-43.24-1.55-16.19-1.93-23.68-.67-7.78-4.72-18.8-1.75-22.61-19.32-26.1-.36-13.73-1.59-21.34,5.95-.42.45-12.07-1.45-19.86,21.29,15.4-.92-12.45-1.32-18.18-8.08-13.42-1.49-11.87-1.21-16.3-8.41-13.13,6.27-2.83-1.11-14.22,1.11-2.9-.7-8.36-1.03-11.93-8.19-114.12.5-226.94,40.66-334.79,20.79-67.78,44.83-143.89,63.15-212.17,0,0-56.3-20.76-56.3-20.76-26.51,56.8-48.43,115.41-68.2,174.85-22.78,73.87-48.43,149.02-47.39,227.37,1.73,37.7,5.11,75.18,9.68,112.51.91,7.47,1.87,14.93,2.87,22.38,1.89,8.34,2.26,15.11,2.78,21.99-2.61,3.74,2.79,15.46,3.72,22.67-6.05.22,3.55,16.06,3.36,22.07,4.87,11.07-.74,11.62,3.99,22.48,13.34,19.48,7.64,19.87,4.4,22.71,13.73,19.8,11.35,23.48,3.6,21.75,10,13.01-10.17-4.15.44,9.47-7.45-4.45,12.68,18.68,4.99,13.98-4.37,1.62,13.77,25.72,3.05,20.96,31.37,37.32-1.1,10.8,4.36,22.19,14.12,20.05,6.11,17.97,4.41,22.18,22.06,27.98.6,12.43,4.43,22.18-11.36-5.44,4.25,16.07,4.43,22.18,11.87,16.6-6.52,2.96,3.53,17.75-8.42-3.68-4.82,4.67,3.51,17.75,13.79,18.55,5.24,14.75,3.47,17.76,3.7,6.09,5.22,10,10.16,17.33.06,2.45-4.86-.08-6.74.44,11.38,16.18-15.01-5.41,3.36,17.77.55,5.37,10.69,20.34,3.28,17.79,22.21,27.06-6.88,2.83,3.2,17.8-2.65,2.24-4.3,5.49,3.1,17.81-5.8-.87-2.95,6.92,2.99,17.83,1.46,6.43,12.36,22.32,2.87,17.84-6.9-1.05,12.68,24.57,2.72,20.86.23,3.35-4.38,1.91-6.54,2.96-2.16,1.05-1.87,4.6,8.17,17.95-2.54,4.07,7.75,21.16.53,20.93,5.44,12.42,2.33,16.47-.56,20.9-.82,6.5,1.23,16.05-1.65,20.82,2.18,6.01,3.12,10.82-1.35,10.26,1.58,5.49-10.06-2.21-1.39,10.45,1.68,5.67-14.28-6.27-7.73,4.34,9.21,13.27.78,8.95,3.91,16.21-17.87-13.74-7.57.74-7.38,5.14,4.34,8.55-7.58.88,2.47,15.2,3.08,7.36-1.11,7.49-7.98,4.96.41,4.76-9.94-1.21,1.98,15.13,20.79,25.2-1.5,7.37-6.52,6.83-6.04-1.56,3.33,12.32-.57,12.97-4.69,3.35-.78,15.29-6.68,17.41,3.1,7.11,8.85,16.86,1.27,13.29,10.77,14.77,5.04,13.05-7.81,4.19,4.82,8.82-4.59,3.4,2.55,14.53.91,4.9,1.15,9.12-8.91,3.03,2.23,6.21,9.61,17.56,2.12,14.03,1.22,5.19-1.02,6.9-8.27,3.6-7.55.35-5.72,10.05-5.9,17.7-1.58,6.25-7.45,8.18-5.62,17.77-9.63-1.87,8.04,23.51-5.31,17.84-5.71,1.96-13.87,1.43-4.96,17.91,8.34,17-7.2,10.04-5.2,20.55,2.12,6.37-8.86-.37-7.43,5.28,7.05,11.27-4.72,3.69,2.77,15.35-10.57-6.4-16.82-8.5-5.45,7.01,11.46,15.59-2.77,5.46,1.38,13.7,8.75,12.83-.11,8.03,3.29,15.47-5.29-1.25-4.31,3.74-6.71,5.32,20.41,22.41,12.7,16.68-2.08,3.88,7.68,9.66-15.91-11.96-6.7-.78-6.93-4.96-4.96-1.04-1.89,3.99.85,2.81,9.26,13.15,7.93,13.77-1.17,6.59-6.52,8.87-1.98,20.94,10.19,13.95,2.82,10.31,1.77,12.96,2,5.7-14.31-6.94-2.96,8.05,7.16,14.43-5.78,8.64-.34,21.08,16.21,19.71.1,7.07,2.69,13.1-8.31-4.88-3.35,3.48-2.14,8.05-2.18,1.18.23,6.92,2.89,12.87,1.7,4.98,15.17,21.7-1.4,8.35,12.47,15.68,11.64,18.02.84,10.35.04,3.17-1.03,5.2,1.65,10.92,6.21,9.72,8.98,15.99,1.66,12.14-3.12.36-13.94-6.98,1.33,11.74-10-6.54,5.31,12.21,8.92,19.25,4.26,7.69-13.94-7.09-5.67,4.59,11.05,14.46-.48,6.32-3.26,6.92.05,1.74-6.2-2.81-3.56,1.51.32,2.01,5.54,8.91,10.32,15.37,2.63,5.99,1.66,8.38,5.97,16.03,6.33,9.67,5.83,12.51-2.26,7.74-2.51.81-2.34,4.3,5.25,15.2-7.96-4.65-2.64,3.97-1.35,8.54,10.4,13.69-.35,6.22-1.87,7.98-7.2-3.93-1.54,4.99,5.94,15.74-3.78,2.74,4.21,17.22,4.22,23.69-10.1-3.63,22.14,35.05,4.34,23.67-11.76-5.34-16.52-3.7,4.44,23.65-3.54,2.85,3.97,16.72,4.52,23.64,6.85,13.22,3.49,16.2,4.58,23.63,1.53,7.88,3.07,15.75,4.61,23.62,24.62,125.99,49.63,251.88,59.38,380.12-4.98,56.56,23.22,29.88,60.78,25.28-7.15-17.24-13.12-35.02-18.92-52.77Z"/>
        <path class="cls-6" d="M-81.08-556.82C-35.22-399.18-6.58-234.66,2.77-69.65c1.89,9.3,3.89,18.76,1.2,23.58-1.77,5.73.5,15.55-.53,22.11,6.02,9.82-.34,7.26,2.2,13.61-1.26,2.56.79,8.44-.05,11.43,8.55,16.23.95,16.35.7,23.86,3.91,11.67-14.72.85-.15,23.27-4.92-.99-8.42-.56.85,12.65,3.82,7.77,4.83,12.74.54,12.41,11.02,18.95-10.2,5.71-1.92,22.01,11.5,19.52.91,16.98-1.05,23.12-19.31-11.21.64,16.88-.56,23.86-5.46,2.72.21,16.61-1.22,23.45-18.16-9.89-5.43,11.13-1.49,23.41-7.83.23,14.14,30.45-4.27,20.45,20.05,28.46-28.32-11.34-4.92,20.75-7.17,1.53,6.99,24.5-5.46,20.96,13.81,22.72,4.58,22.49-5.89,21.09-8.93.14-6.32,11.87-6.2,21.14,10.4,19.55,5.21,23.54-6.41,21.1-13.54-4.36,3.88,22.23-6.49,20.99-.26,8.88-16.21,2.02-6.47,20.79,4.1,13.13-8.16,9.83-6.33,20.52-.92,7.94-9.5,8.12-6.09,20.16-10.3-4.87-9.29,3.03-5.88,14.36-2.69,5.27.83,16.6-5.57,17.83,11.94,19.57-5.37,9.71-4.27,18.09,2.88,10.15.86,15.22-2.97,18.28,6.11,13,4.43,18.02-1.68,18.4-1.9,4.59,25.33,38.11-.39,18.46-7.4-1.34,2.58,14.5.9,18.44-10.15-4.53,9.48,20.5,2.18,18.36,4.75,9.91-21.45-11.37,3.46,18.2,2.98,7.64,18.04,27.12,4.74,17.98,2.31,6.46,5.5,13.55,6.01,17.68-9.27-5.87,5.02,12.23,6.05,17.43-17.85-13.68,32.99,41.68,5.66,19.19,16.32,21.17,18.14,28.16,5.27,20.75-15.63-10.17,3.61,14.82,4.91,22.11,4.9,10.89-7.31,4.93,4.56,23.26-.95,5.52,3.06,16.2,4.22,24.22-5.16-1.74-3.56,3.34,1.99,12.4,2.21,5.73-19.84-12.77,1.91,12.56-3.81-.22,9.18,16.38,1.84,12.7-10.86-7.2,2.91,10.25,1.76,12.81-15.89-12.18-6.03,1.42,1.69,12.9.67,4.43,1.61,9.15,1.62,12.96-12.17-8.37,13.01,20.62,1.55,13,16.48,20.31,16.07,23.74,1.49,13.01.09,3.94,18.56,26.27,1.43,12.99-16.43-12.57-.77,6.95,1.36,12.95-8.84-4.97,2,9.73,1.3,12.89,11.14,15,6.84,14.55,1.25,12.8-20.59-16.75,2.58,10.26,1.19,12.68,9.03,12.84.36,7.98,1.14,12.54,13.97,21.54,18.7,33.75,2.12,24.55-16.34-8.96-5.22,9.42,1.93,23.68-3.48,3.63,3.06,17.14,1.75,22.61.77,7.55-1.88,11.49,1.59,21.34,2.88,4.47,3.95,7.12,11.3,16.04,3.41,4.98,3.11,6.22-3.45,1.2.97,4.04-1.83,4.25-6.41,2.62-1.91,3.98,5.58,17.11,1.32,18.18-7.16-1.82,4.21,14.59,1.21,16.3,7.27,9.62,18.5,23.13,8.97,15.79-4.22-2.04-11.25-6.97-7.86-1.57-4.86-.84-16.02-8.36,1.03,11.93,9.14,15.76-6.69,6.61,1.34,21.38,5.59,12.33-21.8-8.24.92,21.35,1.83,8.7,16.16,29.97.48,21.3-16.66-9.65-7.32,6.77.02,21.26-5.9,1.25-1.22,13.15-.46,21.21-4.14,3.16-11.48,3.19-.96,21.15-2.69,4.76,1.34,16.31-1.49,21.09,1.82,9.43-15.91-.62-2.03,21.02-.77,6.99-1.64,13.98-2.6,20.94-6.75,48.78-18.29,96.92-35.86,144.1-20.79,67.78-44.83,143.89-63.15,212.17,0,0,56.3,20.76,56.3,20.76,26.51-56.8,48.43-115.41,68.2-174.85,20.89-67.71,44.18-136.51,47.11-207.85.27-6.49,4.95-8.41.28-19.52-.13-7.32-4.35-18.67-1.23-22.59,3.11-3.94,10.13-3.89-1.61-22.55-2.56-9.47-5.94-19.7-1.96-22.5-8.12-14.9-3.73-17.23-2.29-22.46-11.23-17.9-4.26-17.53-2.59-22.42-2.94-9.49,14.56,1.51-2.87-22.38-1.62-4.85,3-3.44-7.06-16.7-5.47-8.67-6.09-12.48,3.92-5.65-2.53-5.71-19.42-25.77-11.23-20.74-1.99-5.15,3.38-2.93,7.87-1.57.93-2.2,3.67-2.59,2.8-6.58,8.71,5.59-11.68-17.91-6.38-15.7-18.75-21.85-4.16-10.35-1.01-10.28-1.73-4.81.68-5.48-2.76-11.98,8.42,5.36,3.21-2.91,6.05-3.12,5.68,4.15,8.36,5.31.42-4.15-.38-1.91-4.15-7.19-10.4-14.97,4.39,1.35-17.86-23.93-7.53-16.63-3.35-6.38,14.4,8.36,3.46-5.6,6.87.84-19.74-31.77-4.19-22.21,6.82,3.83-2.74-8.72-2.26-11.22-5.65-8.64-6.59-12.55-2.03-10.97-1.51-7.46,2.5-9.4-4.36-22.19-23.53-29.47,12.38.52-4.41-22.18-4.25-10.17-11.6-23.43-4.43-22.18,14.39,8.48-14.04-25.87-4.43-22.18-11.47-17.39-9.26-21.11-4.41-22.19-.96-6.89,8.63-3.24-4.37-22.19,6.89.93,4.81-7.12-4.3-22.2-10.93-16.92,6.33-5.66-4.21-22.22-7.23-13.25,24.27,12.2-4.09-22.23-3.52-9.59-16.47-28.64-3.95-22.25-10.59-16.72-6.56-18.85-3.79-22.28,6.37.17-2.28-14.71-3.61-22.3,3.28-2.57-4.68-16.57-2.72-20.86-.49-6.73,5.74-6.93-1.63-20.91-2.51-9.13-9.64-23.05-.53-20.93-1.28-8.26,21.95,7.82.56-20.9,18.8,11.48-3.81-18.63,1.65-20.82,28.69,21.04,13.79-1.68,2.74-20.71,17,9.03,7.47-8.63,3.83-20.55-16-24.27,11.84-4.86,4.91-20.34-10.76-19.32,10.31-6.95,6-20.09,4.96-3.87,3.64-14.16,7.09-19.8,7.85-1.33,5.44-12.92,7.63-19.9.49-8.68,2.43-15.88,7.43-20,2.22-6.9,7.48-10.74,7.18-20.1,10.4,1.34,3.35-14.74,6.89-20.19,6.91-2.08-1.72-19.65,6.54-20.28-7.83-16.72-10.72-28.46,6.14-20.37,7.38-1.4-4.42-21.93,5.7-20.46-1.21-9.86,14.68-2.56,5.2-20.55,2.28-6.22-2.5-19.44,4.66-20.63,5.12-3.23,8.1-8.51,4.06-20.71-6.15-14.32-9.37-25.61,3.42-20.79,9.92,1.95,5.29-10.54,2.72-20.87,5.53-2.22,9.81-5.59,1.98-20.94,6.95,3.19,6.35-1.15,4.46-6.73-1.89-5.59-3.36-10.73-3.27-14.28-1.93-5.57,4.62-2.62,5.89-4.92-4.33-7.91,4.77-2.34-5.55-16.16,4.42-2.59.84-13.04-.55-21.15-6.91-10.27,7.25.57,7.27-2.71-18.72-22.01-11.68-18.22-6.65-16.4,9.69,8.08,13.29,10.09,9.27,4.48-6.06-7.65-5.53-8.7-14.71-19.44,24.19,21.06-15.46-21.69.85-8.43-9.02-12.53-.61-7.61-5.08-15.56-10.62-12.36-10.65-14.13-9.96-15.17s5.04,1.57,12.09,6.9c-8.95-12.41-1.52-8.42,1.52-8.81-3.31-6.74,1.05-5.8-4.82-15.08.73-6.08-3.37-16.96-2.41-22.72,4.28.91,1.14-5.58-2.26-12.32-1.49-4.84.72-5.96-2.54-12.54.81-2.52,5.8-.84-.59-10.54-1.6-4.91-4.16-10.77-4.01-13.9-.57-7.15-.36-13.48-3.37-23.01-1.38-7.9-2.79-15.8-4.22-23.69C12.66-251.73-26.42-416-39.22-584.31c4.98-56.56-23.22-29.88-60.78-25.28,7.15,17.24,13.12,35.02,18.92,52.77Z"/>
        <path class="cls-6" d="M998.92-556.82c63.34,217.69,93.83,448.52,86.02,675.61-.27,7.83-.58,15.66-.94,23.48-1.13,7.06-1.28,15.12-1.42,23.24,2.84,11.1-3.28,13.29-1.29,23.62,7.24,15.3-10.25,6.06-2.95,21.77-7.32,1.09-10.34,6.64-6.24,19.43-10.33-1.63-4.64,12.87-6.1,20.32-7.96.95-9.32,8.59-5.25,21.72-1.94,7.13-10.39,7.8-4.79,22.55,21.44,30.59,6.02,24.36-7.82,19.69,7.24,16.42,7.51,25.86-6.49,20.99-7.06,2.07-17.51.72-6.47,20.79,2.01,11.04-10.37,7.62-6.33,20.52,16.74,25.6,9.81,27.43-6.09,20.16,15.03,20.46-18.48-6.16-5.88,14.36-1.03,6.93-14.02,1.75-5.57,17.83,2.93,10.56-2.89,12.19-4.27,18.09-12.39-5.12-3.57,10.79-2.97,18.28-9.77-2.88-5.51,8.08-1.68,18.4-18.05-14.81-7.52-1.08-6.2,3.38,12.49,15.63,15.61,21.84,5.81,15.08-5.37.7-2.41,9.51.9,18.44-5.41.21-2.18,8.83,2.18,18.36-9.91-4.75-4.15,5.92,3.46,18.2,19.42,24.08,8.72,17.8,4.74,17.98,6.03,10.18-8.89-.84,6.01,17.68.77,4.18,2.36,9.57,6.05,17.43-.16,4-11.53-2.85,5.66,19.19-9.1-6.67-4.98-.05-4.2,3.31,5.25,7.83,13.66,18.9,9.47,17.44-5.25-2.52,12.31,17.85,8.01,16.41,2.24,5.11,6.99,12.8-3.1,5.7-11.65-5.65,6.73,18.97,4.56,23.26,12.37,15.6,5.01,11.53,5.23,15.08,4.65,6.32,11.91,15.25,8.43,13.46-1.07.62-3.19.21-9.43-4.32-5.99-2.56-.95,5.95,1.99,12.4,19.04,20.79,10.61,14.13,11.13,16.43-14.98-13.21-6.19-2.63-9.22-3.86-3.86-2.06-1.56,2.04,4.51,9.91,13.55,15.36-11.93-8.3-2.67,2.79,4.04,7.69,3.93,11.27,1.76,12.81.38,4.1-3.87,3.58,1.69,12.9,3.44,7.2,1.33,8.87,1.62,12.96,5.24,9.03,7.3,14.92,1.55,13,0,3.82-9.83-2.16,1.49,13.01,7.85,9.78,12.88,16.73,8.98,14.76,2.24,4.17,3.02,6.88-7.56-1.77,9.92,13.78,4.59,12.32,1.36,12.95,9.7,13.56-4.81,2.92,1.3,12.89-4.43-.57-16.65-8.94,1.25,12.8-2.27,1.57,10.84,18.51,1.19,12.68-9.25-7.34,1.18,4.99-6.26-.55,2.35,3.3-1.21.69-2.95-.1,4.4,5.35,11.81,13.7,10.35,13.19,1.01,4.79,14.88,22.43-2.45,8.83,8.77,12.51-3.06,4.4,4.57,15.72-5.95,1.43,6.28,20.92,1.93,23.68,5.38,12.5,1.8,15.88,1.75,22.61-1.32,5.46,6.53,19.91,1.59,21.34-4.05,2.32,4.79,17.31,1.45,19.86,4.11,10,.51,12.03,1.32,18.18,13.99,19.32,8.62,19,1.21,16.3-6.58-1.87-5.06,4.03,1.11,14.22,1.54,5.55-7.47.19,1.03,11.93,1.11,7.73,4.62,17.92,1.34,21.38,1.12,7.86,9.98,23.53.92,21.35,10.78,17.66-3.26,10.56.48,21.3,2.08,9.09-.51,13.57.02,21.26,8.09,15.24,4.18,18.56-.46,21.21-1.65,5.65,6.41,21.07-.96,21.15,12.24,19.69,2.51,17.48-1.49,21.09,7.75,15.35-4.22,11.07-2.03,21.02-4.32,3.44.17,15.78-2.6,20.94-.96,6.97-2.03,13.92-3.19,20.87-6.98,41.65-17.61,82.79-32.68,123.24-20.79,67.78-44.83,143.89-63.15,212.17,0,0,56.3,20.76,56.3,20.76,26.51-56.8,48.43-115.41,68.2-174.85,18.99-61.55,39.96-124.01,45.82-188.45.59-6.44,1.02-12.91,1.29-19.4,1.92-4.83.76-12.59.28-19.52-1.98-8.77-4.86-18.38-1.15-21.34,6.38-.28-5.91-19.18-1.49-21.3-11.69-18.23.96-12.07-1.8-21.25-7.48-13.9,1.27-11.53-2.1-21.22-5.84-12.16,5.13-7.46-2.38-21.18.36-5.86-1.69-14.08-2.63-21.15,2.1-4.03,7.49-4.72-2.87-21.11.11-5.93-.42-12.46-3.09-21.09-6.64-12.6,5.81-6.07-3.29-21.06-11.82-17.71.46-11.28-3.47-21.04-2.13-7.96-8.24-19.86-3.63-21.02-4.06-9.83-15.82-27.33-3.76-21-4.44-10.16-1.44-12.86-3.88-20.98-8.3-13.98-1.32-12.66-3.98-20.97,4.6-1.05-2.09-13.37-4.06-20.96,6.28.66-4.78-16.01-4.12-20.95,2.06-3.54,7.72-3.47-4.16-20.95-4.51-10.1-7.27-18.45-4.19-20.95,7.28,1.36-2.34-14.17-4.43-22.18,1.61-4.31-5.45-17.29-4.41-22.19-5.17-8.14-6.27-12.21-9.21-18.11-3.79-6.76,2.63-3.32,4.84-4.08,4.76-1.2-6.16-18.08-4.3-22.2-8.6-14.58,10.46-1.52-4.21-22.22,7.59,1.57-.41-12.48-4.09-22.23,1.97-1.06,2.8-3.28-6.97-16.1,2.46-.59-9.02-15.13,3.02-6.16-8.39-14.52,19.68,7.39-3.79-22.28-10.36-13.46-7.33-13.54-7.28-16.6,1.79-1.33-3.21-9.45,3.68-5.7.91-2.01-14.34-20.24-7.81-16.73-2.93-5.95-3.43-9.52,5.08-4.13-5.5-11.74.82-11.85-1.63-20.91.23-3.07,7.75,1.09,5.47-4.59,12.03,8.63-11.62-18.47-6.01-16.34,3.35-3.63-1.86-15.99.56-20.9.13-5.36-3.06-14.14,1.13-15.63-4.26-9.94-1.06-12.51,1.75-15.57-9.64-15.51-2.56-14.37,2.36-15.49.37-5.66-9.22-21.38,2.97-15.39.55-5.65,2.69-9.8,3.58-15.28,5.97-.4-4.79-17.61,4.2-15.14,3.38-3.14,8.16-4.97,4.81-14.99,7.88,1.21-10.61-24.03,5.42-14.82,21.04,11.85,6.51-11.85,7.63-19.9-16.63-25.79,2.96-15.34,7.43-20,.72-8.4-1.19-19.4,7.18-20.1-5.13-14.19,5.05-13.04,6.89-20.19,7.02-1.97,5.9-12.03,6.54-20.28,16.72,7.83,8.84-8.89,6.14-20.37,4.07-4.72,1.17-16.33,5.7-20.46,5.19-3.47,2.57-14.67,5.2-20.55,5.56-2.95-1.09-18.03,4.66-20.63,9.37,1.03.84-15.77,4.06-20.71.33-7.84,2.39-13.85,3.42-20.79,7.19-48.6,8.7-97.83,1.71-147.54-26.64-223.12-90.44-440.35-107.5-664.77,4.98-56.56-23.22-29.88-60.78-25.28,7.15,17.24,13.12,35.02,18.92,52.77Z"/>
        <path class="cls-6" d="M337.55,279.52c-2.49-4.24-16.71-20.23-11.27-16.58,6.02,4.23,9.92,6.32,2.84-2.59-7.25-10.92-13.04-20.48-8.05-19.36.15-1.79,5.39,1.5,7.41,1.52,1.63.63-3.41-5.41-6.24-9.25.76-.25-1.99-4.01-8.76-11.81,4.83,2.78,5.3,1.18,5.29-.94-.93-3.03,2.4-1.84-12.35-18.76-8.16-10.32,2.1-2.26,3.65-2.95,11.4,10.29,12.66,10.42,3.53.16-7.05-8.19,1.92-.35-13.65-17.07,4.83,2.53,5.98,1.34,4.62-2.38-7.82-10.19,3.09-1.68-10.4-17.62,14.67,9.79-4.11-14.02-5.03-20.13,9.27,6.68-6.82-12.05,3.75-4.15-7.23-9.91-4.84-10.23-7.96-16.1,2.09-3.42,2.98-8.22-3.3-20.36,4.35-1.51-6.13-18.03-2.33-20.46-.39-5.06-3.01-12.46-2.15-16.49,6.76,1.87-.55-10.44.66-14.35-4.68-9.79,1.76-8.59-.68-16.38,3.84-1.51-7.98-18.8,1.8-14.61,10.2,4.6,3.7-7.62.83-16.33,6.36.52-.75-12.58,3.16-14.78-2.61-8.72,1.97-10.39,3.15-15.59,1.18-5.2,2.5-10.4,3.96-15.6,10.04-109.82,37.06-216.29,58.14-324.26,19.48-71.68,22.58-152.75,66.66-214.64-85.61-29.75-43.12-3.9-65.08,59.79-37.6,159.31-127.65,310.41-125.64,476.78,1.64,7.69,3.14,15.4,4.54,23.14,1.39,7.74,2.67,15.5,3.85,23.28-.38,6.22.85,14.17,3.25,23.4,6.09,9.51-4.9,1.95-3.01,7.31,10.87,14.33,11.28,18.23,5.74,16.2-10.62-7.11.26,7.3,1.9,12.49,7.6,11.15,15.05,22.17.4,11.1-4.9-3.11-.52,3.08,6.28,11.68-3.2-1.4,5.09,8.7,6.03,11.44.06,3.68-4.65,2.61-10.36.54,14.49,18.14-7.78-.47-4.31,6.67,5.84,9.51,1.61,8.97,5.99,17.04-.98.87-13.82-10.13-18.35-12.8-8.5-6.65-.69,3.01-.88,4.68,13.84,15.69,8.41,12.12,4.62,10.19-5.44-4.51.5,2.36,6.52,9.31-1.51-.58,23.38,25.24,9.58,12.37-4.45-2.59-11.93-8.21-6.45-.87-1.19.67-1.23,2.5,10.47,16.06-7.98-6.11,11.14,14.87,6.19,11.78,3.76,5.62-5.03-1.3-8.81-3.21,14.61,16.48-2.28,1.45,8.45,14.04,3.69,5.55,16.59,20.32,4.23,9.82-7.39-3.67-8.42-.97-11.3-.12,7.24,14.69-8.88,5.99,1.45,23.72.77,4.47,2.3,9.69,6.25,17.32-11.44-10.52-15.96-14.12-16.67-13.91s2.37,4.21,6.14,8.89c2.95,3.87,4.45,6.28,10.35,13.1-.86.06-1.68.15-4.47-1.73-4.62-2.79-8.92-5.26-9.51-4.04s2.5,6.14,12.67,18.13c4.72,5.02-6.85-6.25-10.84-9.93-3.29-2.98-6.19-5.59-8.57-7.66-14.25-12.44-13.83-10.21-5.85-.43,2.66,3.26,5.78,6.99,9.67,11.48,7.55,8.15,14.71,15.91,14.26,16.06.12,1.02,4.97,6.77,13.72,16.41,9.42,10.32,12.48,14.28,9.67,12.36-4.35-2.56-1.19,2.39-14.39-9.03-4.67-2.89,2.12,5.68,1.32,6.65.9,2.68,7.87,11.4-8.17-2.87-3.53-1.77,9.17,12.69,7.37,12.64-7.56-5.81,1.93,5.42-8.09-2.86-3.59-1.85-7.64-4.17-9.37-4.17-7.24-5.51,6.02,9.47,12.65,17.82,7.38,10.81.11,6.95,7.79,18.01-.42,2.96-10.44-3.71-4.75,5.3,10.63,13.95-3.64,2.98.41,10.28-4.69-1.43-8.92-2.43,3.2,12.89,4.32,5.12,7.83,9.42,10.57,12.96,2.75,3.54,2.85,4.44,6.02,8.4-4.25-2.67-2.97.18-.33,4.39-3.54-.42-11.8-5.58-12-2.74-12.69-9.63.68,6.74-5.92,3.12,5.81,6.55,10.42,11.91,13.36,15.59-.48.26-1.5-.03,3.33,5.54-4.05-2.59-4.43-1.5-5.78-1.41-12.99-7.21-.84,10.56,5.82,22.64-10.65-9.3-7.53-4.83-3.48.55,1.43,2.77,16.99,19.64,2.08,6.04,2.48,3.79,2.67,5.27,12.76,16.65,6.3,7.58,3.28,5.84-4.64-.82-1.44-.18,1.68,4.19,12.84,16.58-1.52-.28,9.52,11.98,4.46,8.12,1.17,3.58-2.15,2.63-9.59-2.51,17.01,19.32-14.35-9.79,8.24,14.99,16.09,18.29,10.69,15.02.54,6.95,21.88,26.04,24.27,32.34,9.93,21.67,2.63,6.29,22.1,29.18,11.17,21.38-12.58-9.45,25.44,31.45,12.49,21.08,2.73,5.33,13.08,18.98,4.76,14.59,24.19,28.12,2.28,10.75,1.44,14.99,13.41,18.48-11.87-1.2-1.33,15.37-2.6,3.44-2.86,9.64-3.56,15.75-10.04-3.24-8.46,5.49-5.24,16.12-2.04,5.35,10.18,25.23-6.37,16.48,3.86,11.66-8.96,6.8-6.96,16.83-7.66.36-16.5-.39-6.99,17.17-15.15-5.95-.57,17.81-7.34,20.03-5.44,3.46,4.45,22.32-6.49,20.41-9.77-.74-19.63-1.51-6.84,20.41,1.97,6.54.36,9.5-7.62,6.11,10.8,15.39,4.19,13.37.54,14.32-11.57-2.37-7.46,10.96-7.2,20.45-.33,8.9,5.17,23.63-7.2,20.49,2.45,7.07,3.55,12.77,3.14,16.97-8.23-3.63-9.33-.13-10.23,3.57-4.52,4.66-10.01,8.34-6.86,20.6,11.15,20.26-4.08,14.11-6.51,20.68,3.53,8.03-7.14,1.85-6.04,7.42,7.55,12.02-1.89,7.03,0,13.35-.82,8.05-4.25,13.4-5.48,20.86-7.39,1.3-.47,16.81-4.78,20.97-6.23,2.25-3.98,12.87-3.98,21.1,13.97,18.08,10.7,18.9,4.58,16.83,8.16,12.21.63,8.7-6.66,5.38-4.77-.79-10.88-2.96-6.3,5.52-11.13-7.23,9.61,17.37,3.3,14.88,5.87,13.51-2.53,12.58.31,22.71-2.58,4.71-1.35,13.05-.76,20.54,6.16,7.63,11.55,14.5,10.2,14.64.91,2.4,1.28,4.27-3,1.49,3.28,6.3-7.06-.98-1.91,7.27-.95,5.25,10.34,22.9,3.91,22.96-5.49,1,2.26,15.38,3.43,23.29-8.21-5.05,2.54,8.89-.43,9.13-6.45-3.23-3.87,2.57,5.13,14.83-8.86-2.34-4.73,8.39.06,19.86,2.36,9.03-4.01,9.42,1.35,21.59.65,7.46,1.38,15.05,1.81,22.39,5.15,88.06,4.66,176.6,22.52,263.22,18.11,71.39,44.19,141.67,85.17,203.29-1.29,20.49,64.89-16.66,60.7-19.47-13-160.97-109.44-304.43-130.57-461.26-1.01-7.47-.93-14.05-2.49-22.5-6.04-12.93.36-13.63-1.93-23.27,7.11-.24,8.49-6.45.44-22.35-3.58-11.96,3.59-13.17,3.69-21.46-2.8-11.18,5.26-11.5,3.22-21.93-15.65-24.03,3.14-13.63,4.61-20.56,7.86-.54-2.79-19.58,4.34-20.86,1.5-2.71,3.78-4.63,6.25-6.36,8.12,3.92-11.12-19.54-1.55-14.17,5.93,1.72-4.22-12.65-2.68-15.32,9.4,5.18,8.61.18,8.51-4.14,3.49-4.95,5.45-11.44,5.71-19.63,7.09-.67,9.1-6.42,7.04-16.26-15.83-23.61.57-14.99,3.98-19.38,10.68,2.88,6.96-8.65,5.54-17.9-9.42-17.24-13.36-29.03,5.88-17.64-13.37-21.22,1.51-14.21,5.75-17.86-2.62-10.51,3.13-12.65,5.71-17.99-9.02-16.94-4.37-20.22,5.64-18.17-11.63-19.59,1.09-14.84,5.52-18.41,16.48,8.48-5.45-21.46,5.35-18.69-13.31-21.35-18.59-34.68,5.14-19.03,13.87,5.79-12.25-28.43,4.89-19.42,2.62-5.51.92-15.36,4.59-19.86.55-5.38-2.49-14.34,3.11-14.69,23.15,17.22,12.75.87,3.17-14.67-27.1-33.06-6.91-18.83,3.24-14.66-2.32-8.29,16.6,4.65,3.3-14.64,4.94-1.05,5.23-6.76,3.38-14.62-16.12-22.12-13.66-25.69,3.45-14.6,6.8-.03,7.91-5.62,3.52-16.6,8.63,2.04,7.82-5.24,2.66-16.74.58-5.76-5.44-17.99,1.8-16.84,9.55,3.47-11.63-23.66.93-16.91.49-5.32-3.49-14.97.07-16.95-.22-5.75-4.09-15.01-.8-16.95-13.79-18.87-1.64-12.07-1.71-17.71-12.02-17.59-6.3-17.68-2.64-19.97,1.97-1.01-8.69-14.68-7.04-16.09,8.78,5.73,1.05-5.09,3.59-5.65.43-1.12,3.83.71-13.75-18.43,17.96,16.39-5.31-8.45-1.17-5.88-1.66-4.81,5.72-.59,10.77,1.28-.34-3.52,23.65,17.29,2.57-6.97,11.23,9.64-14.58-17.77,4.46-.32-14.29-15.88,2.96-.22-11.76-16.53-1.13-4.31,14.28,7.93.42-9.1-11.42-14.58-35.78-42.08-5.61-15.04-21.69-24.81,7.78,1.55,1.27-8.02-15.28-18.35-2.98-9.1-6.81-15.93,23.61,20.61,7.65,1.68,2.81-6.09-14.46-17.39,28.75,22.95-8.57-17.19-16.53-19.35,20.21,14.62,2.55-5.76-22.55-25.26-8.67-14.03-8.42-16.36,7.52,4.94-5.02-10.11-10.13-17.66-2.48-3.7-11.59-14.01-6.5-10.1,1.25.06-1.78-4.12,10.77,7.29-11.56-16.11-13.6-22.38-5.73-18.34-15.91-19.73-.46-7.72-5.49-15.71-8.26-11.23,4.86-.62-11.15-18.62-9.72-11.71,3.74.27,1.38-2.97Z"/>
        <path class="cls-6" d="M521.84,483.63c-6.97-8.61-31.86-35.29-10.38-15.76,12.27,10.33-20.68-24.72-9.64-15.93-16.62-18.86-1.49-6.12-8.93-16.09-2.69-5.22,3.15-2.06-8.22-16.24,7.88,4.13-20.98-28.73-9.91-21.88,7.99,5.88-23.31-27.6-.67-7.2-24.15-26.39-10.93-15.45-8.84-15.71-2.18-6.87-25.7-35.32-6.83-21.58,20.49,17.92,2.72-2.47-5.42-13.29-25.27-27.94-8.33-13.73-1.34-9.52,17.17,11.61-10.94-22.26-5.25-22.54-13.76-19.23-5.76-16.86-4.15-21.04-9.4-15.19-8.19-19.93-3.34-21.18-2.96-9.06-15.87-28.22-2.57-21.32,2.58-3.82-13.93-26.86-1.83-21.44-17.77-24.44-3.46-16.94-1.13-21.54,3.55-3.38-2.77-16.77-.45-21.64-7.11-14.29,12.26-2.23.19-21.72-10.57-17.99,10.67-4.28.79-21.8,6.7-.94-10.66-26.04,1.37-21.86,27.87,20.03,19.02,3.24,1.91-21.91-4.99-13.02-10.83-26.98,2.42-21.94-1.98-10.18,28.61,12.11,2.89-21.97,7.88-.48-.94-17.74,3.33-21.98,14.28,5.77-2.78-19.87,3.74-21.99-.78-9.42,3.49-13.85,4.11-21.98-2.24-11,2.92-14.64,4.46-21.95,12.31-58.5,27.91-116.65,43.98-173.44,17.57-93.3,25.4-188.53,47.47-280.98,7.68-30.97,16.91-61.71,31.05-90.5,0,0-58.77-12.08-58.77-12.08-3.35,177.81-96.57,339.54-125.45,513.56-4.74,17.34-8.61,34.71-11.67,52.11-1.02,5.8-1.95,11.6-2.79,17.41,1.31,7.95,5.67,18.87-2.26,17.42-7.12-.65-6.1,6.76-1.75,17.42-.79,6.78-13.86,1.16-1.44,20.91,10.72,18.06-4.73,9.82-2.56,19.09,12.38,19.48,10.92,25.01,1.75,22.72-6.08.8,3.23,16.88.53,20.84-13.36-6.7-6.52,6.69,1.24,20.9-36.01-29.57-21.8-9.01,1.8,20.83,6,12.24,26.23,38.61,2.38,20.79-4.15,2.44,15.78,28.84,3.23,22.64,2.6,5.78-3.88,2.45-3.63,5.82,4.57,7.69,24.08,30.29,7.24,16.52-3.7,2.43,5.25,17.4,4.69,22.75,20.27,23.23,18.75,24.63,7.42,16.2-9.94-7.03-16.14-10.36-1.6,7.03,5.97,11.67,8.16,19.45,4.76,21.55,10.45,15.95,12.11,23,5.35,21.54-20.05-14.75,13.46,23.96,7.24,22.85-26.04-20.93-.59,9.54,7.81,22.87-16.01-11.08,21.2,30.97,6.55,21.07-18.41-16.03,10.21,14.95,3.66,10.73,12.27,14.6-32.46-27.81,5.61,12.55-27.84-23.25,1.25,10.34,6.61,20.14,6.69,8.9,14.89,19.3,6.03,12.62,31.69,33.87,45.09,49.42,4.78,11.25-29.84-25.56,20.72,29.2,6.35,18.96,23.27,27.4,19.36,27.56,8.99,21.18,13.2,16.2-18.62-12.66,6.89,15.77,9.32,12.25,26.52,32.33,7,15.67-14.01-11.16,28.19,33.86,7.11,15.56,12.21,15,14.64,20.18,7.2,15.45,14.12,16.77,9.72,16.33,8.21,19.82,16.52,21.52-8.53,2.53,2.62,20.56,4.38,11.25-36.99-22.42-1.74,21.09-20.12-11.85-9.41,7.7-4.87,21.42,18.8,27.98-6.17,12.53-6.77,21.55,15.41,25.03,23.5,42.83-7.44,21.47-17.72-8.15-2.28,16.72-6.87,21.18,15.32,24.37-4.59,13.13-5.07,20.69-2.84,3.36,9.78,22.12-4.83,13.62-13.54-7.44,3.74,15.92-4.72,13.48-14.54-8.51-5.53,6.48-4.62,13.34-4.25,1.7,26.54,38.39-4.51,13.21-3.92,1.95,16.99,28.68-4.4,13.07,2.1,4.99-.21,5.57,4.48,13.12-12.57-9.69,3.23,8.96-8.76-.18-5.14.56-22.84-11.47-4.17,12.82,10.33,15.96-1.9,9.31-4.06,12.7,14.54,17.32-22.15-16.61-10.78-2.49-8.93-6.17,26.76,32.26,6.84,15.08-10.1-4.63-18.58-7.68-3.83,12.47,14.28,19.68-21.77-11.02-3.71,12.36.18,5.5,9.01,19.62-3.6,12.25,15.76,21.01,2.52,12.98-3.48,12.15-6.68-1.51-10.43-.11-3.36,12.05-24.58-19.48,1.57,11.73-8.25,6.95,9.15,14.18,4.39,14.41,1.89,16.87,3.97,8.93,5.18,15.07-8.01,6.76-11.28-6.39,8.61,18.35,2.13,16.7,2.37,7.19-7.53,2.08,1.53,15.89-24.97-20.22-16.08-6.61-6.91,7.24-3.73.96-10.6-1.27-8.67,5.29-13.43-8.81-4.21,5,1.89,15.65,13.09,17.64-15.76-6.69-4.85,8.71-22.08-17.6-.45,8.5,2.37,15.74,13.49,17.91-16.24-7.42-7.01,6.17,12.63,17-6.11,2.58,2.25,15.24-10.89-6.59,6.54,15.11-6.2,6.61-4.65-.41-1.19,7.26,3.77,16.39-2.28,6.08-7.06,9.53-2.8,21.91,7.62,15.43,2.01,17.52-2.12,20.98,3.8,11.4.67,15.75-1.74,20.73-.47,6.91-.86,13.81-1.17,20.7-6.97,158.37,31.74,310.29,129.66,506.34,24.94,55.89,12.65,33.76,66.27,1.16-135.37-156.39-156.23-314.83-136.09-480.63.92-7.54,2.39-14.61,3.71-21.94,4.6-4.05.76-16.62,2.74-23.47,6.04-2.78,14.6-3.14,3.67-23.07,6.47-2.52-9.34-27.41,4.49-22.73,14.3,5.15.1-18.27,4.76-22.9-4.64-9.28,9.13-.18.11-13.87-1.33-6.01,28.37,18.99,4.65-9.43-4.85-9.56,3.43-6.01,6.57-7.6-16.25-20.99-5.18-14.67-.54-14.8-2.2-6.97,17.37,7.82,3.87-10.48,16.73,11.93-12.43-22.03.66-13.76,14.77,9.95,15.85,6.2,4.22-10.27-.38-5.22,10.59.89.57-13.99-9.4-14.27-5.42-15.16,6.4-8.23,16.21,11.32-6.28-16.06.08-14.61-8.87-13.77,17.83,8.02,4.77-9.97,17.39,12.47,2.75-7.11,1.03-13.76.56-9.31,6.93-12.85,5.85-23.86-4.9-9.87,2.3-7.64,7.86-7.05,24.05,19.08,2.65-7.3-1.99-16.93-5.33-10.32-8.06-18.04-7.37-22.33.7-4.3,4.82-5.17,13.2-1.78,2.98-3.57,11.17-2.28,4.39-16.27,4.49-2.72,5.69-9.04,4.52-17.94-20.88-28.62,7.67-8.04,4.57-19.26-3.67-11.8,19.64,3.24,4.53-20.23,4.09-4.27,4.06-12.74,4.4-20.84-9.18-17.63,3.64-13.26,4.19-21.1,18.44,10.05,5.09-11.63,3.89-21.01,19.82,11.63-7.71-23.95,3.51-20.57,20.23,12.39,12.44-3.03,3.04-19.77-1.81-9.15,19.03,4.63,2.49-18.62.46-6.25-10.01-23.06,1.85-17.12-18.95-24.87-33.64-45.04,1.13-15.26-10.39-16.07-2.92-13.96.13-15.94,4.84-.19-28.54-38.3-1.14-15.32-6.4-10.82-7.56-16.1-2.17-14.55.67-3.17,28.23,20.84-2.96-13.63,3.25-.03,7.71,1.41-3.51-12.57-1.6-4.37-13.27-18.54-3.82-11.37-5.01-9.56-23.27-31.42-7.61-18.54-6.36-11.93-.03-7.87-8.39-16.23Z"/>
        <path class="cls-6" d="M631.41,430.59c-7.32-11.74-10.05-19.05-8.7-22.44-7.41-9.78,2.05-2.72-8.86-16.08-9.92-12.36-6.4-11.32.95-6.49,1.26-1.26,10.81,5.73-.26-7.93-11.19-13.79-12.66-17.89-6.87-14.76-4.96-10.3-2.23-13.04-6.38-22.81-4.63-7.44-6.5-12.16-7.29-15.83-5.03-7.92,5.18-.61,1.65-7.1,4.2-1.7,1.97-9.97-4.93-23.03,27.24,24.15-1.88-8.08,4.74-4.61,11.9,8.75-1.53-7.86-8.98-18.52,18.85,15.63,4.61-1.85,3.9-5.84-4.38-7.66-1.01-7.59-7.47-17.39-6.04-12.71,9.3-4.17-2.92-23.31,1.28-2.17,7.54.6,3.7-6.75-6.34-8.1,27.6,24.07,3.95-1.35-3.18-4.95-.09-3.64-9.95-15.28-9.55-13.12-6.89-14.06-3.68-14.48-1.67-5.3-7.53-14.82,1.99-8.98,20.12,18.28,1.14-2.55,12.27,6.73-4.09-5.95,3.25-.46-8.67-14.25,15.95,12.22-15.65-23.15-4.71-16-14.9-18.69-8.39-15.99-1.6-13.04,2.93,1.01,8.34,4.49,8.78,3.01.73-1.21-1.98-5.85-8.54-14.36,1.76-2.13,9.72,1.92-4.43-16.18-6.99-8.95,1.03-2.91,10.26,4.33,10.63,8.64,1.41-2.56-5.01-10.97.37-3.62-16.04-24.04-3.1-15.12,4.15.11-.03-8.12,3.82-8.34,1.32-.71,2.63-1.45,7.9,1.77-2.87-4.92-2.31-6.42-7.59-13.75-2.23-4.29-3.18-7.31-7.73-13.93,6.48,4.41-9.46-13.6,8.23,2-1.93-4.01-2.07-6.24-7.57-13.83-4.71-6.8-2.58-6.77,6.25-.04,2.45,1.93,13.62,12.56,16.39,14.82,1.27.75,8.73,7.67.3-1.28-8.76-9.82-12-14.11-8.56-11.73,2.32.21-7.67-11.9-6.06-12.42,1.49-2.76-5.69-14.21-2.3-15.1-10.3-14.59-.26-8.85,4.99-7.93-6.5-10.83,1.28-7.39,4.72-8.31,9.02,4.66-4.24-12.98-2.05-15.19.04-4.35,2.57-6.24,1.57-11.67-1-5.43-2.1-10.99.96-12.39-6.28-10.74-2.88-11.83-1.76-15.21,7.35,2.85-.88-9.89,4.45-9.09,1.3-7.76,2.83-15.35,4.08-23.28,25.03-158.57,73.5-316.42,117.19-464.45,20.93-55.28,3.51-31.79-46.78-51.77-22.05,94.31-46.38,200.14-67.08,294.75-16.7,71.62-30.39,144.5-39.17,217.87-.88,7.34-2.15,14.24-3.15,21.37-4.25,3.88-2.52,13.68-1.52,22.71,3.16,11.19-13.76,2.25-2.94,20.99,5.02,8.99,4.71,12.63,3.24,15.09-1.47,2.47-4.1,3.77-3.7,8.07,3.83,7.74,10.91,18.72,4.57,16.26.11,3.99-3.5,4.25-5.16,6.44.06,3.92-1.75,5.94-5.1,6.42,4.92,8.75,1.51,9.14,3.65,15.08-13.71-6.11-5.5,9.63-.32,22.27,7.76,15.23-4.42,10.45-.27,21.95,5.45,9.33-2.03,5.73,6.1,17.7,2.42,6.27-13.59-5.91-5.8,5.7-10.83-8.93-12.42-8.61-5.19.51,5.23,7.12-3.59.2,8.64,14.32-8.08-4.31,5.11,12.64-2.7,8.56,8.5,12.23-1.76,5.68-2.89,8.25-5.77-2.07-1.23,6.14,4.09,15.11,3.57,10.88-.33,14.2,1.68,23.34-.51,3.06,10.15,17.27,5.11,15.75,13.56,17.09-17.59-10.56-2.94,7.57,11.3,15.94,4.67,13.92,1.72,15.52-10.43-5.87,10.74,19.83,1.94,15.51-5.24-.76-15.59-6.68,2.17,15.49.93,5.33-1.08,7.67,2.41,15.47,13.11,17.42-17.66-9.08,2.64,15.45-8.91-4.69.68,9.08,2.89,15.42,8.23,13.17,10.02,19.79,3.64,18.15.82,5.56,6.13,15.52,4.07,18.03.11,4.67-7.36,1.67,4.48,17.91-1.62,2.77-9.01-.31,4.86,17.8.71,4.95-1.54,6.85,5.22,17.69-.12,3.96-.2,7.91,5.54,17.59,13.77,17.72,9.34,17.18,5.84,17.5-5.55-1.72,4.56,12.15,6.11,17.42-7.47-5.61-1.07,2.63-1.66,3.87-.27,1.56,2.43,6.08,8.02,13.48-16.97-15.16-18.59-14.99-2.36,3.02,6.06,7.85,20.42,23.97,8.94,14.25,8.46,11.22.04,5.75,4.85,13.66,12.07,13.63,11.62,14.77,10.37,15.15-3.92-2.28-10.62-7.31-6.32-1.29-.88,2.55.23,7.26,3.25,14.04.79,4.54,24.65,32.31,2.45,14.17-.85,4.56-3.52,7.57,2.03,19.05-5.39.55-5.14,6.98.6,19.15,11.85,18.28,2.27,15.37-.84,19.17,9.11,16.01,10.51,24.54-2.27,19.1-23.23-15.89,14.12,29.02-3.71,18.96,8.83,9.18,23.04,23.62-.13.54-6.92-1.93-.31,9.67,1.31,16.27-16.9-11.92,1.22,11.19-7.46,7.48,1.76,6.74,6.94,16.89,6.52,21.43-.14,4.83-6.09,3.84-12.52,2.37,2.45,7.41,10.71,20.63,7.32,22.19-3.86,1.09-4.33,5.57-13.16,1.67,5.12,10.06,8.54,18.41-.15,14.66-1.77,3.16-9.61.24-5.51,9.25,20.7,23.16-1.24,3.68,7.36,14.73,6.06,8.51,28.79,33.7,1.37,8.73,3.68,8.59,2.65,12.45-14.2.49,13.07,17.97-3.43,6.35-5.27,9.38-9.14-4.26-9.24.51,0,14.61-13.14-8.28-3.24,6.48-9.78,4.78,3.05,7.9,16.45,26.14,4.73,19.25,10.04,14.87-22.07-12.42-.17,14.31-.22,4.6-31.01-21.38-4.66,9.76-12.3-7.5-10.65-1.06-2.7,11.67,17.04,21.82,18.3,27.85-1.89,12.43,20.35,29.88,22.88,41.89-4.33,24.12,18.56,27.48-6.53,11.27-3.85,22.8,1.82,10.67-4.11,13.54-3.6,22.81-7.41,1.36.47,17.96-3.34,22.82,3.92,12.6-3.85,13.47-3.07,22.83-8.01.58-3.99,13.15-2.8,22.84,3.76,12.25-18.5-1.55-2.51,22.84-12.41-4.01-20.86-4.11-2.2,22.84,24.58,32.88-11.98,4.55-1.89,22.83-14.88-6.69,6.16,22.48-1.57,22.82-12.54-4.46,3.81,19.9-1.24,22.81.07,8.02-.65,15.2-.89,22.79-6,189.87,24.89,377.74,120.42,554.69-.52-.18,47.35-39.46,44.99-39.25-37.96-29.62-62.14-73.58-80.91-117.28-48.3-125.64-62.72-259.62-55.13-393.16.45-7.86,4.22-12.45,1.56-23.56-6.78-15.23-6.06-23.02,2.01-23.54,1-7.59-5.46-22.69,2.43-23.51,3.23-5.48-5.65-23.13,2.85-23.47-3.23-12.06-.42-18.14,3.25-23.42,18.26,9.32-15.21-33.15,3.63-23.35,2.62-6.43,3.22-14.92,4-23.28,20.25,11.11-3.61-21.93,4.35-23.2-16.82-26.04,4.89-13.61,4.7-23.1,26.13,16.82-18.37-37.02,5.02-23,6.87-2.5,7.04-11.74,5.33-22.88-2.05-11.48-18.56-37.46,5.63-22.75,11.92,2.43,14.37-4.63,5.91-22.62.9-5.24-1.46-13.74,3.78-14.64,28.05,21.91-.22-12.51,3.81-14.63,8.74,2.59,3.7-8.61,3.84-14.63,13.85,7.69,1.36-10.97,3.87-14.62,2.41-3.76,18.29,5.95,3.9-14.61-10.75-16.92,4.38-7.98,3.93-14.6,7.13-1.05,17.74,1.49,4.81-19.39,1.69-6.26-.03-15.81,3.98-19.52-6.82-14.54,2.16-13.15,3.16-19.62,8.88,1.41-10.89-25.7,2.33-19.69-1.04-8.25,5.73-8.56,1.5-19.74-6.5-13.45,2.79-10.97.67-19.76,16.12,9.44,18.23,5.02-.15-19.76.08-6.31,2.26-10.38-.98-19.72-4.65-10.75,10.92-1.13-1.81-19.67,4.08,1.18,3.53-2.23,6.45-2.14-3.84-6.66-7.84-13.45-9.08-17.44-6.03-9.08-5.81-11.86-7.78-16.79,5.72,2.77-1.57-7.43,3.88-4.84,3.67.81,2.93-2.73,2.64-5.78,18.39,15.63,4.71-.75-7.55-15.67-12.26-17.56-5.12-15.53-5.93-21.24-14.26-15.48-13.84-16.27-11.25-14.88,7.63,6.44,10.93,8.55,2.98-.57-10.91-13.25,16.67,12.04,1.32-5.54,11.03,6.57-9.01-17.73-7.97-20.71,12.1,11.87-.8-1.25-.47-1.15Z"/>
        <path class="cls-6" d="M793.56,345.87c1.07-1.21,10.91,6.38-8.64-15.42-16.89-19.13-4.46-8.92,3.53-3.14,10.9,8.69-3.42-7.82.03-6.54-5.66-7.83-14.57-18.9-4.93-11.39-5.37-9.65,2.27-6.21-4.69-17.32-29.7-33.85,4.05-4.17-4.49-16.72-18.65-22.66,7.23-.72-4.29-16.12-7.16-9.1,4.25.39,5.53-.25-28.79-30.7.38-3.42-9.61-15.29,8.9,5.14,23.09,15.65-3.89-14.97,20.75,17.11-15.27-22.47-3.7-14.41-14.01-14.89-10.74-12.49-13.63-16.25-8.44-9.31-8.41-10.14-3.77-6.37-2.83-4.56,16.42,12.98,13.89,8.76.95-.75-8.43-11.81-4.19-9.24,22.99,21.32,9.75,6.43.87-4.09-8.23-11.51-9.04-15.54-3.14-12.81-4.47-7.64-6.72-13-2.96-12.3,9.44,8.29,13.3,11.02,11.74,8.32,7.23,6.1-6.2-8.45-8.65-12.03-8.82-11.06-3.67-8.11-7.19-13.8-4.13-6.31-4.78-9.1-10.13-16.57,8.21,6.09,4.4.19,6.42.15,20.31,18.25,14.98,10.88,5.47-.63-13.95-15.95-3.22-7.2-8.8-14.74-4.03-7.94-21.83-29.54-2.96-14.36,4.64,2.79-11.45-15.12,6.78,1.31,1.5-.3-14.72-18.29-9.38-14.71-26.69-28.44-8.1-11.57-12.12-17.29.67-1.03,10.99,7.61,9.86,4.83-12.15-13.81-19.48-22.76-12.06-16.95,10.79,9.18-6.09-9.28,1.28-3.48,7.66,4.53,1.62-4.55,7.27-1.86,2.03-.93-4.63-10.47-8.62-17.27,12.39,9.58,3.06-2.47,6.4-1.78,2.84-2.47-13.6-23.92-1.02-16.11.99-4.57,1.42-9.35,1.74-13.97,4.56-.37-2.4-11.99.08-13.94,1.51-7.36,3.86-13.01,6.88-17.6,30.23-45.88,127.76,13.88,122.09-483.68-6.28-78.7,30.82-85.78-58.59-73.13,20.19,100.43,27.05,203.99,21.05,306.21-7.66,72.13-10.62,176.5-87.49,196.91-17.14,4.55-32.06,14.82-42.61,28.74-3.52,4.64-6.55,9.68-9.01,15.06-9.11-.97,3.31,19.55-6.92,17.37-3.01,5.03-.3,15.74-5.43,18.55-9.7-5.73-7.92,0-8.13,3.73,8.7,12.64,3.5,11.37,3.18,14.96,2.27,10.1,5.29,20.88-1.77,21.53-15.82-11.97.94,8.63-5.98,5.53-7.41-5.5-9.52-5.7,6.97,12.69,12.35,14.25-8.64-4.84-2.81,2.88-5.46-1.67-.82,6.74,3.08,14.39,3.91,7.67,7.16,14.65-2.99,8.22-6.85-4.99-10.61-6.9-9.57-4-11.72-10.79-2.92-1.07,1.27,4.04,3.62,4.55,1.12,2.96,12.46,15.23,12.3,15.98-13.49-6.14-3.36,7.65,15.42,19.07-11.84-4.56,2.54,13.44-6.62-4.81-.63,2.97,9.41,14.82-8.15-6.35-9.78-6.19-10.15-4.77-20.62-17.04-1.74,5.4-2.4,8.27,1.64,5.18-1.78,5.27,5.13,15.68-6.07-2.57,2.76,9.73-2.56,7.87,24.07,27.52,9.75,16.64,6.14,16.44-9.32-5.9-4.18,2.63,2.73,12.92-4.72-1.35-1.65,5.07,1.61,11.67-17.54-15.87-6.65-3.32-1.72,3.26,3.03,4.69,10.63,13.93,4.15,9.1-4.21-2.57-3.82-.53-7.37-2.46-1.96-.33,7.49,10.75,9.97,14.85-.64,2.6,10.71,17.17,2.75,12.41,7.19,8.79,4.94,8.13,1.38,6.16-6.09-4.51-12.35-9.18,1.51,6.25,3.56,6.71-6.93-.65,3.02,12.4-1.79-.23,12.32,15.42,14.36,19,2.7,4.24,5.07,8.14-11.22-6.62-2.67.39,8.75,14.83,3.25,12.34-6.27-3.26-5.97.02,3.35,12.29,6.19,9.14,8.24,14.13,3.45,12.23-4.6-1.69,10.46,16.24,3.53,12.16,11.65,14.5,2.4,8.08,3.6,12.08-11.33-10.63-4.66-3.26-16.71-14.62-1.47-.77,7.36,8.75,1.66,3.74-7.09-6.39-5.02-3.64,2.82,4.9-5.34-4.65,21.12,22.5,15.89,17.96,17,19.75-1.43,4.04-.06,8.09,4.94,7.63,19.26,24.62,7.53,15.52,4.52,7.16,9.85,15.09,10.55,18.38,10.99,13.57,7.78,12.91-2.96,4.69,18.14,20.67-15.52-10.5,5.15,12.63,16.32,18.78,9.96,14.86,2.48,9.79,16.82,18.03-.38,2.02-.7,2.89-2.93-1.75-19.52-17.15-2.33,1.21.93,3.28-6.41-1.75,10.63,17.58-11.18-10.04-5.85-3.57-9.8-6.39-4.22-3.09-6.84-4.59,10.61,13.97,12.63,13.74,1.42,3.64,12.88,16.2.33,1.43-.49,1.69-6.21-2.95,5.4,6.43,13.99,16.04,11.52,14.6,13.02,14.05-10.81-8.74,3.95,7.06-15.64-13.56-13.16-8.98-8.64-2.34-8.39-7.33-10.58-8.45-5.9-2.71-.02,1.05,10.51,12.65,1.38,4.61,2.16,2.7,11.61,12.69,12.17,13.79,19.42,19.96,1.27,2.36,3.82,5.44-.59.5-6.4-4.22-4.98-1.7,1.33,3.53-11.67-7.26-.68,5.96,9.12,11.35,6.4,10.88,6.82,13.58-1.51.57-14.55-10.37-2.06,4.23-2.07.04.71,4.95,7.38,13.76,10.49,14.78,6.3,14.94,5.02,18.08,4.85,9.27-7.95.94,4.72,18.15-8.09-5.82-2.1,2.46,5.2,12.06-5.83-3.53,3.16,7.78-.78,6.17-5.1-.44-6.65,2.74,4.11,18.3-6.75-4.36,3.34,8.14,7.45,14.69,3.74,6.16,5.62,10.49-3.65,3.68-11.77-6.86,9.98,19.88,3.49,18.43-4.04.16,14.53,22.97,2.67,15.4-9.93-5.64-14.89-6.27,2.45,15.44,12.54,16.92,21.75,30.54,2.23,15.48.71,5.17,5.86,14.82,2.01,15.51,1.63,6.17-2.55,6.58,1.78,15.55-5.76-1.13.02,9.32,1.56,15.58-11.18-5.49-2.54,8.89,1.57,18.77-8.95-3.17,4.57,16.14,1.18,18.58-.6,5.23,13.26,24.93.75,18.28,10.41,16.26-9.88,1.84.28,17.85,11.54,17.39,6.3,18-.25,17.3,4.57,10.41-6.78,4.87-.82,16.62,2.73,8.51-.19,11.35-1.43,15.82-19.64-13.93-9.36,2.02-2.1,14.89,19.17,27.88-9.96,6.97-4.31,20.38,1.54,9.29,16.45,31.5-4.26,17.66,3.06,9.93-16.28-2.95-4.24,15.15,1.28,7.34-1.14,10.62-4.24,12.85.86,11.54-10.99,8.99-8.57,19.64,5.12,13.35-12.27,3.1-8.84,12.92-18.87-6.1-19.05,3.42-19.23,12.31,8.22,17.3-20.16-2.62-22.51,5.32-22.31-16.37-8.5,3.63-12.92,5.54-38.61-32.27-4.66,8.18-13.12,6.31-4.85,1.73,21.73,34.98-9.95,9.98-4.75,1.92-20.47-7.12-10.07,9.88.86,7.46,18.19,31.32-6.88,12.62-15.11-8.73.47,13.07-5.29,13.31-8.86-.29-4.75,12.28-4.65,20.72-3.56,4.78,4.3,20.86-4.05,20.62-7.41.69,7.16,23.26-2.51,21.48-.99,6.89-2.74,12.91-1.98,21.32-4.75,2.91-3.23,11.98-.29,22.36-.28,7.16-.57,14.2-.38,21.61,4.07,163.03,77.32,343.93,133.32,479.29-2.24,21.69,54.7-12.92,61.04-11.09-3.75-18.59-8.28-37.98-12.71-56.49-31.05-133.43-73.23-264.34-102.5-398.02-1.54-7.04-3.05-14.08-4.51-21.13-2.82-8.41-10.36-21.58-4.89-21.79-1.38-7.06-4.63-16.06-3.41-20.63,19.05,13.1,15.62,4.07-1.62-18.47,10.66,5.36,7.72-2.58-2.5-17.54,12.23,7.49,8.56-.65,1.36-12.09,3.79-.46-3.21-11.48-1.4-13.5-8.84-16.51,10.9-3.7,6.29-14.81-9.28-15.78,5.67-6.91,7.77-10.76,5.57-.39-13.21-25.02,12.36-5.5,18.46,12.41,27.71,15.42,12.91-6.15-3.46-10.23,13.06-.98,14.58-7.58-15.76-23.87,33.9,16.86,14.89-12.25,33.73,23.65,14.34-6.98,14.11-19.89,35.03,28.68,5.05-8.01,6.52-13.65,9.48,2.37-20.8-35.43,6.01-16.58,32.54,22.57.61-18.96,6.86-21.99,10.45,1.18,12.66-5.58,6.36-20.57-1.55-10.24,6.38-10.75,5.82-19.53-.63-8.86,5.92-10.32,5.24-18.88-6.8-14.67-3.3-18.89,4.62-18.6,5.57-2.05,8.77-6.39,3.95-18.7-14.06-21.55,1.26-13.68,3.24-19.18,3.47-4-7.75-22.71,2.49-20.04-2.11-9.67,1.26-13.94,1.69-21.28-9.47-17.23,13.63-2.03.86-22.89-10.17-18.26-3.9-20.26-.02-24.89-1.32-5.58,4.91-3.67-.35-13.31,10.39,6,.99-7.84-.59-13.96-7.49-12.01,11.66,2.53-.83-14.64-.5-5.19.8-8.65-1.08-15.38-27.84-32.69,11.86,2.07-1.33-16.17-7.73-12.77.56-9.61-1.59-17-8.57-11.78-5.8-12.21-9.45-19.05-4.21-7.39,7.36,1,7.22-2.31-3.23-6.39-3.33-9.64-8.07-17.52-4.72-7.86,5.65-.62,5.56-3.81,2.96-3.26,9.87-2.53-2.77-21.29-8.14-11.21-8.54-14.65-9.36-18.51-15.42-18.46-12.22-18.28,6.32-2.75,3.04-2.99-6.25-18.25-3.3-21.21-3.98-9.9-22.17-33.96-3.56-21.17-8.7-11.61,7.27,1.47-4.62-13.31-2.82-5.71-12.42-18.18.8-7.82-.36-3.22,13.53,7.82-.3-8.84-5.59-8.42-5.09-10.74-3.78-12.24-3.27-6.07,3.62-1.99-1.8-10.18,6.76,3.98.18-5.37-2.53-10.84,8.68,5.93-3.56-9.06-9.42-17.65,8.73,6-12.64-18.09,4.84-3.32-5.62-8.33,2.16-3.23-12.3-20.37-8.12-9.46-16.16-18.84-10.92-14.93,11.64,10.3,24.48,21.81,18.38,14.39-4.13-9.44,3.09-7.47-5.1-20.86-6.14-8.75-5.21-10.4,2.92-4.84,5.84,3.26,3.92-1.22-8.27-15.96-1.51-6.61,7.27-2.88-5.6-20.74Z"/>
        <path class="cls-6" d="M928.6,450.54c-9.89-12.68-10.93-16.71-10.67-19.63-4.12-7.31-22.48-29.06-10.29-20.45-8.23-11.81,6.4-.96-9.72-21.05,1.14-2.83-6.37-14.5-8.94-21.43,2.45-1.91-8.08-16.98-7.97-21.6,12.49,8.35,3.22-5.21-6.01-18.87-36.79-41.22,24.55,15.54-4.97-18.69,6.11,1.4-14.05-23.61-3.8-18.36-5.22-10.22-7.11-17.24-2.49-17.89,13.51,8.23-1.02-11.7-1.05-17.27-2.81-8.36,16.76,5.53.53-16.51-4.51-10.33,20.6,8.83,2.24-15.61,32.28,26.19-3.52-15.83,4.09-14.56-2.19-11.37-14.04-32.46,9.3-18.42-2.53-11.83,30.13,11.49,9.97-18.05-5.38-14.75-4.13-22.9,10.35-17.82,8.62-.78,10.15-8.65,10.45-17.74,9.37-.02,14.22-4.53,10.27-17.8-10.47-19.79-8.91-27.5,9.8-18.01,22.61,13.4-1.36-19.71,9.06-18.36,6.26-2.8,33.3,15.27,8.03-18.85,13.69,4.83-3.17-20.77,6.73-19.49,7.88-.73-4.55-21.65,5.14-20.28,1.89-7.17,5.74-12.29,5.53-21.39-.36-9.25,3.3-14.38,4.78-21.62,17.74-86.9,19.42-178.61,27.09-266.11,7.18-102.24,9.36-205.54,10.85-308.06-.13,3.32-68.49.15-58.75,10.37,17.53,96.84,17.59,196.53,8.04,294.24-7.4,85.78-33.38,167.85-63.79,247.99-2.53,6.68-5.1,13.34-7.69,19.99-1.75,7.49-7.15,11.34-7.82,19.92-7.15,2.1,4.1,22.61-7.91,19.85,3.37,12.62-7.11,11.39-7.95,19.79-20.02-11.34-16.61.65-8.18,17.58,5.46,13.94,1.21,18.08-7.26,17.87-19.21-10.95,6.27,22.66-6.25,18.14-23.82-15.83,17.7,33.54-5.15,18.38-8.76-1.08,3.29,18.5-3.96,18.59,5.64,12.98-9.25,5.25-2.68,18.78-16.92-9.96-19.08-5.36-1.31,18.94-9.86-3.33-6.97,5.88.15,19.07-7.71-1.63,24.44,36.35,1.69,19.17-7.38-1.8,32.12,43,3.33,19.25-.92,3.7-11.96-2.68,1.85,15.79,8.8,13.47,21.63,30.99,2.7,16.75-11.91-7.22-3.63,5.76,3.46,17.55,3.19,7.88,8.46,17.85,4.14,18.2,14.26,18.93-9.18.16,4.72,18.69-21.77-17.14-11.53-2.29,5.23,19.03,4.63,9.19-.96,8.14,5.64,19.22,2.3,6.78-16.91-8,5.97,19.25,8.28,12.65,4.33,13,6.22,19.13-1.69,2.55,2.9,11.3,6.37,18.85-13.47-9.39-5.43,2.65,6.44,18.42,13.61,17.51,15.13,22.84,6.43,17.84,6.52,10.79-2.67,5.96,7.15,20.23-7.03-2.57-2.01,7,6.71,20.36,12.98,17.62-7.75,1.64,6.27,20.49-3.4,1.44,7.65,17.41,5.83,20.61,11.03,16.05,8.51,18.64,5.38,20.72,9.13,14.34-3.95,6.55,4.93,20.82,10.52,15.91-2.56,8.31,4.48,20.92-13.45-8.44,24.17,34.27,3.65,18.9,1.99,7.15-9.87.51,3.28,18.97,2.52,7.83,7.55,18.23,2.91,19.03-2.85,2.59-2.43,8.53,2.54,19.09,5.32,10.91-2.77,8.47,2.16,19.14-1.2,1.66,7.64,13.39,7.7,16.34,4.25,7.15,5.41,11.23-5.91,2.84-7.7-4.77,2,7.88,2.16,11.01.65,3.62,9.3,15.25-.75,8.21,5.74,11.75,5.04,17.13,1.03,19.26-8.49-2.34,6.13,18.48.64,19.29-5.75.53-4.27,8.36.26,19.31,2.27,7.78-10.43.57-.08,16.35,14.12,16.84,9.3,14.73.58,8.7-7.1-4.4-5.82-.44-.97,7.08-2.74,2.59-6.04,4.56-.72,15.06-5.51-.33-2.4,7.88-1.09,14.19-15.66-10.66,7.55,17.44-1.49,13.17-1.93,2.84,8.82,18.23-1.92,12.01-6.92-2.62-5.31,3.33-4.85,8.14-1.12,3.23,6.59,15.32.42,13.54,2.04,10.83-.01,17.65-5.15,21.45,11.63,20.57-14.66,3.3-5.79,21.25-4.03,5.05-1.93,16.3-6.35,21.07-.93,3.67,9.69,18.9,1.91,15.75-.91,3.72-6.59,2.68-6.43,7.48-.91,3.74-3.94,5.37-6.35,7.63,7.75,12.43-2.29,7.06-3.21,10.83,2.89,7.58.97,10.36,1.1,15.21-11.53-6.82-.22,9.2-8.77,5.38,6.51,11.24-9.28.17.92,15.12-8.62-3.88-9.12.36-8.67,5.56,11.22,15.97-3.39,6.11-5.25,9.01-1.57,3.19-9.79-.27-3.26,11.02,4.87,9.63-1.02,8.51-1.41,12.89-1.54,3.23-7.78,1.76-6.22,8.1.97,10.52-3.44,15.65-6.47,22.15-6.85,2.69-8.75,10.32-9.78,18.81,1.01,10.53-5.9,13.12-7.98,20.52-1.97,5.14-3.93,10.28-5.85,15.43-5.79,15.45-11.36,30.96-16.56,46.58-18.9,162.29,46.34,322.67,117.39,465.59,1.39,1.69,3.38,7.6,4.85,9.51-1.22-1.17,52.61-37.34,45.53-38.39-87.05-85.54-165.6-221.83-129.5-346.43,20.13-29.46,36.85-58.93,50.78-88.59,2.79-5.93,5.46-11.87,8.03-17.82,4.67-.44,7.13-3.06,8.29-6.94,1.16-3.88,1.02-9.03.51-14.51,1.69-3.29,1.9-8.02.8-14.03-1.19-6.1.42-9.38,6.74-7.91.17-4.68-.3-9.97.37-14.1-.48-5.28,4.19-5.37,7.15-7.16-.57-10.05,9.24-9.61,4.7-23.43,1.54-3.1-1.69-10.94,1.64-12.21.74-3.85-6.3-15.46,5.67-8.05,4.75.2,5.46-3.62,7.27-6.32,6.72,2.21,12.04,3.04-1.11-14.58-17.11-21.58-7.86-16.79-2.71-16.07,9.36,4.93,14.78,5.92,5.93-7.33,13.43,11.22,6.18,1.78,11.63,5.04-12.07-14.27,10.58,6.19-6.02-12.59,2.33.14-11.69-16.07-8.62-15.17-13.51-15.69,1.48-2.88,6.53,0-5.46-9.81-7.96-16.65-2.28-15.29-8.64-12.97-2.77-11.41,5.94-7-11.82-16.13-.82-9.42,1.77-11.12,7.48,3.19,1.44-7.12-.18-13.02,9.95,5.68,3.56-4.98,5.09-7.71-3.1-7.36-10.44-18.96-1.27-14.03-3.12-7.37-9.24-17.74.39-12.35,7.19,2.95,11.97,3.48,1.78-10.95-.09-4.33,4.07-4.41,5.25-7.47,4.84.6,5.13-3.35-3.36-16.09,9.99,5.75,6.95-1.53-.14-12.87-12.34-16.58,6.95-1.55,1.8-10.96,7.58,3.32,4.72-3.8,3.22-9.56,1.71-2.55-.95-9.49-1.74-14.56-2.42-6.7-6.71-15.27.6-12.26,17.7,13.4,9.62,1.02.75-12.16,2.14-2.17-9.01-17.64-6.25-19.22-.34-4.68-.37-9.05,7.52-5.53,10.55,7.49,6.1-.03,5.71-3.52-2.6-5.7,1.18-5.03-4.77-14.11,9.77,6.63,7.09.8,3.85-5.6,10.31,7.15,1.77-4.56-3.4-12.92-8.47-10.06-12.89-16.07-8.29-13.07-9.24-10.83-2-5.2-4.25-9.05-7.59-10.79,5.34-1.06,12.56,2.95-3.02-6.23,11.97,5.56,6.67-2.96-.53-3.74,7.52,1.11-7.02-16.63,14.12,10.92,12.79,6.4,6.21-3.37-9.72-12.91-1.04-7.4-6.87-16.39-10.32-11.9-14.44-17.6-13.51-18.24,1.69.12-4.56-7.7,2.01-2.69,9.86,6.73,11.79,5.54,10.58,1.24,1.33-.26-12.57-15.74-12.54-17.3-7.36-8.94-2.99-6.14,1.15-3.54,8.25,5.14,5.41-.78,9.94.71,5.43,2.39,12.97,6.92,6.57-2.44-14.01-16.98-6.47-12.37-8.8-17.59-8.03-13.81-14.58-26-2.99-19.89-1.34-6.82,13.62,2.81-3.75-19.74,15.8,13.22-12.77-17.9-7.95-15.59,7.66,5.15,2.37-2.61,3.44-3.98-.87-3.3,2.33-2.49,7.15-.03,1.35-1.01-10.43-15.1-12.41-19.35-4.27-6.55-10.86-15.37-10.71-17.41,5.88,3.68-3.51-7.86,4.72-1.75,9.02,4.79,1.68-6.62-6.72-18.93-13.71-17.62-11.97-19.62-7.44-18.67,8.93,5.35-9.81-16.8-8.16-18.39-13.38-16.62-25.34-31.66-8.87-18.1-1.2-4.1.86-4.79-9.57-17.78Z"/>
      </g>
    </g>
    <g id="_03" data-name="03">
      <g class="cls-3">
        <path class="cls-9" d="M197.48,392.23l-32.14-119.23s-6.6,2.5-17.15,6.49c-5.28,2-9.15,6.76-18.47,6.99-8.3,1.24-14.5,5.5-22.42,8.48-5.29.17.16,11.18-12.08,4.57-6.15-.53-5.86,5.44-12.32,4.66-12.21-6.53-7.39,3.97-12.32,4.66-.45,5.18-11.42-.23-12.08,4.57-4.7,6.21-20.33,1.03-22.42,8.48-13.42-3.88-11.61,6.58-18.47,6.99-9.56,4.98-14.33,9.31-17.15,6.49,5.61,5.61-10.92.84-15,14.4,3.55,12.37-5.48,13.63-15.38,14.76-8.39,2.64-9.97,12.82-17.63,16.92-5.5,6.27-9.72,13.81-17.63,16.92-17.06-6.03-20.2,1.12-15.38,14.76-11.84,5.8-10.78,18.62-15,14.4-1.2-1.2,4.22,14.04-3.61,20.96,4.71,12.08,3.74,19.71-3.7,21.48-.88,8.34-7.77,11.27-4.24,24.62-2.29,7.54,1.1,20.75-4.24,24.62,1.4,10.61,4.08,21.89-3.7,21.48-7.63,7.11-2.9,21.66-3.61,20.96,1.06,1.06,6.42,6.45,5.64,5.7,1.79,1.83,6.99,7.08,14.1,14.25.25.28,16.08,16.15,8.9,9,1.54,1.57,14.49,14.56,9.43,9.53-1.32-1.29,6.76,6.83,9.43,9.53-1.46-1.42.27.34,8.9,9,9.53,9.59,8.92,9.04,14.1,14.25,3.15,3.19,9.25,9.31,5.64,5.7-1.95-1.95,10.38.16,21.27-4.27,1.42-6.24,15.84-.76,21.8-4.38,2.88-1.91,9.27-.47,12.3-2.47-2.09-7.12,9.37-.77,12.69-2.55-.49-5.6,5.59-4.63,12.69-2.55,1.15-3.88,13.14,3.16,12.3-2.47,12.76,3.19,14.34-4.18,21.8-4.38,13.74-1.59,20.08-5.46,21.27-4.27,3.74,3.74,6.91-6.11,13.35-19.19,5.94-3.83,6.07-15.09,13.68-19.67,5.46-.64,6.3-6.1,7.72-11.1,1.88-4.53,7.57-5.34,7.97-11.46.89-5.62,6.9-6.11,7.97-11.46,2.63-3.78,5.21-7.5,7.72-11.1,15.01-21.59,27.03-38.87,27.03-38.87"/>
        <path class="cls-9" d="M-112.48,683.93c1.69,1.69,10,1.03,21.07-2.25,9.47,2.3,17.61,1.92,22.69-2.42,6.48,1.77,8.92-.72,13.32-1.42,6.21,1.11,2.6-7.77,14.23-1.52,7.13,1.75,5.85-5.02,14.84-1.58-.21-5.76,5.48-5.68,15.14-1.62.22-5.39,10.27-.94,15.14-1.62,6.34.79,13.64,2.6,14.84-1.58,1.58-3.8,12.83,2.18,14.23-1.52,13.1,7.99,10.29.25,13.32-1.42,10.18.76,20.1,2.16,22.69-2.42,12.67-1.68,21.61-1.71,21.07-2.25-1.22-1.22,1.02,5.13,7.6,18.27,2.13,5.42,8.87,16.05,8.18,19.68,4.6,6.76,6.79,11.2,4.8,11.55,1.36,3.7-.37,4.38,5.13,12.34,5.45,7.91,6.11,11.09,5.35,12.87,4.77,7.31,2.84,7.95,5.46,13.14,2.74,5.31,2.35,7.48,5.46,13.14,1.06,3.6,3.6,8.65,5.35,12.87,14.03,33.74,25.72,61.85,25.72,61.85,0,0-3.49,7.39-8.72,18.47-2.62,5.54-5.67,12-8.94,18.93-4.56,5.64-5.62,15.45-10.24,21.7,2.9,13.77-5.67,16.08-10.24,21.7-5.39,4.81-7.09,12.62-8.94,18.93-13.75,2.56-5.11,22.07-8.72,18.47,1.84,1.84-13.34-4.31-16.9,7.19-2.18,5.35-13.89,2.67-18.75,7.97,3.5,8.58,2.24,12.68-11.26,4.79-4.91.69.54,11.97-12.25,5.21-4.86,1.16-8.74,3.49-13.04,5.54-8.95-2.6-21.15-8.31-13.63,5.8-1.91,4.67-15.58-2.31-14.03,5.96,2.87,9.59-9.7,3.8-14.23,6.05-14.38-7.61-10.37,3.18-14.23,6.05-7.79-1.07-8.4,5.01-14.03,5.96-2.3,4.29-5.85,7.23-13.63,5.8-5.22,1.13-16.27-3.71-13.04,5.54-5.4.62-6.9,4.96-12.25,5.21-7.54-1.94-17.28-6.31-11.26,4.79-5.98,4.18-17.73,1.46-18.75,7.97-6.61,8.44-22.72,1.37-16.9,7.19,5.61,5.61-12.34-17.65-9.49-21.9-3.43-6.98-3.07-10.6-8.81-20.33-15.65-19.64,16.44,8.46-8.81-20.33-8.24-15.33-14.63-27.04-9.49-21.9-8.61-8.61-1.26-7.99,2.49-15.78-4.19-9.96,2.18-10.56,2.81-17.85-6.06-13.99-10.85-27.67,3.6-22.84,2.56-2.25,2.19-7.61,2.03-12.9,4.2-.94-11.59-22.01,2.16-13.68.29-5.12,9.8-1.13,2.25-14.3,6.16.54,8.85-2.47,2.33-14.77-6.93-12.7-3.57-15.17,2.38-15.08.28-5.58-1.31-13.06,2.4-15.23,7.4,1.51-5.04-16.82,2.4-15.23,2.86-3,5.29-6.4,2.38-15.08-2.95-8.72,3.22-8.25,2.33-14.77,5.98.36-5.03-16.18,2.25-14.3,1.65-3.75.89-9.8,2.16-13.68-1.4-6.53,10.78.65,2.03-12.9-.96-10.58-1.66-20.16,3.6-22.84,9.94,2.01,8.51-6.39,2.81-17.85-5.98-17.51.65-17.62,2.49-15.78Z"/>
        <path class="cls-9" d="M-68.72,309.42c4.81,4.81,7.51-1.08,16.12-6.78.03-7.12-.06-15.8,17.21-8.18,12.65,2.99,7.52-12.87,23.08-8.76,7.74,2.02,16.17,4.55,12.43-5.23,7.53,1.49,2.67-9.53,13-5.47,14.48,8.22,8.29-4.32,13.38-5.62,9.27,2.88,6.73-6.11,13.57-5.7,1.32-5.12,10.38-2.49,13.57-5.7,4.78-1.61.28-12.46,13.38-5.62,7.16.9,15.15,2.72,13-5.47,6.14.11,7.91-4.02,12.43-5.23,10.39-1.06,11.5-10.68,22.41-9.42,1.94-7.71,18.54.3,17.88-7.52,10.07-4.23,16.12-6.78,16.12-6.78L218.72,46.04l-31.55-150.35L2.9-26.6S-.26-21.03-5.54-11.74C-8.17-7.1-11.34-1.53-14.9,4.74c-4.86,4.97-9.29,11.46-11.73,20.66-9.33-3.51-7.45,4.38-6.51,11.46-4.25,1.89-3.63,8.79-6.81,11.98-1.04,5.33-10.91,1.92-7,12.33-3.45,3.05-2.58,10.48-7.1,12.51,3.55,10.11-7.79,5.32-7.1,12.51,2.88,9.38-10.4,2.56-7,12.33.81,7.18-7.43,5.22-6.81,11.98,2.24,8.38-10.54,1.6-6.51,11.46-9.84,1.8-13.22,9.34-11.73,20.66,1.21,11.03-9.56,9-9.36,16.48-2.52,12.04-7.84,15.46-8.44,14.86-7.05-7.05,4.4,10.23,6.61,21.17,7.86,12.23,7.48,16.95,6.77,21.7-.38,2.35,9.07,14.62,3.82,12.24-6.38-3.52-1.49,4.29,3.94,12.63-1.39,1.53,3.62,9.45,3.94,12.63.93,3.8,5.87,11.55,3.82,12.24-3.09,2.37-.14,10.42,6.77,21.7-3.17,5.56,8.52,23.08,6.61,21.17Z"/>
      </g>
    </g>
  </g>
</svg>